<svg xmlns="http://www.w3.org/2000/svg" viewBox="0 0 500 500"><g id="freepik--background-simple--inject-17"><path d="M333.75 36.37c-7.34 4.93-14.59 10-23 12.31-26.6 7.37-53.75-11.09-77.59-20.41C162.61.66 80.75 37.06 41 99c-30.51 47.53 21 94.67-2.18 144-20 42.56-25.19 106 26.06 145.91s85.11 44.29 143.3 17.37 102.51 5.16 158.1 14.72 101.61-26.05 110.3-70.34c9.06-46.2-26.29-87.25-25.77-133.11.27-23.74 13.13-45.69 18.67-68.48 6-24.83 7.79-52.37-5.91-75.09-23.88-39.59-76.24-68.59-120.35-43.6-3.22 1.83-6.36 3.9-9.47 5.99Z" style="fill:#fed2d2"/><path d="M333.75 36.37c-7.34 4.93-14.59 10-23 12.31-26.6 7.37-53.75-11.09-77.59-20.41C162.61.66 80.75 37.06 41 99c-30.51 47.53 21 94.67-2.18 144-20 42.56-25.19 106 26.06 145.91s85.11 44.29 143.3 17.37 102.51 5.16 158.1 14.72 101.61-26.05 110.3-70.34c9.06-46.2-26.29-87.25-25.77-133.11.27-23.74 13.13-45.69 18.67-68.48 6-24.83 7.79-52.37-5.91-75.09-23.88-39.59-76.24-68.59-120.35-43.6-3.22 1.83-6.36 3.9-9.47 5.99Z" style="fill:#fff;opacity:.7"/></g><ellipse cx="256.5" cy="468.5" rx="159.5" ry="14.5" style="fill:#fed2d2" id="freepik--Floor--inject-17"/><g id="freepik--food-group-2--inject-17"><path d="M399.79 156.7s2.31 4.72 1.38 6.77-2.78 15 6.37 21.49 18 1.23 22.32-1.51 5.58-2.69 6.16-1.61-37.09 30.77-39 31.32-6.32.55-13.73-2.72S368 200.72 367.9 198s-1.73-8.05-.82-9.69S396 152.54 396 152.54a9.45 9.45 0 0 1 3.79 4.16Z" style="fill:none;stroke:#263238;stroke-linecap:round;stroke-linejoin:round"/><path style="fill:none;stroke:#263238;stroke-linecap:round;stroke-linejoin:round;stroke-width:.5px" d="m367.9 197.99 18.36-20.5M388.23 175.69l7.08-8.07"/><path d="m396 152.54 11.17-19.44s3.37-.27 4 .39.46 3.59.46 3.59l-11.8 19.62" style="fill:none;stroke:#263238;stroke-linecap:round;stroke-linejoin:round"/><path style="fill:none;stroke:#263238;stroke-linecap:round;stroke-linejoin:round;stroke-width:.5px" d="m397.94 153.67 10.92-17.28 2.74.69"/><path d="M403.9 150s9.63-12.07 10.87-13.2 3.38.94 3.38.94.53 2.79-.29 3.54-14.86 16.83-16.28 19.4c0 0 18.19-18.14 19-19.41s2.19-1.75 3.33-.78 1.69 3.24.72 4.38-16.28 16.64-19 19.41a36.79 36.79 0 0 0-5.05 6.88" style="fill:none;stroke:#263238;stroke-linecap:round;stroke-linejoin:round"/><path d="M411.8 135.47s3-5.79 4-6.4 3.17-.39 3 1.05-4 6.67-4 6.67M416.51 153.59l-13.3 26.25M422.61 146.75l-16.29 37.05M401.58 175.29l7.86-7.94M425.41 143.19s4.62-6.24 5.5-5.28 4.52 1.92 3.15 3.17-9.42 10.37-13.55 20.19-7.19 16.39-7.19 16.39" style="fill:none;stroke:#263238;stroke-linecap:round;stroke-linejoin:round"/><path d="M407.79 180.44s10.89-4.9 13.21-6.77 21.62-15.22 22.43-15.71 2.76 3 2.85 3.95-1.63 4-2.94 4-21.8 13.36-23.84 14.72-7.62 2.68-9 3.41a10.39 10.39 0 0 1-3 1" style="fill:none;stroke:#263238;stroke-linecap:round;stroke-linejoin:round"/><path d="M428.45 174.92s-4.52 6.65-6.22 9.47-2.15 3.72-2.15 3.72M417.33 182.06l-3.41 5.64M436.91 162.41l7.27-9.42c2.66-3.43-1.1-4.79-2.9-5.66s-2.53 3.57-7 9.17-11 15.56-11 15.56M418.03 166.56l16.25-10.06" style="fill:none;stroke:#263238;stroke-linecap:round;stroke-linejoin:round"/><path d="M442.34 158.7s6-4.47 7.37-5.72-1.28-3.61-1.66-4-3.25 2-3.25 2M422.1 163.84c.8-3 10.26-20.2 10.8-20.44a4.22 4.22 0 0 1 3.77 1.09c1.13 1.24-1.2 3.11-2.5 5.81s-5 9.39-5 9.39M435.35 170.63l10-2.31s1.85 2.84.86 4.25-20.85 7-20.85 7M426.66 185.38l7.75-8.34" style="fill:none;stroke:#263238;stroke-linecap:round;stroke-linejoin:round"/><path d="m417.86 141.27-2.64.15s-13.78 13.59-14.86 17.1M421.7 140.79s.07 1.19.14 2.64S404 162.76 403 163.9s-2.66 3.44-2.66 3.44M431.5 139.39s-10.94 12-11.68 13.69M416.44 172.54l10.97-6.75M445.64 161.48s-4.22 3.11-10.88 7.67-17.71 10.39-19.71 11-7.74 2.28-7.74 2.28M445.9 170.32s-7.1 2.7-12 4.19a38.77 38.77 0 0 0-7.1 2.71M441.28 147.33s2.15 1.81 1.17 3.22-13.17 17.57-13.17 17.57M434.74 143.48S425 161 424.8 162.39" style="fill:none;stroke:#263238;stroke-linecap:round;stroke-linejoin:round;stroke-width:.5px"/><path d="M416.12 279.17c-2.95-2.83-6.37-4.73-9.93-4.57a12.64 12.64 0 0 0-6.88 3 11.74 11.74 0 0 0-8.89-.87 14.06 14.06 0 0 0-6.58 4.47s-5.53-1.06-9 1a10 10 0 0 0-4.4 5.34s-7.1.35-10.65 3.87-4.42 5.71-4.42 5.71a9.49 9.49 0 0 0 1.81 7.55c2.78 3.51 5.07 2.52 8.62 5.7s14.33 10.12 27.91 20.2 26.71 15.29 33 23.09 9.9 9.5 14.2 12.35 5.17-5.67 2.8-9.9 2.19-12.54-4.64-30.06-13-27.55-13.88-31.33a35.29 35.29 0 0 0-9.07-15.55Z" style="fill:none;stroke:#263238;stroke-linecap:round;stroke-linejoin:round"/><path d="M355.38 297.06s1.49-6.62 10.21-2.77 6.91 9.7 9.67 13.58 16.27 8.73 20.41 14.56 13.2 11.88 16.79 14.32 14.11 12.37 17.72 14.44a28.59 28.59 0 0 1 8.84 8.32c1.36 2.31 1.94 5.32 3.11 4.27s1.56-7.73 1.56-7.73" style="fill:none;stroke:#263238;stroke-linecap:round;stroke-linejoin:round"/><path d="M374.19 300.36s-.24-2.25 7.29-3.69 8.19-6.62 12-8.26 11.57-.47 13.8-.34a19.74 19.74 0 0 0 6-1.15c1.14-.31 5.6-3.65 5.6-3.65M392.77 299.66c-2.39.88-4.18 2.49-4.51 5.06-.63 4.9 7.23 10.54 11.65 8.63 2.29-1 10.56-9.09 8.09-11.46-2.81-2.7-10.31-4.03-15.23-2.23ZM420.79 312.87a21.4 21.4 0 0 0-5 .28c-1.92.33-4.57.61-4.83 2.83-.3 2.53 4 4.92 6 5 2.6.15 10.15-1.66 9.9-3.91-.3-2.95-3.14-3.99-6.07-4.2ZM419.64 300.36c-2.33.17-4.17 1.21-2.77 2.77 2.8 3.14 8.46 2 8.54.48.14-2.53-3.13-3.45-5.77-3.25ZM423.39 331.91c-2.2-.37-4.32.63-3.86 3.41.55 3.38 6.77 5.22 7.62 3.41 1.85-3.82-1.03-6.37-3.76-6.82Z" style="fill:none;stroke:#263238;stroke-linecap:round;stroke-linejoin:round"/><path d="M370.45 287.48s8.73-2.86 11.71 3.64M387.82 283.25s4.39 1.36 5 3.26M398.9 278.28s4.39 1.37 5 3.27M370.08 307.2s-6-11.88-8.78-9.43-2.11 4.35 1.5 6.41 9.71 6.14 11.53 7-4.25-3.98-4.25-3.98Z" style="fill:none;stroke:#263238;stroke-linecap:round;stroke-linejoin:round;stroke-width:.5px"/><path d="M424.6 64.47c0 22.27-16.56 19.33-37 19.33s-37 4.21-37-19.33c0-13.7 16.56-24.8 37-24.8s37 11.1 37 24.8ZM424.45 106.15a22.88 22.88 0 0 1 .15 2.7c0 9.88-16.56 14.1-37 14.1s-37-4.22-37-14.1a11.51 11.51 0 0 1 .25-3.64" style="fill:none;stroke:#263238;stroke-linecap:round;stroke-linejoin:round"/><path d="M424.53 69.66s1.48 3 3.55 6.22-1.78 3.56-4.15 7.12-.59 5.92-6.81 5.33-5.93-3.85-9.48-1.78-6.82 5-10.67 2.67-5.93-2.67-8.6-.89-5.92 4.44-10.37 1.48-5.93-2.07-9.78 1.19-8.3 1.48-9.48-2.67-2.37-2.33-5.93-5.33-.29-6.52-.29-6.52" style="fill:none;stroke:#263238;stroke-linecap:round;stroke-linejoin:round"/><path d="M385.66 51.54a3.44 3.44 0 0 1-5.58 0 3.42 3.42 0 0 1 5.58 0ZM397.72 48.07a3.44 3.44 0 0 1-5.58 0 3.44 3.44 0 0 1 5.58 0ZM405.86 46.41a3.44 3.44 0 0 1-5.58 0 3.44 3.44 0 0 1 5.58 0ZM374.72 48.07a3.44 3.44 0 0 1-5.58 0 3.44 3.44 0 0 1 5.58 0ZM368.91 54.1a3.44 3.44 0 0 1-5.58 0 3.44 3.44 0 0 1 5.58 0ZM380.6 56.89a3.44 3.44 0 0 1-5.58 0 3.44 3.44 0 0 1 5.58 0ZM361.75 58.4a3.44 3.44 0 0 1-5.58 0 3.44 3.44 0 0 1 5.58 0ZM386.33 45.13a3.44 3.44 0 0 1-5.58 0 3.44 3.44 0 0 1 5.58 0ZM405.64 51.91a3.42 3.42 0 0 1-5.58 0 3.44 3.44 0 0 1 5.58 0ZM411.82 55.69a3.44 3.44 0 0 1-5.58 0 3.42 3.42 0 0 1 5.58 0ZM395.08 55.76a3.44 3.44 0 0 1-5.58 0 3.44 3.44 0 0 1 5.58 0Z" style="fill:none;stroke:#263238;stroke-linecap:round;stroke-linejoin:round;stroke-width:.5px"/><path d="M368.22 91s1.73 8.12 11.43 9.3 17.17-6.16 16-11.83" style="fill:none;stroke:#263238;stroke-linecap:round;stroke-linejoin:round"/><path d="M370.19 90.14s3.55 3.78 5 4 3.5-3.91 3.5-3.91M380.12 90.88s-.71 4 .23 4.93 4.73 1.89 6.62.47-1.65-5.91-1.65-5.91M387.29 89.19s1.57 3.81 3.23 3.81 3.87-4 2.69-5.65M407.64 86.55s2.74 5.71 10.77 6.66 4.73-8.27 4.73-8.27" style="fill:none;stroke:#263238;stroke-linecap:round;stroke-linejoin:round"/><path d="M412.27 87.3s3.07 2.6 6.14 3.07 2.6-2.6 2.6-2.6M352.81 83a3.82 3.82 0 0 0-1.81 6c2.6 4.25 6.38 4 8.75 4s6.14 1.66 7.56 1.66a12.19 12.19 0 0 1 3 .5M420.41 93.18a14.89 14.89 0 0 1-6 2.16c-3.08.23-9 .47-13.72.47a34.14 34.14 0 0 0-8.46 1.07M423.17 91.8s5.65-1.19 6.12-5.21-4.29-5.44-4.29-5.44" style="fill:none;stroke:#263238;stroke-linecap:round;stroke-linejoin:round"/><path d="M352.19 90.6c-.34.64-.72 1.32-1.12 2-1.92 3.35 1.94 3.47 4.48 6.91s.86 5.89 7.05 5 5.74-4.12 9.39-2.22 7 4.72 10.78 2.18 5.8-2.94 8.54-1.29 6.13 4.17 10.43 1 5.83-2.35 9.83.73 8.35 1.1 9.35-3.1 2.26-2.47 5.67-5.6 0-6.53 0-6.53" style="fill:none;stroke:#263238;stroke-linecap:round;stroke-linejoin:round"/><path d="M411.57 105s-1.36 8.2-11 9.82-17.43-5.36-16.51-11.09" style="fill:none;stroke:#263238;stroke-linecap:round;stroke-linejoin:round"/><path d="M409.56 104.19s-3.37 4-4.77 4.25-3.67-3.75-3.67-3.75M399.68 105.39s.89 4 0 4.94-4.64 2.11-6.59.78 1.38-6 1.38-6M392.44 104s-1.4 3.86-3.06 3.93-4.05-3.82-2.94-5.53M372 102.33s-2.48 5.84-10.46 7.15-5.1-8-5.1-8" style="fill:none;stroke:#263238;stroke-linecap:round;stroke-linejoin:round"/><path d="M367.4 103.29s-2.95 2.74-6 3.36-2.72-2.48-2.72-2.48M426.59 96.26a3.81 3.81 0 0 1 2 5.87c-2.4 4.37-6.19 4.31-8.55 4.42s-6.06 1.94-7.48 2a12.2 12.2 0 0 0-3 .64M359.54 109.54a14.72 14.72 0 0 0 6.1 1.88c3.08.1 9 .06 13.72-.16a34.5 34.5 0 0 1 8.5.68M356.72 108.29s-5.7-.93-6.36-4.92 4-5.63 4-5.63" style="fill:none;stroke:#263238;stroke-linecap:round;stroke-linejoin:round"/><path d="M351.51 73.12a29.12 29.12 0 0 0 4.73 2.36c3.78 1.66 4 1 8 1s4 2.12 9.22 2.12 6.62-3.07 10.4-2.12 3.07 2.36 9.46 1.65 8.74-1.89 11.34-1.65 2.84 2.6 7.8 0 9.22-4.5 11.35-4.26" style="fill:none;stroke:#263238;stroke-linecap:round;stroke-linejoin:round;stroke-width:.5px"/><path d="M377.31 263.39a32.86 32.86 0 0 1 2.13-6.35c1.09-1.92 4.34-4.38 10.85-6.39s71.55-17.43 71.77-17.48c5.7-1.35 2.32 5.63 1 8-7 12.51-24.66 17.38-37.65 20.63a194.55 194.55 0 0 1-36.56 5.29c-13 .69-8.91-1.65-8.91-1.65" style="fill:none;stroke:#263238;stroke-linecap:round;stroke-linejoin:round"/><path d="M379.44 257s-7.14 3.58-11.57 2.55-10.16-7.63-6.4-13.75 23.4-10.06 26.94-11.64 44.86-11.65 49.1-12.73c8.45-2.14 18.1-3.05 22.22-1.49 5.82 2.2 6.45 10.44 2.33 13.19" style="fill:none;stroke:#263238;stroke-linecap:round;stroke-linejoin:round"/><path d="M361.47 245.84a18.64 18.64 0 0 1 5.16-16.32c7.24-7.3 15.92-6.29 25.22-7.5s42.49-11.06 48.83-11.9c12.76-1.7 14.67 5.51 13.4 8.66" style="fill:none;stroke:#263238;stroke-linecap:round;stroke-linejoin:round"/><path d="M372.73 239.5s1.95-5.13 11.07-8 15.7-2.39 30.81-6.53 23.05-10.52 30-9.56 6.65 3 6.65 3M367.87 259.59s2.36 7 18.48 7.54" style="fill:none;stroke:#263238;stroke-linecap:round;stroke-linejoin:round"/><path d="M378.62 250.51a58.7 58.7 0 0 1-7.73-.59 2.08 2.08 0 0 1 .57-4.12c5.11.71 10.42.7 12 0-.11-.67-.33-1.46-.54-2.22-.63-2.23-1.35-4.76.23-6.58 1.45-1.66 3.86-1.54 5.54-1.31a27.69 27.69 0 0 1 7.08 2.14c3.18 1.32 4.37 1.71 6 .36a6.82 6.82 0 0 0 2.06-3.69c.69-2.28 1.64-5.42 7.06-5.68a22.39 22.39 0 0 1 9.62 1.84 20 20 0 0 0 5.93 1.53h.21a14.71 14.71 0 0 0-.22-1.8c-.29-1.76-.65-4 .62-5.58a4.31 4.31 0 0 1 3.22-1.6c3.74-.33 6.66.72 9.49 1.75a24.88 24.88 0 0 0 5.07 1.45c.83.12.86.12 1.38-1.63s1.26-4.32 4.42-4.57c4.06-.34 6 .33 6.3.46a2.08 2.08 0 0 1-1.55 3.86h0a12.9 12.9 0 0 0-4.41-.18.47.47 0 0 0-.15 0 4.79 4.79 0 0 0-.62 1.56c-.49 1.69-1.53 5.2-5.94 4.59a28.36 28.36 0 0 1-5.92-1.66c-2.51-.91-4.88-1.77-7.7-1.52a1.3 1.3 0 0 0-.31.05 9.36 9.36 0 0 0 .2 2.31c.3 1.83.64 3.9-.72 5.4a4.24 4.24 0 0 1-3.64 1.22 23.78 23.78 0 0 1-7.12-1.78 18.2 18.2 0 0 0-8-1.58c-2.49.12-2.66.67-3.28 2.73a10.86 10.86 0 0 1-3.35 5.66c-3.62 3-7 1.65-10.25.3a23.6 23.6 0 0 0-6.05-1.86 5.42 5.42 0 0 0-1.77 0 12.69 12.69 0 0 0 .57 2.68 18.09 18.09 0 0 1 .74 3.46 3.35 3.35 0 0 1-1.07 2.76c-1.53 1.43-4.73 1.84-7.97 1.84Z" style="fill:none;stroke:#263238;stroke-linecap:round;stroke-linejoin:round"/><path d="M365.79 248.9s-2.63 1.13-2.44 3.38a1.38 1.38 0 0 1-2.09-1M363.45 253.29s-.2 1.46 2 1.51" style="fill:none;stroke:#263238;stroke-linecap:round;stroke-linejoin:round;stroke-width:.5px"/></g><g id="freepik--food-group-1--inject-17"><circle cx="63.5" cy="200.76" r="23.5" style="fill:none;stroke:#263238;stroke-linecap:round;stroke-linejoin:round"/><path d="M42.51 208.33A22.32 22.32 0 0 0 82 213.19M41.53 204.63a21.26 21.26 0 0 0 .49 2.13M59.17 178.88a22.32 22.32 0 0 0-18 21.88 23 23 0 0 0 .17 2.77M82.87 211.82a22.31 22.31 0 0 0-19.37-33.36 22.69 22.69 0 0 0-2.75.17" style="fill:none;stroke:#263238;stroke-linecap:round;stroke-linejoin:round"/><path d="M65.17 181.73a13.29 13.29 0 0 1 4.56.45c2.16.6 3.6 2.4 3.6 3a6.59 6.59 0 0 1-.6 2.16c-.36.95-7.79 11.63-7.79 11.63s-1.08.12-1.2-.6l-2.88-15.11s0-1 2.4-1.32M57.44 195.82l-8.18-5.57s-.68-.68.76-2.63a14.72 14.72 0 0 1 4.75-4.41c1.95-1.1 4.24-.84 4.66-.42a6.57 6.57 0 0 1 1.1 2c.43.93 2.72 13.73 2.72 13.73s-.68.85-1.28.43l-3.37-2.3M45.14 193.87c.74-1.79 2.24-2.94 2.77-2.94a6.59 6.59 0 0 1 2.16.6c1 .36 11.63 7.79 11.63 7.79s.12 1.08-.6 1.2L46 203.4s-1 0-1.31-2.4a16.19 16.19 0 0 1-.11-4.89M57.71 208.06 53 215s-.68.68-2.63-.77A14.58 14.58 0 0 1 46 209.5c-1.1-1.95-.85-4.24-.42-4.67a6.44 6.44 0 0 1 1.95-1.1c.93-.42 13.73-2.71 13.73-2.71s.85.68.42 1.27l-2.94 4.34M61 219.83a12.87 12.87 0 0 1-3.71-.48c-2.16-.6-3.6-2.4-3.6-3a6.59 6.59 0 0 1 .6-2.16c.36-1 7.79-11.63 7.79-11.63s1.08-.12 1.2.6l2.88 15.11s0 1-2.4 1.32c-.46.07-.9.12-1.33.16M65 202.63l12.71 8.65s.68.67-.76 2.62a14.61 14.61 0 0 1-4.75 4.41c-2 1.11-4.24.85-4.66.43a6.7 6.7 0 0 1-1.1-2c-.43-.94-2.72-13.74-2.72-13.74s.71-.8 1.28-.37ZM65.9 201l15.1-2.87s.95 0 1.31 2.39a14.65 14.65 0 0 1-.24 6.48c-.6 2.16-2.39 3.6-3 3.6a6.59 6.59 0 0 1-2.16-.6c-1-.36-11.63-7.8-11.63-7.8s-.1-1.08.62-1.2ZM80 190.42a13.23 13.23 0 0 1 1.05 1.58c1.1 1.95.85 4.24.42 4.66a6.43 6.43 0 0 1-2 1.11c-.93.42-13.73 2.71-13.73 2.71s-.85-.68-.42-1.27L74 186.52s.68-.68 2.63.76a19.7 19.7 0 0 1 2.09 1.72" style="fill:none;stroke:#263238;stroke-linecap:round;stroke-linejoin:round"/><circle cx="134.92" cy="76.18" r="32.75" style="fill:none;stroke:#263238;stroke-linecap:round;stroke-linejoin:round"/><path d="M105.67 86.72a31.09 31.09 0 0 0 55.06 6.78M104.3 81.56a29.29 29.29 0 0 0 .68 3M128.88 45.69a31.08 31.08 0 0 0-25 30.49 32.79 32.79 0 0 0 .23 3.86M161.92 91.58a31.08 31.08 0 0 0-27-46.48 30.45 30.45 0 0 0-3.84.24" style="fill:none;stroke:#263238;stroke-linecap:round;stroke-linejoin:round"/><path d="M137.25 49.65a18.58 18.58 0 0 1 6.36.63c3 .84 5 3.34 5 4.18a9.3 9.3 0 0 1-.84 3c-.5 1.33-10.86 16.2-10.86 16.2s-1.5.17-1.67-.83l-4-21.06s0-1.33 3.34-1.83M126.48 69.29l-11.41-7.76s-.95-1 1.06-3.66a20.44 20.44 0 0 1 6.62-6.15c2.71-1.53 5.9-1.18 6.5-.59a9.19 9.19 0 0 1 1.53 2.72c.59 1.3 3.78 19.14 3.78 19.14s-.94 1.18-1.77.59l-4.7-3.2M109.33 66.58c1-2.49 3.12-4.1 3.86-4.1a9.11 9.11 0 0 1 3 .83c1.34.51 16.21 10.87 16.21 10.87s.17 1.5-.84 1.67l-21 4s-1.34 0-1.84-3.35a22.41 22.41 0 0 1-.14-6.81M126.85 86.34 120.27 96s-1 .94-3.67-1.06a20.51 20.51 0 0 1-6.14-6.62c-1.54-2.72-1.18-5.91-.59-6.5a9.19 9.19 0 0 1 2.72-1.53c1.3-.6 19.14-3.79 19.14-3.79s1.18 1 .59 1.78l-4.11 6M131.41 102.75a18.16 18.16 0 0 1-5.18-.67c-3-.84-5-3.34-5-4.18a9.24 9.24 0 0 1 .83-3c.5-1.33 10.86-16.2 10.86-16.2s1.51-.17 1.67.83l4 21.06s0 1.33-3.34 1.83c-.64.1-1.25.18-1.85.23M137 78.78l17.73 12s.94 1-1.07 3.66a20.51 20.51 0 0 1-6.61 6.15c-2.72 1.53-5.91 1.18-6.5.59a9.17 9.17 0 0 1-1.54-2.72c-.59-1.3-3.78-19.14-3.78-19.14s.99-1.13 1.77-.54ZM138.26 76.51l21.05-4s1.34 0 1.84 3.35a20.49 20.49 0 0 1-.33 9c-.84 3-3.35 5-4.18 5a9.17 9.17 0 0 1-3-.83c-1.34-.5-16.21-10.86-16.21-10.86s-.17-1.49.83-1.66ZM157.88 61.76a19.07 19.07 0 0 1 1.49 2.24c1.54 2.72 1.19 5.91.59 6.5a9.11 9.11 0 0 1-2.71 1.5c-1.3.6-19.14 3.79-19.14 3.79s-1.18-1-.59-1.78l12-17.72s.94-.94 3.66 1.06a29.22 29.22 0 0 1 2.9 2.42M101.65 361.57s-1 2.38-1.23 3a4.77 4.77 0 0 0 0 1.9l.8-.36.1 2.36 1.18-.22.84 1.87 1-1.72.68.81s1.17-1.32 1.13-1.78 2 .55 2 .55 1.49-2.75 1.4-3.67a3.29 3.29 0 0 1 .47-1.81l1 1.81 1.67-.91.76-.82 1 1.48.76-2.58.21-1.69 1 1.48 1.59 1 .87-3.43-.41-1.26-.35-.8 1.12-.34s-.34-1.13-.52-1.53l-.54-1.2-.07-1.25.6-.43 1.13-.34-.4-1.26 1.3.06 1.24 1.68 2.19-.82.82.76-.12 1.17.43.61-.4 1.61s-.54.57-.36 1a9 9 0 0 1 .1 2l-.16.71 2.27-1 .81-.68.57.54a2.57 2.57 0 0 0 1.64-.25 19.55 19.55 0 0 0 2.13-2.4l.87 1.22.45-1.49v-2.09l-1-2.92h1.11l2.07 2.11 2.11 1.14-.18-1.84 1.94.41 1.65-.25-1.64-2.95 1.39-.46-1.35-2-.94-1-1.54-.59-1.64-1.51s-1.16-.44.71-2.71a70 70 0 0 1 5.13-5.34s11.35-5.39 19.67-9 13.19-7 16.77-11.17 5.66-8.45 5.8-11.72-2.52-9.91-3.14-10.59-.85-1.54-8.64-2.86-19.3 1.91-23.7 3.88-18.13 9.55-19.54 10.34-5 2.86-5 2.86l1.15-3.88a1.16 1.16 0 0 1-.81-1.08c-.09-.92-.53 1.68-.53 1.68l-.59-2.77-.14-1.38-1.17-.12-.41-1.26-.92-2.78-1.19.21-.3-.67-2 1.87-.35-.71-1.6-.72-.42 2.27 1.45 2.55-2.76-2.61-2-1-1.24.08.53 1.2-1.56-.27.24.54-1.36 1.25-.29.77-.88-2.33-1.45 1.77-.21-1.19-.84-1.86c-.18-.4-1.65-2.62-1.65-2.62l-.38 1.29-.55-.88-1.74-.66-.7-.49-.93 1.86-.93.42a7.89 7.89 0 0 0-.13 1.49c0 .46.17 2.17.17 2.17a16.06 16.06 0 0 1 .51 1.85 10 10 0 0 0 .64 1.79l-1.78.32h-1l-1.26.4.92 1.35-1.55 1.17 1.85.93.84.43-.63.76 1.74.66 1.56.27-.76.81-1.7.13L94 309a31.73 31.73 0 0 1-3.15-2.75c-.18-.4-1.11-1.74-1.11-1.74l-1.08.8-1.15-.44-.61.43-2.29-1.54-.43 2.24-1.74.78.17.72-2.12.63-3.38 1L76 310l2 1.06 1 .69-1 .61 1.35.52.7.49-.36.64 1.13 1.09a12.93 12.93 0 0 1-2.43.29 12.38 12.38 0 0 0-1.63-.07l-1.07.47.76.63-1.87.83-1.21.86-2.37 1.34-.93.42.62.68-2.43 1.73-.83 1 1.16.44 1.16.44 1.68.53 1.67.53.55.88 1.13 1.09 1.83 1.58.3.67-1.48 1-1.13-1.09-1.72-1-.77-.3-1.25.08-2.31.55a2.12 2.12 0 0 0 .47 1.07c.5.74-1 1.07-1 1.07h-1.11l2.12.81 1.07 1s-1.85.51-2.52.81a7.82 7.82 0 0 0-1.48 1l.36.8-1.61 1-2.19 2.26 1.35.51a12.39 12.39 0 0 1-1 .94c-.48.37 2.13.49 2.13.49s1.28.71 1.81.47 3.31-.84 3.31-.84l-1 1.72 2-.89.37.47 1.79-.64.67-.3-.16 2.15.73-.16 1.2-.54.8-.36.34 1.48-1.52 2 .21 1.18a6 6 0 0 0-.89.88 3 3 0 0 0-.52 1.35s1.11 0 1.77 0a10.21 10.21 0 0 0 2.55 0c.4-.18.71 1.6.71 1.6l.86-.23 2.81.19 3-1.83 1.08-.8.8-.36-1.41 2.23a10 10 0 0 1-1.49 1.31c-.4.17-.83 1-.83 1l1.28.7-3.71 1 .49.74-1.21.86a18.3 18.3 0 0 0 2.69 1.36c.52.09 2.15.16 2.15.16l-.7.95 1.84-.18 1.45-.33-.13 1.5 1.88-1.16 1.62-1 .14 4.25 2.08-1.09-1.18 3.09-1.23 4.07 1.89-1.16 1.86-.84 2-.57.87-.55Z" style="fill:none;stroke:#263238;stroke-linecap:round;stroke-linejoin:round"/><path d="M118.18 336.27s4.32-1 10.39-2.81a165 165 0 0 0 19.58-7.08c13.74-6.14 21.47-15.68 23.51-17.55a62.47 62.47 0 0 0 5.67-7l-.29-2.44s-1.84.19-1.48-.45l.71-1.28M171.66 295.23a100.31 100.31 0 0 0-18.93 3.82c-8.49 2.84-19.43 8.06-24.44 10.45s-14 7.05-14.9 7.47-11 5.54-11 5.54a18.75 18.75 0 0 1-1.63 4.25c-1.21 2.3-1.62 4.24-2.24 5a14.6 14.6 0 0 1-1.3 1.38l-.46-1.39a13.54 13.54 0 0 1-1.49 2.74c-.48.38-1.09.81-1.09.81l-2.8 1.25-.77-.3.47-1.81s-2 1.55-2.43 1.73-.94.74-1.48 1-1.67.91-2.6 1.33a5.63 5.63 0 0 1-2.51.48 15.57 15.57 0 0 0-2.49.15c-.59.11-1.84.18-1.84.18s-.53.24.19-1.36 2.66-5.51 2.66-5.51a18.08 18.08 0 0 1 1.61-1c.4-.18 2.83-1.9 2.83-1.9l1.28-.73s-1.24-.25-.82-.76 2.37-.42 2.89-.33-.4-1.26-.4-1.26l1.27-.73c-.49-.74-1.65-2.62-1.65-2.62l.17-1a3 3 0 0 0-.8-1.08l-.45-.28a9 9 0 0 1 3.16-.45c.91.23 2 .41 2.85.64s1.87.61 2.58.77a11 11 0 0 0 2.27.42c.46 0 1.16.44 2 .09s2.37-.42 3.66-1.48 5.79-3.87 6.47-4.49a24.09 24.09 0 0 1 3.83-2.52 29.14 29.14 0 0 0 3-2 24.41 24.41 0 0 1-5.35 1.27c-1.9.05-7.64-.26-7.64-.26a19.12 19.12 0 0 1-3.65-.29 26.6 26.6 0 0 0-3.64-.62s-1.92.7-2.46.94-.82 1-1.25 1.85-.12 1.17-.87 2a18.58 18.58 0 0 1-2.9 2.1l-1.2.54a3.58 3.58 0 0 1-1.71.12l.6-1.87-1.84-.51.45-1.16s0-.65-.93-1.34a39.06 39.06 0 0 1-3-2.82l-1.21-.9" style="fill:none;stroke:#263238;stroke-linecap:round;stroke-linejoin:round"/><path d="m98.88 310.65 1.36.14c1.24.12 3 .3 3.85.42 1.37.19 3.26.14 4 .3a7.54 7.54 0 0 0 2.41 0 13.46 13.46 0 0 1 1.71-.12l-5.21-1.3-3.8.1v-.66l-2.64.54ZM111.74 302.19l1.11 1.42-1.85.51 1.07 1-.64 1.08.54 1.2 1.54.59 1.45 1.44 2.58-.68s-3.23 2.09-3.8 1.54-5.41-1.74-5.41-1.74-1-2.26-.52-3.29a6.5 6.5 0 0 1 1.94-2.46 4.73 4.73 0 0 1 2-.57l-2.68-1.69 2-1.35h-1.77" style="fill:none;stroke:#263238;stroke-linecap:round;stroke-linejoin:round"/><path d="M122.59 306.77s-2-.08-2.63-1.22-1.76-3.21-1.76-3.21l.48 2.5-6.43-5.44 5.87 6.33-3.9.94 4.47-.39c.46 0 1.66.86 1.66.86l.89.56-2.47 1.3M108.33 308.51s-2.29-.1-2.65-.9.14-4.7.14-4.7a12.9 12.9 0 0 0-1.3 2.82 5.84 5.84 0 0 0 .14 1.38s-3.64-3.49-4.12-4.56-1.55-4.9-1.55-4.9 1.21 5.22 1.63 6.15a4.74 4.74 0 0 0 1.6 2.16 17.36 17.36 0 0 1 2 1.52 5.16 5.16 0 0 0 1.78 1.13 8.56 8.56 0 0 1 1.85.93M95 310.62s-5.12-1.07-5.83-1.23-3.34.05-3.78-.23-2.76.27-3.22.32M93.26 310.61a27.35 27.35 0 0 1-3.33 1.49 7.11 7.11 0 0 0-2.49 1.59" style="fill:none;stroke:#263238;stroke-linecap:round;stroke-linejoin:round"/><path d="M85.27 312.42s2.15-1.28 2.49-1.59a9.3 9.3 0 0 1 1.54-.83h.79l.59-.11M83.58 335.1s4.27-3.67 6.94-4.87a25.61 25.61 0 0 0 5.6-3.94c1.08-.8 4.45-3.27 4.85-3.45" style="fill:none;stroke:#263238;stroke-linecap:round;stroke-linejoin:round"/><path d="M96.72 325.86a20.33 20.33 0 0 1-.38 2.73c-.33 1.75-.54 3.44-.94 3.62a14.59 14.59 0 0 0-1.86 2.27M90.52 330.23a21.51 21.51 0 0 0-1.39 1.91 22.17 22.17 0 0 0-1.3 2.82M98.16 324.42l-3.16-.34a8.8 8.8 0 0 1-2.92-.45M86.5 350.59l2.76-.27 3.89-3.82a12.31 12.31 0 0 0 2.16-1.61l2-3.31 1.6-2.16-1.25.08 1.39-1.9 1.07-1.92.93-.41-2.61-.12.53-1.67.89-.88s-.18 1-2.21 2.59a32.21 32.21 0 0 0-5 5.27c-.48.7-1.34 2.36-1.69 3s-.43 2.27-.77 2.58a14.24 14.24 0 0 0-1 1.27M78.8 345.88l2-.44 8.2-3.64c1.87-.83 5.54-4.07 5.54-4.07s-3.29 1.95-4.86 2-5.51.55-5.51.55l-1.32.27" style="fill:none;stroke:#263238;stroke-linecap:round;stroke-linejoin:round"/><path d="M94.51 337.73a19.55 19.55 0 0 0 4.5-4.25 26.72 26.72 0 0 1 6.57-6.78 40.42 40.42 0 0 1 8.17-4.62 52.12 52.12 0 0 0 5.75-2.89 24.38 24.38 0 0 1 2.73-1.06 22.69 22.69 0 0 0 3-1.5c.47-.37 3.49-2.2 3.49-2.2s-5.62 1.39-6.39 1.09a18.94 18.94 0 0 0-3.65-.28l-1.58.39-1.38.13M109.5 316.15a47.84 47.84 0 0 0-6.19-.6c-1.37.14-6.31 2.35-7 2.51s-3.19 1.11-3.19 1.11l1.37 1.62" style="fill:none;stroke:#263238;stroke-linecap:round;stroke-linejoin:round"/><path d="m91.44 316.54.93 1s5.07-2.27 6.91-2.45 4.68-1 6.11-.65a18.05 18.05 0 0 0 4.31 0h2.09M86.04 328.08l.27-3.32-1.39.46-.08-2.68-1.53.52-.4-1.26-2.12 2.07-.51-1.86-1.62 1.37-1.22-2.01-.76.81-1.53-.91.02 1.11-1.66.58-2.29-.1 1.63 1.84M82.23 331.38s-4.7-.14-7.25 1.32a40.53 40.53 0 0 0-5 3.51M82.65 330.87a9.15 9.15 0 0 1-4.73-4.12M137.5 336.9a56 56 0 0 0-3.35 5c-2.32 3.76-2.33 5.53-3.19 7.19s-1.06 3.35-2 4.42-1.38 1.58-1.38 1.58" style="fill:none;stroke:#263238;stroke-linecap:round;stroke-linejoin:round"/><path d="M133.79 342.56a9.59 9.59 0 0 0 1.81 5.11M137 337.14a93.44 93.44 0 0 0-9.89.43c-4 .48-8 1.35-8 1.35l1 3.38-.87 2-.44 1.15-1.23 1.19-1-.17-1.44 3.2-1.4-3.85-.68 4.94s-.14-4.25-.1-5.23a7.81 7.81 0 0 1 .59-3 27.85 27.85 0 0 0 1.12-3.22L112 344l-1.47 2.42-1.26 1.84-1.2.54-.63-3.56-2.16 3h-2.87a28.73 28.73 0 0 1 .86-4.87c.43-.83-2.76 1.71-2.76 1.71s1.84-3.05 2.12-3.5a15.81 15.81 0 0 1 1.46-2.09c.83-1 1.73-2.22 1.73-2.22l.61-.43-1.56-.26.52-1.35-2.61-1.23-1.86-.93 1.07-.47-.08-1.25 2.18-.49 2.13-1a7.18 7.18 0 0 0-.34-1.12c-.18-.4.87-.56 1.51-.2s.52.09 2.57 1.09a32.26 32.26 0 0 0 4.57 1.64 11.06 11.06 0 0 0 2.35.23s1.09.31 4.2-2 9.08-7.26 9.08-7.26a228 228 0 0 1 19.75-13.79c9.93-6.05 16.22-9.18 18.3-10.59a52 52 0 0 1 4.56-2.68" style="fill:none;stroke:#263238;stroke-linecap:round;stroke-linejoin:round"/><path d="M118.4 338.56s-1.57-1.37.37-3.84 12.91-8.33 19.21-13.55 29.05-14.11 31.71-15 4.31-1.45 4.31-1.45M119.59 314s9.88-1.53 16.62-4.71a125.69 125.69 0 0 0 18-10.46" style="fill:none;stroke:#263238;stroke-linecap:round;stroke-linejoin:round"/><path d="M157.72 321.3s-14.54 2.19-18.19 3.34a22.52 22.52 0 0 0-5.12 2.13l-1.13 5M123.82 334.22l-2-1s4.56-2.68 5-2.86a15.65 15.65 0 0 0 1.69-1.24l-1.28 2.5 1.66-.58.24 2M114.53 331.34l6-4.13-9.34 2.74M146.84 315.93a84.76 84.76 0 0 0 14-4.36c5.87-2.63 7.14-4.8 7.14-4.8M108.88 348.74s1.52 2.68 1.37 4.51.41 4.14-.37 5.61-2.26 3.89-2.26 3.89V360l-.9 1.21v-5.11l-1.58 1.83-.4 3.06-1.74 3.19-.35-2.56-1.06.47-.53-1.52M95.68 357.52l-1.49-.13 2.15-3.04-2.15-.16 4.03-2.44.31-1.1-1.2.54 1.82-1.3-1.1-.31 2.08-1.08.8-.36.86-.22M116.23 333.54a20.19 20.19 0 0 0-3.61 4.64c-1.11 2.27-3 6-3 6M113.74 335.9a35.86 35.86 0 0 1-3.48-1.82 13.48 13.48 0 0 0-3.77-1.68" style="fill:none;stroke:#263238;stroke-linecap:round;stroke-linejoin:round"/><path d="M115.69 334.32a10.86 10.86 0 0 0 .57 3.65c.65 1.84.84 5.84.52 6.34M112.62 338.18s-3.14 2.11-5.22 3.4M106.38 350s-2.18 5.05-4.14 6.64a34 34 0 0 1-5 3.12l-1.31 1.83" style="fill:none;stroke:#263238;stroke-linecap:round;stroke-linejoin:round"/><path d="M105.82 351.16s-2.83 1.62-4.6 2.42l-2.52 1.12M110 172.08a5.49 5.49 0 0 1-1.89-.11c-1.68-.23-.79-2.46-1.46-2.91s-4.8.45-4.8.45 3.35-.11 3.69 0 .33 2.35.33 2.9 2.46 1.23 3.46 1.23a14.25 14.25 0 0 1 1.79.11s-.67.23-.78 1.46-.67 1.9-1.45 2-2.89.79-2.89 1.68a4.27 4.27 0 0 1 2-.67c1 0 2.57.56 3-.22a30.38 30.38 0 0 0 1.23-2.79 3.81 3.81 0 0 0 1.9.78 8.84 8.84 0 0 0 3-.89c.34-.23 2.35-1.9 2.46-2.46s.34-2.24.34-2.24a7.51 7.51 0 0 1 1.34-2.23 4.32 4.32 0 0 0 1.45-2.57 5 5 0 0 0-.78-2.68 4.17 4.17 0 0 0-1.9-.9h-1.57a10.09 10.09 0 0 1 2.24 1.12 2.76 2.76 0 0 1 .45 1.57s-.45 1.56-.79 1.78l-1 .67-.9.9c-.33.33-1.34 1.11-1.34 1.11a6.61 6.61 0 0 1-.67-2.34v-3.35c0-.34.12-1.57.12-1.57v-1.23l-.23-.44a32.3 32.3 0 0 0-1.45 3.24 9.6 9.6 0 0 1-.89 1.9c-.34.67-.79 1.9-.79 1.9l-.33 1.22a4 4 0 0 1-1.34 1.12 5.31 5.31 0 0 1-.45-1.67 15.14 15.14 0 0 1 0-2.24 15.41 15.41 0 0 0 .11-2 10.52 10.52 0 0 0-.78 2 11.49 11.49 0 0 1-.33 1.68c-.23.78-.45 1.45-.45 1.45s0 .11-.56.11a3.08 3.08 0 0 1-.89-.11l-.34-1.45s-.89-.67-1.45-1.12-1.56-1.12-1.56-1.9a16.24 16.24 0 0 1 .67-2.9 12.56 12.56 0 0 0-1.34 3.12 3.89 3.89 0 0 0 1.56 2.91c.56.22.78.67 1.34 1.23a22 22 0 0 1 1.68 1.79c.24.33 1.24 1.56 1.24 1.56Z" style="fill:none;stroke:#263238;stroke-linecap:round;stroke-linejoin:round"/><path d="M119.49 173.08a15.33 15.33 0 0 0-.11-1.78c-.11-.78-.22-3.13-.22-3.13s-1.57 4.36-2 5.47-1 1.57-1.78 1.34a4.86 4.86 0 0 1-.75-.27 1.63 1.63 0 0 1-1-1.56c0-.49.05-1.06.05-1.52A9.81 9.81 0 0 0 113 169s.56-.78 1.23-.33 1.56 3.35 1.68 4.24a9.62 9.62 0 0 1 0 1.9M115.13 162.92a16.86 16.86 0 0 0-9.38 2.79" style="fill:none;stroke:#263238;stroke-linecap:round;stroke-linejoin:round"/><path d="M104.3 166.49a17.11 17.11 0 0 0-2.68 2.24c-.45.67-.9 1.45-.9 1.45a19.75 19.75 0 0 0-3.91 2.68c-1.34 1.34-2.9 5-3.24 9s.34 7.37.9 8.38 1.45 2.76 1.45 2.76 1.34 5.81 5.36 9.16 9.5 5.47 19.1 4 12.74-2.9 17.1-7.15a19.75 19.75 0 0 0 6-14.63 33.58 33.58 0 0 0-2.79-13 16.25 16.25 0 0 0-2.35-3.46 20 20 0 0 0-8.71-6.26c-5.7-2-9.28-1.45-10.73-.89a14.39 14.39 0 0 0-2.34 1.11M110.64 186.6v1.45" style="fill:none;stroke:#263238;stroke-linecap:round;stroke-linejoin:round"/><path d="M113.35 176.55s-2.38 1.94-2.68 8.71M127.43 176.08a9.77 9.77 0 0 1 1.44 1.7M119 173.42a11.35 11.35 0 0 1 7 1.59M110.44 174.65a14.08 14.08 0 0 0-10.5 3.8M126.07 165.82a15.18 15.18 0 0 1 3.14-.78M119.94 170.4a12.54 12.54 0 0 1 5.22-4.21M113 169s.67.89 1.45.67-.22-1-.22-1M109.66 168.84s.11-.22.56.56.33 1.45.67 1.79 1.79 1.45 1.79 1.45M117.14 169.17s.23.12.23.56-1 1.68-1 1.68M114.25 241.19s.27-5.18-5.56-8.17-14-3.69-18.4-1.44-8 6.63-7.44 12.19 3.76 10.46 8.3 12.6 15.1-1.81 19.31-5.62 3.79-9.56 3.79-9.56Z" style="fill:none;stroke:#263238;stroke-linecap:round;stroke-linejoin:round"/><path d="M128.22 220.26s-19.29 2-31.89 6.2S75.6 234.07 71.8 239s-7.21 13.25-5.73 18.3 4.13 9.67 12.3 12.32 19.65.82 26.9-2.28 20.65-15.61 24-18.62 8.92-11.24 10.6-14.8 1.89-7.07-1.5-10.12-10.15-3.54-10.15-3.54Z" style="fill:none;stroke:#263238;stroke-linecap:round;stroke-linejoin:round"/><path d="M67.64 261.7S70 270 80 275.48s27.11 2.41 34.87-4.31 18.92-18.12 23.67-28.19 3.26-15.61 1.85-17.23M118.21 223.75c-4.14.66-8.5 1.52-12.52 2.3-8 1.55-15.74 3.68-21.43 6.55s-10.89 6.69-11.17 7.29" style="fill:none;stroke:#263238;stroke-linecap:round;stroke-linejoin:round"/><path d="M132.22 241.64c2.17-2.2 5.82-6.49 6.21-10.77.47-5.09-2.92-8.14-9.17-8.19a57.14 57.14 0 0 0-7.68.58M127.63 246.43l2.49-2.68M107.05 262.8c1.81-1 3.53-1.94 5.09-2.81 4.56-2.53 10-7.76 13.87-11.86M72.46 242.25s-5.84 5.21-4.68 13 9.47 12.67 17.51 14.05c5.76 1 13.17-2.06 19.67-5.41M55.13 103.59s-8 1.45-9.91 1.38-3.84-.6-4 1l-.22 1.67s-1.5-.56-2.2 1.3 2.69 7 7.4 10.92 12.27 11 17 13.9 17.58 9.42 17.58 9.42 2.89 3.66 4 5.35 4.27 6.56 4.22 5.47.16-5.49.16-5.49l-2.26-3.64s14.35 3.3 16.92 3.84 6 1 6 1l5.55 5.09s5.22-2.51 8-3.6 10.63-1.52 10.63-1.52l.43-1.13 7.36 2.58s4.49 6.18 7.68 10.17a50.4 50.4 0 0 0 7.67 7.38s-2-10.38-2.76-13-1.48-5.68-1.48-5.68 10-5.61 11.38-8.08a74.53 74.53 0 0 1 4.37-6.47s-13.43 3.89-16.17 4.35-5.36 2.89-8.31 2.2-12-5.6-14.59-8.3-18-14.06-20.11-15.72-3.31-2.54-3.31-2.54l3.63-.55a60.83 60.83 0 0 1-5.08-7.47 39 39 0 0 1-2.88-7.07l-.1-1.35-12.44 7.47s-13.06-3.87-21.08-4.13a45.42 45.42 0 0 0-13.08 1.25Z" style="fill:none;stroke:#263238;stroke-linecap:round;stroke-linejoin:round"/><path d="M49 108.09a1.2 1.2 0 1 0-2.24-.85 1.18 1.18 0 0 0 .69 1.54 1.2 1.2 0 0 0 1.55-.69Z" style="fill:#263238"/><path d="M64.2 108.06a2.91 2.91 0 0 1 .29 1.85c-.38 3.27-1.78 9.79-3.94 11.54S54.61 123 54.61 123M61.58 106.88a3.65 3.65 0 0 1 1.89.44M59.68 124.32s4.77 1 9.95 2.49 3.46 2.16 1.49 2.27-5.12 1.69-6.92.8-4.27-4-4.27-4M54.45 111.81a9.81 9.81 0 0 0-.08-1.67M41 107.64s-.78 2.06 1.5 5.06a11.63 11.63 0 0 0 4.5 3.84s2.94 2.4 5.49.16a5.21 5.21 0 0 0 1.51-2.25" style="fill:none;stroke:#263238;stroke-linecap:round;stroke-linejoin:round"/><path d="M47 117.81s3.89 3.82 6.63 3.36 4.23-6.09 3.81-8.38M95.46 105.57l-3.07 1.92M102.29 101.3l-5.67 3.54M111.89 149.49s18-1.31 19.69-1.24M97.3 107.19l-2.43 1.59M102.98 103.47l-4.1 2.68M98.59 109.47l-1.36.9M103.76 106.04l-3.54 2.35M105.11 108.47l-4.94 3.36M103.72 112.75l-1.03.73M106.51 110.74l-2.09 1.51M107.73 112.6l-2.91 1.69M113.77 151.23l-.93-.92M116.51 153.97l-1.86-1.86M118.56 153.17l-2.82-3.16M120.34 152.62l-1.81-2.6M122.44 151.67l-1.77-2.24M124.34 150.82l-1.13-1.65M127.3 150.37l-.78-1.17M167.65 135.97l-16.07 6.49M157.94 141.7l-5.27 2.04M166.36 138.45l-6.89 2.66M163.98 142.43l-10.46 3.2M153.67 147.32l-1.2.18M158.76 146.56l-3.13.47M153.45 152.76l-2.69-2.59M151.92 154.17l-2.25-2.49M154.96 157.52l-2.35-2.6M151.66 157.6l-3.55-4.59M156.32 163.62l-3.55-4.59M147.31 155.32l-1.43-1.93M157.17 168.68l-8.63-11.69M63.53 128.17l-1.18-.8M66.38 130.11l-1.87-1.27M68 129.51l-3.56-2.57M70.35 128.83l-3.03-1.68M88.95 152.09l-5.69-7.56M88.79 149.76l-3.83-5.11" style="fill:none;stroke:#263238;stroke-linecap:round;stroke-linejoin:round"/></g><g id="freepik--weighing-machine--inject-17"><rect x="130.24" y="87" width="256.98" height="235.71" rx="19.38" style="fill:#fff;stroke:#263238;stroke-linecap:round;stroke-linejoin:round"/><path d="M318.38 151.33c-7.66 2.95-25.26 2.21-25.26 2.21h-68.78s-17.6.74-25.26-2.21-16.08-19.19 10.71-36.18c22.9-14.5 40.76-15 45.47-14.83v-.2s25.61-2 52.41 15 18.33 33.25 10.71 36.21Z" style="fill:none;stroke:#263238;stroke-linecap:round;stroke-linejoin:round"/><path d="M308.14 153.24a137.66 137.66 0 0 1-15 .3h-68.8s-6.68.28-13.61-.19A55.09 55.09 0 0 1 258.79 124h.67a55.11 55.11 0 0 1 48.68 29.24Z" style="fill:none;stroke:#263238;stroke-linecap:round;stroke-linejoin:round"/><path d="M258.79 124v29.54h-34.45s-6.68.28-13.61-.19A55.09 55.09 0 0 1 258.79 124Z" style="fill:#fed2d2;stroke:#263238;stroke-linecap:round;stroke-linejoin:round"/><path style="fill:none;stroke:#263238;stroke-linecap:round;stroke-linejoin:round" d="M258.73 104.95v13.14M221.68 115.54l6.67 11.38M194.97 141.8l11.56 6.57M250.68 104.6l.82 6.55M242.98 105.99l1.51 6.42M235.46 108.16l2.19 6.24M228.22 111.1l2.84 5.98M214.87 119.12l4.03 5.27M208.9 124.12l4.57 4.82M203.5 129.7l5.06 4.32M198.72 135.81l5.49 3.78M295.51 115.54l-6.68 11.38M322.22 141.8l-11.56 6.57M266.51 104.6l-.82 6.55M274.21 105.99l-1.51 6.42M281.72 108.16l-2.18 6.24M288.96 111.1l-2.83 5.98M302.32 119.12l-4.03 5.27M308.28 124.12l-4.57 4.82M313.69 129.7l-5.06 4.32M318.47 135.81l-5.49 3.78"/><path d="M364.68 91.82h-1.84l-17.3 45.11a35.77 35.77 0 0 1-33.41 23H208.25a35.79 35.79 0 0 1-33.08-22.14l-18.93-45.97h-3.47a17.28 17.28 0 0 0-17.28 17.28v191.51a17.28 17.28 0 0 0 17.28 17.28h211.91A17.28 17.28 0 0 0 382 300.61V109.1a17.28 17.28 0 0 0-17.32-17.28Z" style="fill:#fff;stroke:#263238;stroke-linecap:round;stroke-linejoin:round"/><path style="fill:#263238;stroke:#263238;stroke-linecap:round;stroke-linejoin:round" d="M261.33 153.54h-8.59l-14.46-31.46 23.05 31.46z"/></g><g id="freepik--Character--inject-17"><path d="M257.75 208.55s-2.06 11.23-5.27 16-6.19 7.11-10.55 7.8-14.67.23-17.88 3.9S209.87 274 209.87 274s-2.78 7.27-.72 12.08 6.42 7.8 10.09 4.36 12.61-32.1 12.61-32.1l8 23.16s-10.07 15.31-10.75 21.5c0 0-6 23.15-4.13 37.82s14.21 25.45 13.75 38.52-7.56 17.19-8.25 27.51 2.07 37.14 2.07 39.89.22 5.27 3.2 6.19a8.51 8.51 0 0 0 5.51-.23s2.75-16.51 8-29.12 8-24.3 10.32-36.68 3.66-36.68 3.66-40.34-.22-9.63-.22-9.63l3.2-1.61s.46 33 1.84 44.25 3.67 22.46 3.67 25.21-.46 10.55 1.14 18.12 2.14 24.75 2.14 24.75-.69 3.21.46 4.13 6.87.46 8 .23 2.06-4.36 2.06-5.27a214.14 214.14 0 0 1 4.59-25.91C292.83 410.06 294 405 294 394.7s-3.89-12.84-1.37-23.39 10.77-21.32 10.77-37.13-6.4-29.81-9.65-34.18c0 0 2.52-7.57-8.49-22.93l3-24.53s25.91 10.78 30.72 11.92 9.17-3.89 8.71-8-11.23-9.86-18.34-13.76-12.29-10.51-21-13-14.3.2-15.22.2-3-13.53-3-13.53Z" style="fill:#fff;stroke:#263238;stroke-linecap:round;stroke-linejoin:round"/><path d="m270.13 216.34-12.38-7.79s-.13.71-.38 1.86c1.91 2.52 9.28 12 14.34 14.9-.81-3.93-1.58-8.97-1.58-8.97Z" style="fill:#263238;stroke:#263238;stroke-linecap:round;stroke-linejoin:round"/><path d="M265.26 289.74a.79.79 0 1 1-.78-.91.86.86 0 0 1 .78.91Z" style="fill:none;stroke:#263238;stroke-linecap:round;stroke-linejoin:round"/><path d="M303.37 334.18c0-15.54-6.19-29.31-9.45-33.92-4.34 3.06-14.7 8.81-30.89 8.47-17.61-.37-29.63-5-33.74-6.82a8.07 8.07 0 0 0-.19 1.09s-6 23.15-4.13 37.82 14.21 25.45 13.75 38.52-7.56 17.19-8.25 27.51a133.78 133.78 0 0 0 .22 14.06c6.53 3.33 14.77 2.56 18.92 1.85 5-12.3 7.73-23.75 10-35.86 2.29-12.38 3.66-36.68 3.66-40.34s-.22-9.63-.22-9.63l3.2-1.61s.46 33 1.84 44.25 3.67 22.46 3.67 25.21-.46 10.55 1.14 18.12q.08.35.15.72h5.81a51.65 51.65 0 0 0 10.9-1.37c.11-.47.22-.93.34-1.38 2.73-10.81 3.9-15.87 3.9-26.17s-3.89-12.84-1.37-23.39 10.74-21.31 10.74-37.13ZM284.35 174.62s-17.89-9.86-26.37-9.17-21.32 18.34-22.92 26.82 6.65 13.07 7.1 13.75-6.87.23-6.19 5.74 9.4 6.41 14.45 5.5 8.48-7.34 8.48-8.26-2.29-7.1-2.29-7.1 4.81.46 5.5-3.67 4.58-13.3 9.86-13.53 9.4.46 9.85 1.61a38.06 38.06 0 0 1 .92 5.5 13.22 13.22 0 0 0 10.78-2.75c4.81-4.13 6.64-15.36.23-17.65a7.55 7.55 0 0 0-9.4 3.21Z" style="fill:#263238;stroke:#263238;stroke-linecap:round;stroke-linejoin:round"/><path d="m254.44 198.09-9.21 5.23s3.48 4.24 5 4.74a8.41 8.41 0 0 0 4-.25s4.24 5 7.48 7.22 11 6.48 15.19 5 10.47-12.71 10-16.45-2.74-9.71-2.49-12.7.74-7.72.74-7.72-10.21-5-18.43-.25-7.79 13.44-12.28 15.18Z" style="fill:#fff;stroke:#263238;stroke-linecap:round;stroke-linejoin:round"/><path d="m276.86 193.61.25 3s6.48.75 4 3a12.76 12.76 0 0 1-6 2.74" style="fill:none;stroke:#263238;stroke-linecap:round;stroke-linejoin:round"/><path d="M280.6 206.56a30.46 30.46 0 0 1-7 1.5 24.48 24.48 0 0 1-4.73-.5s2.24 2.24 4.24 4a8.91 8.91 0 0 0 4.48 2l-.25-4.24Z" style="fill:#263238;stroke:#263238;stroke-linecap:round;stroke-linejoin:round"/><path d="M264.91 191.62s2.49-2.49 5.48-2.25M277.86 188.63a5.22 5.22 0 0 1 5 1" style="fill:none;stroke:#263238;stroke-linecap:round;stroke-linejoin:round"/><ellipse cx="269.47" cy="195.75" rx="1.08" ry="1.89" style="fill:#263238"/><ellipse cx="280.63" cy="194.6" rx="1.08" ry="1.89" style="fill:#263238"/><path d="M277 228.92c-1.36.29-2.42.6-3.1.78 1.24 3.16 3.62 9.4 4.3 12.09a25.31 25.31 0 0 1 .91 5.27s-1.14 2.75-11.92 5.5-20.63 0-22.92-1.6a28 28 0 0 1-3.44-2.75l4.94-17a12.51 12.51 0 0 1-3.09 1c-1.77 5.1-4.41 13-6 19.16a56.38 56.38 0 0 0-1.1 17.59l4.31 12.44s-.8 1.22-2 3.11c6.22 1 17.49 2.62 26.73 2.62 10.08 0 19-4.45 22.91-6.73-.69-1.07-1.44-2.19-2.28-3.36l3-24.53Z" style="fill:#fed2d2;stroke:#263238;stroke-linecap:round;stroke-linejoin:round"/><path style="fill:none;stroke:#263238;stroke-linecap:round;stroke-linejoin:round" d="m260.08 274.64 12.34-6.26M255.23 277.09l2.22-1.12M268.76 272.51l-10.09 5.5"/><path d="M239.87 451.32s-1.15-3.21-3.44-3.44-5.73-.91-6.88 1.15a30.66 30.66 0 0 0-2.06 6.19s-6.42 4.58-9.4 8-2.06 5.73.46 7.57 8.71 2.06 11.46 1.15 5.51-4.82 5.51-4.82 6.19 0 7.1-1.83.23-8.94.23-8.94a8.46 8.46 0 0 0 .92-3.9 4.2 4.2 0 0 0-1.38-2.52 4.76 4.76 0 0 1-2.52 1.39Z" style="fill:#fff;stroke:#263238;stroke-linecap:round;stroke-linejoin:round"/><path d="M226.8 469.66c-3.68.85-7.88-.83-10.56-2.25a4.82 4.82 0 0 0 2.31 3.4c2.52 1.83 8.71 2.06 11.46 1.15s5.51-4.82 5.51-4.82 6.19 0 7.1-1.83a12.22 12.22 0 0 0 .48-4.35c-1.54 1.15-4.71 3.38-6.9 3.89-2.98.69-3.44 3.44-9.4 4.81ZM275 447.65s-3.21 2.76-3.21 5.28.23 5.73.23 5.73-1.84 6.19-.46 7.56 4.35 2.07 6.42 2.07 5.73.46 5.73.46a42.86 42.86 0 0 0 10.29 3.89c4.82.92 9.86-.23 10.32-3.21s-3-6-5-7.1-5.28-3.44-6.19-5.05-4.82-5-4.82-5 .92-4.81-1.83-5-4.82 3.66-4.82 3.66-2.75-.23-4.35-.23h-2.52Z" style="fill:#fff;stroke:#263238;stroke-linecap:round;stroke-linejoin:round"/><path d="M304.29 469.43a3.94 3.94 0 0 0-.12-1.67 20 20 0 0 1-4.46 2.82c-3.67 1.6-8.49-.92-11.7-2.06s-4.58-2.75-9.62-3a12.6 12.6 0 0 1-7.29-2.78c-.18 1.46-.17 2.89.41 3.46 1.37 1.38 4.35 2.07 6.42 2.07s5.73.46 5.73.46a42.86 42.86 0 0 0 10.34 3.91c4.79.92 9.83-.23 10.29-3.21Z" style="fill:#fff;stroke:#263238;stroke-linecap:round;stroke-linejoin:round"/><circle cx="188.98" cy="241.1" r="8.94" transform="rotate(-45 188.974 241.094)" style="fill:#263238;stroke:#263238;stroke-linecap:round;stroke-linejoin:round"/><path d="m197 239.49 2.29-3.43a40.5 40.5 0 0 0 4.13 1.37c1.83.46 3.67.23 3 1.38s-3.67 2.06-4.81 2.06a22.51 22.51 0 0 1-4.61-1.38Z" style="fill:#fff;stroke:#263238;stroke-linecap:round;stroke-linejoin:round"/><path d="M222.68 284.2a13.85 13.85 0 0 1-.46 4.58c-.69 3-4.13 7.11-5.73 7.57s-6-.46-8.48-5.5-8.26-22-8.26-22-7.33-19-7.33-20.4 3.43-10.09 3.43-10.09-.22-1.15 1.15-.92a12.88 12.88 0 0 1 3.67 1.84l6.19 2.52s1.83 1.37 1.6 3.21a20.59 20.59 0 0 1-1.14 4.12 38.72 38.72 0 0 1-.69 5 69.6 69.6 0 0 1-2.75 6.87 91.84 91.84 0 0 0 6.88 12.15c3.21 4.36 9.85 8.72 9.85 8.72" style="fill:#fff;stroke:#263238;stroke-linecap:round;stroke-linejoin:round"/><path d="M199.75 239s-3.67 5-3.67 8.71M203.42 241.1s-3.21 4.36-3.44 7.11M207.32 242.7a44.25 44.25 0 0 0-4.13 6.19" style="fill:none;stroke:#263238;stroke-linecap:round;stroke-linejoin:round"/><circle cx="215.34" cy="246.37" r="8.94" transform="rotate(-9.24 215.432 246.467)" style="fill:#263238;stroke:#263238;stroke-linecap:round;stroke-linejoin:round"/><ellipse cx="298.1" cy="208.62" rx="8.64" ry="8.25" style="fill:#fed2d2;stroke:#263238;stroke-linecap:round;stroke-linejoin:round"/><path style="fill:#8c8c8c;stroke:#263238;stroke-linecap:round;stroke-linejoin:round" d="m299.25 200.68 1.07-4.9H302l-1.23 4.9h-1.52z"/><path d="M299.55 199.45a5.76 5.76 0 0 0-2.6-2.6 17.55 17.55 0 0 0-4.58-1.52 18.15 18.15 0 0 0 3.51 3.51 8 8 0 0 0 3.67.61Z" style="fill:#fed2d2;stroke:#263238;stroke-linecap:round;stroke-linejoin:round"/><path d="M300.85 212.44s-7.1 9.86-6.42 12.15S310.94 256 313 259.67a11.16 11.16 0 0 0 9.4 6c3.67 0 8-5 7.57-9.17s-11.47-15.13-15.13-19-13.3-13.52-13.3-13.52 9.17-10.32 10.09-12.38 1.6-3.44.91-5.05-5.27-7.56-5.27-7.56a2.23 2.23 0 0 0-2.52.46 7.16 7.16 0 0 0-1.61 2.52s-2.06 1.6-2.06 3.21-.23 7.26-.23 7.26Z" style="fill:#fff;stroke:#263238;stroke-linecap:round;stroke-linejoin:round"/><path d="M303.14 201.9s1 9.39 1 10.73a5.59 5.59 0 0 1-.77 2.58M304.82 199s2.49 10.52 2.59 12.43.09 2.58.09 2.58M307.6 199.15s3.06 9.46 3.25 10.61-1.44 2.68-1.63 3.06" style="fill:none;stroke:#263238;stroke-linecap:round;stroke-linejoin:round"/></g></svg>