<svg xmlns="http://www.w3.org/2000/svg" viewBox="0 0 500 500"><g id="freepik--background-complete--inject-2"><path style="fill:#ebebeb" d="M58.73 74.69h26.48v11.19H58.73zM43.96 60.58h26.48v11.19H43.96zM73.5 60.58h26.48v11.19H73.5zM414.79 60.58h26.48v11.19h-26.48zM414.79 362.53h26.48v11.19h-26.48zM429.56 348.42h26.48v11.19h-26.48zM43.96 362.52h26.48v11.19H43.96z"/><path transform="rotate(180 130.16 234.975)" style="fill:#ebebeb" d="M116.92 229.38h26.48v11.19h-26.48z"/><path transform="rotate(180 144.93 249.085)" style="fill:#ebebeb" d="M131.69 243.49h26.48v11.19h-26.48z"/><path style="fill:#c7c7c7" d="M83.27 0h1.18v109.15h-1.18z"/><path style="fill:#ebebeb" d="m118.29 142.34-2.77 6.09H52.19l-2.76-6.09 26.96-18.66h14.94l26.96 18.66z"/><path style="fill:#dbdbdb" d="m93.2 105.7-1.87 17.98H76.39l-1.87-17.98H93.2zM118.29 142.35l-2.77 6.08H52.19l-2.76-6.08h68.86z"/><path style="fill:#c7c7c7" d="M166.54 0h1.18v89.51h-1.18z"/><path style="fill:#ebebeb" d="m201.56 122.7-2.77 6.09h-63.33l-2.76-6.09 26.96-18.66h14.94l26.96 18.66z"/><path style="fill:#dbdbdb" d="m176.47 86.06-1.87 17.98h-14.94l-1.87-17.98h18.68zM201.56 122.71l-2.77 6.08h-63.33l-2.76-6.08h68.86z"/><path style="fill:#fff" d="M361.05 78.54h64.99v64.99h-64.99z"/><path d="M357.67 75.16v71.75h71.75V75.16ZM426 143.53h-65v-65h65Z" style="fill:#dbdbdb"/><path transform="rotate(90 396.04 119.71)" style="fill:#ebebeb" d="M384.8 94.38h22.47v50.65H384.8z"/><path transform="rotate(90 393.545 111.035)" style="fill:#c7c7c7" d="M380.57 98.06h25.95v25.95h-25.95z"/><path style="fill:#c7c7c7" d="M429.42 75.16h2.77v71.75h-2.77z"/><path style="fill:#fff" d="M361.05 170.82h64.99v64.99h-64.99z"/><path style="fill:#c7c7c7" d="M372.22 181.22h16.97v49.02h-16.97z"/><path d="M357.67 167.44v71.75h71.75v-71.75ZM426 235.81h-65v-65h65Z" style="fill:#dbdbdb"/><path style="fill:#ebebeb" d="M380.57 190.34h25.95v25.95h-25.95z"/><path style="fill:#c7c7c7" d="M429.42 167.44h2.77v71.75h-2.77z"/><path style="fill:#fff" d="M361.05 263.1h64.99v64.99h-64.99z"/><path style="fill:#ebebeb" d="M368.26 271.96h35.66v21.32h-35.66z"/><path d="M357.67 259.72v71.75h71.75v-71.75ZM426 328.09h-65v-65h65Z" style="fill:#dbdbdb"/><path style="fill:#c7c7c7" d="M380.57 282.62h25.95v25.95h-25.95zM429.42 259.72h2.77v71.75h-2.77z"/></g><ellipse cx="328.71" cy="447.59" rx="120.01" ry="13.65" style="fill:#ebebeb" id="freepik--Shadow--inject-2"/><path style="fill:#263238" d="m30.67 432 54.83-.24 54.84-.09L250 431.5l109.66.17 54.84.08 54.83.25-54.83.24-54.84.09-109.66.17-109.66-.17-54.84-.09-54.83-.24z" id="freepik--Table--inject-2"/><g id="freepik--Character--inject-2"><path d="M271.12 432h-86.9c-2.74-29.46-5.49-59.65-7.67-83.72-.07-.8-.15-1.6-.22-2.39-2.46-27.23-4.13-46.05-4.13-46.05h82a1.79 1.79 0 0 1 0 .25c.61 4.46 8.96 69.54 16.92 131.91Z" style="fill:#37474f"/><path d="M197.39 432H196c-3.79-31.9-6.87-63.86-9.67-95.86q-.24-2.87-.5-5.75c-.56-6.57-1.12-13.17-1.66-19.75 0-.2.29-.2.32 0q.92 8.75 1.78 17.46a.09.09 0 0 1 0 .05c.2 2.12.42 4.23.63 6.36 2.23 22.08 4.44 44.14 6.86 66.19q1.73 15.67 3.63 31.3Z" style="fill:#263238"/><path d="m242.36 299.84-11 72.72-.39 2.46-1 6.55-.08.46-.26 1.76-7.32 48.21h-46.68c-4.79-27-9.69-54.68-13.75-77.65-.09-.52-.18-1-.27-1.52l-9.38-53Z" style="fill:#263238"/><path d="M254.28 299.77s0 .1-.05.32c-.65 4.24-7.71 49.71-19.44 79.55-.08.25-.17.48-.28.74 0 0-1.65.51-4.63 1.69-1.16.46-2.54 1-4.1 1.7l-1.7.76c-3.44 1.54-7.61 3.56-12.37 6.14-.46.24-.91.49-1.36.74v.54c-.24 3.13-1.46 19.19-3 40h-81.86c6.3-64.93 13.22-132.23 13.22-132.23Z" style="fill:#37474f"/><path d="M147.87 312.42c-2.33 30.46-4.56 60.92-7 91.34q-1.14 14.12-2.34 28.24h-1.2q5.19-59.78 9.87-119.56c.02-.44.7-.44.67-.02ZM238.65 378.24a180.07 180.07 0 0 0-28.3 13.18.32.32 0 0 0 .26.59c9.53-4.1 19.25-8 28.55-12.63a.62.62 0 0 0-.51-1.14ZM241.68 312.82c0-.33-.61-.4-.6 0 .07 11.32-.65 21.27-1.6 31.85-.45 4.91-4.4 32.05-12.91 30.07-1.43-.33-2.16-1.73-2.38-3.88-.27-2.58.7-5.75 1.13-8.32 1-5.69 1.71-11.39 2.19-17.12a155.92 155.92 0 0 0-.34-32.11.28.28 0 0 0-.55 0c0 14.83-.38 29.63-2.6 44.32-1.06 7.06-4.62 17.69 2.77 18.77s12.38-16.69 13.3-21.56c2.56-13.6 2.66-28.27 1.59-42.02Z" style="fill:#263238"/><path d="M226.79 375.43a46.62 46.62 0 0 0-1.91 5.63 12.71 12.71 0 0 0-.8 4.62.33.33 0 0 0 .59.13 16.36 16.36 0 0 0 2-4.5c.65-1.74 1.33-3.47 1.93-5.23a1 1 0 0 0-1.81-.65ZM188.26 321.7a15.36 15.36 0 0 0-.36-3.52.18.18 0 0 0-.35 0 14 14 0 0 0-.39 3c-.12 1.17-.28 2.33-.4 3.5a52.85 52.85 0 0 1-1.25 7.09 25.21 25.21 0 0 1-6.5 11.69 34.16 34.16 0 0 1-11 7.24c-4.57 1.94-9.39 2.66-14.11 4.05-.2.05-.14.34 0 .35a41 41 0 0 0 15.29-3 32.88 32.88 0 0 0 11.47-7.32 25.48 25.48 0 0 0 6.68-12 35.42 35.42 0 0 0 .92-7.11 33.2 33.2 0 0 0 0-3.97Z" style="fill:#263238"/><path d="M219.13 195c6.59 14.76 54.56 83.14 93.11 91.4 6.5 1.39 26.67 7.77 38.34-8.9 15.77-22.51 25.83-65.62 23.62-88.61-1.83-19-53.78-4.75-56.84 6.07-2.31 8.19-6.42 35.06-8.1 34.63-10.92-2.82-43.45-31-75.87-48.35-15.03-8.1-19.33 2.35-14.26 13.76Z" style="fill:#ad6359"/><path d="M306.07 241.27a50 50 0 0 1 .93-5 53.49 53.49 0 0 1 3.34-9.25c.06-.13.3-.05.25.1-1 3.07-1.73 6.26-2.55 9.39-.4 1.56-.78 3.11-1.13 4.68s-.79 3.2-1.06 4.82c0 .09-.18.08-.17 0 .11-1.61.17-3.17.39-4.74Z" style="fill:#263238"/><path d="M374.44 192.4s-.86-24.9-9.79-41.46c-6.17-11.45-22.38-34.86-61.17-36.36-9.2-.35-22.57 5.67-7.75 11.7 10.53 4.29 18.5 3.83 24.17 7.44 0 0-16.09 9.68-16.09 18.91 0 4.13-.61 13.07.85 21.81 0 0 2.87 2.51 5.42 2.4 0 0 .28 8.64 10 17.56Z" style="fill:#ad6359"/><path d="M256 140.45c-4.72 3.18-7.3 10.69-3.5 17.83s13.42 6.23 18 3.1 8.45-10.94 4.54-17.6c-3.31-5.78-10.73-8.9-19.04-3.33Z" style="fill:#d96a6a"/><path d="M256 140.45c-4.72 3.18-7.3 10.69-3.5 17.83s13.42 6.23 18 3.1 8.45-10.94 4.54-17.6c-3.31-5.78-10.73-8.9-19.04-3.33Z" style="opacity:.1"/><path d="M257.44 142.32c-3.85 2.59-5.95 8.73-2.85 14.56s11 5.09 14.72 2.53 6.91-8.93 3.72-14.38c-2.76-4.72-8.82-7.26-15.59-2.71Z" style="fill:#d96a6a"/><path d="M265.5 145.56c.34.27 1.56-.75.89-1.23s-1.33.89-.89 1.23ZM268.35 152.25c-.17.39 1.12 1.32 1.42.55s-1.19-1.07-1.42-.55ZM271.21 149.65c.07.42 1.66.49 1.49-.32s-1.58-.24-1.49.32ZM265.42 142.63c.42-.07.5-1.65-.31-1.49s-.25 1.58.31 1.49ZM257.81 148.17c.11-.41-1.31-1.13-1.49-.32s1.34.87 1.49.32ZM261.21 157c-.35-.25-1.52.82-.83 1.27s1.29-.93.83-1.27ZM264 156.47c-.42-.07-1 1.41-.18 1.51s.74-1.42.18-1.51ZM261.07 150.21c.3-.3-.58-1.63-1.13-1s.73 1.4 1.13 1Z" style="fill:#fff"/><path d="M252.51 151.31s7.75-.86 8.77.71-4.49 8.47-5.4 7.86-4.21-5.95-3.37-8.57Z" style="fill:#d96a6a"/><path d="M252.51 151.31s7.75-.86 8.77.71-4.49 8.47-5.4 7.86-4.21-5.95-3.37-8.57Z" style="opacity:.1"/><path d="M265.76 161.59s-2.29-7.46-.93-8.75 9.15 2.83 8.73 3.84-5.07 5.24-7.8 4.91Z" style="fill:#d96a6a"/><path d="M265.76 161.59s-2.29-7.46-.93-8.75 9.15 2.83 8.73 3.84-5.07 5.24-7.8 4.91Z" style="opacity:.1"/><path d="M275.63 147.85s-7.58 1.84-8.79.41 3.37-9 4.35-8.48 4.93 5.36 4.44 8.07Z" style="fill:#d96a6a"/><path d="M275.63 147.85s-7.58 1.84-8.79.41 3.37-9 4.35-8.48 4.93 5.36 4.44 8.07Z" style="opacity:.1"/><path d="M262.78 138.78s1.85 7.58.42 8.79-9-3.37-8.49-4.35 5.37-4.94 8.07-4.44Z" style="fill:#d96a6a"/><path d="M262.78 138.78s1.85 7.58.42 8.79-9-3.37-8.49-4.35 5.37-4.94 8.07-4.44Z" style="opacity:.1"/><path d="M278.71 151.49c-3.65 1.39-21.12 4.87-21.12 4.87l.34-.83 18.73-5.83a.57.57 0 0 0 .34-.7.56.56 0 0 0-.72-.37l-17.51 4.8.55-1.33 19.16-6.26a.58.58 0 1 0-.34-1.1l-17.93 5.22.53-1.27 19.6-6.74a.56.56 0 0 0 .38-.72.55.55 0 0 0-.71-.37l-18.4 5.71.45-1.08s18.44-7.12 20.62-7.54c3.93-.77 1.56 11.44-3.97 13.54Z" style="fill:#455a64"/><path d="M282.77 141.39c2.56-1.17 13.07-5.8 14.31-6.28 1.44-.56 52.37-20.37 54.4-20.43s1.11 6.91-.06 8.38-49.42 14.76-54.28 16.68c-5.09 2-14.66 6-14.66 6Z" style="fill:#455a64"/><path d="M361.86 149.65c-5.53-4-17.41-12.21-29.47-15.57-13.39-3.73-40.19-7.3-42.84 2.61-1.95 7.27 8.17 9.54 8.17 9.54s-11.39.85-11.71 7.8c-.29 6.34 7.63 7.62 7.63 7.62s-6.82 1.71-5.92 7.87c1.08 7.4 15.19 2.6 22.76 9.16 1.7 1.47 51.38-29.03 51.38-29.03Z" style="fill:#ad6359"/><path d="M330.81 148.89c-5.81-2.89-20.72-6.06-32.89-2.89-.28.07-.37.32-.11.31a136.3 136.3 0 0 1 33 2.68c.04.01.07-.07 0-.1ZM326.66 162.3c-5.28-2-20.79-4.56-33-.9-.28.08-.35.33-.09.31a146.28 146.28 0 0 1 33.07.71c.06.02.08-.1.02-.12Z" style="fill:#263238"/><path d="M252.2 244.61 303 217.5s-50.35-30.68-73.58-39.5c-24.21-9.23-33.37-2.44-11.57 24.06 21.47 26.06 34.35 42.55 34.35 42.55Z" style="fill:#d96a6a"/><path d="M298.83 215a19.08 19.08 0 0 0-2.84 1 16 16 0 0 0-3.79 2.31 15.84 15.84 0 0 0 4.25-1.26 16.13 16.13 0 0 0 3-1.69c-.21-.1-.45-.23-.62-.36Zm-53.52 7.57a15.29 15.29 0 0 0-3.78 2.31 15.79 15.79 0 0 0 4.24-1.27 15.31 15.31 0 0 0 3.79-2.3 15.15 15.15 0 0 0-4.25 1.26Zm24.06 4.56a15.56 15.56 0 0 0-2.3-3.78 15.59 15.59 0 0 0 1.26 4.25 15.2 15.2 0 0 0 2.3 3.77 15.28 15.28 0 0 0-1.26-4.24ZM226 205.25a15.86 15.86 0 0 0-2.31-3.77 15.64 15.64 0 0 0 1.27 4.24 15.07 15.07 0 0 0 2.3 3.78 15.59 15.59 0 0 0-1.26-4.25Zm-12-20.84a15.38 15.38 0 0 0-4.3-1 15.65 15.65 0 0 0 3.89 2.11 15.82 15.82 0 0 0 4.3 1 15.65 15.65 0 0 0-3.89-2.11Zm34.93 15a15.46 15.46 0 0 0-4.31-1.05 15.6 15.6 0 0 0 3.9 2.12 15.82 15.82 0 0 0 4.3 1 15.51 15.51 0 0 0-3.82-2.12ZM236.58 181a14.91 14.91 0 0 0-1 4.15 14.44 14.44 0 0 0 2-3.68Zm34.62 26.24a15.82 15.82 0 0 0-1 4.3 17.09 17.09 0 0 0 3.15-8.19 15.65 15.65 0 0 0-2.15 3.86Z" style="fill:#fff"/><path d="M251 234c1.13-.78 2.39-1.41 3.58-2.09s2.46-1.39 3.69-2.09c2.5-1.41 5-2.78 7.54-4.14 5-2.71 10.07-5.45 15.16-8.07 1.4-.73 2.8-1.44 4.22-2.13s3-1.34 4.52-2.06a.08.08 0 0 1 .06.14c-1.22.71-2.4 1.53-3.62 2.24s-2.53 1.46-3.8 2.16q-3.76 2.07-7.57 4.07c-5 2.64-10 5.3-15 7.83L255.5 232c-1.47.74-2.93 1.57-4.47 2.17-.03.03-.15-.08-.03-.17Z" style="fill:#263238"/><path d="M217.85 202c21.47 26.11 34.35 42.59 34.35 42.59l16.23-8.66-61-60.42c-4.21 3.23-1.62 11.86 10.42 26.49Z" style="fill:#263238"/><path d="m263.77 344.24-134.64 8.5S141.6 223 188.45 175.91c5.79-5.81 19.7-5.45 29-1.53 3.33 1.39 15.92 16.85 20.18 32s26.47 137.38 26.14 137.86Z" style="fill:#d96a6a"/><path d="M175.24 214a15.74 15.74 0 0 0-3.79 2.3 15.05 15.05 0 0 0 4.25-1.3 15.31 15.31 0 0 0 3.79-2.3 15.73 15.73 0 0 0-4.25 1.3Zm66.45 10.8a1 1 0 0 0-.16.13.86.86 0 0 0 .17 0s-.01-.15-.01-.18ZM208 247.22a15.62 15.62 0 0 0-3.79 2.3 15.84 15.84 0 0 0 4.25-1.26 15.49 15.49 0 0 0 3.78-2.3 15.08 15.08 0 0 0-4.24 1.26Zm-14.8 56.94a15.6 15.6 0 0 0-3.78 2.31 15.25 15.25 0 0 0 4.25-1.26 15.79 15.79 0 0 0 3.78-2.31 15.59 15.59 0 0 0-4.25 1.26Zm-33.26-37a16.08 16.08 0 0 0-3.78 2.3 15.25 15.25 0 0 0 4.25-1.26 15.75 15.75 0 0 0 3.78-2.3 15.59 15.59 0 0 0-4.25 1.31Zm-22.73 79.33a15.37 15.37 0 0 0-3.78 2.3 15.25 15.25 0 0 0 4.25-1.26 15.6 15.6 0 0 0 3.78-2.31 15.16 15.16 0 0 0-4.25 1.32Zm59.16-8.61a15.44 15.44 0 0 0-3.78 2.3 15.59 15.59 0 0 0 4.25-1.26 15.92 15.92 0 0 0 3.78-2.31 14.94 14.94 0 0 0-4.25 1.32Zm66.63 1.34a17.7 17.7 0 0 0-2.76 1 16.21 16.21 0 0 0-3.78 2.3 15.35 15.35 0 0 0 4.25-1.26 19.39 19.39 0 0 0 2.42-1.29c-.06-.26-.13-.51-.13-.75Zm-30.41-39.07a15.66 15.66 0 0 0-3.79 2.31 15.73 15.73 0 0 0 4.2-1.26 15.47 15.47 0 0 0 3.79-2.31 15.38 15.38 0 0 0-4.22 1.26ZM187.8 192.29a15.41 15.41 0 0 0-2.31-3.78 15.77 15.77 0 0 0 1.26 4.24 15.47 15.47 0 0 0 2.31 3.79 15.38 15.38 0 0 0-1.26-4.25Zm-20.13 152.55a15.43 15.43 0 0 0-2.3-3.79 15.38 15.38 0 0 0 1.26 4.25 15.62 15.62 0 0 0 2.3 3.79 14.73 14.73 0 0 0-1.26-4.25Zm-8.27-37.15a15.58 15.58 0 0 0-2.32-3.77 15.88 15.88 0 0 0 1.26 4.24 15.27 15.27 0 0 0 2.32 3.78 16 16 0 0 0-1.26-4.25Zm49.82-25.52a16.07 16.07 0 0 0-2.3-3.79 15.05 15.05 0 0 0 1.26 4.25 15.31 15.31 0 0 0 2.3 3.79 15.84 15.84 0 0 0-1.26-4.25Zm-21.16-47a15.66 15.66 0 0 0-2.31-3.79 15.05 15.05 0 0 0 1.26 4.25 15.47 15.47 0 0 0 2.31 3.79 15.38 15.38 0 0 0-1.26-4.2Zm31.73 108.16a14.56 14.56 0 0 0 1 3.58l1.2-.08a15.83 15.83 0 0 0-2.2-3.45Zm36.4-30.33a15.45 15.45 0 0 0-2.32-3.78 16.37 16.37 0 0 0 1.26 4.24 15.72 15.72 0 0 0 2.31 3.78 15.51 15.51 0 0 0-1.25-4.24ZM226 205.25a15.86 15.86 0 0 0-2.31-3.77 15.64 15.64 0 0 0 1.27 4.24 15.07 15.07 0 0 0 2.3 3.78 15.59 15.59 0 0 0-1.26-4.25Zm-12-20.84a15.38 15.38 0 0 0-4.3-1 15.65 15.65 0 0 0 3.89 2.11 15.82 15.82 0 0 0 4.3 1 15.65 15.65 0 0 0-3.89-2.11Zm-37.7 103.64A15 15 0 0 0 172 287a15.75 15.75 0 0 0 3.9 2.12 16.1 16.1 0 0 0 4.3 1 15.09 15.09 0 0 0-3.86-2.07Zm-32.6 37.28a15.54 15.54 0 0 0-4.31-1.05 17.07 17.07 0 0 0 8.2 3.15 15.64 15.64 0 0 0-3.85-2.1Zm91.59 3a15.54 15.54 0 0 0-4.31-1.05 17.07 17.07 0 0 0 8.2 3.15 15.79 15.79 0 0 0-3.85-2.1Zm-6.41-55.46a15.12 15.12 0 0 0-4.3-1 15.34 15.34 0 0 0 3.89 2.11 16.12 16.12 0 0 0 4.3 1.05 15.07 15.07 0 0 0-3.85-2.16Zm-12.24-46.64a15 15 0 0 0-4.3-1 15.3 15.3 0 0 0 3.89 2.1 15.48 15.48 0 0 0 4.3 1.05 15 15 0 0 0-3.85-2.15ZM162 242.81a15.12 15.12 0 0 0-1 4.3 17.45 17.45 0 0 0 3.15-8.2 15.09 15.09 0 0 0-2.15 3.9Zm49.61 74.71a15.13 15.13 0 0 0-1 4.3 15.69 15.69 0 0 0 2.12-3.89 16.2 16.2 0 0 0 1-4.3 15.19 15.19 0 0 0-2.1 3.89Zm23.06-70.17a15.25 15.25 0 0 0-1 4.32 17.16 17.16 0 0 0 3.15-8.21 15.53 15.53 0 0 0-2.13 3.89Zm-56.63 76.29a15.19 15.19 0 0 0-1 4.31 16 16 0 0 0 2.11-3.91 15.73 15.73 0 0 0 1-4.3 15.39 15.39 0 0 0-2.09 3.9Zm-37.42-35.27a15.8 15.8 0 0 0-1 4.31 15.25 15.25 0 0 0 2.11-3.9 15 15 0 0 0 1-4.3 16.17 16.17 0 0 0-2.09 3.89ZM187 264.43a14.86 14.86 0 0 0-1 4.31 17.17 17.17 0 0 0 3.15-8.2 15.19 15.19 0 0 0-2.15 3.89Zm14.08-55.82a16.36 16.36 0 0 0-1 4.31 15.54 15.54 0 0 0 2.12-3.89 15.89 15.89 0 0 0 1-4.31 15.87 15.87 0 0 0-2.11 3.89Z" style="fill:#fff"/><path d="M190.4 179.65a46.48 46.48 0 0 0 15.09 18.85 25.43 25.43 0 0 0 11 4.88 10.84 10.84 0 0 0 6.27-.63 12.24 12.24 0 0 0 4.51-4.22 23 23 0 0 0 2.94-6.36 54.74 54.74 0 0 0 1.73-7.71.08.08 0 1 1 .15 0c-.36 2.47-.52 5-1.07 7.4a24.91 24.91 0 0 1-2.2 6.24 14.8 14.8 0 0 1-4 4.88 9.74 9.74 0 0 1-6.22 1.88 23 23 0 0 1-12.1-4.12 40.75 40.75 0 0 1-9.36-8.52 43.14 43.14 0 0 1-7-12.52.13.13 0 0 1 .26-.05Z" style="fill:#263238"/><path d="M219.8 198.87c-7.88 1.32-20.43-11.42-25.06-21.38-.31-.68 1.15-7.57 2.54-16 .82-5.13 1.62-10.86 2-16.14.07-1.09 32.6 10.22 32.6 10.22s-4 10.86-4.54 20.07a12.89 12.89 0 0 0 .09 2.18 3.53 3.53 0 0 1 0 .36c.38 4.15-.01 19.4-7.63 20.69Z" style="fill:#ad6359"/><path d="M224 178.13a19.61 19.61 0 0 0 3.41 0v-.36a11.12 11.12 0 0 1-.08-2.18c.55-9.21 4.52-20.06 4.52-20.06s-26.4-9.19-31.68-10.21c.61 6.2 4.33 31.09 23.83 32.81Z" style="fill:#263238"/><path d="M194.56 109.21c-3.46 11.79 3.15 45.79 11.61 53.22 12.26 10.85 32.14 11.67 41.31-3 8.89-14.24-.51-58.3-9.94-65.08-13.88-10.02-37.88-2.59-42.98 14.86Z" style="fill:#ad6359"/><path d="M226.86 129.84c0-.09-.15.14-.13.23.5 2.28.7 5-1.22 6.12-.06 0 0 .15 0 .12 2.49-.83 2.2-4.4 1.35-6.47Z" style="fill:#263238"/><path d="M224.37 127.84c-3.73.42-2.62 7.85.84 7.46s2.29-7.81-.84-7.46ZM240.94 127.42c0-.09.2.08.21.17.27 2.32 1 4.92 3.17 5.37.07 0 .08.13 0 .13-2.6.03-3.49-3.44-3.38-5.67Z" style="fill:#263238"/><path d="M242.64 124.7c3.66-.83 5.06 6.55 1.67 7.33s-4.74-6.63-1.67-7.33ZM220.93 124.88a30.78 30.78 0 0 0 2.72-1.45 5 5 0 0 0 2.5-2 1.6 1.6 0 0 0-.53-1.87c-1.27-.82-2.71-.44-4 .19a5.78 5.78 0 0 0-2.93 3 1.7 1.7 0 0 0 2.24 2.13ZM245 120.53a29 29 0 0 1-3.07-.32 5 5 0 0 1-3.06-.93 1.58 1.58 0 0 1-.2-1.93c.87-1.23 2.35-1.42 3.77-1.32a5.87 5.87 0 0 1 3.83 1.67 1.7 1.7 0 0 1-1.27 2.83ZM228 150.75c.63.45 1.3 1.11 2.14 1.06a6.19 6.19 0 0 0 2.39-.95.08.08 0 0 1 .12.1 3.13 3.13 0 0 1-2.74 1.69 2.47 2.47 0 0 1-2.11-1.77c-.07-.12.1-.2.2-.13ZM229.38 143.49a7.92 7.92 0 0 0 5.76 2.71 10.17 10.17 0 0 0 2.84-.3 2.83 2.83 0 0 0 .52-.14c.17 0 .32-.09.5-.15a.58.58 0 0 0 .38-.59.86.86 0 0 0-.06-.23v-.2c-.22-1.78-.8-4.45-.8-4.45.7.22 4.22 1.22 4 .3-1.6-7.6-3.38-16-6.59-23.27a.21.21 0 0 0-.41.12c1.25 7.36 3.79 14.46 5.17 21.83a14.22 14.22 0 0 0-3.87-.57c-.24.11 1.21 5.14 1.24 5.95a.21.21 0 0 1 0 .09c-2.92.82-5.3.26-8.49-1.31-.2-.13-.35.05-.19.21Z" style="fill:#263238"/><path d="M236.8 145.16a9.46 9.46 0 0 1-3.3 3.45 4.21 4.21 0 0 1-2.52.53c-1.91-.2-2.2-1.88-2.08-3.38a9.79 9.79 0 0 1 .49-2.33 12.18 12.18 0 0 0 7.41 1.73Z" style="fill:#263238"/><path d="M233.5 148.61a4.21 4.21 0 0 1-2.52.53c-1.91-.2-2.2-1.88-2.08-3.38 2-.09 4.15.95 4.6 2.85Z" style="fill:#ff97b8"/><path d="M233 102.34a12.71 12.71 0 0 1-10.18 7c-4.27.36-9.05-1.46-11.52-5.07-.07-.11-.24 0-.17.11 2.64 3.86 7 6.5 11.76 6a13.07 13.07 0 0 0 10.39-7.85c.06-.24-.2-.37-.28-.19ZM214.65 78.75c-5.45-.2-10.51 3.57-12.57 8.49a18.63 18.63 0 0 0-1.16 9.29.1.1 0 0 0 .2 0c-.24-5 1.66-10.64 5.66-13.88a11.45 11.45 0 0 1 13.22-1.3 11.59 11.59 0 0 1 5 5.88.23.23 0 0 0 .43-.15 11.83 11.83 0 0 0-10.78-8.33ZM256 81.71a15.31 15.31 0 0 0-8.32-6.4c-4.77-1.52-9.35 0-13.87 1.65-.12 0-.05.23.07.19 3.85-1.37 7.83-2.54 11.93-1.59A15 15 0 0 1 254.3 81a14.65 14.65 0 0 1-1.47 19.14 14.91 14.91 0 0 1-11.11 4c-.16 0-.22.23-.05.24A15 15 0 0 0 256 81.71Z" style="fill:#263238"/><path d="M193.87 112.24s-1.72-10.08.16-13.72 7.41-5.66 7.41-5.66 1.39-9.2 9.29-11.61c7.09-2.16 13.44 3.07 13.44 3.07s7.68-12.22 20.39-9.22c12.06 2.83 14.5 19.64 5.24 27.33-6.5 5.4-18.13 1.32-18.13 1.32-.93.37-9.35 8.73-19 1.75 0 0-5.52 6.84-10.27 4 .03.04-4.59 3.71-8.53 2.74Z" style="fill:#263238"/><path d="M199.39 100.31c.81 5.17 3 19.92 1.85 23.53s-3.63 12.92-5.28 13.92c-2.33-11-3.15-22.59-1.4-28.55a24.29 24.29 0 0 1 4.83-8.9Z" style="fill:#263238;opacity:.2"/><path d="M200.6 136.5s-8-10.74-12.93-7.85 1.38 18.65 7.31 20.64a5.94 5.94 0 0 0 7.87-3.45Z" style="fill:#ad6359"/><path d="M189.58 133.12a.08.08 0 0 0 0 .16c4.15 1.53 6.44 5.27 8.07 9.17-1.26-1.48-2.95-2.26-4.94-.74-.11.08 0 .24.12.21a3.67 3.67 0 0 1 4.07 1.15 18 18 0 0 1 2 3.2c.2.36.86.15.71-.27a1 1 0 0 1 0-.1c-.09-5.23-4.39-12.43-10.03-12.78Z" style="fill:#263238"/><path d="M285.32 254.21c-5.33 1-3.91-6.05-8.85-6.51s-6.42 5-9.46 4.22-.86-6.23-6.91-6.28-7.43 8.28-11.09 10.2-11.53-1.34-12.47 5.33 12.57 8.89 22.27 13.56S279 286.5 287.75 286c9.38-.59 13.46-6.7 20.64-7.67s23.68 3.47 30.71-2.82 18.38-11.36 18.55-18.18-8.79-3.82-11.66-4.15-2.6-7.86-8.12-8.91-6.88 2.37-11.68 2.71-6.86-9-13.59-7.32-5 5.48-7.91 7.14-8.57-2.11-12.5-.38-2.12 6.94-6.87 7.79Z" style="fill:#455a64"/><path d="M307.07 258.68c5.56.27 3.22-6.51 8.2-7.6s7.18 4.15 10.19 3 .08-6.28 6.24-7.11 8.63 7.28 12.61 8.71 11.59-2.8 13.41 3.7-11.7 10.42-21 16.29-19.09 14.25-28.09 14.82c-9.64.61-14.59-4.94-22-5s-23.72 6.46-31.69 1.11-20.18-8.92-21.23-15.66 8.48-4.92 11.36-5.61 1.66-8.13 7.15-9.87 7.32 1.47 12.26 1.2 5.85-9.78 12.93-9 5.78 4.8 9 6.07 8.48-3.18 12.7-2 3.01 6.71 7.96 6.95Z" style="fill:#37474f"/><path d="M246.09 258.35c-4.72 3.18-7.3 10.69-3.5 17.83s13.42 6.23 18 3.1 8.45-10.94 4.54-17.6c-3.35-5.78-10.77-8.9-19.04-3.33Z" style="fill:#d96a6a"/><path d="M246.09 258.35c-4.72 3.18-7.3 10.69-3.5 17.83s13.42 6.23 18 3.1 8.45-10.94 4.54-17.6c-3.35-5.78-10.77-8.9-19.04-3.33Z" style="opacity:.1"/><path d="M247.49 260.22c-3.85 2.59-6 8.73-2.85 14.56s11 5.09 14.72 2.53 6.91-8.93 3.72-14.38c-2.76-4.72-8.82-7.26-15.59-2.71Z" style="fill:#d96a6a"/><path d="M255.55 263.46c.34.27 1.56-.75.89-1.23s-1.33.89-.89 1.23ZM258.4 270.15c-.17.39 1.12 1.32 1.42.55s-1.19-1.07-1.42-.55ZM261.26 267.55c.07.42 1.66.49 1.49-.32s-1.58-.23-1.49.32ZM255.47 260.53c.42-.07.5-1.65-.31-1.49s-.25 1.58.31 1.49ZM247.86 266.07c.11-.41-1.31-1.13-1.49-.32s1.34.87 1.49.32ZM251.26 274.91c-.35-.25-1.52.82-.83 1.27s1.29-.94.83-1.27ZM254.05 274.37c-.42-.07-1 1.41-.18 1.51s.74-1.42.18-1.51ZM251.12 268.11c.3-.3-.58-1.63-1.13-1s.73 1.4 1.13 1Z" style="fill:#fff"/><path d="M242.56 269.21s7.75-.86 8.77.71-4.49 8.47-5.4 7.86-4.21-5.95-3.37-8.57Z" style="fill:#d96a6a"/><path d="M242.56 269.21s7.75-.86 8.77.71-4.49 8.47-5.4 7.86-4.21-5.95-3.37-8.57Z" style="opacity:.1"/><path d="M255.81 279.49s-2.29-7.46-.93-8.75 9.15 2.83 8.73 3.84-5.07 5.24-7.8 4.91Z" style="fill:#d96a6a"/><path d="M255.81 279.49s-2.29-7.46-.93-8.75 9.15 2.83 8.73 3.84-5.07 5.24-7.8 4.91Z" style="opacity:.1"/><path d="M265.68 265.75s-7.58 1.84-8.79.41 3.37-9 4.35-8.48 4.93 5.32 4.44 8.07Z" style="fill:#d96a6a"/><path d="M265.68 265.75s-7.58 1.84-8.79.41 3.37-9 4.35-8.48 4.93 5.32 4.44 8.07Z" style="opacity:.1"/><path d="M252.83 256.68s1.85 7.58.42 8.79-9-3.37-8.49-4.35 5.37-4.94 8.07-4.44Z" style="fill:#d96a6a"/><path d="M252.83 256.68s1.85 7.58.42 8.79-9-3.37-8.49-4.35 5.37-4.94 8.07-4.44Z" style="opacity:.1"/><path d="M286.78 240.74c-5.56-1.22-12.77 2.1-15.31 9.78s4.76 14 10.21 15.18 13.74-1.44 15.87-8.87c1.84-6.43-1.03-13.95-10.77-16.09Z" style="fill:#d96a6a"/><path d="M286.78 240.74c-5.56-1.22-12.77 2.1-15.31 9.78s4.76 14 10.21 15.18 13.74-1.44 15.87-8.87c1.84-6.43-1.03-13.95-10.77-16.09Z" style="opacity:.1"/><path d="M286.4 243c-4.53-1-10.42 1.72-12.5 8s3.89 11.45 8.34 12.4 11.23-1.17 13-7.24c1.47-5.23-.88-11.37-8.84-13.16Z" style="fill:#d96a6a"/><path d="M289.62 251.11c0 .43 1.62.61 1.51-.21s-1.57-.35-1.51.21ZM286.76 257.79c-.41.15-.19 1.72.57 1.41s-.05-1.6-.57-1.41ZM290.61 258.06c-.26.35.78 1.54 1.25.86s-.92-1.31-1.25-.86ZM291.68 249c.34.27 1.55-.77.87-1.24s-1.32.92-.87 1.24ZM282.42 247.35c.38-.21-.09-1.73-.79-1.3s.3 1.57.79 1.3ZM278.38 255.92c-.06-.43-1.65-.54-1.5.27s1.57.28 1.5-.27ZM280.69 257.56c-.24-.36-1.71.25-1.22.91s1.53-.47 1.22-.91ZM283.19 251.12c.43 0 .78-1.55 0-1.53s-.56 1.52 0 1.53Z" style="fill:#fff"/><path d="M276.49 245.68s6 5 5.55 6.84-9.23 2.6-9.42 1.52 1.38-7.15 3.87-8.36Z" style="fill:#d96a6a"/><path d="M276.49 245.68s6 5 5.55 6.84-9.23 2.6-9.42 1.52 1.38-7.15 3.87-8.36Z" style="opacity:.1"/><path d="M278.21 262.37s3.81-6.81 5.68-6.72 4.27 8.58 3.25 9-7.29-.07-8.93-2.28Z" style="fill:#d96a6a"/><path d="M278.21 262.37s3.81-6.81 5.68-6.72 4.27 8.58 3.25 9-7.29-.07-8.93-2.28Z" style="opacity:.1"/><path d="M295 260s-6.57-4.22-6.37-6.08 8.82-3.75 9.14-2.71-.51 7.3-2.77 8.79Z" style="fill:#d96a6a"/><path d="M295 260s-6.57-4.22-6.37-6.08 8.82-3.75 9.14-2.71-.51 7.3-2.77 8.79Z" style="opacity:.1"/><path d="M292.65 244.46s-4.21 6.57-6.07 6.37-3.75-8.81-2.71-9.14 7.27.47 8.78 2.77Z" style="fill:#d96a6a"/><path d="M292.65 244.46s-4.21 6.57-6.07 6.37-3.75-8.81-2.71-9.14 7.27.47 8.78 2.77Z" style="opacity:.1"/><path d="M302.46 277.36c4.19 3.85 12.09 4.6 18.15-.76s2.92-14.51-1.2-18.25-12.61-5.66-18.18-.31c-4.82 4.64-6.12 12.58 1.23 19.32Z" style="fill:#d96a6a"/><path d="M302.46 277.36c4.19 3.85 12.09 4.6 18.15-.76s2.92-14.51-1.2-18.25-12.61-5.66-18.18-.31c-4.82 4.64-6.12 12.58 1.23 19.32Z" style="opacity:.1"/><path d="M303.94 275.56c3.42 3.14 9.88 3.75 14.83-.62s2.39-11.85-1-14.92-10.3-4.62-14.85-.25c-3.92 3.79-4.98 10.28 1.02 15.79Z" style="fill:#d96a6a"/><path d="M305.22 267c.18-.39-1.1-1.34-1.41-.58s1.19 1.06 1.41.58ZM311.05 262.63c.42.08 1-1.39.2-1.51s-.76 1.41-.2 1.51ZM307.85 260.46c.4-.16.1-1.72-.65-1.37s.14 1.59.65 1.37ZM302.38 267.74c-.16-.4-1.72-.11-1.38.64s1.6-.13 1.38-.64ZM309.55 273.84c-.43 0-.79 1.53 0 1.52s.56-1.51 0-1.52ZM317.35 268.46c-.16.4 1.15 1.29 1.43.52s-1.22-1.04-1.43-.52ZM316.17 265.88c0 .43 1.61.64 1.51-.18s-1.55-.38-1.51.18ZM310.77 270.19c-.37-.22-1.45.95-.72 1.34s1.21-1.05.72-1.34Z" style="fill:#fff"/><path d="M313.84 278.26s-2.65-7.34-1.36-8.7 9.28 2.39 8.91 3.41-4.8 5.49-7.55 5.29Z" style="fill:#d96a6a"/><path d="M313.84 278.26s-2.65-7.34-1.36-8.7 9.28 2.39 8.91 3.41-4.8 5.49-7.55 5.29Z" style="opacity:.1"/><path d="M320.74 263s-6.72 4-8.29 2.95.61-9.56 1.69-9.38 6.28 3.66 6.6 6.43Z" style="fill:#d96a6a"/><path d="M320.74 263s-6.72 4-8.29 2.95.61-9.56 1.69-9.38 6.28 3.66 6.6 6.43Z" style="opacity:.1"/><path d="M305.07 256.59s3.56 6.94 2.46 8.45-9.51-1.19-9.27-2.25 4.07-6.05 6.81-6.2Z" style="fill:#d96a6a"/><path d="M305.07 256.59s3.56 6.94 2.46 8.45-9.51-1.19-9.27-2.25 4.07-6.05 6.81-6.2Z" style="opacity:.1"/><path d="M299.25 271.19s6.95-3.56 8.46-2.45-1.19 9.51-2.26 9.27-6.05-4.07-6.2-6.82Z" style="fill:#d96a6a"/><path d="M299.25 271.19s6.95-3.56 8.46-2.45-1.19 9.51-2.26 9.27-6.05-4.07-6.2-6.82Z" style="opacity:.1"/><path d="M333 264.79c4.19 3.85 12.09 4.59 18.15-.77s2.92-14.5-1.2-18.25-12.61-5.66-18.18-.31C327 250.1 325.65 258 333 264.79Z" style="fill:#d96a6a"/><path d="M333 264.79c4.19 3.85 12.09 4.59 18.15-.77s2.92-14.5-1.2-18.25-12.61-5.66-18.18-.31C327 250.1 325.65 258 333 264.79Z" style="opacity:.1"/><path d="M334.48 263c3.42 3.14 9.88 3.75 14.83-.63s2.39-11.85-1-14.91-10.3-4.63-14.85-.25c-3.92 3.79-4.98 10.26 1.02 15.79Z" style="fill:#d96a6a"/><path d="M335.76 254.39c.18-.39-1.1-1.33-1.41-.57s1.17 1.08 1.41.57ZM341.59 250.06c.42.07 1-1.4.2-1.51s-.79 1.45-.2 1.51ZM338.39 247.89c.4-.17.1-1.73-.65-1.38s.14 1.6.65 1.38ZM332.92 255.16c-.16-.4-1.72-.1-1.38.64s1.6-.12 1.38-.64ZM340.09 261.26c-.43 0-.79 1.54 0 1.52s.56-1.5 0-1.52ZM347.89 255.89c-.16.4 1.15 1.29 1.43.51s-1.22-1.03-1.43-.51ZM346.71 253.3c0 .43 1.61.64 1.51-.17s-1.55-.39-1.51.17ZM341.31 257.62c-.37-.22-1.45.94-.72 1.34s1.21-1.05.72-1.34Z" style="fill:#fff"/><path d="M344.38 265.68s-2.65-7.34-1.36-8.69 9.28 2.38 8.91 3.41-4.8 5.48-7.55 5.28Z" style="fill:#d96a6a"/><path d="M344.38 265.68s-2.65-7.34-1.36-8.69 9.28 2.38 8.91 3.41-4.8 5.48-7.55 5.28Z" style="opacity:.1"/><path d="M351.28 250.39s-6.72 4-8.29 3 .61-9.56 1.69-9.39 6.32 3.66 6.6 6.39Z" style="fill:#d96a6a"/><path d="M351.28 250.39s-6.72 4-8.29 3 .61-9.56 1.69-9.39 6.32 3.66 6.6 6.39Z" style="opacity:.1"/><path d="M335.61 244s3.56 6.94 2.46 8.45-9.51-1.18-9.27-2.25 4.07-6.04 6.81-6.2Z" style="fill:#d96a6a"/><path d="M335.61 244s3.56 6.94 2.46 8.45-9.51-1.18-9.27-2.25 4.07-6.04 6.81-6.2Z" style="opacity:.1"/><path d="M329.79 258.62s6.95-3.56 8.46-2.46-1.19 9.51-2.26 9.27-6.05-4.06-6.2-6.81Z" style="fill:#d96a6a"/><path d="M329.79 258.62s6.95-3.56 8.46-2.46-1.19 9.51-2.26 9.27-6.05-4.06-6.2-6.81Z" style="opacity:.1"/><path style="fill:#ebebeb" d="m231.01 271.43 29.28 39.89 76.46-4.82 24.04-43.25-129.78 8.18z"/><path d="M169.93 204.82c-18.29 48.67-33.25 101.69-21.93 112.27 9.14 8.53 85.05 21 101.66 19.87 7.06-.46 14.23-55 2-56.91-3.48-.54-58-1.79-58.54-3-1.79-3.74-.36-30.18.31-61.69.84-40.5-15.76-31.14-23.5-10.54Z" style="fill:#ad6359"/><path d="M245.9 336.5c19.77 2.34 44.24 6.46 64.81-2.57a11.15 11.15 0 0 0 5.46-4.82c9.29-3.88 10.25-9.44 10.25-9.44 7.54-6.27 7.74-12.08 7.74-12.08s10.85-4.68 9.11-11.71c-1.93-7.9-16.8.22-27.7-.31-25-1.23-63.86-10.17-71-11.24Z" style="fill:#ad6359"/><path d="M288.51 312.65c7.36.21 14.59.62 21.94-.17 8.07-.86 15.69-3 23.5-5.06a.19.19 0 0 1 .12.37c-13.56 5.9-31 7.63-45.58 5.19-.35-.05-.35-.34.02-.33ZM285.58 327.63c7.17-.19 19.78-.6 40.79-8.22.07 0 .13.08.06.12-13 6.76-26.35 9.27-40.84 8.44-.45-.03-.49-.33-.01-.34ZM284.15 335.7c12.19-.78 19.77-2.82 32-6.66.06 0 .12.09.05.12-13.43 5.83-19 6.42-32.08 7-.45-.02-.45-.43.03-.46Z" style="fill:#263238"/><path d="M285.55 292.18c-3.19-1.45-2.46-3.13 3.6-4.61s31.26-2.21 30.26-11-36.16-5.58-46.44-4a71.08 71.08 0 0 0-29.86 12.55c6.98 1.1 28.77 4.76 42.44 7.06Z" style="fill:#ad6359"/><path d="m194.65 265.4-53.19 11.84s18.19-56.05 30-77.91c12.4-22.78 23.78-23.59 24.54 10.67.67 33.84-1.35 55.4-1.35 55.4Z" style="fill:#d96a6a"/><path d="M148.31 266.75c1.3-.44 2.68-.7 4-1l4.12-1c2.79-.67 5.59-1.29 8.39-1.9 5.59-1.21 11.19-2.45 16.8-3.57 1.55-.3 3.09-.61 4.64-.87s3.29-.45 4.92-.73c.1 0 .11.13 0 .15-1.38.34-2.73.8-4.11 1.15s-2.82.7-4.24 1q-4.2.94-8.4 1.83c-5.52 1.15-11 2.33-16.58 3.36l-4.65.86c-1.61.3-3.25.7-4.89.85-.05.02-.09-.1 0-.13Z" style="fill:#263238"/><path d="M153.58 245.07c1.28-3.61 2.45-7.24 3.68-10.86 1.39-4.11 2.65-8.26 4-12.39 0-.1-.15-.16-.19-.06-1.67 4.4-7.36 19.06-8.26 21.55-2.63 7.25-5.26 14.5-7.83 21.77-1.44 4.08-3 8.79-4.42 12.87-.1.3 4.17-.86 6.41-1.53.12 0 .2-.45.05-.41-2.12.48-5 .79-5.32.87 2.73-6.9 5.35-13.85 7.92-20.82q2.01-5.48 3.96-10.99ZM196.35 239.15a16.08 16.08 0 0 0 1.1-6.2h-.07a33.5 33.5 0 0 1-1 5.55v-2.31c0-2.79 0-5.58-.1-8.36h-.08c-.34 4.86-.46 9.73-.69 14.59s-.43 9.86-.63 14.79c-.11 2.68-.23 5.37-.28 8.06-.85.27-1.54.39-2.29.63-.2.06-.14.42.09.38a15 15 0 0 0 2.88-.68c.84-8.79 1.02-17.6 1.07-26.45Z" style="fill:#263238"/><path d="M187 264.43a17.73 17.73 0 0 0-.85 2.86l.87-.19a22 22 0 0 0 1.05-2.25 16.1 16.1 0 0 0 1-4.3 15.19 15.19 0 0 0-2.07 3.88Zm-25-21.62a15.12 15.12 0 0 0-1 4.3 17.45 17.45 0 0 0 3.15-8.2 15.09 15.09 0 0 0-2.15 3.9Zm26-7.59a15.66 15.66 0 0 0-2.31-3.79 15.05 15.05 0 0 0 1.26 4.25 15.47 15.47 0 0 0 2.31 3.79 15.38 15.38 0 0 0-1.2-4.25Zm-.26-42.93a15.41 15.41 0 0 0-2.31-3.78 15.77 15.77 0 0 0 1.26 4.24 15.47 15.47 0 0 0 2.31 3.79 15.38 15.38 0 0 0-1.2-4.25Zm-27.86 74.92a16.08 16.08 0 0 0-3.78 2.3 15.25 15.25 0 0 0 4.25-1.26 15.75 15.75 0 0 0 3.78-2.3 15.59 15.59 0 0 0-4.19 1.26ZM175.24 214a15.74 15.74 0 0 0-3.79 2.3 15.05 15.05 0 0 0 4.25-1.3 15.31 15.31 0 0 0 3.79-2.3 15.73 15.73 0 0 0-4.25 1.3Z" style="fill:#fff"/></g><g id="freepik--Water--inject-2"><path d="M262 442.78c0 4.19-36.34 4.14-36.33-.06l.18-42.42a6.93 6.93 0 0 0 2.27-.57.64.64 0 0 0 0-1.17 8.77 8.77 0 0 0-2.28-.71v-2.28a7 7 0 0 0 2.28-.56.68.68 0 0 0 0-1.21 11.1 11.1 0 0 0-2.28-.67v-2.28a7.25 7.25 0 0 0 2.28-.57.67.67 0 0 0 0-1.2 10.15 10.15 0 0 0-2.28-.68v-2.31a8.39 8.39 0 0 0 2.28-.54.67.67 0 0 0 0-1.2 12.67 12.67 0 0 0-2.28-.7v-9.59c0-3.37 11.2-14.08 12.93-15.72l.23-.21v-2.61h10.11v2.61s13.12 12.32 13.12 16v9.58a13.15 13.15 0 0 0-2.28.71.52.52 0 0 0-.26.22.67.67 0 0 0 .07.83.41.41 0 0 0 .19.15 8.31 8.31 0 0 0 2.27.54v2.31a10.47 10.47 0 0 0-2.2.64h-.08a.67.67 0 0 0 0 1.2l.18.07a7 7 0 0 0 2.11.51v2.28a10.13 10.13 0 0 0-1.85.51l-.43.16a.67.67 0 0 0 0 1.2 2.54 2.54 0 0 0 .53.2 6.53 6.53 0 0 0 1.75.37v2.28a9.61 9.61 0 0 0-1.54.4c-.27.1-.52.21-.73.31a.64.64 0 0 0 0 1.17 5.75 5.75 0 0 0 .86.3 6.88 6.88 0 0 0 1.42.27v22Z" style="fill:#fff;opacity:.8"/><path d="m259.05 378.8-.05 39.72-.12 21c0 3.44-29.92 3.41-29.91-.06l.18-60.3c2.53.9 8.43 2.73 13.54 2.19s11.63-2.35 16.31-2.74a.58.58 0 0 1 .05.19Z" style="fill:#ebebeb;opacity:.8"/><rect x="236.43" y="349.1" width="15.32" height="6.42" rx=".51" transform="rotate(.08 236.585 343.61)" style="fill:#d96a6a"/></g><g id="freepik--Bowl--inject-2"><path d="M50.66 408.51a6.56 6.56 0 0 0 5.91-3.8s2.66 2.59 7 .8 8.88-12.69 5.66-21.76-11.68-11.21-18.49-4.12c-9.21-3.37-15.9 2.28-14.76 11.84S46 408.83 50.66 408.51Z" style="fill:#d96a6a"/><path d="M42.93 369.29a13.61 13.61 0 0 1 9.5 10.41c.44 2.24-3 3.06-3.48.8-.75-3.78-4-5.46-7.68-6.56-2.2-.66-.55-5.31 1.66-4.65Z" style="fill:#37474f"/><path d="M50.1 382s.67-10.43 10.71-11.79A14.44 14.44 0 0 1 50.1 382Z" style="fill:#37474f"/><path d="M84.33 406.74A6.55 6.55 0 0 0 91 409s-.39 3.7 3.7 6 15.47-.87 20.61-9 1.59-16.11-8.19-17.09c-3-9.32-11.62-11.09-18.43-4.29s-7.51 18.62-4.36 22.12Z" style="fill:#d96a6a"/><path d="M110.39 376.42a13.61 13.61 0 0 1-2.31 13.9c-1.49 1.74-4.28-.49-2.78-2.23 2.51-2.93 1.83-6.51.41-10.1-.85-2.13 3.83-3.71 4.68-1.57Z" style="fill:#37474f"/><path d="M104.86 389.88s8.62-5.92 15.89 1.14a14.45 14.45 0 0 1-15.89-1.14Z" style="fill:#37474f"/><path d="M77.73 413.18a6.56 6.56 0 0 1-5.23-4.69s-3 2.14-7.06-.31-6.75-13.94-2.14-22.39 13.3-9.22 18.91-1.15c9.63-1.86 15.34 4.78 12.7 14s-12.59 15.59-17.18 14.54Z" style="fill:#d96a6a"/><path d="M77.73 413.18a6.56 6.56 0 0 1-5.23-4.69s-3 2.14-7.06-.31-6.75-13.94-2.14-22.39 13.3-9.22 18.91-1.15c9.63-1.86 15.34 4.78 12.7 14s-12.59 15.59-17.18 14.54Z" style="opacity:.1"/><path d="M91.57 375.67a13.62 13.62 0 0 0-11 8.78c-.79 2.14 2.51 3.5 3.31 1.34 1.33-3.61 4.8-4.76 8.62-5.26 2.25-.3 1.35-5.16-.93-4.86Z" style="fill:#37474f"/><path d="M82.49 387s1-10.4-8.71-13.33A14.42 14.42 0 0 0 82.49 387Z" style="fill:#37474f"/><path d="M130.62 411.39a6.58 6.58 0 0 1-6.77-1.91s-1.78 3.26-6.47 2.82-12.2-9.54-11.77-19.16 7.89-14.13 16.48-9.35c7.82-5.91 15.87-2.46 17.57 7s-4.46 19.53-9.04 20.6Z" style="fill:#d96a6a"/><path d="M130.62 411.39a6.58 6.58 0 0 1-6.77-1.91s-1.78 3.26-6.47 2.82-12.2-9.54-11.77-19.16 7.89-14.13 16.48-9.35c7.82-5.91 15.87-2.46 17.57 7s-4.46 19.53-9.04 20.6Z" style="opacity:.1"/><path d="M126.54 371.62a13.62 13.62 0 0 0-6 12.73c.23 2.28 3.79 2 3.56-.25-.39-3.83 2.22-6.38 5.43-8.52 1.88-1.27-1.07-5.23-2.99-3.96Z" style="fill:#37474f"/><path d="M123.39 385.82s-3.69-9.78-13.69-8.14a14.44 14.44 0 0 0 13.69 8.14Z" style="fill:#37474f"/><path d="M139.48 397.73S130.33 432 118.36 432H55c-12 0-21.11-34.27-21.11-34.27Z" style="fill:#ebebeb"/></g><g id="freepik--Oil--inject-2"><path d="M404.69 400.15c9.51-12 9.2-14.43 9.07-15.49 0-.28-4.95-28.23-13.82-28.23h-17.45c.06-3.36.16-5.94.24-6.52.35-2.56 1.58-5 3.54-5s2-2.41 0-2.41h-36.43c-1.95 0-1.95 2.41 0 2.41s9.23 2.81 10.32 4.23 1.4 22.49 1.13 27.27-22.29 17.08-25.43 31.49 4.52 34.94 36.11 34.94 39.24-20.53 36.12-34.94a24 24 0 0 0-3.4-7.75Zm-22-23.71c-.26-1.92-.31-7.92-.26-13.74h17.19c2.79 2.17 7.18 17.65 7.91 22.35-.59 1.54-3.59 5.86-6.72 9.93-7.49-8.57-17.73-15.36-18.16-18.54Z" style="fill:#fff"/><path d="M404.69 400.15c1.76-2.25 3.49-4.53 5.1-6.89.8-1.18 1.58-2.38 2.27-3.62a13.38 13.38 0 0 0 1.62-3.92 5.78 5.78 0 0 0-.2-2.1l-.44-2.09q-.45-2.1-1-4.17c-.71-2.76-1.53-5.5-2.48-8.19a42.76 42.76 0 0 0-3.57-7.74 14.7 14.7 0 0 0-2.63-3.29 5.25 5.25 0 0 0-3.74-1.51h-17.37v-.23l.15-4.14.07-2.06a8.61 8.61 0 0 1 .39-2.06 7.18 7.18 0 0 1 .89-1.93 3.49 3.49 0 0 1 1.67-1.4 2 2 0 0 1 .55-.12h.51a1.23 1.23 0 0 0 .76-.35.87.87 0 0 0-.24-1.34 4.7 4.7 0 0 0-1.9-.18h-35c-.66 0-1.22.16-1.37.67a.88.88 0 0 0 .79 1.09c.25 0 .68 0 1 .1s.69.14 1 .22c.68.18 1.34.38 2 .61a38.68 38.68 0 0 1 3.85 1.55 19.17 19.17 0 0 1 1.85 1 7.35 7.35 0 0 1 .89.64 1.6 1.6 0 0 1 .39.51 2.64 2.64 0 0 1 .17.55 33 33 0 0 1 .51 4.14c.2 2.75.3 5.49.38 8.24s.13 5.5.14 8.25v4.13c0 .69 0 1.35-.08 2.09a4.41 4.41 0 0 1-1 2 49.26 49.26 0 0 1-5.91 5.83c-2.06 1.82-4.12 3.63-6.11 5.51-3.95 3.77-7.78 7.78-10.38 12.57a20.62 20.62 0 0 0-2.47 7.68 28 28 0 0 0 .09 8.12l.14 1c.07.33.16.66.24 1l.49 2 .72 1.91.36.95.46.91.94 1.81c.36.57.77 1.12 1.15 1.68a23.48 23.48 0 0 0 2.59 3.14 13.92 13.92 0 0 0 1.49 1.38l1.55 1.32c1.15.73 2.25 1.54 3.43 2.21s2.42 1.26 3.69 1.75 2.56 1 3.87 1.34a56.88 56.88 0 0 0 16.23 1.88l4.1-.16c1.36-.13 2.72-.34 4.07-.51a32.51 32.51 0 0 0 4-.81c.66-.16 1.34-.29 2-.49l1.93-.68a30.29 30.29 0 0 0 13.41-9c.44-.52.79-1.11 1.19-1.66a12 12 0 0 0 1.11-1.72l1-1.81a15.69 15.69 0 0 0 .79-1.89 26.6 26.6 0 0 0 1.76-8 29.86 29.86 0 0 0-.58-8.17 24.08 24.08 0 0 0-3.28-7.55Zm0 0a24.27 24.27 0 0 1 3.37 7.48 30.12 30.12 0 0 1 .66 8.2 26.87 26.87 0 0 1-1.71 8.05 13.67 13.67 0 0 1-.78 1.91l-1 1.84a13.08 13.08 0 0 1-1.1 1.74c-.4.56-.75 1.16-1.2 1.69a30.13 30.13 0 0 1-13.49 9.23l-1.95.69c-.66.2-1.34.33-2 .5a35 35 0 0 1-4 .83c-1.37.17-2.73.39-4.1.52l-4.13.18a57.69 57.69 0 0 1-16.38-1.85c-1.32-.39-2.61-.9-3.92-1.35s-2.5-1.18-3.75-1.77-2.33-1.49-3.5-2.23l-1.58-1.35a13.59 13.59 0 0 1-1.53-1.4 25.37 25.37 0 0 1-2.66-3.2c-.39-.57-.8-1.13-1.17-1.71l-1-1.85-.48-.92-.37-1-.73-1.94-.52-2c-.08-.34-.18-.67-.25-1l-.14-1a28.44 28.44 0 0 1-.12-8.29 21.44 21.44 0 0 1 2.52-7.91 37.77 37.77 0 0 1 4.75-6.79 76.8 76.8 0 0 1 5.72-6c2-1.9 4.06-3.72 6.11-5.55a49 49 0 0 0 5.79-5.73 4 4 0 0 0 .83-1.65c.06-.63.06-1.35.08-2v-4.11c0-2.74 0-5.49-.11-8.23s-.17-5.48-.36-8.21a32.88 32.88 0 0 0-.47-4c0-.17-.09-.31-.13-.44a1.14 1.14 0 0 0-.24-.29 6.82 6.82 0 0 0-.78-.57 17.86 17.86 0 0 0-1.79-.94 38.85 38.85 0 0 0-3.78-1.54 14.39 14.39 0 0 0-3.95-.92 1.6 1.6 0 0 1-1.06-.63 1.4 1.4 0 0 1-.22-1.25 1.52 1.52 0 0 1 .84-.93 2.62 2.62 0 0 1 1.13-.18H386.08a2.17 2.17 0 0 1 1.12.24 1.38 1.38 0 0 1 .71 1 1.37 1.37 0 0 1-.36 1.16 1.71 1.71 0 0 1-1.06.51 3.3 3.3 0 0 0-1 .14 2.92 2.92 0 0 0-1.43 1.2 6.71 6.71 0 0 0-.83 1.8 14.17 14.17 0 0 0-.46 4l-.15 4.09-.23-.23h17.14a5.67 5.67 0 0 1 4 1.62 14.88 14.88 0 0 1 2.69 3.39 42.67 42.67 0 0 1 3.53 7.83c.94 2.71 1.73 5.46 2.42 8.24.34 1.38.66 2.78 1 4.18l.42 2.1a5.74 5.74 0 0 1 .17 2.15 13.11 13.11 0 0 1-1.66 3.95c-.71 1.25-1.5 2.44-2.31 3.61-1.58 2.39-3.32 4.65-5.1 6.89Z" style="fill:#263238"/><path d="M382.65 376.44c-.14-1.14-.17-2.28-.22-3.43l-.08-3.44v-6.94h.07l17.19-.21h.11l.06.06.57.57c.16.21.3.43.45.64a14.58 14.58 0 0 1 .78 1.31c.46.9.86 1.82 1.25 2.74.75 1.86 1.41 3.75 2 5.65s1.19 3.81 1.69 5.74 1 3.88 1.3 5.87V385.17a18.65 18.65 0 0 1-1.51 2.67c-.55.84-1.13 1.66-1.72 2.48q-1.76 2.43-3.62 4.8l-.17.21-.18-.2a105 105 0 0 0-9.15-9.24c-1.61-1.46-3.24-2.9-4.82-4.39-.79-.75-1.57-1.5-2.29-2.32a6.48 6.48 0 0 1-1.71-2.74Zm0 0a6.49 6.49 0 0 0 1.71 2.72c.73.81 1.52 1.56 2.31 2.3 1.6 1.47 3.24 2.9 4.86 4.33a108.53 108.53 0 0 1 9.41 9h-.35q1.8-2.4 3.5-4.86c.56-.83 1.12-1.66 1.65-2.49a18.23 18.23 0 0 0 1.44-2.56v.17c-.34-1.93-.83-3.86-1.35-5.78s-1.07-3.82-1.66-5.72-1.24-3.77-2-5.61c-.36-.92-.76-1.82-1.19-2.71a8.63 8.63 0 0 0-1.58-2.36l.17.06-17.19-.21.07-.07q-.06 3.44 0 6.87v3.44c.05 1.19.07 2.34.2 3.48Z" style="fill:#263238"/><path d="M371.19 438c-26.56 0-33-17.26-30.37-29.36s25-25.66 24.53-29.59c-.08-.77-.14-16.18-.17-17.79h13.23c0 1.68.1 17.1.19 17.79.53 3.92 20.31 17.46 23 29.59S397.75 438 371.19 438Z" style="fill:#d96a6a"/></g><g id="freepik--speech-bubble--inject-2"><path d="M343.73 86.39a30 30 0 0 1-50.22 19l-15 2.21 7.52-13a29.66 29.66 0 0 1-2.06-14.47 30.06 30.06 0 0 1 59.79 6.25Z" style="fill:#fff"/><path d="M343.73 86.39a30.3 30.3 0 0 1-6.06 15.24 35.28 35.28 0 0 1-2.73 3.14 33.76 33.76 0 0 1-3.17 2.68 29.62 29.62 0 0 1-7.25 4 30 30 0 0 1-8.09 1.93 30.71 30.71 0 0 1-4.18.08 26.31 26.31 0 0 1-4.16-.43 30.38 30.38 0 0 1-14.87-7.35l.36.11-15 2.31-1.09.17.55-1 7.48-13v.51A30.42 30.42 0 0 1 287.31 68a30.78 30.78 0 0 1 9.41-10 30.62 30.62 0 0 1 26.42-3.56 30.89 30.89 0 0 1 11.6 7.11 30.24 30.24 0 0 1 8.99 24.84Zm0 0a29.75 29.75 0 0 0-34.08-32.53 29.7 29.7 0 0 0-12.42 4.91 30.9 30.9 0 0 0-9 9.81 29.69 29.69 0 0 0-3.82 12.72 30 30 0 0 0 2.12 13.09l.11.27-.15.24-7.56 13-.54-.79 15.06-2.11h.21l.15.14a29.57 29.57 0 0 0 14.39 7.41 26.6 26.6 0 0 0 4.08.5 28.82 28.82 0 0 0 12.14-1.78 27.9 27.9 0 0 0 7.25-3.9 27.2 27.2 0 0 0 5.91-5.76 30.13 30.13 0 0 0 6.15-15.22Z" style="fill:#263238"/><path d="M326.58 88.93a39.22 39.22 0 0 1-12.63 11 39.25 39.25 0 0 1-12.62-11c-4.44-5.88-4.22-15.09 2.13-17.08 7-2.2 10.49 8.38 10.49 8.38s3.51-10.65 10.5-8.38c6.33 2.06 6.55 11.2 2.13 17.08Z" style="fill:#d96a6a"/></g></svg>