<svg xmlns="http://www.w3.org/2000/svg" viewBox="0 0 500 500"><g id="freepik--background-simple--inject-37"><path d="M362.85 77.67a119.69 119.69 0 0 1-45.28-26.19c-17.89-16.34-51-36.68-100.42-28.91C138.08 35 107.87 79.44 91.87 146.07s-107.5 146.6-70.19 216.79 108.4 112 222.13 96 129.72-58.64 148.38-122.61 87.07-96 90.62-164.37c2.56-49.24-75.81-80.52-119.96-94.21Z" style="fill:#d96a6a"/><path d="M362.85 77.67a119.69 119.69 0 0 1-45.28-26.19c-17.89-16.34-51-36.68-100.42-28.91C138.08 35 107.87 79.44 91.87 146.07s-107.5 146.6-70.19 216.79 108.4 112 222.13 96 129.72-58.64 148.38-122.61 87.07-96 90.62-164.37c2.56-49.24-75.81-80.52-119.96-94.21Z" style="fill:#fff;opacity:.7"/></g><g id="freepik--Plant--inject-37"><path d="M451 421.44a.49.49 0 0 1-.49-.44l-14.23-136a.5.5 0 0 1 .44-.55.5.5 0 0 1 .55.45l14.19 136a.5.5 0 0 1-.44.55Z" style="fill:#b2b2b2"/><path d="M448.17 394.86a.46.46 0 0 1-.36-.16l-5.93-6.23a.49.49 0 0 1 0-.7.5.5 0 0 1 .71 0l5.92 6.23a.5.5 0 0 1 0 .71.49.49 0 0 1-.34.15Z" style="fill:#b2b2b2"/><path d="M444.2 390.16a7.29 7.29 0 0 0-2.56-5.45c-1.65-1.48-10.34-5.13-11.17-2.07-.89 3.36 8 9.86 13.73 7.52Z" style="fill:#fff"/><path d="M441.55 391.15a14.61 14.61 0 0 1-9-3.72c-2-1.75-2.91-3.55-2.54-4.92a2 2 0 0 1 1.45-1.4c2.84-.84 9.07 1.92 10.53 3.22a7.77 7.77 0 0 1 2.73 5.87v.31l-.29.12a7.5 7.5 0 0 1-2.88.52Zm-8.86-9.2a3.45 3.45 0 0 0-1 .12c-.57.17-.72.48-.77.7-.26 1 .59 2.46 2.23 3.91 2.77 2.45 7.21 4.26 10.51 3.14a6.93 6.93 0 0 0-2.39-4.74c-1.11-1.03-5.87-3.08-8.58-3.08Z" style="fill:#b2b2b2"/><path d="M444.2 390.67a.56.56 0 0 1-.27-.08l-8.27-5.16a.5.5 0 0 1-.16-.68.51.51 0 0 1 .69-.17l8.27 5.16a.5.5 0 0 1-.26.93ZM449.64 408.9a.54.54 0 0 1-.32-.11l-5.78-4.79a.52.52 0 0 1-.07-.71.51.51 0 0 1 .71-.06L450 408a.5.5 0 0 1 .07.7.51.51 0 0 1-.43.2Z" style="fill:#b2b2b2"/><path d="M445.81 405.63a7.26 7.26 0 0 0-2.56-5.46c-1.65-1.47-10.34-5.13-11.16-2.07-.9 3.33 7.99 9.9 13.72 7.53Z" style="fill:#fff"/><path d="M443.17 406.61a14.66 14.66 0 0 1-9-3.72c-2-1.75-2.91-3.54-2.54-4.92a2 2 0 0 1 1.46-1.4c2.83-.84 9.06 1.92 10.53 3.23a7.72 7.72 0 0 1 2.72 5.86v.31l-.29.12a7.45 7.45 0 0 1-2.88.52Zm-8.87-9.2a3.5 3.5 0 0 0-1 .12 1 1 0 0 0-.77.7c-.26 1 .6 2.47 2.23 3.91 2.78 2.45 7.22 4.27 10.51 3.14a6.93 6.93 0 0 0-2.39-4.74c-1.11-1.02-5.88-3.13-8.58-3.13Z" style="fill:#b2b2b2"/><path d="M445.81 406.13a.5.5 0 0 1-.26-.08l-8.27-5.15a.49.49 0 0 1-.16-.69.48.48 0 0 1 .68-.16l8.28 5.15a.51.51 0 0 1 .16.69.52.52 0 0 1-.43.24ZM444.15 356.15a.5.5 0 0 1-.34-.13l-5.81-5.25a.5.5 0 0 1 .67-.75l5.84 5.26a.5.5 0 0 1 0 .71.49.49 0 0 1-.36.16Z" style="fill:#b2b2b2"/><path d="M440.26 352.43a7.25 7.25 0 0 0-2.56-5.43c-1.65-1.48-10.34-5.14-11.16-2.07-.9 3.3 7.99 9.84 13.72 7.5Z" style="fill:#fff"/><path d="M437.61 353.42a14.67 14.67 0 0 1-9-3.73c-2-1.75-2.91-3.54-2.54-4.91a2 2 0 0 1 1.46-1.4c2.83-.85 9.06 1.92 10.52 3.22a7.72 7.72 0 0 1 2.73 5.86v.32l-.29.11a7.47 7.47 0 0 1-2.88.53Zm-8.86-9.2a3.15 3.15 0 0 0-1 .12 1 1 0 0 0-.77.7c-.26 1 .59 2.46 2.23 3.9 2.78 2.45 7.22 4.27 10.51 3.15a6.9 6.9 0 0 0-2.39-4.74c-1.11-1.03-5.87-3.13-8.58-3.13Z" style="fill:#b2b2b2"/><path d="M440.26 352.93a.48.48 0 0 1-.26-.07l-8.28-5.16a.5.5 0 1 1 .53-.85l8.28 5.16a.5.5 0 0 1-.27.92ZM445.78 372.59a.51.51 0 0 1-.37-.15l-5.85-6.24a.5.5 0 0 1 .72-.68l5.86 6.23a.49.49 0 0 1-.36.84Z" style="fill:#b2b2b2"/><path d="M441.87 367.9a7.26 7.26 0 0 0-2.56-5.46c-1.65-1.48-10.34-5.13-11.16-2.07-.9 3.33 8 9.86 13.72 7.53Z" style="fill:#fff"/><path d="M439.23 368.88a14.62 14.62 0 0 1-9-3.73c-2-1.74-2.9-3.54-2.53-4.91a2 2 0 0 1 1.45-1.4c2.83-.84 9.06 1.92 10.53 3.23a7.7 7.7 0 0 1 2.72 5.85v.32l-.29.12a7.45 7.45 0 0 1-2.88.52Zm-8.87-9.2a3.38 3.38 0 0 0-.95.12 1 1 0 0 0-.78.7c-.26 1 .6 2.46 2.23 3.91 2.78 2.45 7.22 4.26 10.51 3.14a6.89 6.89 0 0 0-2.39-4.74c-1.15-1.03-5.91-3.13-8.62-3.13Z" style="fill:#b2b2b2"/><path d="M441.88 368.39a.5.5 0 0 1-.27-.07l-8.27-5.16a.49.49 0 0 1-.16-.69.51.51 0 0 1 .69-.16l8.27 5.16a.5.5 0 0 1-.26.92ZM441.54 331.75a.5.5 0 0 1-.35-.15l-5.86-6a.5.5 0 1 1 .71-.7l5.86 6a.5.5 0 0 1 0 .71.54.54 0 0 1-.36.14Z" style="fill:#b2b2b2"/><path d="M437.64 327.31a7.29 7.29 0 0 0-2.56-5.45c-1.65-1.48-10.34-5.13-11.17-2.07-.91 3.33 8 9.86 13.73 7.52Z" style="fill:#fff"/><path d="M435 328.3a14.68 14.68 0 0 1-9-3.73c-2-1.75-2.9-3.54-2.53-4.91a2 2 0 0 1 1.45-1.4c2.84-.84 9.07 1.92 10.53 3.22a7.76 7.76 0 0 1 2.73 5.86v.32l-.29.12a7.46 7.46 0 0 1-2.89.52Zm-8.86-9.2a3.45 3.45 0 0 0-1 .12 1 1 0 0 0-.77.7c-.26 1 .59 2.46 2.22 3.9 2.78 2.45 7.22 4.27 10.52 3.15a6.92 6.92 0 0 0-2.39-4.74c-1.12-1.03-5.88-3.13-8.59-3.13Z" style="fill:#b2b2b2"/><path d="M437.64 327.81a.48.48 0 0 1-.26-.07l-8.28-5.16a.5.5 0 1 1 .53-.85l8.27 5.16a.49.49 0 0 1 .16.69.48.48 0 0 1-.42.23ZM438.72 304.89a.57.57 0 0 1-.3-.1l-5.67-4.34a.5.5 0 0 1-.09-.7.49.49 0 0 1 .7-.1L439 304a.5.5 0 0 1 .09.7.51.51 0 0 1-.37.19Z" style="fill:#b2b2b2"/><path d="M435 302.08a7.29 7.29 0 0 0-2.56-5.45c-1.65-1.48-10.34-5.13-11.17-2.07-.89 3.33 8.01 9.86 13.73 7.52Z" style="fill:#fff"/><path d="M432.36 303.07a14.62 14.62 0 0 1-9-3.73c-2-1.74-2.9-3.54-2.53-4.91a2 2 0 0 1 1.45-1.4c2.83-.84 9.07 1.92 10.53 3.22a7.81 7.81 0 0 1 2.73 5.87v.31l-.29.12a7.54 7.54 0 0 1-2.89.52Zm-8.87-9.2a3.38 3.38 0 0 0-.95.12 1 1 0 0 0-.78.7c-.26 1 .6 2.46 2.23 3.9 2.78 2.46 7.22 4.27 10.51 3.15a6.89 6.89 0 0 0-2.39-4.74c-1.11-1-5.91-3.13-8.62-3.13Z" style="fill:#b2b2b2"/><path d="M435 302.58a.52.52 0 0 1-.27-.07l-8.27-5.16a.49.49 0 0 1-.16-.68.51.51 0 0 1 .69-.17l8.27 5.16a.5.5 0 0 1-.26.92ZM447.6 386.27a.54.54 0 0 1-.27-.07.51.51 0 0 1-.16-.69l4.89-8a.5.5 0 1 1 .85.52L448 386a.49.49 0 0 1-.4.27Z" style="fill:#b2b2b2"/><path d="M451 380.19a7.24 7.24 0 0 1 1.37-5.86c1.31-1.79 9.06-7.16 10.5-4.33 1.57 3.07-5.79 11.3-11.87 10.19Z" style="fill:#fff"/><path d="M452.12 380.79a6.89 6.89 0 0 1-1.21-.1l-.31-.06-.09-.3A7.76 7.76 0 0 1 452 374c1.16-1.58 6.72-5.56 9.64-5.33a2 2 0 0 1 1.71 1.07c.64 1.27.11 3.21-1.47 5.33-2.24 3.01-6.15 5.72-9.76 5.72Zm-.7-1c3.46.41 7.42-2.27 9.63-5.25 1.3-1.75 1.83-3.39 1.38-4.28a1 1 0 0 0-.91-.52c-2.42-.19-7.71 3.51-8.74 4.92a6.93 6.93 0 0 0-1.36 5.09Z" style="fill:#b2b2b2"/><path d="M451 380.69a.51.51 0 0 1-.37-.15.5.5 0 0 1 0-.71l5.82-5.46a.5.5 0 0 1 .69.73l-5.82 5.46a.5.5 0 0 1-.32.13ZM443.35 345.58a.48.48 0 0 1-.26-.07.5.5 0 0 1-.17-.69l4.89-8a.51.51 0 0 1 .86.53l-4.89 8a.5.5 0 0 1-.43.23Z" style="fill:#b2b2b2"/><path d="M446.75 339.5a7.29 7.29 0 0 1 1.38-5.87c1.31-1.78 7.37-6.25 8.81-3.42 1.56 3.07-4.1 10.4-10.19 9.29Z" style="fill:#fff"/><path d="M448 340.12a7 7 0 0 1-1.36-.13l-.31-.05-.08-.31a7.71 7.71 0 0 1 1.45-6.29c1.07-1.45 5.25-4.76 7.86-4.54a2.11 2.11 0 0 1 1.8 1.18c.72 1.4.19 3.58-1.37 5.67s-4.55 4.47-7.99 4.47Zm-.85-1.06c3.41.44 6.44-1.85 8-4 1.31-1.76 1.82-3.58 1.28-4.63a1.11 1.11 0 0 0-1-.63c-2.1-.18-6 2.85-7 4.13a6.89 6.89 0 0 0-1.26 5.13Z" style="fill:#b2b2b2"/><path d="M446.75 340a.5.5 0 0 1-.35-.86l7.45-7.12a.5.5 0 0 1 .71 0 .49.49 0 0 1 0 .7l-7.45 7.12a.45.45 0 0 1-.36.16ZM441.48 327.7a.48.48 0 0 1-.26-.07.5.5 0 0 1-.16-.69l4.89-8a.5.5 0 0 1 .69-.16.51.51 0 0 1 .16.69l-4.89 8a.49.49 0 0 1-.43.23Z" style="fill:#b2b2b2"/><path d="M444.88 321.62a7.29 7.29 0 0 1 1.38-5.87c1.31-1.78 9.06-7.15 10.5-4.33 1.56 3.07-5.76 11.31-11.88 10.2Z" style="fill:#fff"/><path d="M446 322.22a7 7 0 0 1-1.21-.11l-.31-.05-.08-.31a7.74 7.74 0 0 1 1.46-6.29c1.16-1.58 6.71-5.57 9.63-5.33a1.94 1.94 0 0 1 1.71 1.07c.65 1.26.12 3.21-1.46 5.33-2.22 2.98-6.12 5.69-9.74 5.69Zm-.7-1c3.45.42 7.42-2.28 9.64-5.25 1.3-1.75 1.83-3.39 1.37-4.28a1 1 0 0 0-.9-.53c-2.44-.19-7.71 3.52-8.75 4.93a6.93 6.93 0 0 0-1.36 5.09Z" style="fill:#b2b2b2"/><path d="M444.88 322.12a.5.5 0 0 1-.34-.86l7.45-7.12a.5.5 0 0 1 .69.72l-7.45 7.14a.52.52 0 0 1-.35.12ZM438.75 301.48a.48.48 0 0 1-.26-.07.5.5 0 0 1-.17-.69l4.89-8a.5.5 0 0 1 .69-.17.49.49 0 0 1 .16.69l-4.89 8a.48.48 0 0 1-.42.24Z" style="fill:#b2b2b2"/><path d="M442.15 295.4a7.27 7.27 0 0 1 1.38-5.86c1.31-1.79 9.05-7.16 10.49-4.33 1.57 3.07-5.79 11.3-11.87 10.19Z" style="fill:#fff"/><path d="M443.27 296a7 7 0 0 1-1.21-.1l-.31-.06-.09-.3a7.8 7.8 0 0 1 1.46-6.3c1.16-1.58 6.67-5.58 9.64-5.33a2 2 0 0 1 1.71 1.07c.65 1.27.11 3.21-1.47 5.33-2.21 2.98-6.11 5.69-9.73 5.69Zm-.7-1c3.46.42 7.42-2.27 9.63-5.25 1.3-1.75 1.83-3.39 1.38-4.28a1 1 0 0 0-.9-.52c-2.43-.2-7.72 3.51-8.75 4.92a6.85 6.85 0 0 0-1.36 5.13Z" style="fill:#b2b2b2"/><path d="M442.15 295.9a.48.48 0 0 1-.36-.15.5.5 0 0 1 0-.71l7.45-7.12a.5.5 0 1 1 .69.73l-7.45 7.12a.48.48 0 0 1-.33.13Z" style="fill:#b2b2b2"/><path d="M436.66 284.22a7.24 7.24 0 0 1 1.37-5.86c1.31-1.79 9.06-7.16 10.5-4.33 1.57 3.07-5.79 11.3-11.87 10.19Z" style="fill:#fff"/><path d="M437.78 284.82a6.89 6.89 0 0 1-1.21-.1l-.31-.06-.09-.3a7.76 7.76 0 0 1 1.46-6.3c1.16-1.58 6.67-5.58 9.64-5.33a2 2 0 0 1 1.73 1.07c.64 1.27.11 3.21-1.47 5.33-2.24 2.98-6.14 5.69-9.75 5.69Zm-.7-1c3.44.42 7.42-2.27 9.63-5.24 1.3-1.75 1.83-3.4 1.38-4.29a1 1 0 0 0-.91-.52c-2.42-.19-7.71 3.51-8.74 4.92a6.85 6.85 0 0 0-1.36 5.09Z" style="fill:#b2b2b2"/><path d="M436.66 284.72a.51.51 0 0 1-.37-.15.5.5 0 0 1 0-.71l7.45-7.12a.5.5 0 0 1 .71 0 .49.49 0 0 1 0 .7l-7.45 7.14a.47.47 0 0 1-.34.14Z" style="fill:#b2b2b2"/><path d="M437.09 284.53a7.29 7.29 0 0 1-5.69-2c-1.64-1.49-6.17-9.75-3.21-10.89 3.22-1.22 10.64 6.95 8.9 12.89Z" style="fill:#fff"/><path d="M436.43 285.07a8 8 0 0 1-5.37-2.16c-1.45-1.32-4.84-7.23-4.29-10.14a2 2 0 0 1 1.24-1.59c1.33-.51 3.21.23 5.15 2 3 2.8 5.53 7.64 4.41 11.47l-.09.3h-.31a4.29 4.29 0 0 1-.74.12ZM428.91 272a1.33 1.33 0 0 0-.54.1 1 1 0 0 0-.62.84c-.45 2.4 2.69 8 4 9.21a6.92 6.92 0 0 0 5 1.9c.78-3.39-1.48-7.62-4.2-10.14a6.15 6.15 0 0 0-3.64-1.91Z" style="fill:#b2b2b2"/><path d="M437.09 285a.53.53 0 0 1-.4-.19l-6.3-8.16a.5.5 0 0 1 .79-.61l6.3 8.15a.51.51 0 0 1-.09.71.49.49 0 0 1-.3.1ZM458 420.78a.5.5 0 0 1-.5-.5V248.33a.5.5 0 0 1 1 0v171.95a.5.5 0 0 1-.5.5ZM460.09 440.18a.5.5 0 0 1-.45-.55l14.11-136a.5.5 0 0 1 .55-.44.49.49 0 0 1 .45.54l-14.11 136a.51.51 0 0 1-.55.45Z" style="fill:#b2b2b2"/><path d="M463.07 412.4a.48.48 0 0 1-.37-.17l-3.27-3.74a.5.5 0 0 1 .75-.65l3.27 3.73a.49.49 0 0 1-.05.7.46.46 0 0 1-.33.13Z" style="fill:#b2b2b2"/><path d="M459.81 408.16a7.27 7.27 0 0 0-1.38-5.86c-1.32-1.79-9.07-7.15-10.5-4.33-1.57 3.08 5.79 11.3 11.88 10.19Z" style="fill:#fff"/><path d="M458.68 408.76c-3.61 0-7.52-2.7-9.73-5.68-1.58-2.12-2.12-4.06-1.47-5.33a2 2 0 0 1 1.71-1.07c3-.23 8.48 3.74 9.64 5.32a7.71 7.71 0 0 1 1.46 6.3l-.08.3-.31.06a7.09 7.09 0 0 1-1.22.1Zm-9.21-11.09h-.2a1 1 0 0 0-.9.53c-.45.89.08 2.53 1.38 4.28 2.21 3 6.19 5.66 9.64 5.24a6.92 6.92 0 0 0-1.37-5.13c-1.02-1.37-6.02-4.92-8.55-4.92Z" style="fill:#b2b2b2"/><path d="M459.81 408.67a.52.52 0 0 1-.35-.14l-7-6.75a.5.5 0 0 1 0-.71.5.5 0 0 1 .71 0l7 6.74a.5.5 0 0 1 0 .71.52.52 0 0 1-.36.15ZM467.06 373.58a.47.47 0 0 1-.32-.12l-4.85-4a.49.49 0 0 1-.06-.7.5.5 0 0 1 .7-.07l4.85 4.05a.51.51 0 0 1 .06.71.53.53 0 0 1-.38.13Z" style="fill:#b2b2b2"/><path d="M463.72 370.43a7.29 7.29 0 0 0-1.38-5.87c-1.31-1.78-9.06-7.15-10.5-4.32-1.56 3.07 5.8 11.3 11.88 10.19Z" style="fill:#fff"/><path d="M462.6 371c-3.62 0-7.52-2.71-9.74-5.69-1.58-2.11-2.11-4.06-1.46-5.33a2 2 0 0 1 1.71-1.07c2.92-.22 8.47 3.75 9.63 5.33a7.76 7.76 0 0 1 1.47 6.29l-.09.3-.31.06a7 7 0 0 1-1.21.11Zm-9.22-11.1h-.19a1 1 0 0 0-.9.52c-.46.9.07 2.54 1.38 4.29 2.21 3 6.16 5.66 9.63 5.24a6.89 6.89 0 0 0-1.36-5.13c-1.01-1.33-6.05-4.89-8.56-4.89Z" style="fill:#b2b2b2"/><path d="M463.72 370.93a.49.49 0 0 1-.34-.14l-7-6.75a.5.5 0 1 1 .7-.72l7 6.75a.48.48 0 0 1 0 .7.45.45 0 0 1-.36.16ZM465.52 392a.47.47 0 0 1-.42-.24l-4.9-8a.5.5 0 1 1 .85-.52l4.9 8a.5.5 0 0 1-.17.69.48.48 0 0 1-.26.07Z" style="fill:#b2b2b2"/><path d="M462.12 385.89a7.27 7.27 0 0 0-1.38-5.86c-1.32-1.79-9.07-7.15-10.5-4.33-1.57 3.07 5.76 11.3 11.88 10.19Z" style="fill:#fff"/><path d="M461 386.49c-3.62 0-7.52-2.7-9.74-5.68-1.58-2.12-2.12-4.06-1.47-5.33a2 2 0 0 1 1.71-1.07c2.93-.24 8.48 3.74 9.64 5.32a7.71 7.71 0 0 1 1.46 6.3l-.08.3-.31.06a7.06 7.06 0 0 1-1.21.1Zm-9.22-11.09h-.2a1 1 0 0 0-.9.53c-.45.89.08 2.53 1.38 4.28 2.21 3 6.18 5.66 9.64 5.24a6.92 6.92 0 0 0-1.37-5.13c-1-1.32-6.04-4.92-8.55-4.92Z" style="fill:#b2b2b2"/><path d="M462.12 386.39a.47.47 0 0 1-.35-.14l-7-6.75a.49.49 0 0 1 0-.7.5.5 0 0 1 .71 0l7 6.75a.5.5 0 0 1-.34.86ZM469.51 348.8a.52.52 0 0 1-.38-.17l-4.67-5.39a.5.5 0 0 1 .75-.65l4.68 5.38a.51.51 0 0 1-.05.71.52.52 0 0 1-.33.12Z" style="fill:#b2b2b2"/><path d="M466.33 345.31a7.29 7.29 0 0 0-1.38-5.87c-1.31-1.78-9.07-7.15-10.5-4.32-1.57 3.07 5.79 11.3 11.88 10.19Z" style="fill:#fff"/><path d="M465.21 345.91c-3.62 0-7.52-2.71-9.74-5.69-1.58-2.11-2.11-4.06-1.47-5.33a2 2 0 0 1 1.71-1.07c2.93-.22 8.48 3.75 9.64 5.33a7.69 7.69 0 0 1 1.46 6.29l-.08.3-.31.06a7 7 0 0 1-1.21.11Zm-9.21-11.1h-.2a1 1 0 0 0-.9.52c-.45.9.08 2.54 1.38 4.29 2.21 3 6.17 5.66 9.64 5.24a6.93 6.93 0 0 0-1.36-5.13c-1.02-1.36-6.06-4.92-8.56-4.92Z" style="fill:#b2b2b2"/><path d="M466.33 345.81a.54.54 0 0 1-.35-.14l-7-6.75a.5.5 0 0 1 .69-.72l7 6.75a.49.49 0 0 1 0 .7.48.48 0 0 1-.34.16ZM472 325.19a.51.51 0 0 1-.42-.23L467 318a.51.51 0 0 1 .15-.7.5.5 0 0 1 .69.15l4.51 7a.49.49 0 0 1-.15.69.5.5 0 0 1-.2.05Z" style="fill:#b2b2b2"/><path d="M469 320.08a7.29 7.29 0 0 0-1.38-5.87c-1.32-1.78-9.07-7.15-10.5-4.32-1.62 3.11 5.74 11.3 11.88 10.19Z" style="fill:#fff"/><path d="M467.83 320.68c-3.62 0-7.52-2.71-9.74-5.69-1.58-2.11-2.12-4.06-1.47-5.33a2 2 0 0 1 1.71-1.07c2.93-.22 8.48 3.75 9.64 5.33a7.69 7.69 0 0 1 1.46 6.29l-.08.3-.31.06a7.07 7.07 0 0 1-1.21.11Zm-9.22-11.1h-.2a1 1 0 0 0-.9.52c-.45.9.08 2.54 1.38 4.29 2.21 3 6.18 5.66 9.64 5.24a6.91 6.91 0 0 0-1.37-5.13c-1.01-1.36-6.04-4.92-8.55-4.92Z" style="fill:#b2b2b2"/><path d="M469 320.58a.52.52 0 0 1-.35-.14l-7-6.75a.5.5 0 1 1 .69-.72l7 6.75a.49.49 0 0 1 0 .7.48.48 0 0 1-.34.16ZM464 405.07a.52.52 0 0 1-.35-.14.5.5 0 0 1 0-.71l6.43-6.79a.5.5 0 0 1 .71 0 .49.49 0 0 1 0 .7l-6.43 6.8a.52.52 0 0 1-.36.14Z" style="fill:#b2b2b2"/><path d="M468.51 399.81a7.31 7.31 0 0 1 2.56-5.46c1.65-1.48 10.34-5.14 11.16-2.08.9 3.33-7.99 9.87-13.72 7.54Z" style="fill:#fff"/><path d="M471.15 400.79a7.45 7.45 0 0 1-2.83-.52l-.29-.12v-.31a7.71 7.71 0 0 1 2.73-5.86c1.46-1.31 7.69-4.07 10.52-3.24a2 2 0 0 1 1.45 1.4c.38 1.38-.55 3.17-2.53 4.92a14.65 14.65 0 0 1-9.05 3.73Zm-2.15-1.33c3.29 1.12 7.74-.7 10.51-3.15 1.64-1.44 2.49-2.94 2.23-3.91a1 1 0 0 0-.77-.7c-2.34-.69-8.27 1.86-9.58 3a6.93 6.93 0 0 0-2.39 4.76Z" style="fill:#b2b2b2"/><path d="M468.51 400.31a.5.5 0 0 1-.26-.93L477 394a.49.49 0 0 1 .69.16.5.5 0 0 1-.16.69l-8.75 5.43a.56.56 0 0 1-.27.03ZM468.26 364.37a.48.48 0 0 1-.34-.13.5.5 0 0 1 0-.71l6.42-6.8a.5.5 0 0 1 .73.69l-6.43 6.8a.51.51 0 0 1-.38.15Z" style="fill:#b2b2b2"/><path d="M472.73 359.11a7.32 7.32 0 0 1 2.56-5.46c1.65-1.47 10.34-5.13 11.17-2.07.89 3.33-8 9.87-13.73 7.53Z" style="fill:#fff"/><path d="M475.38 360.1a7.65 7.65 0 0 1-2.83-.52l-.3-.12v-.32a7.73 7.73 0 0 1 2.72-5.86c1.46-1.31 7.7-4.07 10.52-3.23a2 2 0 0 1 1.46 1.4c.37 1.37-.55 3.17-2.53 4.92a14.68 14.68 0 0 1-9.04 3.73Zm-2.14-1.33c3.29 1.12 7.73-.7 10.51-3.15 1.63-1.45 2.48-2.95 2.22-3.91a1 1 0 0 0-.77-.7c-2.33-.69-8.27 1.85-9.58 3a6.87 6.87 0 0 0-2.38 4.76Z" style="fill:#b2b2b2"/><path d="M472.73 359.61a.49.49 0 0 1-.42-.23.5.5 0 0 1 .16-.69l8.76-5.44a.49.49 0 0 1 .68.17.48.48 0 0 1-.16.68l-8.75 5.44a.5.5 0 0 1-.27.07ZM470.11 346.49a.47.47 0 0 1-.34-.14.49.49 0 0 1 0-.7l6.43-6.8a.5.5 0 0 1 .73.69l-6.43 6.79a.49.49 0 0 1-.39.16Z" style="fill:#b2b2b2"/><path d="M474.59 341.23a7.26 7.26 0 0 1 2.56-5.46c1.65-1.47 10.33-5.14 11.16-2.08.9 3.31-7.99 9.88-13.72 7.54Z" style="fill:#fff"/><path d="M477.23 342.21a7.45 7.45 0 0 1-2.83-.52l-.29-.12v-.31a7.72 7.72 0 0 1 2.72-5.86c1.47-1.31 7.69-4.08 10.53-3.23a1.92 1.92 0 0 1 1.45 1.39c.38 1.38-.55 3.17-2.53 4.92a14.62 14.62 0 0 1-9.05 3.73Zm-2.14-1.33c3.3 1.12 7.73-.69 10.51-3.15 1.64-1.44 2.49-2.94 2.23-3.91a1 1 0 0 0-.78-.7c-2.33-.69-8.27 1.86-9.57 3a6.93 6.93 0 0 0-2.39 4.76Z" style="fill:#b2b2b2"/><path d="M474.59 341.73a.5.5 0 0 1-.26-.93l8.75-5.43a.51.51 0 0 1 .69.16.5.5 0 0 1-.16.69l-8.76 5.43a.5.5 0 0 1-.26.08ZM472.76 318.93a.5.5 0 0 1-.32-.88l6.5-5.46a.5.5 0 1 1 .64.77l-6.5 5.46a.54.54 0 0 1-.32.11Z" style="fill:#b2b2b2"/><path d="M477.31 315a7.27 7.27 0 0 1 2.56-5.46c1.65-1.47 10.34-5.13 11.16-2.07.9 3.34-8.03 9.88-13.72 7.53Z" style="fill:#fff"/><path d="M480 316a7.46 7.46 0 0 1-2.83-.53l-.29-.11v-.32a7.72 7.72 0 0 1 2.72-5.86c1.47-1.31 7.7-4.07 10.53-3.23a2 2 0 0 1 1.45 1.4c.38 1.37-.55 3.16-2.53 4.91A14.63 14.63 0 0 1 480 316Zm-2.14-1.33c3.29 1.12 7.73-.7 10.51-3.16 1.64-1.44 2.49-2.94 2.23-3.9a1 1 0 0 0-.77-.7c-2.34-.69-8.28 1.85-9.58 3a6.9 6.9 0 0 0-2.44 4.76Z" style="fill:#b2b2b2"/><path style="fill:#fff" d="m477.31 315.01 8.76-5.43"/><path transform="rotate(-31.83 481.64 312.287)" style="fill:#b2b2b2" d="M476.54 311.79h10.3v1h-10.3z"/><path d="M474.24 302.94a7.26 7.26 0 0 1 2.56-5.46c1.65-1.47 10.33-5.13 11.16-2.07.9 3.32-7.96 9.87-13.72 7.53Z" style="fill:#fff"/><path d="M476.88 303.92a7.45 7.45 0 0 1-2.83-.52l-.29-.12v-.31a7.72 7.72 0 0 1 2.72-5.86c1.46-1.31 7.7-4.08 10.53-3.23a2 2 0 0 1 1.45 1.4c.37 1.37-.55 3.16-2.53 4.91a14.62 14.62 0 0 1-9.05 3.73Zm-2.14-1.33c3.29 1.12 7.73-.69 10.51-3.14 1.63-1.45 2.49-2.95 2.23-3.91a1 1 0 0 0-.78-.7c-2.33-.7-8.27 1.85-9.57 3a6.93 6.93 0 0 0-2.39 4.75Z" style="fill:#b2b2b2"/><path d="M474.24 303.44a.5.5 0 0 1-.43-.24.51.51 0 0 1 .16-.69l8.76-5.43a.5.5 0 1 1 .53.85l-8.76 5.43a.42.42 0 0 1-.26.08Z" style="fill:#b2b2b2"/><path d="M474.6 303.33a7.28 7.28 0 0 1-5.16-3.12c-1.3-1.79-4-10.82-.9-11.32 3.46-.54 8.98 8.99 6.06 14.44Z" style="fill:#fff"/><path d="M474.89 303.84h-.31a7.77 7.77 0 0 1-5.55-3.32c-1.14-1.59-3.24-8.08-2.11-10.81a2 2 0 0 1 1.54-1.3c1.41-.22 3.1.88 4.63 3 2.4 3.37 3.83 8.62 2 12.14Zm-6.06-14.47h-.21a.94.94 0 0 0-.77.69c-.94 2.26 1 8.42 2 9.84a7 7 0 0 0 4.47 2.87c1.46-3.16.11-7.76-2-10.78-1.22-1.63-2.52-2.62-3.49-2.62Z" style="fill:#b2b2b2"/><path d="M474.6 303.83a.48.48 0 0 1-.45-.28l-4.49-9.28a.51.51 0 0 1 .23-.67.5.5 0 0 1 .67.23l4.49 9.28a.51.51 0 0 1-.23.67.59.59 0 0 1-.22.05ZM457.8 394.61a.51.51 0 0 1-.4-.2l-5.32-7.11a.5.5 0 0 1 .1-.7.51.51 0 0 1 .7.1l5.32 7.11a.51.51 0 0 1-.1.7.49.49 0 0 1-.3.1Z" style="fill:#b2b2b2"/><path d="M454.21 389.23a7.3 7.3 0 0 0-2-5.69c-1.49-1.64-9.75-6.18-10.89-3.22-1.22 3.22 6.95 10.68 12.89 8.91Z" style="fill:#fff"/><path d="M452.36 390c-3.4 0-7.15-2.15-9.48-4.69-1.79-1.94-2.52-3.82-2-5.15a2 2 0 0 1 1.59-1.24c2.92-.55 8.82 2.85 10.14 4.3a7.73 7.73 0 0 1 2.1 6.11l-.05.31-.3.09a7 7 0 0 1-2 .27Zm-9.2-10.14a2.71 2.71 0 0 0-.51 0 1 1 0 0 0-.85.62c-.36.93.34 2.51 1.82 4.12 2.5 2.72 6.74 5 10.12 4.21a6.87 6.87 0 0 0-1.88-5c-1.1-1.14-6.09-3.97-8.7-3.97Z" style="fill:#b2b2b2"/><path d="M454.21 389.73a.45.45 0 0 1-.31-.11l-7.69-6a.5.5 0 0 1 .61-.79l7.69 6a.5.5 0 0 1 .09.7.51.51 0 0 1-.39.2ZM458 360.32a.51.51 0 0 1-.34-.14l-5.51-5.12a.5.5 0 0 1 0-.71.51.51 0 0 1 .71 0l5.5 5.13a.5.5 0 0 1 0 .71.52.52 0 0 1-.36.13Z" style="fill:#b2b2b2"/><path d="M454.21 356.92a7.33 7.33 0 0 0-2-5.7c-1.49-1.63-9.75-6.17-10.89-3.21-1.22 3.21 6.95 10.64 12.89 8.91Z" style="fill:#fff"/><path d="M452.36 357.67c-3.4 0-7.15-2.16-9.48-4.69-1.79-1.94-2.52-3.82-2-5.15a2 2 0 0 1 1.59-1.24c2.92-.55 8.82 2.85 10.14 4.3a7.73 7.73 0 0 1 2.1 6.11l-.05.31-.3.09a7.35 7.35 0 0 1-2 .27Zm-9.2-10.14a2.71 2.71 0 0 0-.51 0 1 1 0 0 0-.85.62c-.36.93.34 2.51 1.82 4.11 2.5 2.73 6.74 5 10.12 4.22a6.87 6.87 0 0 0-1.88-5c-1.1-1.13-6.09-3.95-8.7-3.95Z" style="fill:#b2b2b2"/><path d="M454.21 357.42a.51.51 0 0 1-.31-.11l-7.69-6a.51.51 0 0 1-.09-.71.49.49 0 0 1 .7-.08l7.69 6a.5.5 0 0 1 .09.7.49.49 0 0 1-.39.2ZM458.17 324.68a.51.51 0 0 1-.4-.2l-5.69-7.43a.5.5 0 1 1 .79-.6l5.69 7.42a.49.49 0 0 1-.09.7.5.5 0 0 1-.3.11Z" style="fill:#b2b2b2"/><path d="M454.21 319a7.3 7.3 0 0 0-2-5.69c-1.49-1.64-9.75-6.18-10.89-3.22-1.22 3.2 6.95 10.62 12.89 8.91Z" style="fill:#fff"/><path d="M452.36 319.73c-3.4 0-7.15-2.15-9.48-4.69-1.79-1.94-2.52-3.82-2-5.15a2 2 0 0 1 1.59-1.24c2.9-.55 8.82 2.85 10.14 4.3a7.73 7.73 0 0 1 2.1 6.11l-.05.31-.3.09a7.35 7.35 0 0 1-2 .27Zm-9.2-10.14a2.64 2.64 0 0 0-.51 0 1 1 0 0 0-.85.62c-.36.93.34 2.51 1.82 4.12 2.5 2.72 6.74 5 10.12 4.21a6.87 6.87 0 0 0-1.88-5c-1.1-1.13-6.09-3.95-8.7-3.95Z" style="fill:#b2b2b2"/><path d="M454.21 319.48a.51.51 0 0 1-.31-.11l-7.69-6a.5.5 0 0 1 .61-.79l7.69 6a.5.5 0 0 1-.3.9ZM457.8 296.79a.5.5 0 0 1-.34-.13l-5.32-4.79a.5.5 0 0 1 .67-.75l5.32 4.8a.5.5 0 0 1-.33.87Z" style="fill:#b2b2b2"/><path d="M454.21 293.72a7.3 7.3 0 0 0-2-5.69c-1.49-1.64-9.75-6.18-10.89-3.22-1.22 3.19 6.95 10.65 12.89 8.91Z" style="fill:#fff"/><path d="M452.36 294.48c-3.4 0-7.15-2.16-9.48-4.69-1.79-2-2.52-3.83-2-5.16a2 2 0 0 1 1.59-1.24c2.91-.53 8.82 2.85 10.14 4.31a7.71 7.71 0 0 1 2.1 6.11l-.05.31-.3.08a7 7 0 0 1-2 .28Zm-9.2-10.15a2.67 2.67 0 0 0-.51.05 1 1 0 0 0-.85.61c-.36.94.34 2.51 1.82 4.12 2.5 2.73 6.74 5 10.12 4.22a6.87 6.87 0 0 0-1.88-5c-1.1-1.17-6.09-4-8.7-4Z" style="fill:#b2b2b2"/><path d="M454.21 294.22a.5.5 0 0 1-.31-.1l-7.69-6a.5.5 0 1 1 .61-.79l7.69 6a.5.5 0 0 1 .09.7.48.48 0 0 1-.39.19ZM458.1 271.53a.53.53 0 0 1-.29-.1l-5.52-4.05a.5.5 0 1 1 .59-.81l5.52 4.05a.51.51 0 0 1 .11.7.49.49 0 0 1-.41.21Z" style="fill:#b2b2b2"/><path d="M454.21 268.36a7.3 7.3 0 0 0-2-5.69c-1.49-1.64-9.75-6.18-10.89-3.22-1.22 3.22 6.95 10.64 12.89 8.91Z" style="fill:#fff"/><path d="M452.36 269.11c-3.4 0-7.15-2.15-9.48-4.69-1.79-1.94-2.52-3.82-2-5.15a2 2 0 0 1 1.59-1.24c2.9-.55 8.82 2.85 10.14 4.3a7.73 7.73 0 0 1 2.1 6.11l-.05.31-.3.09a7.35 7.35 0 0 1-2 .27Zm-9.2-10.11a2.64 2.64 0 0 0-.51 0 1 1 0 0 0-.85.62c-.36.93.34 2.51 1.82 4.12 2.5 2.72 6.74 5 10.12 4.21a6.87 6.87 0 0 0-1.88-5c-1.1-1.16-6.09-3.95-8.7-3.95Z" style="fill:#b2b2b2"/><path d="M454.21 268.86a.51.51 0 0 1-.31-.11l-7.69-6a.5.5 0 0 1 .61-.79l7.69 6a.5.5 0 0 1-.3.9ZM459.15 403.2a.51.51 0 0 1-.31-.11.5.5 0 0 1-.09-.7l4.59-5.83a.5.5 0 0 1 .79.62l-4.59 5.82a.52.52 0 0 1-.39.2Z" style="fill:#b2b2b2"/><path d="M462 399.1a7.33 7.33 0 0 1 2-5.7c1.49-1.63 9.76-6.17 10.89-3.21 1.22 3.21-6.95 10.64-12.89 8.91Z" style="fill:#fff"/><path d="M463.85 399.85a7.35 7.35 0 0 1-2-.27l-.3-.09-.05-.31a7.73 7.73 0 0 1 2.1-6.11c1.32-1.45 7.24-4.84 10.14-4.3a2 2 0 0 1 1.59 1.24c.51 1.33-.22 3.21-2 5.15-2.33 2.54-6.08 4.69-9.48 4.69Zm-1.38-1.15c3.38.78 7.61-1.49 10.12-4.22 1.48-1.6 2.18-3.18 1.82-4.11a1 1 0 0 0-.85-.62c-2.39-.44-8 2.7-9.21 4a6.87 6.87 0 0 0-1.88 4.95Z" style="fill:#b2b2b2"/><path d="M462 399.6a.49.49 0 0 1-.39-.2.5.5 0 0 1 .09-.7l8.14-6.31a.5.5 0 1 1 .62.79l-8.15 6.31a.51.51 0 0 1-.31.11ZM458 353.4a.49.49 0 0 1-.39-.8l5.69-7.43a.5.5 0 0 1 .79.61l-5.69 7.43a.53.53 0 0 1-.4.19Z" style="fill:#b2b2b2"/><path d="M462 347.7a7.3 7.3 0 0 1 2-5.69c1.49-1.64 9.76-6.17 10.89-3.22 1.22 3.21-6.95 10.65-12.89 8.91Z" style="fill:#fff"/><path d="M463.85 348.46a7.35 7.35 0 0 1-2-.27l-.3-.09-.05-.31a7.72 7.72 0 0 1 2.1-6.11c1.32-1.46 7.25-4.85 10.14-4.3a2 2 0 0 1 1.59 1.24c.51 1.33-.22 3.2-2 5.15-2.33 2.53-6.08 4.69-9.48 4.69Zm-1.38-1.15c3.38.77 7.61-1.49 10.12-4.22 1.48-1.6 2.18-3.18 1.82-4.12a1 1 0 0 0-.85-.61c-2.39-.44-8 2.69-9.21 4a6.87 6.87 0 0 0-1.88 4.95Z" style="fill:#b2b2b2"/><path d="M462 348.21a.49.49 0 0 1-.39-.2.5.5 0 0 1 .09-.7l8.14-6.31a.51.51 0 0 1 .71.09.51.51 0 0 1-.09.7l-8.15 6.31a.51.51 0 0 1-.31.11ZM458 328a.5.5 0 0 1-.3-.11.49.49 0 0 1-.09-.7l5.69-7.42a.5.5 0 1 1 .79.61l-5.69 7.42a.51.51 0 0 1-.4.2Z" style="fill:#b2b2b2"/><path d="M462 322.34a7.3 7.3 0 0 1 2-5.69c1.49-1.64 9.76-6.18 10.89-3.22 1.22 3.22-6.95 10.64-12.89 8.91Z" style="fill:#fff"/><path d="M463.85 323.09a7 7 0 0 1-2-.27l-.3-.09-.05-.31a7.73 7.73 0 0 1 2.1-6.11c1.32-1.45 7.24-4.84 10.14-4.3a2 2 0 0 1 1.59 1.24c.51 1.33-.22 3.21-2 5.15-2.33 2.54-6.08 4.69-9.48 4.69Zm-1.38-1.15c3.39.78 7.61-1.49 10.12-4.21 1.48-1.61 2.18-3.19 1.82-4.12a1 1 0 0 0-.84-.62c-2.4-.45-8 2.7-9.22 4a6.87 6.87 0 0 0-1.88 4.95Z" style="fill:#b2b2b2"/><path d="M462 322.84a.5.5 0 0 1-.3-.9l8.14-6.3a.5.5 0 0 1 .71.09.52.52 0 0 1-.09.7l-8.15 6.31a.5.5 0 0 1-.31.1ZM458 294.51a.49.49 0 0 1-.39-.8l5.69-7.43a.5.5 0 0 1 .79.61l-5.69 7.43a.53.53 0 0 1-.4.19Z" style="fill:#b2b2b2"/><path d="M462 288.81a7.3 7.3 0 0 1 2-5.69c1.49-1.64 9.76-6.18 10.89-3.22 1.22 3.22-6.95 10.65-12.89 8.91Z" style="fill:#fff"/><path d="M463.85 289.56a7 7 0 0 1-2-.27l-.3-.09-.05-.31a7.73 7.73 0 0 1 2.1-6.11c1.32-1.45 7.24-4.84 10.14-4.3a2 2 0 0 1 1.59 1.24c.51 1.33-.22 3.21-2 5.16-2.33 2.53-6.08 4.68-9.48 4.68Zm-1.38-1.14c3.38.78 7.61-1.49 10.12-4.22 1.48-1.61 2.18-3.18 1.82-4.12a1 1 0 0 0-.85-.61c-2.38-.44-8 2.69-9.21 4a6.85 6.85 0 0 0-1.88 4.95Z" style="fill:#b2b2b2"/><path d="M462 289.31a.48.48 0 0 1-.39-.19.5.5 0 0 1 .09-.7l8.14-6.31a.51.51 0 0 1 .71.09.51.51 0 0 1-.09.7l-8.15 6.31a.5.5 0 0 1-.31.1ZM458.29 265.58a.51.51 0 0 1-.4-.2.5.5 0 0 1 .09-.7l5.58-4.35a.5.5 0 0 1 .7.08.52.52 0 0 1-.08.71l-5.59 4.35a.5.5 0 0 1-.3.11Z" style="fill:#b2b2b2"/><path d="M462 262.45a7.3 7.3 0 0 1 2-5.69c1.49-1.64 9.76-6.17 10.89-3.22 1.22 3.22-6.95 10.65-12.89 8.91Z" style="fill:#fff"/><path d="M463.85 263.21a7.35 7.35 0 0 1-2-.27l-.3-.09-.05-.31a7.72 7.72 0 0 1 2.1-6.11c1.32-1.46 7.24-4.85 10.14-4.31a2 2 0 0 1 1.59 1.24c.51 1.34-.22 3.21-2 5.16-2.33 2.53-6.08 4.69-9.48 4.69Zm-1.38-1.15c3.39.77 7.61-1.49 10.12-4.22 1.48-1.6 2.18-3.18 1.82-4.12a1 1 0 0 0-.84-.61c-2.4-.46-8 2.69-9.22 4a6.87 6.87 0 0 0-1.88 4.95Z" style="fill:#b2b2b2"/><path d="M462 263a.49.49 0 0 1-.39-.2.5.5 0 0 1 .09-.7l8.14-6.31a.51.51 0 0 1 .71.09.51.51 0 0 1-.09.7l-8.15 6.31a.51.51 0 0 1-.31.11Z" style="fill:#b2b2b2"/><path d="M457.7 250.76a7.3 7.3 0 0 1 2-5.69c1.49-1.64 9.75-6.17 10.89-3.22 1.22 3.22-6.95 10.65-12.89 8.91Z" style="fill:#fff"/><path d="M459.55 251.52a7 7 0 0 1-2-.28l-.3-.08-.05-.31a7.72 7.72 0 0 1 2.1-6.11c1.32-1.46 7.25-4.84 10.14-4.31a2 2 0 0 1 1.59 1.24c.51 1.33-.22 3.21-2 5.16-2.33 2.53-6.03 4.69-9.48 4.69Zm-1.38-1.15c3.38.77 7.61-1.49 10.12-4.22 1.48-1.6 2.17-3.18 1.82-4.12a1 1 0 0 0-.85-.61c-2.42-.45-8 2.7-9.21 4a6.87 6.87 0 0 0-1.88 4.95Z" style="fill:#b2b2b2"/><path d="M457.7 251.26a.47.47 0 0 1-.39-.19.5.5 0 0 1 .09-.7l8.14-6.31a.51.51 0 0 1 .71.09.51.51 0 0 1-.09.7l-8.16 6.31a.5.5 0 0 1-.3.1Z" style="fill:#b2b2b2"/><path d="M458.1 251.11a7.24 7.24 0 0 1-5.45-2.56c-1.48-1.65-5.12-10.35-2.06-11.17 3.33-.89 9.85 8.01 7.51 13.73Z" style="fill:#fff"/><path d="M458 251.62a7.84 7.84 0 0 1-5.7-2.74c-1.3-1.46-4.06-7.7-3.21-10.53a2 2 0 0 1 1.4-1.45c1.38-.37 3.16.55 4.91 2.54 2.73 3.1 4.71 8.17 3.19 11.86l-.12.29h-.31Zm-6.89-13.8a1.37 1.37 0 0 0-.36 0 1 1 0 0 0-.7.78c-.7 2.34 1.84 8.27 3 9.58a6.9 6.9 0 0 0 4.73 2.39c1.13-3.29-.68-7.73-3.13-10.51-1.3-1.41-2.65-2.24-3.57-2.24Z" style="fill:#b2b2b2"/><path d="M458.1 251.61a.51.51 0 0 1-.43-.23l-5.42-8.77a.51.51 0 0 1 .17-.69.49.49 0 0 1 .68.17l5.42 8.76a.49.49 0 0 1-.16.69.48.48 0 0 1-.26.07Z" style="fill:#b2b2b2"/><path style="fill:#fff" d="M465.11 464.88h-18.22l-2.27-45.99h22.76l-2.27 45.99z"/><path d="M465.11 465.38h-18.22a.5.5 0 0 1-.49-.48l-2.28-46a.48.48 0 0 1 .14-.37.48.48 0 0 1 .36-.15h22.76a.48.48 0 0 1 .36.15.48.48 0 0 1 .14.37l-2.28 46a.5.5 0 0 1-.49.48Zm-17.74-1h17.26l2.23-45h-21.72Z" style="fill:#b2b2b2"/></g><g style="opacity:.3" id="freepik--Picture--inject-37"><path d="M451.53 171.72h-87a.5.5 0 0 1-.5-.5v-118a.5.5 0 0 1 .5-.5h87a.5.5 0 0 1 .5.5v118a.5.5 0 0 1-.5.5Zm-86.5-1h86v-117H365Z"/><path d="M446.37 164.72H369.7a.5.5 0 0 1-.5-.5v-104a.5.5 0 0 1 .5-.5h76.67a.5.5 0 0 1 .5.5v104a.5.5 0 0 1-.5.5Zm-76.17-1h75.67v-103H370.2Z"/><path d="M427.94 139.72h-39.81a.5.5 0 0 1-.5-.5v-54a.5.5 0 0 1 .5-.5h39.81a.5.5 0 0 1 .5.5v54a.5.5 0 0 1-.5.5Zm-39.31-1h38.81v-53h-38.81Z"/></g><g style="opacity:.3" id="freepik--Sofa--inject-37"><path d="M192.52 390.48h-1V301.4a.5.5 0 0 1 .5-.5h101.42A11.62 11.62 0 0 1 305 312.5v77.21h-1V312.5a10.62 10.62 0 0 0-10.6-10.6H192.52Z"/><path d="M79 389.71h-1V312.5a11.6 11.6 0 0 1 11.58-11.6h103.29v1H89.55A10.61 10.61 0 0 0 79 312.5ZM314.56 423.55h-122.5a.51.51 0 0 1-.5-.5v-33.34a.5.5 0 0 1 .5-.5h115.12a7.88 7.88 0 0 1 7.88 7.87v26a.51.51 0 0 1-.5.47Zm-122-1h121.5v-25.47a6.88 6.88 0 0 0-6.88-6.87H192.56Z"/><path d="M193 423.55H68.44a.51.51 0 0 1-.5-.5v-26a7.89 7.89 0 0 1 7.88-7.87H193v1H75.82a6.88 6.88 0 0 0-6.88 6.87v25.47H193Z"/><path d="M314.76 465.38H68.44a.51.51 0 0 1-.5-.5v-41.83a.5.5 0 0 1 .5-.5h246.32a.5.5 0 0 1 .5.5v41.83a.5.5 0 0 1-.5.5Zm-245.82-1h245.32v-40.83H68.94Z"/><path d="M73.09 465.38h-22.3a8 8 0 0 1-7.95-7.93v-106.9a8 8 0 0 1 7.95-7.93h22.3a8 8 0 0 1 5.74 2.44l-.73.69a7 7 0 0 0-5-2.13H50.79a7 7 0 0 0-6.95 6.93v106.9a7 7 0 0 0 6.95 6.93h22.3ZM329.64 465.38h-22.31v-1h22.31a6.94 6.94 0 0 0 6.93-6.93v-106.9a6.94 6.94 0 0 0-6.93-6.93h-22.31a7 7 0 0 0-2.6.5l-.38-.92a7.79 7.79 0 0 1 3-.58h22.31a7.94 7.94 0 0 1 7.93 7.93v106.9a7.94 7.94 0 0 1-7.95 7.93Z"/></g><g id="freepik--Screen--inject-37"><path style="fill:#263238" d="M33.92 40.34h202.15v392.54H33.92z"/><path style="fill:#d96a6a" d="M33.92 40.34h202.15v32.09H33.92z"/><path d="M53.23 51.32c0 2.93-3.29 4-3.3 6.22v.15h3.19v1h-4.26v-.84c0-3.13 3.29-3.74 3.29-6.48 0-1-.33-1.53-1.14-1.53s-1.14.57-1.14 1.43v.86h-1v-.79c0-1.48.68-2.47 2.18-2.47s2.18.96 2.18 2.45ZM58.55 51.31v.25a1.92 1.92 0 0 1-1.18 2 1.94 1.94 0 0 1 1.18 2v.75c0 1.48-.69 2.45-2.19 2.45s-2.18-1-2.18-2.45v-.67h1v.74c0 .87.36 1.4 1.14 1.4s1.14-.52 1.14-1.5v-.75c0-1-.4-1.42-1.22-1.44h-.59v-1h.64a1.16 1.16 0 0 0 1.17-1.33v-.44c0-1-.35-1.52-1.14-1.52s-1.14.55-1.14 1.42v.5h-1v-.44c0-1.49.69-2.45 2.18-2.45s2.19.99 2.19 2.48ZM60.65 52v1.35h-1V52Zm0 5.29v1.35h-1v-1.31ZM62.84 52.92a1.57 1.57 0 0 1 1.45-.81c1.25 0 1.8.92 1.8 2.3v1.91c0 1.48-.71 2.45-2.19 2.45s-2.18-1-2.18-2.45v-.66h1v.73c0 .87.36 1.4 1.14 1.4s1.14-.53 1.14-1.4V54.5c0-.88-.36-1.4-1.14-1.4a1 1 0 0 0-1.1 1v.22h-1L62 49h3.83v1H63ZM71.49 51.29v.18h-1v-.25c0-.87-.36-1.39-1.15-1.39s-1.18.53-1.18 1.57v2.18a1.56 1.56 0 0 1 1.56-1c1.25 0 1.81.9 1.81 2.3v1.48c0 1.48-.74 2.45-2.22 2.45s-2.24-1-2.24-2.45v-5c0-1.54.7-2.5 2.24-2.5s2.18.95 2.18 2.43Zm-3.34 3.64v1.46c0 .87.36 1.4 1.15 1.4s1.15-.53 1.15-1.4v-1.46c0-.88-.37-1.4-1.15-1.4s-1.15.52-1.15 1.4ZM174.82 51.72h2.74v6.86h-2.74zM178.48 50.34h2.74v8.23h-2.74zM182.14 49.37h2.74v9.21h-2.74zM185.79 47.67h2.74v10.9h-2.74zM222.49 58.39H206V48.33h16.46Zm-15.55-.92h14.63v-8.23h-14.63Z" style="fill:#263238"/><path style="fill:#263238" d="M208.31 50.24H217v6.24h-8.69zM221.92 52.17h2.07v2.37h-2.07zM200 56.2a.56.56 0 0 1-.31-.09c-3.35-2-5.57-.14-5.66-.06a.62.62 0 1 1-.81-.93c.12-.1 2.95-2.52 7.1-.06a.61.61 0 0 1 .21.84.63.63 0 0 1-.53.3Z"/><path d="M201.23 54.13a.55.55 0 0 1-.31-.08c-4.85-2.88-8.1-.1-8.14-.07a.6.6 0 0 1-.86 0 .62.62 0 0 1 .05-.87s4-3.4 9.57-.07a.61.61 0 0 1-.31 1.14Z" style="fill:#263238"/><path d="M202.35 51.74a.61.61 0 0 1-.31-.09c-6.13-3.64-10.21-.21-10.38-.06a.63.63 0 0 1-.87-.06.61.61 0 0 1 .06-.86c0-.05 4.89-4.19 11.82-.07a.61.61 0 0 1 .21.84.62.62 0 0 1-.53.3ZM198.14 57.23a1.54 1.54 0 1 1-1.54-1.54 1.54 1.54 0 0 1 1.54 1.54Z" style="fill:#263238"/><path d="M135 220.46a55.43 55.43 0 0 1 0-110.85v14a41.43 41.43 0 1 0 26.58 73.2l9 10.74A55.5 55.5 0 0 1 135 220.46Z" style="fill:#858585"/><path d="m170.55 207.55-9-10.74a41.42 41.42 0 0 0-26.55-73.2v-14a55.42 55.42 0 0 1 35.56 97.94Z" style="fill:#d96a6a"/><path d="M121.7 164.16v5.17h-2.79v-5.17h-8.29v-2.61l8-17.91h3.12v17.91h2.06v2.61Zm-8.44-2.61h5.65V149ZM128.82 154.1a4.13 4.13 0 0 1 3.82-2.13c3.3 0 4.77 2.42 4.77 6.09v5c0 3.93-1.87 6.5-5.8 6.5s-5.76-2.57-5.76-6.5v-1.72h2.68v1.91c0 2.31.95 3.7 3 3.7s3-1.39 3-3.7v-5c0-2.31-1-3.7-3-3.7-1.58 0-2.64.88-2.9 2.75v.59H126l.7-14.28h10.13v2.57h-7.56ZM147.36 147.64v8.11c0 2.5-1.18 4.15-3.67 4.15s-3.67-1.65-3.67-4.15v-8.11c0-2.46 1.17-4.15 3.67-4.15s3.67 1.69 3.67 4.15Zm-5.51-.11v8.37c0 1.39.52 2.31 1.84 2.31s1.83-.92 1.83-2.31v-8.37c0-1.4-.55-2.35-1.83-2.35s-1.84.95-1.84 2.35Zm14-3.89-10.13 25.69H144l10.13-25.69Zm4.15 13.58v8.07c0 2.5-1.13 4.15-3.67 4.15s-3.67-1.65-3.67-4.15v-8.07c0-2.46 1.18-4.11 3.67-4.11s3.67 1.65 3.67 4.11Zm-5.5-.11v8.33c0 1.4.55 2.35 1.83 2.35s1.84-.95 1.84-2.35v-8.33c0-1.4-.55-2.31-1.84-2.31s-1.85.91-1.85 2.31ZM121.26 96.39v-12.5h-2.79v-.39h6v.39h-2.82v12.5ZM125.59 86.67c0-1.81.77-3.26 2.72-3.26s2.76 1.45 2.76 3.26v6.55c0 1.81-.77 3.26-2.76 3.26s-2.72-1.45-2.72-3.26Zm.4 6.57c0 1.58.61 2.87 2.32 2.87s2.36-1.29 2.36-2.87v-6.59c0-1.58-.63-2.87-2.36-2.87S126 85.07 126 86.65ZM135.21 83.5c2 0 2.8 1.38 2.8 3.22v6.46c0 1.83-.83 3.21-2.78 3.21h-2.7V83.5Zm0 12.5c1.73 0 2.4-1.2 2.4-2.8v-6.5c0-1.62-.68-2.81-2.4-2.81h-2.28V96ZM140.5 93.35l-.76 3h-.37l3.11-12.91h.57l3.19 12.91h-.41l-.75-3Zm.07-.37H145l-2.25-9ZM149.68 91.18l-3-7.68h.4l2.82 7.13 2.82-7.13h.42l-3.06 7.68v5.21h-.4ZM115.75 182.43v.8h-.33v-.82c0-1.27-.48-2.34-1.86-2.34s-1.87 1.07-1.87 2.34v5.36c0 1.28.47 2.33 1.87 2.33s1.86-1 1.86-2.33v-1.15h.33v1.14c0 1.45-.6 2.65-2.21 2.65s-2.18-1.2-2.18-2.65v-5.33c0-1.46.59-2.66 2.18-2.66s2.21 1.23 2.21 2.66ZM116.9 182.43c0-1.47.63-2.66 2.21-2.66s2.25 1.19 2.25 2.66v5.33c0 1.47-.63 2.65-2.25 2.65s-2.21-1.18-2.21-2.65Zm.33 5.34c0 1.29.49 2.34 1.88 2.34s1.92-1.05 1.92-2.34v-5.36c0-1.29-.51-2.34-1.92-2.34s-1.88 1.05-1.88 2.34ZM125.81 190.31h-.38l-2.59-10v10h-.3v-10.46h.51l2.58 10 2.57-10h.51v10.49h-.33v-10ZM132 179.85c1.61 0 2.17 1.06 2.17 2.53v1.05c0 1.66-.75 2.46-2.41 2.46h-1.5v4.45h-.33v-10.49Zm-.24 5.72c1.46 0 2.08-.64 2.08-2.13v-1.07c0-1.29-.44-2.21-1.84-2.21h-1.74v5.41ZM135.28 190.34v-10.49h.33V190h3.52v.32ZM143.69 184.87v.3h-3.09V190h3.67v.32h-4v-10.47h4v.31h-3.67v4.71ZM147.4 190.34v-10.18h-2.28v-.31H150v.31h-2.29v10.18ZM154.35 184.87v.3h-3.09V190h3.67v.32h-4v-10.47h4v.31h-3.67v4.71ZM158.29 179.85c1.6 0 2.27 1.12 2.27 2.62v5.26c0 1.48-.67 2.61-2.26 2.61h-2.2v-10.49Zm0 10.17c1.4 0 1.94-1 1.94-2.28v-5.29c0-1.31-.55-2.29-1.94-2.29h-1.86V190ZM175.13 228.39a1.62 1.62 0 0 1 1.49-.82c1.28 0 1.85.94 1.85 2.36v2c0 1.52-.73 2.52-2.25 2.52s-2.24-1-2.24-2.52v-.67h1v.74c0 .9.37 1.44 1.17 1.44s1.17-.54 1.17-1.44v-2c0-.9-.37-1.44-1.17-1.44a1.08 1.08 0 0 0-1.13 1.07v.23h-1l.27-5.55h3.94v1h-2.94ZM180.66 228.39a1.6 1.6 0 0 1 1.48-.82c1.28 0 1.85.94 1.85 2.36v2c0 1.52-.72 2.52-2.25 2.52s-2.24-1-2.24-2.52v-.67h1v.74c0 .9.37 1.44 1.17 1.44s1.17-.54 1.17-1.44v-2c0-.9-.37-1.44-1.17-1.44a1.08 1.08 0 0 0-1.13 1.07v.23h-1l.27-5.55h3.94v1h-2.94ZM187.86 225.88V229c0 1-.45 1.61-1.42 1.61S185 230 185 229v-3.16c0-.95.46-1.61 1.43-1.61s1.43.7 1.43 1.65Zm-2.14 0v3.25c0 .54.2.9.72.9s.71-.36.71-.9v-3.25c0-.54-.22-.91-.71-.91s-.72.33-.72.87Zm5.44-1.51-3.94 10h-.67l3.94-10Zm1.61 5.28v3.13c0 1-.44 1.62-1.43 1.62s-1.42-.65-1.42-1.62v-3.13c0-1 .45-1.6 1.42-1.6s1.43.6 1.43 1.56Zm-2.14-.05v3.24c0 .54.21.91.71.91s.72-.37.72-.91v-3.24c0-.54-.22-.9-.72-.9s-.71.3-.71.86ZM178.6 252.9v.32a2 2 0 0 1-1.14 2.05 2 2 0 0 1 1.14 2.11v.74a2.36 2.36 0 1 1-4.71 0v-.74a2 2 0 0 1 1.16-2.11 1.94 1.94 0 0 1-1.16-2.05v-.32a2.36 2.36 0 1 1 4.71 0Zm-3.61 0v.48c0 1 .47 1.4 1.26 1.4s1.25-.42 1.25-1.4v-.48c0-1-.47-1.5-1.25-1.5s-1.25.5-1.25 1.53Zm0 4.32v.84c0 1 .46 1.52 1.26 1.52s1.24-.49 1.25-1.52v-.84c0-1-.43-1.44-1.25-1.44s-1.25.5-1.25 1.47ZM179.53 252.94c0-1.52.75-2.51 2.28-2.51s2.3 1 2.3 2.51v5.15c0 1.53-.76 2.53-2.3 2.53s-2.28-1-2.28-2.53Zm1.1 5.22c0 .9.38 1.45 1.18 1.45s1.19-.55 1.19-1.45v-5.27c0-.92-.38-1.46-1.19-1.46s-1.18.54-1.18 1.46ZM188 252.09v3.15c0 1-.45 1.61-1.42 1.61s-1.43-.64-1.43-1.61v-3.15c0-1 .46-1.61 1.43-1.61s1.42.65 1.42 1.61Zm-2.14 0v3.25c0 .54.2.9.72.9s.71-.36.71-.9v-3.25c0-.55-.22-.92-.71-.92s-.76.33-.76.88Zm5.44-1.52-3.94 10h-.67l3.94-10Zm1.61 5.28V259c0 1-.44 1.61-1.43 1.61S190 259.92 190 259v-3.14c0-.95.45-1.6 1.42-1.6s1.45.6 1.45 1.55Zm-2.14 0V259c0 .54.21.91.71.91s.72-.37.72-.91v-3.24c0-.54-.22-.9-.72-.9s-.75.37-.75.91ZM178.51 279.16c0 3-3.38 4.1-3.39 6.39v.16h3.28v1H174v-.85c0-3.23 3.38-3.85 3.38-6.67 0-1-.34-1.56-1.17-1.56s-1.17.58-1.17 1.47v.9h-1v-.81c0-1.53.7-2.54 2.24-2.54s2.23.99 2.23 2.51ZM180.66 280.8a1.6 1.6 0 0 1 1.48-.82c1.28 0 1.85.94 1.85 2.36v2c0 1.52-.72 2.52-2.25 2.52s-2.24-1-2.24-2.52v-.67h1v.74c0 .9.37 1.44 1.17 1.44s1.17-.54 1.17-1.44v-1.94c0-.9-.37-1.44-1.17-1.44a1.08 1.08 0 0 0-1.13 1.07v.23h-1l.27-5.55h3.94v1h-2.94ZM187.86 278.29v3.15c0 1-.45 1.62-1.42 1.62s-1.43-.64-1.43-1.62v-3.15c0-1 .46-1.61 1.43-1.61s1.42.66 1.42 1.61Zm-2.14 0v3.25c0 .54.2.9.72.9s.71-.36.71-.9v-3.25c0-.54-.22-.91-.71-.91s-.72.33-.72.87Zm5.44-1.51-3.94 10h-.67l3.94-10Zm1.61 5.28v3.13c0 1-.44 1.62-1.43 1.62s-1.42-.65-1.42-1.62V282c0-1 .45-1.6 1.42-1.6s1.43.66 1.43 1.6Zm-2.14 0v3.24c0 .54.21.91.71.91s.72-.37.72-.91V282c0-.54-.22-.9-.72-.9s-.71.33-.71.9ZM177.34 303.41H174v-1h4.52v1l-2.57 9h-1.11ZM180.66 306.47a1.6 1.6 0 0 1 1.48-.82c1.28 0 1.85.94 1.85 2.36v2c0 1.52-.72 2.52-2.25 2.52s-2.24-1-2.24-2.52v-.67h1v.66c0 .9.37 1.44 1.17 1.44s1.17-.54 1.17-1.44v-1.9c0-.9-.37-1.44-1.17-1.44a1.08 1.08 0 0 0-1.13 1.07v.27h-1l.27-5.55h3.94v1h-2.94ZM187.86 304v3.15c0 1-.45 1.62-1.42 1.62s-1.43-.64-1.43-1.62V304c0-.95.46-1.61 1.43-1.61s1.42.61 1.42 1.61Zm-2.14 0v3.25c0 .54.2.9.72.9s.71-.36.71-.9V304c0-.54-.22-.91-.71-.91s-.72.29-.72.83Zm5.44-1.51-3.94 10h-.67l3.94-10Zm1.61 5.28v3.13c0 1-.44 1.62-1.43 1.62s-1.42-.65-1.42-1.62v-3.13c0-1 .45-1.6 1.42-1.6s1.43.56 1.43 1.52Zm-2.14-.05v3.24c0 .54.21.91.71.91s.72-.37.72-.91v-3.24c0-.54-.22-.9-.72-.9s-.71.28-.71.82Z" style="fill:#fff"/><path d="M85.89 237.62h-.8a1.15 1.15 0 0 1-1.15-1.15v-.73a1.16 1.16 0 0 0-1.16-1.15h-2.89a1.16 1.16 0 0 0-1.15 1.15v4h-8.53v-4a1.15 1.15 0 0 0-1.15-1.15h-2.89a1.15 1.15 0 0 0-1.17 1.15v.73a1.16 1.16 0 0 1-1.15 1.15h-.81a1.15 1.15 0 0 0-1.15 1.15v4.92a1.15 1.15 0 0 0 1.15 1.15h.81A1.16 1.16 0 0 1 65 246v.73a1.15 1.15 0 0 0 1.15 1.15h2.89a1.15 1.15 0 0 0 1.15-1.15v-4h8.53v4a1.16 1.16 0 0 0 1.15 1.15h2.89a1.16 1.16 0 0 0 1.16-1.15V246a1.15 1.15 0 0 1 1.15-1.15h.8a1.14 1.14 0 0 0 1.13-1.16v-4.92a1.14 1.14 0 0 0-1.11-1.15ZM82.88 259a5.78 5.78 0 0 0-8.16 0l-.2.2-.21-.2a5.76 5.76 0 0 0-8.15 8.15l.2.21 8.16 8.16 8.15-8.16.21-.21a5.73 5.73 0 0 0 0-8.15Zm-2.82 6.89h-3.33l-1.84 4.35-2.54-6.65-1.49 2.86h-2.21a.44.44 0 0 1-.43-.44.43.43 0 0 1 .43-.43h1.68l2.14-4.11 2.46 6.44 1.23-2.91h3.9a.44.44 0 0 1 .44.44.44.44 0 0 1-.44.44ZM82.1 287.47a5.15 5.15 0 0 0-4.46-3 4.76 4.76 0 0 0-3.46 1.58 4.74 4.74 0 0 0-3.45-1.58c-2.86 0-5.18 2.72-5.18 6.08a11.92 11.92 0 0 0 5.07 8.95c2.33 1.37 3.56.27 3.56.27s2.33 1.1 4 0a11 11 0 0 0 3.32-4 11.45 11.45 0 0 0 1.27-5.2 6.73 6.73 0 0 0-.67-3.1Z" style="fill:#d96a6a"/><path d="m73.09 281-1.37.55a10.8 10.8 0 0 1 1.37 1.92 9.72 9.72 0 0 1 1.09 2.58c.96-3.45-1.09-5.05-1.09-5.05ZM79.25 279.77a15.69 15.69 0 0 0-3.56 1.23c-1.1.69-1.1 2.88-1.1 2.88s2.47 0 3.29-.82 1.37-3.29 1.37-3.29ZM74.61 311.13a2.81 2.81 0 1 0-2.81-2.81 2.8 2.8 0 0 0 2.81 2.81ZM83.82 315.53a22.89 22.89 0 0 0-7-1.86 15 15 0 0 0-3.44-.08 8 8 0 0 0-1.81-1.72 15.75 15.75 0 0 0-6.78-2.5 1.09 1.09 0 0 0-1.14 1 1.07 1.07 0 0 0 1 1.14 13.65 13.65 0 0 1 5.78 2.17 3.78 3.78 0 0 1 .62.5 9.33 9.33 0 0 0-3.21 2.47l-.46.52c-2.3 2.61-4.58 4.84-7.14 3.58A10.73 10.73 0 0 1 59 320a1.07 1.07 0 0 0-1.23 1.75 12.75 12.75 0 0 0 1.54.91 5.55 5.55 0 0 0 2.46.6c3.11 0 5.61-2.84 7.23-4.69l.45-.5a6.6 6.6 0 0 1 3-2.12 13.72 13.72 0 0 1 2.16 7.31 6.06 6.06 0 0 1-3.24 5.49 1.07 1.07 0 0 0 .52 2 1.07 1.07 0 0 0 .51-.13 8.2 8.2 0 0 0 4.35-7.3 15.8 15.8 0 0 0-2-7.67 15.54 15.54 0 0 1 1.81.13 21.23 21.23 0 0 1 6.3 1.63 1.07 1.07 0 0 0 1-1.9Z" style="fill:#d96a6a"/><path d="M194.89 241.42a2.71 2.71 0 0 1-.78 1.9 2.67 2.67 0 0 1-1.89.78H98.63a2.67 2.67 0 0 1-2.63-2.68 2.63 2.63 0 0 1 .78-1.89 2.67 2.67 0 0 1 1.89-.78h93.59a2.68 2.68 0 0 1 2.63 2.67Z" style="fill:#7d7d7d"/><path d="M147.3 238.75v5.35H98.63a2.67 2.67 0 0 1-2.63-2.68 2.63 2.63 0 0 1 .78-1.89 2.67 2.67 0 0 1 1.89-.78Z" style="fill:#d96a6a"/><path d="M194.89 267.09a2.71 2.71 0 0 1-.78 1.9 2.67 2.67 0 0 1-1.89.78H98.63a2.67 2.67 0 0 1-2.63-2.68 2.63 2.63 0 0 1 .78-1.89 2.67 2.67 0 0 1 1.89-.78h93.59a2.68 2.68 0 0 1 2.63 2.67Z" style="fill:#7d7d7d"/><path d="M175.64 264.42v5.35h-77a2.67 2.67 0 0 1-2.64-2.68 2.63 2.63 0 0 1 .78-1.89 2.67 2.67 0 0 1 1.89-.78Z" style="fill:#d96a6a"/><path d="M194.89 292.76a2.71 2.71 0 0 1-.78 1.9 2.67 2.67 0 0 1-1.89.78H98.63a2.67 2.67 0 0 1-2.63-2.68 2.63 2.63 0 0 1 .78-1.89 2.67 2.67 0 0 1 1.89-.78h93.59a2.68 2.68 0 0 1 2.63 2.67Z" style="fill:#7d7d7d"/><path d="M116.28 290.09v5.35H98.63a2.67 2.67 0 0 1-2.63-2.68 2.63 2.63 0 0 1 .78-1.89 2.67 2.67 0 0 1 1.89-.78Z" style="fill:#d96a6a"/><path d="M194.89 318.43a2.71 2.71 0 0 1-.78 1.9 2.67 2.67 0 0 1-1.89.78H98.63a2.67 2.67 0 0 1-2.63-2.68 2.63 2.63 0 0 1 .78-1.89 2.67 2.67 0 0 1 1.89-.78h93.59a2.68 2.68 0 0 1 2.63 2.67Z" style="fill:#7d7d7d"/><path d="M163.34 315.76v5.35H98.63a2.67 2.67 0 0 1-2.63-2.68 2.63 2.63 0 0 1 .78-1.89 2.67 2.67 0 0 1 1.89-.78Z" style="fill:#d96a6a"/><path d="M74.29 404.12h-.36l-1.42-7.87h.25l1.37 7.53 1.36-7.49h.31l1.28 7.44 1.33-7.48h.22l-1.39 7.87h-.33l-1.27-7.29ZM82.06 400v.23h-2.31v3.64h2.75v.24h-3v-7.87h3v.23h-2.75V400ZM86 400v.23h-2.37v3.64h2.75v.24h-3v-7.87h3v.23h-2.75V400ZM88.11 400.2l-.6.9v3h-.25v-7.87h.25v4.44l2.92-4.44h.27L88.26 400l2.65 4.15h-.27ZM94.92 396.72a1.57 1.57 0 0 1-1.31.88v-.23a1.55 1.55 0 0 0 1.33-1.14h.23v7.89h-.25ZM124.89 404.12h-.36l-1.42-7.87h.25l1.37 7.53 1.36-7.49h.3l1.28 7.44 1.33-7.48h.23l-1.4 7.87h-.32l-1.28-7.29ZM132.66 400v.23h-2.32v3.64h2.76v.24h-3v-7.87h3v.23h-2.76V400ZM136.54 400v.23h-2.32v3.64H137v.24h-3v-7.87h3v.23h-2.76V400ZM138.7 400.2l-.59.9v3h-.25v-7.87h.25v4.44l2.92-4.44h.27l-2.44 3.77 2.64 4.15h-.27ZM147.4 398.2c0 2.2-3 2.93-3 5.64h3v.24h-3.24V404c0-2.95 3-3.62 3-5.74 0-1-.31-1.8-1.41-1.8s-1.39.86-1.39 1.8v.43h-.24v-.41c0-1.1.43-2 1.65-2s1.63.81 1.63 1.92ZM174.81 404.12h-.36l-1.45-7.87h.25l1.37 7.53 1.36-7.49h.31l1.28 7.44 1.33-7.48h.22l-1.39 7.87h-.33l-1.27-7.29ZM182.58 400v.23h-2.31v3.64H183v.24h-3v-7.87h3v.23h-2.75V400ZM186.47 400v.23h-2.32v3.64h2.75v.24h-3v-7.87h3v.23h-2.75V400ZM188.63 400.2l-.6.9v3h-.25v-7.87h.22v4.44l2.93-4.44h.27l-2.41 3.77 2.64 4.15h-.27ZM197.32 398.18v.19a1.64 1.64 0 0 1-1.12 1.63 1.5 1.5 0 0 1 1.12 1.58v.6c0 1.1-.44 2-1.64 2s-1.65-.89-1.65-2v-.37h.25v.37c0 1 .34 1.77 1.39 1.77s1.41-.8 1.41-1.78v-.59a1.32 1.32 0 0 0-1.31-1.46h-.57v-.22h.58a1.42 1.42 0 0 0 1.3-1.5v-.22c0-1-.36-1.77-1.41-1.77s-1.39.79-1.39 1.76v.23H194v-.22c0-1.1.45-2 1.65-2s1.67.9 1.67 2Z" style="fill:#fff"/><path style="fill:#d96a6a" d="M63.65 375.17h3.97v13.53h-3.97zM69.89 367.59h3.97v21.11h-3.97zM76.13 374.28h3.97v14.42h-3.97zM82.36 355.78h3.97v32.92h-3.97zM88.6 370.71h3.97v17.99H88.6zM94.83 376.73h3.97v11.97h-3.97zM101.07 384.31h3.97v4.39h-3.97zM113.72 346.86h3.97v41.84h-3.97zM119.96 357.79h3.97v30.92h-3.97zM126.19 361.13h3.97v27.57h-3.97zM132.43 369.82h3.97v18.88h-3.97zM138.66 363.58h3.97v25.12h-3.97zM144.9 351.77h3.97v36.93h-3.97zM151.13 358.45h3.97v30.25h-3.97zM163.79 372.05h3.97v16.65h-3.97zM170.03 376.73H174v11.97h-3.97zM176.26 364.92h3.97v23.78h-3.97zM182.5 359.12h3.97v29.58h-3.97zM188.73 362.69h3.97v26.01h-3.97zM194.97 372.05h3.97v16.65h-3.97zM201.2 365.81h3.97v22.89h-3.97z"/></g><g id="freepik--Character--inject-37"><path d="M448.46 270.92c-1.14 2.21-6.34 3-7.25 3.38s-13.76 2.42-13.76 2.42-14.91-3.08-22.47-7.08-20.9-13.92-24.17-18.71-7.23-25.88-7.23-25.88l-5.46 17.16s2.65 4.52 7.06 14.18 11.47 24.17 9.29 46.13-20.22 54.72-20.22 54.72 1 1.19 5.67 10.55 6.36 27.15 6.36 27.15a7.8 7.8 0 0 1 4.63 7.82c-.37 5.86-2.1 8.7-4.27 15.88s-5.39 11.31-10.32 11.2-5.19-6.25-3.33-13.41a99.28 99.28 0 0 0 2.47-14.88s-12.35-15.82-14.63-18.8-13.23-17.34-13.67-17.9a54.13 54.13 0 0 1 2.84 15.57c.39 9.23 6.73 36.06 6.73 36.06s.59.48 1.38 1.22c1.61 1.51 4.08 4.09 4.15 5.95.12 2.77-1.56 6.84-3.65 8.47s-.68 5.88-3.62 9.39-11.12 6.62-13.06 4.54-.3-7.38 1-12.67c1.28-5.13 2.83-10.55 2.93-10.89l-18.55-31.57s-10.37-12.2-13.9-23.15-7.52-25.86-6.39-50.55 5.22-30.08 5-35.62 3-24.46 3-24.46a85.29 85.29 0 0 1-19.56 11c-10.32 3.81-15.33 9.25-17.71 11.2s-7.91 2.48-9.14 2.53-6.11-6.21-7.44-8.62 1-6.2 2.45-7.81 3.51-4.45 6-3.32a20.59 20.59 0 0 0 6.22 1.28 21.24 21.24 0 0 0 5.74-2.7c2.09-1.63 8.32-7.42 11.17-12.77s10.5-14.3 10.5-14.3 3.6-17.23 6.37-24.73 5.05-11.92 12.44-19.31 19-10 19-10l.93-7.12s-1.24-.26-4.34-.75-6.31-3.74-8.63-7.65-5.67-25.33-3.83-33.1a22.53 22.53 0 0 1 7.51-12c16.23-9.91 25.73-3.22 31.71 7.32s.34 15.69.34 15.69a12.7 12.7 0 0 1 1.24 7.65c-.75 4-6.8 6.75-6.8 6.75l.44 3.36c.45 3.37 5.31 16.73 6.89 17.59s18.77 6.92 29.45 19.42 13.8 41 13.8 41 5.65 1.55 10.4 8.32c11.31 16.12 15.26 18.77 15.26 18.77s8.27-1 11.4.15 3.24 3.87 5.39 3.78 7.38-.05 6.24 2.15Z" style="fill:#fff"/><path d="M334 447.22a3.23 3.23 0 0 1-2.46-.83c-1.93-2.07-.75-6.67.49-11.55l.4-1.58c1.18-4.7 2.6-9.71 2.89-10.72l-18.45-31.38c-.05-.05-10.41-12.33-13.93-23.24-4-12.35-7.51-27-6.42-50.73.73-15.78 2.64-23.63 3.9-28.82a24.7 24.7 0 0 0 1.09-6.76c-.19-4.77 2.09-19 2.8-23.34a85 85 0 0 1-18.69 10.3 48.07 48.07 0 0 0-16.26 10c-.5.45-.94.83-1.31 1.14-2.83 2.31-9.36 2.64-9.43 2.64-1.78 0-6.91-7.15-7.87-8.88-1.42-2.57.79-6.51 2.52-8.38l.55-.61c1.47-1.68 3.5-4 6-2.84a20.07 20.07 0 0 0 5.94 1.24 20.36 20.36 0 0 0 5.5-2.6c2.31-1.79 8.3-7.47 11-12.61s9.6-13.25 10.48-14.29c.33-1.58 3.73-17.57 6.36-24.68 2.85-7.74 5.23-12.16 12.56-19.48 6.7-6.69 16.91-9.56 18.9-10.07l.83-6.32c-.61-.12-1.84-.34-3.87-.65-3-.47-6.33-3.42-9-7.9-2.45-4.11-5.7-25.8-3.89-33.47a22.88 22.88 0 0 1 7.7-12.3c7.14-4.36 13.52-5.84 19-4.42 5.2 1.34 9.72 5.34 13.44 11.89 5.41 9.53 1.62 14.8.51 16a13 13 0 0 1 1.12 7.65c-.69 3.72-5.42 6.29-6.75 7l.4 3c.51 3.83 5.4 16.54 6.63 17.21.19.1.69.31 1.37.6 4.67 2 18.89 8 28.22 18.93 10.17 11.89 13.48 37.62 13.88 41 1.3.45 6.15 2.43 10.35 8.42 9.94 14.16 14.2 17.9 15 18.53 1.32-.14 8.47-.85 11.43.19a7.29 7.29 0 0 1 3.27 2.49c.72.85 1.13 1.33 1.93 1.27 1.71-.07 5.78-.08 6.72 1.4a1.45 1.45 0 0 1 0 1.53c-1 2-4.65 2.87-6.59 3.36-.43.11-.76.19-.93.25-.93.35-12.54 2.23-13.86 2.44a.54.54 0 0 1-.18 0c-.61-.13-15.07-3.14-22.61-7.13-7.83-4.15-21-14-24.35-18.87-2.74-4-5.86-18.79-6.93-24.14l-4.79 15.09c.55 1 3.1 5.54 7 14l.48 1c4.37 9.57 11 24 8.86 45.35-2.05 20.74-18.4 51.43-20.14 54.64.47.72 1.89 3.11 5.54 10.35 4.41 8.8 6.13 24.64 6.38 27.05a8.34 8.34 0 0 1 4.66 8.18 34.93 34.93 0 0 1-2.45 10.4c-.55 1.59-1.18 3.39-1.84 5.59-2.39 7.89-5.94 11.65-10.81 11.56a4.33 4.33 0 0 1-3.57-1.7c-2.12-2.79-1.29-8.25-.23-12.34A98.71 98.71 0 0 0 365 401.7c-1.29-1.65-12.38-15.85-14.52-18.65l-11.95-15.66a60.1 60.1 0 0 1 2 13c.35 8.7 6.14 33.54 6.67 35.81.22.18.69.58 1.27 1.12 1.92 1.8 4.23 4.35 4.31 6.3.13 3-1.67 7.19-3.85 8.88-.82.64-1 1.83-1.25 3.34a11.39 11.39 0 0 1-2.29 6 18.4 18.4 0 0 1-11.15 5.39Zm2.31-24.53s-1.6 5.6-2.91 10.81l-.4 1.59c-1.12 4.4-2.29 9-.73 10.62a2.55 2.55 0 0 0 1.9.51 17.49 17.49 0 0 0 10.41-5 10.47 10.47 0 0 0 2.06-5.49c.27-1.66.5-3.1 1.63-4 1.89-1.47 3.57-5.38 3.46-8.05 0-1.25-1.47-3.25-4-5.61-.77-.71-1.35-1.18-1.35-1.19a.5.5 0 0 1-.18-.27c-.26-1.1-6.36-27-6.73-36.16A54.43 54.43 0 0 0 336.7 365a.5.5 0 0 1 .22-.61.51.51 0 0 1 .64.13l13.67 17.9c2.25 2.95 14.5 18.64 14.62 18.8a.49.49 0 0 1 .11.35 100.79 100.79 0 0 1-2.48 15c-1.43 5.48-1.4 9.55 0 11.48a3.34 3.34 0 0 0 2.8 1.31h.17c4.29 0 7.45-3.55 9.66-10.85.67-2.22 1.3-4 1.86-5.63a34.33 34.33 0 0 0 2.39-10.13 7.34 7.34 0 0 0-4.32-7.32.51.51 0 0 1-.31-.42c0-.18-1.71-17.81-6.31-27s-5.57-10.4-5.61-10.46a.48.48 0 0 1-.05-.55c.18-.33 18-32.93 20.17-54.53 2.08-21.05-4.46-35.36-8.78-44.83l-.48-1c-4.34-9.53-7-14.09-7-14.13a.49.49 0 0 1 0-.41l5.45-17.16a.51.51 0 0 1 .51-.35.49.49 0 0 1 .46.41c0 .21 4 21 7.15 25.69s16.42 14.53 24 18.55c7.11 3.76 21 6.75 22.25 7 5.15-.83 12.94-2.13 13.57-2.37a9.48 9.48 0 0 1 1-.29c1.67-.42 5.14-1.29 5.95-2.85.18-.34.09-.49.05-.54-.43-.68-2.83-1.07-5.84-.94-1.35 0-2-.77-2.74-1.63a6.2 6.2 0 0 0-2.84-2.18c-3-1.06-11.1-.13-11.18-.12a.56.56 0 0 1-.33-.08c-.17-.11-4.15-2.89-15.39-18.9-4.58-6.53-10.07-8.11-10.12-8.13a.49.49 0 0 1-.37-.43c0-.28-3.22-28.52-13.68-40.75-9.18-10.73-23.23-16.7-27.85-18.66-.74-.31-1.23-.52-1.46-.65-1.86-1-6.73-14.8-7.14-17.95l-.45-3.36a.5.5 0 0 1 .29-.52c.06 0 5.82-2.66 6.52-6.39a12.31 12.31 0 0 0-1.18-7.31.5.5 0 0 1 .09-.61c.22-.21 5.26-5.06-.43-15.08-3.63-6.4-7.82-10.13-12.82-11.43-5.22-1.34-11.34.1-18.2 4.29a22.27 22.27 0 0 0-7.28 11.7c-1.88 8 1.62 29.12 3.77 32.73 2.5 4.22 5.6 7 8.28 7.42 3.08.48 4.31.74 4.37.75a.5.5 0 0 1 .39.55l-.94 7.12a.5.5 0 0 1-.38.43c-.12 0-11.55 2.69-18.75 9.89s-9.53 11.52-12.33 19.12c-2.73 7.38-6.31 24.49-6.35 24.66a.39.39 0 0 1-.11.22c-.07.09-7.63 9-10.43 14.21s-8.95 11.09-11.32 12.93a21.37 21.37 0 0 1-5.9 2.79.5.5 0 0 1-.17 0 20.58 20.58 0 0 1-6.39-1.33c-1.88-.84-3.55 1.06-4.89 2.59l-.56.62c-1.3 1.41-3.59 5-2.38 7.22 1.45 2.63 6 8.25 7 8.37 1.3 0 6.63-.62 8.83-2.42.36-.29.78-.67 1.28-1.11a48.9 48.9 0 0 1 16.57-10.17c10.13-3.75 19.34-10.83 19.43-10.9a.5.5 0 0 1 .56 0 .51.51 0 0 1 .24.52c0 .19-3.21 18.93-3 24.35a25.65 25.65 0 0 1-1.12 7c-1.25 5.16-3.15 12.95-3.87 28.63-1.08 23.54 2.42 38.13 6.37 50.38 3.46 10.72 13.69 22.85 13.8 23l18.6 31.64a.52.52 0 0 1 0 .47Zm112.15-151.77Z" style="fill:#263238"/><path d="M433.65 273.27a.51.51 0 0 1-.28-.09c-2.67-1.84-4-3.06-4.06-3.63a.5.5 0 0 1 1-.16c.06.11.57.85 3.65 3a.51.51 0 0 1 .13.7.52.52 0 0 1-.44.18Z" style="fill:#263238"/><path style="fill:#fff" d="m373.58 225.05-.78-3.81"/><path d="M373.58 225.55a.49.49 0 0 1-.49-.4l-.78-3.81a.51.51 0 0 1 .39-.59.5.5 0 0 1 .59.39l.78 3.81a.51.51 0 0 1-.39.59ZM348.11 283.24a296.14 296.14 0 0 1-46-5.36 32.85 32.85 0 0 0-.14 3.71c.22 5.53-3.86 10.94-5 35.62s2.87 39.61 6.4 50.56c1.74 5.4 5.15 11.1 8.15 15.5 5.76 2.28 15.35 2.68 27.83-9a48.65 48.65 0 0 0-2.23-9.48L346 376.4c5.12 1.61 13.29 1 22.18-12.07-3.18-6.19-3.91-7.08-3.91-7.08s18.05-32.78 20.22-54.73a76.59 76.59 0 0 0-1.07-23c-7.12 2.27-18.57 4.48-35.31 3.72Z" style="fill:#263238"/><path d="M318.33 385.05a18.68 18.68 0 0 1-7-1.32.42.42 0 0 1-.23-.18 63.31 63.31 0 0 1-8.22-15.63c-4-12.34-7.51-27-6.42-50.73.73-15.78 2.64-23.63 3.9-28.83a24.71 24.71 0 0 0 1.1-6.75 32.61 32.61 0 0 1 .14-3.77.46.46 0 0 1 .2-.36.48.48 0 0 1 .4-.09 297 297 0 0 0 45.89 5.35c17 .75 28.5-1.57 35.12-3.66a.54.54 0 0 1 .41.05.49.49 0 0 1 .23.33 76.63 76.63 0 0 1 1.15 23.11c-2.05 20.75-18.4 51.44-20.14 54.65.39.59 1.42 2.3 3.78 6.88a.51.51 0 0 1 0 .51c-9 13.24-17.34 14-22.75 12.26a.49.49 0 0 1-.25-.17l-7.11-9.32a58.54 58.54 0 0 1 1.41 6.86.5.5 0 0 1-.16.43c-8.59 7.96-15.78 10.38-21.45 10.38Zm-6.45-2.19c5.68 2.19 14.93 2.4 27-8.74a49.23 49.23 0 0 0-2.16-9.11.5.5 0 0 1 .22-.62.51.51 0 0 1 .64.14l8.7 11.47c5.06 1.54 12.8.7 21.3-11.66a62.73 62.73 0 0 0-3.72-6.74.54.54 0 0 1-.05-.56c.18-.32 18-32.93 20.16-54.53a75.73 75.73 0 0 0-1-22.27c-6.77 2.07-18.2 4.28-34.93 3.54a299.07 299.07 0 0 1-45.5-5.26 27.58 27.58 0 0 0-.09 3.09 26.16 26.16 0 0 1-1.13 7c-1.25 5.16-3.15 12.95-3.87 28.64-1.09 23.55 2.42 38.13 6.37 50.37a63.24 63.24 0 0 0 8.06 15.24Z" style="fill:#263238"/><path d="M342.26 304.75a.53.53 0 0 1-.27-.08.51.51 0 0 1-.15-.7 46.61 46.61 0 0 1 3-4.16.5.5 0 0 1 .79.62c-1 1.3-2 2.68-2.9 4.09a.53.53 0 0 1-.47.23ZM337.15 365.33H337c-.22-.07-5.56-1.89-6-13-.27-6.63-1.1-26.8 8.66-44.67a.5.5 0 0 1 .88.48c-9.63 17.62-8.81 37.59-8.54 44.15.43 10.3 5.28 12 5.33 12.05a.5.5 0 0 1-.16 1ZM333.09 309.89h-.18a35.54 35.54 0 0 1-12-8.19.5.5 0 0 1 .74-.67 35 35 0 0 0 11.63 7.92.51.51 0 0 1 .28.65.48.48 0 0 1-.47.29Z" style="fill:#757575"/><path d="M327.52 155.13a9.49 9.49 0 0 1-2.59-.42 2.41 2.41 0 0 1-1.72-1.26c-.41-1 .24-2.15 1.05-3.61.24-.44.5-.9.75-1.4 1.34-2.67.89-6.8.89-6.84a.5.5 0 0 1 1-.11c0 .18.49 4.47-1 7.4-.26.51-.53 1-.78 1.43-.65 1.19-1.22 2.21-1 2.75.12.27.48.5 1.08.67 2.45.71 3.28.23 3.29.22a.51.51 0 0 1 .68.15.48.48 0 0 1-.11.67 2.59 2.59 0 0 1-1.54.35ZM336.36 144.21c.06 1.36-.38 2.48-1 2.51s-1.12-1.06-1.18-2.42.38-2.48 1-2.5 1.13 1.05 1.18 2.41ZM322.49 143.86c.05 1.36-.38 2.48-1 2.5s-1.12-1.05-1.17-2.41.38-2.48 1-2.51 1.11 1.06 1.17 2.42ZM339.55 140a.49.49 0 0 1-.32-.12c-4.43-3.81-8.52-1.23-8.69-1.12a.5.5 0 0 1-.55-.83 8.34 8.34 0 0 1 9.89 1.19.51.51 0 0 1 .05.71.52.52 0 0 1-.38.17ZM317.4 140.57a.48.48 0 0 1-.36-.16.49.49 0 0 1 0-.7 6.89 6.89 0 0 1 6.59-1.6.49.49 0 0 1 .33.62.5.5 0 0 1-.63.33 5.89 5.89 0 0 0-5.6 1.37.52.52 0 0 1-.33.14ZM328.58 160.45a5.68 5.68 0 0 1-3.3-.92.5.5 0 0 1 .6-.8c.14.1 3.31 2.32 8.58-1.61a.5.5 0 1 1 .59.8 10.86 10.86 0 0 1-6.47 2.53ZM332 172.42s1.54-.07 3.62-2 3.56-3.23 3.56-3.23-1.35 4.68-3.12 6.6a24.51 24.51 0 0 1-4.47 3.57Z" style="fill:#263238"/><path d="M331.57 177.86a.48.48 0 0 1-.26-.07.52.52 0 0 1-.24-.47l.41-4.94a.51.51 0 0 1 .48-.46 6.14 6.14 0 0 0 3.29-1.86c2.06-1.92 3.57-3.23 3.58-3.24a.5.5 0 0 1 .6 0 .51.51 0 0 1 .21.56c-.06.2-1.4 4.81-3.23 6.8a24.62 24.62 0 0 1-4.58 3.66.48.48 0 0 1-.26.02Zm.88-5-.3 3.53a21.15 21.15 0 0 0 3.52-2.93 15.38 15.38 0 0 0 2.42-4.64c-.58.53-1.32 1.2-2.15 2a7.93 7.93 0 0 1-3.49 2.03ZM360 112.44c-3.15-1-4.9.27-5.18.49a6.62 6.62 0 0 0-3.44-.44 12.84 12.84 0 0 0-6.88 3.3c-5.5-2.79-12.5-2.54-21.81 3.12a18.9 18.9 0 0 0-2.85 2.83h.5s2.54 1.75 4.69 1.66 9.41-3.47 13.76-2.42 7.55 3.7 5.87 7.77-1.81 8.39.36 8.91 4.41 2.29 4.5 4.44 1.92 1.77 2.8.81a4 4 0 0 1 2.43-1s3.92-3.6 1.74-10.92c2.17-.46 7.21-2.66 6.73-7.6a11.21 11.21 0 0 0-1.85-4.89l1.62-.64c2.73-1.04.44-4.33-2.99-5.42Z" style="fill:#263238"/><path d="M350.75 144.21a1.51 1.51 0 0 1-.59-.11c-.4-.14-1.08-.59-1.14-1.95-.08-2-2.18-3.5-4.11-4a2.32 2.32 0 0 1-1.53-1.27c-.88-1.73-.56-5 .81-8.32a4.17 4.17 0 0 0 0-3.62c-.8-1.57-2.77-2.8-5.54-3.47s-7 .6-10 1.53a18.59 18.59 0 0 1-3.61.9 9.76 9.76 0 0 1-4.87-1.66h-.37a.48.48 0 0 1-.43-.3.49.49 0 0 1 .07-.52 19.55 19.55 0 0 1 2.94-2.91c8.47-5.18 15.86-6.29 22-3.32a13.59 13.59 0 0 1 6.88-3.2 7.09 7.09 0 0 1 3.46.38 6.16 6.16 0 0 1 5.4-.41c2.5.8 4.5 2.71 4.55 4.37a2.05 2.05 0 0 1-1.53 2l-1.06.41a11.41 11.41 0 0 1 1.61 4.6c.48 4.95-4.21 7.33-6.61 8 1.93 7.2-1.86 10.78-2 10.93a.46.46 0 0 1-.31.13 3.41 3.41 0 0 0-2.08.86 2.81 2.81 0 0 1-1.94.95Zm-13.85-23.9a8.6 8.6 0 0 1 2 .22c3.06.74 5.26 2.15 6.19 4a5.15 5.15 0 0 1 0 4.46c-1.23 3-1.58 6.05-.85 7.49a1.35 1.35 0 0 0 .87.75c2.29.55 4.78 2.46 4.88 4.9 0 .41.11.92.48 1.06a1.64 1.64 0 0 0 1.46-.57 4.19 4.19 0 0 1 2.56-1.17c.62-.65 3.36-4 1.49-10.3a.49.49 0 0 1 .05-.39.51.51 0 0 1 .32-.24c1.92-.4 6.79-2.46 6.34-7.06a10.67 10.67 0 0 0-1.77-4.67.51.51 0 0 1 .23-.73l1.64-.65c.9-.34.88-.86.88-1 0-1.08-1.59-2.72-3.86-3.43-2.93-.94-4.53.26-4.7.4a.51.51 0 0 1-.49.08 6.15 6.15 0 0 0-3.19-.42 12.35 12.35 0 0 0-6.61 3.17.5.5 0 0 1-.58.09c-5.89-3-13.06-1.95-21.32 3.09a19.05 19.05 0 0 0-2.19 2.12 8.75 8.75 0 0 0 4.25 1.48 18.78 18.78 0 0 0 3.36-.86 32 32 0 0 1 8.56-1.82Zm17.85 21.6Z" style="fill:#263238"/><path d="M309.12 133.82h-.05a.49.49 0 0 1-.45-.54c.66-6.87 6.72-10.14 9.81-11.38-2.54-.27-7.15.1-9.39 5.78a.5.5 0 0 1-.65.28.49.49 0 0 1-.28-.65c3.47-8.79 12.3-6 12.39-6a.5.5 0 0 1 0 1c-.1 0-10 2.61-10.85 11.11a.51.51 0 0 1-.53.4ZM361.84 142.74a.5.5 0 0 1-.26-.08c-4.3-2.61-6.38-.5-6.47-.41a.5.5 0 0 1-.7 0 .5.5 0 0 1 0-.71c.11-.11 2.69-2.82 7.72.24a.5.5 0 0 1 .17.69.51.51 0 0 1-.46.27Z" style="fill:#263238"/><path d="M353.52 142.46a.5.5 0 0 1-.32-.88c.21-.18 5.28-4.34 10.67-3.93a.5.5 0 0 1 .46.54.51.51 0 0 1-.54.46c-5-.39-9.91 3.66-10 3.7a.45.45 0 0 1-.27.11Z" style="fill:#263238"/><path d="M375.18 256.4c-4.41-9.68-7.06-14.19-7.06-14.19l5.46-17.16s-7.73-.47-13.67-10.08c-5.56-9 3.28-30.07 4.88-33.95-1.58-.79-3-1.46-4.24-2-1.19 3.87-5.69 18-10.84 27.47-6 11-25.91 14-28.3.86-1.26-6.94 4.36-21.78 6.41-26.87-.64.21-1.36.46-2.13.76-3.7 5-8.92 13.31-18.3 26-10.36 14-2.61 22.5-.9 26.43a30.15 30.15 0 0 1 2.12 6.69L305 257.14s-3.22 18.92-3 24.45c.09 2.36-.59 4.7-1.5 8.51 10.07 2.62 30.06 6.6 51.91 4.19 18.26-2 27.54-5 32.12-7.17-1.32-13.64-6.07-23.52-9.35-30.72Z" style="fill:#d96a6a"/><path d="M338.54 295.54a155.73 155.73 0 0 1-38.17-5 .51.51 0 0 1-.36-.6l.39-1.62a24.77 24.77 0 0 0 1.1-6.76c-.23-5.52 2.87-23.78 3-24.56l3.6-16.7a31.29 31.29 0 0 0-2.07-6.48c-.24-.54-.59-1.17-1-1.91-2.49-4.45-7.12-12.73 2-25 5.75-7.78 9.86-13.8 13.16-18.64 2.07-3 3.7-5.42 5.14-7.36a.47.47 0 0 1 .22-.17c.78-.3 1.5-.55 2.15-.77a.51.51 0 0 1 .63.67c-1.82 4.49-7.64 19.71-6.38 26.59.81 4.47 3.82 7.34 8.48 8.09 7.07 1.14 15.53-2.95 18.88-9.1 5.1-9.36 9.56-23.32 10.8-27.38a.5.5 0 0 1 .68-.31c1.49.66 2.88 1.32 4.27 2a.5.5 0 0 1 .23.64l-.07.18c-6.57 15.91-8.29 27.74-4.85 33.32 5.72 9.25 13.2 9.83 13.28 9.84a.5.5 0 0 1 .38.22.47.47 0 0 1 .06.43l-5.38 17c.55 1 3.1 5.55 7 14l.47 1c3.23 7.08 7.66 16.77 8.92 29.86a.5.5 0 0 1-.28.5c-4.63 2.18-14 5.2-32.27 7.22a128.45 128.45 0 0 1-14.01.8Zm-37.44-5.8c10.12 2.59 29.8 6.42 51.26 4.05 17.74-2 27-4.84 31.63-7-1.29-12.75-5.63-22.24-8.8-29.19l-.47-1c-4.34-9.53-7-14.09-7-14.13a.53.53 0 0 1 0-.41l5.27-16.59c-2-.33-8.34-2-13.44-10.24-3.6-5.82-1.94-17.88 4.67-34-1.07-.53-2.16-1-3.29-1.55-1.45 4.66-5.77 18-10.71 27-3.6 6.6-12.35 10.83-19.91 9.61-5.12-.82-8.42-4-9.32-8.9-1.19-6.58 3.53-19.78 6-26.13l-.95.34c-1.4 1.91-3 4.26-5 7.21-3.31 4.85-7.43 10.88-13.19 18.67-8.69 11.77-4.43 19.39-1.89 23.94a22 22 0 0 1 1 2 30 30 0 0 1 2.16 6.81.54.54 0 0 1 0 .18l-3.62 16.78c0 .17-3.21 18.91-3 24.33a26.22 26.22 0 0 1-1.13 7Z" style="fill:#263238"/><path d="M348.94 243.78h-.07a90.7 90.7 0 0 1-25.24-7.87.5.5 0 0 1-.24-.66.5.5 0 0 1 .67-.24 89.79 89.79 0 0 0 25 7.78.51.51 0 0 1 .42.57.5.5 0 0 1-.54.42ZM320.39 234.18a.5.5 0 0 1-.24-.06c-2.14-1.18-3.28-2-3.33-2a.5.5 0 1 1 .57-.82s1.15.79 3.24 1.94a.51.51 0 0 1 .2.68.53.53 0 0 1-.44.26ZM347.37 247.29h-.08a119.82 119.82 0 0 1-17-4.48.5.5 0 0 1 .34-.94 117.62 117.62 0 0 0 16.85 4.43.5.5 0 0 1-.08 1Z" style="fill:#263238"/><path d="M380.91 402.76c-.37 5.86-2.1 8.7-4.27 15.88s-5.39 11.31-10.32 11.2-5.19-6.25-3.33-13.41a99.28 99.28 0 0 0 2.47-14.88 15.16 15.16 0 0 0 7 .72c3.6-.6 3.78-7.33 3.78-7.33a7.8 7.8 0 0 1 4.67 7.82Z" style="fill:#fff"/><path d="M366.5 430.34h-.19a4.33 4.33 0 0 1-3.57-1.7c-2.12-2.79-1.29-8.25-.23-12.34a97.71 97.71 0 0 0 2.49-14.79.48.48 0 0 1 .23-.38.51.51 0 0 1 .45-.05 14.59 14.59 0 0 0 6.78.7c3.15-.53 3.35-6.79 3.36-6.85a.5.5 0 0 1 .68-.45 8.38 8.38 0 0 1 5 8.31 34.93 34.93 0 0 1-2.45 10.4c-.55 1.59-1.18 3.39-1.84 5.59-2.44 7.78-5.92 11.56-10.71 11.56Zm-.6-28.12a99.51 99.51 0 0 1-2.42 14.33c-1.43 5.48-1.41 9.55 0 11.48a3.34 3.34 0 0 0 2.8 1.31c4.39.1 7.59-3.46 9.83-10.85.67-2.22 1.3-4 1.86-5.63a34.33 34.33 0 0 0 2.39-10.13 7.23 7.23 0 0 0-3.68-7c-.18 1.87-.92 6.51-4.15 7a15.3 15.3 0 0 1-6.63-.51Zm15 .54Z" style="fill:#263238"/><path d="M352.21 423.65c.12 2.77-1.56 6.84-3.65 8.47s-.68 5.88-3.62 9.39-11.12 6.62-13.06 4.54-.3-7.38 1-12.67c1.28-5.13 2.83-10.55 2.93-10.89s-.16-1.47 3-3 5.08 2.51 5.08 2.51a39.91 39.91 0 0 1 3.49-3.32 2.16 2.16 0 0 0 .7-1c1.59 1.53 4.06 4.11 4.13 5.97Z" style="fill:#fff"/><path d="M334 447.22a3.23 3.23 0 0 1-2.46-.83c-1.93-2.07-.75-6.67.49-11.55l.4-1.58c1.25-5 2.78-10.35 2.93-10.86s.31-1.93 3.23-3.33c2.46-1.18 4.44.63 5.4 2.12a39.44 39.44 0 0 1 3.07-2.87 1.67 1.67 0 0 0 .55-.78.49.49 0 0 1 .81-.21c1.92 1.8 4.23 4.35 4.31 6.3.13 3-1.67 7.19-3.85 8.88-.82.64-1 1.83-1.25 3.34a11.39 11.39 0 0 1-2.29 6 18.4 18.4 0 0 1-11.15 5.39Zm2.31-24.53s-1.6 5.6-2.91 10.81l-.4 1.59c-1.12 4.4-2.29 9-.73 10.62a2.55 2.55 0 0 0 1.9.51 17.49 17.49 0 0 0 10.41-5 10.47 10.47 0 0 0 2.06-5.49c.27-1.66.5-3.1 1.63-4 1.89-1.47 3.57-5.38 3.46-8.05 0-1.17-1.29-3-3.5-5.15a2.93 2.93 0 0 1-.53.58 38.7 38.7 0 0 0-3.44 3.27.51.51 0 0 1-.82-.12c-.07-.15-1.8-3.53-4.42-2.28s-2.66 2.46-2.66 2.47a.7.7 0 0 1 0 .25Z" style="fill:#263238"/><path d="M346.83 462.38c-31.29 0-54.37-20.84-75.6-66.15C247.25 345 242 294.82 241 269.44v-.81c-.12-2.87.56-5 2-6.34a6.24 6.24 0 0 1 4.65-1.43.5.5 0 1 1-.14 1 5.27 5.27 0 0 0-3.84 1.19c-1.24 1.13-1.81 3-1.7 5.55v.81c1 25.3 6.19 75.37 30.09 126.4 27.29 58.25 57.63 75.68 104.72 60.17 42.84-14.1 55.22-65.25 67.22-114.71.72-2.93 1.42-5.85 2.14-8.77 12.5-50.95-.65-58.49-.78-58.56a.52.52 0 0 1-.22-.68.5.5 0 0 1 .67-.21c.58.29 14 7.74 1.3 59.69-.71 2.91-1.42 5.84-2.13 8.77-12.06 49.72-24.53 101.14-67.83 115.41-10.94 3.61-21 5.46-30.32 5.46Z" style="fill:#263238"/><path d="M420.09 278.91a3.17 3.17 0 0 1 2.36-4l22.17-4.89a1.79 1.79 0 0 1 2.1 1.26 1.78 1.78 0 0 1-1.12 2.17L424.18 281a3.17 3.17 0 0 1-4.09-2.09Z" style="fill:#263238"/><path d="M423.13 281.71a3.69 3.69 0 0 1-1.68-.41 3.63 3.63 0 0 1-1.84-2.25 3.68 3.68 0 0 1 2.73-4.59l22.17-4.89a2.29 2.29 0 0 1 1.25 4.39l-21.41 7.54a3.68 3.68 0 0 1-1.22.21ZM445 270.52a1.24 1.24 0 0 0-.27 0l-22.17 4.89a2.66 2.66 0 0 0-2 3.33 2.62 2.62 0 0 0 1.34 1.64 2.67 2.67 0 0 0 2.11.15l21.42-7.53a1.29 1.29 0 0 0-.43-2.5Z" style="fill:#263238"/><path d="M440.42 273.6s.2 4.87 1 5 2.35.31 2.4-.91-.06-4.06-.69-4.55a2.63 2.63 0 0 0-2.71.46Z" style="fill:#fff"/><path d="M442.42 279.25a5.25 5.25 0 0 1-1.08-.12c-.3-.06-1.2-.25-1.42-5.51a.58.58 0 0 1 .06-.26 2.23 2.23 0 0 1 1.44-.81 2.78 2.78 0 0 1 2 .24c1.05.8.89 4.92.89 5a1.45 1.45 0 0 1-.54 1.11 2.24 2.24 0 0 1-1.35.35Zm-.8-1.09a2.19 2.19 0 0 0 1.56-.09.42.42 0 0 0 .16-.36c.07-1.73-.18-3.85-.5-4.13a2.47 2.47 0 0 0-1.91.2 13.58 13.58 0 0 0 .69 4.38Z" style="fill:#263238"/><path d="M440.21 273.64s.51 3.54-.19 4.21-1.85 1.44-2.89.66-.53-4 .16-5 2.59-1.4 2.92.13Z" style="fill:#fff"/><path d="M438.07 279.34a2 2 0 0 1-1.24-.43c-1.39-1-.68-4.62 0-5.7a2.57 2.57 0 0 1 2.45-1.07 1.71 1.71 0 0 1 1.38 1.4c.16 1.14.46 3.88-.34 4.64a3.49 3.49 0 0 1-2.25 1.16Zm.88-6.24a1.63 1.63 0 0 0-1.25.67c-.67 1-.95 3.83-.27 4.34s1.63 0 2.25-.62c.26-.27.28-2.05 0-3.75a.71.71 0 0 0-.58-.62Z" style="fill:#263238"/><path d="M436.9 275.06s.51 3.53-.19 4.2-1.86 1.45-2.9.67-.53-4 .16-5 2.59-1.41 2.93.13Z" style="fill:#fff"/><path d="M434.75 280.76a2.1 2.1 0 0 1-1.24-.43c-1.39-1.05-.67-4.62.05-5.7a2.56 2.56 0 0 1 2.45-1.08 1.69 1.69 0 0 1 1.37 1.4c.17 1.14.46 3.87-.34 4.63a3.44 3.44 0 0 1-2.29 1.18Zm.88-6.24a1.58 1.58 0 0 0-1.24.66c-.68 1-1 3.83-.27 4.35s1.62 0 2.24-.63c.27-.27.29-2 0-3.75a.71.71 0 0 0-.58-.62Z" style="fill:#263238"/><path d="M433.92 275.91s.51 3.54-.19 4.2-1.85 1.45-2.89.67-.53-4 .16-5 2.58-1.41 2.92.13Z" style="fill:#fff"/><path d="M431.78 281.61a2 2 0 0 1-1.24-.43c-1.39-1.05-.68-4.62 0-5.7a2.57 2.57 0 0 1 2.46-1.08 1.74 1.74 0 0 1 1.38 1.4c.16 1.14.46 3.87-.34 4.64a3.51 3.51 0 0 1-2.26 1.17Zm.88-6.24a1.62 1.62 0 0 0-1.25.66c-.67 1-1 3.84-.27 4.35s1.63 0 2.25-.63c.26-.26.28-2.05 0-3.75a.7.7 0 0 0-.58-.61.62.62 0 0 0-.15-.02ZM264.32 283.45a3.16 3.16 0 0 1-4.54-.77l-12.57-18.91a1.79 1.79 0 0 1 .41-2.41 1.78 1.78 0 0 1 2.43.26l14.77 17.25a3.17 3.17 0 0 1-.5 4.58Z" style="fill:#263238"/><path d="M262.42 284.59a4.44 4.44 0 0 1-.62 0 3.62 3.62 0 0 1-2.44-1.59l-12.57-18.9a2.29 2.29 0 0 1 3.64-2.76l14.77 17.25a3.66 3.66 0 0 1-.58 5.31 3.6 3.6 0 0 1-2.2.69ZM248.7 261.5a1.26 1.26 0 0 0-.78.26 1.29 1.29 0 0 0-.29 1.74l12.56 18.9a2.67 2.67 0 0 0 3.83.65 2.67 2.67 0 0 0 .42-3.86L249.67 262a1.26 1.26 0 0 0-.97-.5Zm15.62 21.95Z" style="fill:#263238"/><path d="M253.39 266.84s-4.66 4.35-4.62 5.41a3.2 3.2 0 0 0 2.53 2.61c1.26.14 2.62-2.24 3.53-3.63s2.41-4.74-1.44-4.39Z" style="fill:#fff"/><path d="M251.41 275.36h-.17a3.63 3.63 0 0 1-3-3.08c-.05-1.16 3.31-4.44 4.76-5.8a.58.58 0 0 1 .3-.13c1.4-.13 2.33.19 2.78.94.84 1.39-.46 3.58-.88 4.22l-.31.49c-.89 1.5-2.12 3.36-3.48 3.36Zm2.19-8c-2.06 1.94-4.27 4.34-4.33 4.92a2.7 2.7 0 0 0 2.09 2.12c.82.08 2-1.79 2.73-2.91l.32-.49c.69-1.06 1.25-2.5.85-3.17-.26-.48-1.01-.54-1.66-.51Z" style="fill:#263238"/><path d="M253.13 272.36s-2.51 2.52-1.59 3.74 1.85 2.44 2.71 2.41 3.84-3.26 3.88-4.61-2-2.92-2.93-3.07-2.07 1.53-2.07 1.53Z" style="fill:#fff"/><path d="M254.22 279c-1.11 0-2.06-1.26-3.07-2.6s1.17-3.94 1.59-4.36c.27-.41 1.34-1.9 2.53-1.72s3.41 1.92 3.36 3.58-3.21 5-4.35 5.1Zm.85-7.69c-.44 0-1.15.75-1.52 1.31l-.06.09c-.89.89-2 2.49-1.55 3.08.75 1 1.67 2.21 2.28 2.21.69-.11 3.36-3 3.4-4.13s-1.72-2.43-2.51-2.56Zm-1.94 1Z" style="fill:#263238"/><path d="M257.18 274.42s-3.24 3.42-2.42 4.65 1.44 2.16 2.4 1.83 3.35-3.23 3.3-4.39-1.79-3.6-3.28-2.09Z" style="fill:#fff"/><path d="M256.77 281.47c-1 0-1.67-1-2.39-2.08-1-1.49 1.61-4.44 2.44-5.31a1.84 1.84 0 0 1 2.05-.5 3.77 3.77 0 0 1 2.09 2.92c.06 1.42-2.54 4.5-3.64 4.88a1.56 1.56 0 0 1-.55.09Zm.77-6.7c-1.4 1.48-2.72 3.49-2.36 4 .89 1.32 1.29 1.82 1.82 1.64.81-.28 3-3 3-3.9a2.86 2.86 0 0 0-1.45-2 .84.84 0 0 0-1.01.26Z" style="fill:#263238"/><path d="M259.21 279s-2.89 3-2.06 4c2 2.53 3.77-.06 4.68-1.36s-1.33-4.07-2.62-2.64Z" style="fill:#fff"/><path d="M258.92 284.6a2.85 2.85 0 0 1-2.16-1.26c-1-1.26 1.33-3.92 2.08-4.7a1.75 1.75 0 0 1 2.5 0c1 .81 1.61 2.35.9 3.35l-.06.09c-.7 1-1.76 2.5-3.19 2.54Zm1.12-5.51a.61.61 0 0 0-.46.23c-1.33 1.4-2.31 3.05-2 3.39.48.6 1 .93 1.41.88.94 0 1.86-1.33 2.41-2.11l.06-.09c.36-.5-.1-1.51-.71-2a1.12 1.12 0 0 0-.75-.3Zm-.83-.11Z" style="fill:#263238"/><path d="M259.65 263s-3.09-.18-4.31-.13-2.67 2.58-2.27 4.72 1.94 9.77 3.72 8.16 1.26-6.83 1.26-6.83.3 7.38 4.81 4.73" style="fill:#fff"/><path d="M256.29 276.48a1 1 0 0 1-.35-.06c-1.54-.52-2.68-5-3.37-8.73a5.66 5.66 0 0 1 1.11-4.3 2.33 2.33 0 0 1 1.63-1c1.24 0 4.24.12 4.37.13a.5.5 0 0 1 .47.53.5.5 0 0 1-.53.47s-3.07-.18-4.26-.13a1.48 1.48 0 0 0-.9.63 4.67 4.67 0 0 0-.9 3.49c1 5.18 2.07 7.76 2.7 8 0 0 .07 0 .19-.08 1.18-1.06 1.24-4.27 1.14-5.91v-.53a.5.5 0 0 1 .46-.52.51.51 0 0 1 .54.45v.57c.14 1.27.61 3.47 1.77 4.1a2.27 2.27 0 0 0 2.25-.32.5.5 0 0 1 .68.18.5.5 0 0 1-.17.68 3.17 3.17 0 0 1-3.24.34 3.5 3.5 0 0 1-1.39-1.57 5.5 5.5 0 0 1-1.36 3.27 1.27 1.27 0 0 1-.84.31Z" style="fill:#263238"/></g><g id="freepik--Floor--inject-37"><path style="fill:#263238" d="M420.62 464.38H478v1h-57.38zM42.12 464.38h370.5v1H42.12zM19.02 464.38H35.9v1H19.02z"/></g></svg>