<svg xmlns="http://www.w3.org/2000/svg" viewBox="0 0 500 500"><g id="freepik--background-complete--inject-15"><path d="m83.67 297.54-13.76.27-7 .12c-2.33 0-4.68 0-7 .05h-.45v-12.67h.51l13.87.07c4.62 0 9.24.11 13.87.16h.27v.27c0 2-.08 4-.13 5.92Zm0 0-.14-5.92c0-2-.12-3.89-.13-5.81l.27.28c-4.63.05-9.25.15-13.87.16l-13.87.06.5-.5-.06 11.73-.44-.45c2.28 0 4.56 0 6.86.06l6.89.11ZM68.19 312.32l-13.75.28-7 .11c-2.33.05-4.67 0-7 .05H40v-12.67h.5l13.87.06c4.63 0 9.25.11 13.87.16h.28v.27c0 2-.09 4-.13 5.93Zm0 0-.14-5.92c0-1.95-.11-3.89-.13-5.81l.27.28c-4.62.05-9.24.16-13.87.16l-13.87.06.5-.5-.05 11.73-.45-.45c2.29 0 4.57 0 6.86.06l6.9.11ZM291.05 43.09l-13.76.28-7 .12h-7.45v-.45l-.05-11.72v-.5h.51l13.87.07c4.62 0 9.24.11 13.87.16h.27v.27c0 2-.08 4-.13 5.92Zm0 0-.14-5.92c-.05-2-.12-3.88-.13-5.8l.27.27c-4.63.06-9.25.16-13.87.17l-13.87.06.5-.5-.06 11.72-.44-.44c2.28 0 4.56 0 6.86.05l6.89.12ZM275.57 57.88l-13.75.28-7 .11h-7.44V45.59h.5l13.87.07c4.63 0 9.25.11 13.87.16h.28v.27c0 2-.09 4-.14 5.92Zm0 0-.14-5.88c0-2-.11-3.89-.13-5.81l.27.28c-4.62 0-9.24.16-13.87.16l-13.87.06.5-.5-.05 11.73-.45-.45c2.29 0 4.57 0 6.86.06l6.9.11ZM467.92 362.29l-13.75.28-7 .11c-2.33.05-4.67 0-7 .05h-.44v-.45l-.06-11.72v-.51h.5l13.87.06c4.63 0 9.25.11 13.87.16h.28v.27c0 2-.09 4-.13 5.92Zm0 0-.14-5.92c0-1.95-.11-3.88-.13-5.8l.27.27c-4.62.05-9.24.16-13.87.16l-13.87.06.5-.49-.05 11.72-.45-.45c2.29 0 4.57 0 6.86.06l6.9.11ZM452.45 377.07l-13.76.28-7 .11c-2.34.05-4.68 0-7 .06h-.45v-.45l-.05-11.72v-.5h.51l13.87.06c4.62 0 9.24.11 13.87.16h.27v.27c0 2-.09 4-.13 5.92Zm0 0-.14-5.92c-.05-1.95-.12-3.88-.14-5.8l.28.27c-4.63.05-9.25.16-13.87.16l-13.87.07.49-.5-.05 11.72-.44-.45c2.28 0 4.56 0 6.86.06l6.89.11ZM380.63 280.48l-13.75.28-7 .11c-2.33.05-4.67 0-7 .05h-.44v-.45l-.06-11.73v-.5h.5l13.87.07c4.63 0 9.25.11 13.87.16h.28v.27c0 2-.09 4-.13 5.92Zm0 0-.14-5.92c0-1.95-.11-3.89-.13-5.81l.27.28c-4.62.05-9.24.16-13.87.16l-13.87.06.5-.5-.05 11.73-.45-.45c2.29 0 4.57 0 6.86.06l6.9.11ZM429.35 92.31l-13.76.28-7 .11c-2.33 0-4.67 0-7 .06h-.44v-.45l-.05-11.72v-.5h.5l13.88.06c4.62 0 9.24.12 13.87.17h.27v.27c0 2-.09 4-.13 5.92Zm0 0-.15-5.92c0-2-.11-3.88-.13-5.8l.28.27c-4.63 0-9.25.16-13.87.17l-13.88.06.5-.5-.05 11.72-.45-.44h6.87l6.89.11ZM444.82 107.09l-13.75.28-7 .12c-2.33 0-4.67 0-7 .05h-.44v-.45l-.05-11.72v-.5h.5l13.87.07c4.62 0 9.25.11 13.87.16h.28v.27c0 2-.09 4-.14 5.92Zm0 0-.14-5.92c0-2-.11-3.88-.13-5.8l.27.27c-4.62.06-9.25.16-13.87.17l-13.87.06.5-.5-.05 11.72-.45-.44h6.86l6.9.12ZM421.43 234.22l13.76-.27 7-.12c2.34 0 4.68 0 7-.05h.45v.45l.05 11.73v.5h-.51l-13.87-.07c-4.62 0-9.24-.11-13.87-.16h-.27V246c0-2 .09-4 .13-5.92Zm0 0 .14 5.92c.05 2 .12 3.89.14 5.81l-.28-.28c4.63 0 9.25-.15 13.87-.16l13.87-.06-.49.5.05-11.73.44.45c-2.28 0-4.56 0-6.86-.06l-6.89-.11ZM406 219.44l13.75-.28 7-.11c2.33-.05 4.67 0 7-.05h.44v.45l.06 11.72v.51h-.5l-13.87-.06c-4.63 0-9.25-.11-13.87-.16h-.28v-.27c0-2 .09-4 .13-5.92Zm0 0 .14 5.92c0 1.95.11 3.88.13 5.8l-.27-.27c4.62 0 9.24-.16 13.87-.16l13.87-.06-.5.49.05-11.72.45.45c-2.29 0-4.57 0-6.86-.06l-6.9-.11ZM112.57 69.6l-13.75.28-7 .11c-2.33.05-4.67 0-7 .06h-.44v-.45l-.06-11.72v-.5h.5l13.87.06c4.63 0 9.25.11 13.87.16h.28v.27c0 2-.09 4-.14 5.92Zm0 0-.14-5.92c0-2-.11-3.88-.13-5.8l.27.27c-4.62.05-9.24.16-13.87.16l-13.87.07.5-.5V69.6l-.45-.45c2.29 0 4.57 0 6.86.06l6.9.11ZM82.29 162.27l-13.76.28-7 .11c-2.33.05-4.67 0-7 .06h-.43v-.45l-.1-11.72v-.5h.5l13.87.06c4.63 0 9.25.12 13.88.17h.27v.27c0 2-.09 4-.13 5.92Zm0 0-.15-5.92c0-1.95-.11-3.88-.13-5.8l.28.27c-4.63.05-9.25.16-13.88.17l-13.87.06.5-.5v11.72l-.45-.44h6.86l6.9.11ZM310.18 110.56h147.04v6.87H310.18zM333.44 144.47h-6.23l-2.5-27.04h8.73v27.04zM433.94 144.47h6.24l2.5-27.04h-8.74v27.04z" style="fill:#ebebeb"/><path style="fill:#dbdbdb" d="M324.71 117.43h8.73v9.32h-7.87l-.86-9.32zM442.68 117.43l-.86 9.32h-7.87v-9.32h8.73z"/><path d="M445.82 69.34c-7.1 9.61-14.5 20.77-16.31 32.83 0 .19.28.25.32.07a70.28 70.28 0 0 1 3.17-9.66c4.67-1.29 9.25-2.34 11.7-7s2.18-11 1.71-16.17c-.07-.25-.41-.26-.59-.07Z" style="fill:#ebebeb"/><path d="M433 92.49a79.24 79.24 0 0 1 12.49-20.23s.09 0 .06 0a85.75 85.75 0 0 0-8.53 13.41c2.35-2.39 4.93-4.53 7.15-7.06a.05.05 0 0 1 .08.07c-2.22 2.66-4.63 5.54-7.51 7.5-.78 1.43-1.55 2.86-2.34 4.29a6.54 6.54 0 0 1 .59-.3s.06 0 0 0c-.22.11-.44.23-.67.32-.37.68-.74 1.36-1.12 2a.13.13 0 0 1-.2 0ZM435.41 90a41.36 41.36 0 0 0 5.45-3.64c.05 0 .12 0 .07.07a29.2 29.2 0 0 1-5.44 3.71c-.09.03-.17-.14-.08-.14Z" style="fill:#a6a6a6"/><path d="M428.74 102.06a.13.13 0 0 0 .26 0c0-4 0-8 .06-12 1-2 3.2-3.19 4.72-4.83a20.9 20.9 0 0 0 2.83-4 28.29 28.29 0 0 0 3.29-10.95c.42-4.25-1.19-18.27-3-17.78-.93.25-3.94 7.19-4.74 9.49a66.4 66.4 0 0 0-2.82 11.63 124.46 124.46 0 0 0-.6 28.44Z" style="fill:#ebebeb"/><path d="M428.71 84.93a88.91 88.91 0 0 1 2.41-15c1.14-5.25 2.47-10.19 5.17-14.88a.08.08 0 0 1 .14.08 55.32 55.32 0 0 0-4.16 11.42c.18-.28.4-.55.59-.82.07-.1.25 0 .17.1a7.17 7.17 0 0 1-.84 1.2c-.93 3.76-1.59 7.59-2.17 11.42a1.66 1.66 0 0 0 .13-.14h.06c-.07.13-.15.25-.23.38-.29 1.94-.55 3.88-.82 5.81a27.32 27.32 0 0 0 8.08-10.74A22.39 22.39 0 0 1 429.08 85l-.21 1.55c0 .11-.19.08-.19 0v-1.37c-.01-.13-.03-.18.03-.25Z" style="fill:#a6a6a6"/><path d="M430.34 77.65a81.13 81.13 0 0 0 7.05-12.14c0-.05.11 0 .09 0a39.31 39.31 0 0 1-7 12.21c-.07.1-.19.01-.14-.07ZM433.85 64.53c1.1-1.94 2.26-3.82 3.29-5.8 0-.06.1 0 .08.05a30.19 30.19 0 0 1-3.2 5.85.1.1 0 0 1-.17-.1ZM433.43 65.37Z" style="fill:#a6a6a6"/><path d="M426.79 91.89a40.25 40.25 0 0 1-.92 7.82l.12.86a37.43 37.43 0 0 0 1.4-8.72.29.29 0 0 0 0-.27 57.21 57.21 0 0 0-.88-11.82c-1.23-7.3-3.91-14.3-9-19.77a.37.37 0 0 0-.57.11c-2.05 5.22-1.33 11.46.42 16.67a30.6 30.6 0 0 0 4 7.91c1.79 2.45 4.02 4.53 5.43 7.21Z" style="fill:#ebebeb"/><path d="M418.12 62.42c4.82 7.83 8.18 17.11 8.59 26.36 0 .17-.27.21-.29 0-.12-.83-.24-1.65-.38-2.47a31.66 31.66 0 0 1-5.48-6.31s0-.1.07-.06a66.36 66.36 0 0 0 5.37 5.82q-.52-3.08-1.24-6l-.38-.45c-.09-.1.05-.24.14-.14l.12.13a69.59 69.59 0 0 0-2.53-8 24 24 0 0 1-3.49-4.5s0-.07.06 0c.72 1 1.42 2 2.23 3 .33.37.68.72 1 1.08a62 62 0 0 0-3.95-8.23.11.11 0 0 1 .16-.23Z" style="fill:#a6a6a6"/><path d="M419.09 72.08c1.56 1.88 3.34 3.67 4.79 5.61 0 .06-.05.11-.1.07a29.11 29.11 0 0 1-4.78-5.63c0-.06.05-.13.09-.05ZM424.1 78.83l.06.07-.07.07-.06-.06a.05.05 0 0 1 .07-.08Z" style="fill:#a6a6a6"/><path d="M409.82 75.49a23.94 23.94 0 0 0 5.09 12 12.69 12.69 0 0 0 4.09 3.17c1.79.88 3.66 1.9 5.51 2.63a35.54 35.54 0 0 1 1.95 6.93l.18-.62c-1.18-10.2-7.78-18.91-16.23-24.51a.4.4 0 0 0-.59.4Z" style="fill:#ebebeb"/><path d="M412.73 78.51a.08.08 0 0 1 .09-.12 34.59 34.59 0 0 1 10.75 13.26.12.12 0 0 1-.21.12c-.39-.68-.79-1.35-1.19-2a11.61 11.61 0 0 1-5.18-3s0-.1 0-.06a11.78 11.78 0 0 0 2.44 1.71c.79.4 1.63.65 2.45 1a55.19 55.19 0 0 0-2.23-3.27 22.31 22.31 0 0 1-5.79-3.26c-.06 0 0-.13.05-.09a56.83 56.83 0 0 0 5.38 2.87 49.43 49.43 0 0 0-3.8-4.43c-.65-.34-1.32-.69-1.95-1.06-.05 0 0-.12 0-.1a7.46 7.46 0 0 1 1.5.74c-.68-.82-1.47-1.57-2.31-2.31ZM412.91 82a2.44 2.44 0 0 1 .33.23 1.86 1.86 0 0 1-.34-.19c-.1.04-.05-.04.01-.04Z" style="fill:#a6a6a6"/><path style="fill:#dbdbdb" d="M437.05 110.56h-17.38l.85-11.4.33-3.71h14.86l.33 3.71 1.01 11.4z"/><path style="fill:#c7c7c7" d="M436.04 99.16h-15.52l.33-3.71h14.86l.33 3.71z"/><path style="fill:#dbdbdb" d="M419.67 92.4h17.23v3.81h-17.23z"/><path transform="rotate(90 364.95 91.83)" style="fill:#c7c7c7" d="M346.25 87.12h37.41v9.42h-37.41z"/><path transform="rotate(90 364.95 73.18)" style="fill:#dbdbdb" d="M362.89 68.47H367v9.42h-4.11z"/><path transform="rotate(90 364.95 81.26)" style="fill:#dbdbdb" d="M364.19 76.55h1.53v9.42h-1.53z"/><path transform="rotate(90 364.95 103.57)" style="fill:#dbdbdb" d="M362.89 98.86H367v9.42h-4.11z"/><path transform="rotate(90 373.475 85.205)" style="fill:#ebebeb" d="M348.15 81.39h50.64v7.64h-50.64z"/><path transform="rotate(90 373.505 74.385)" style="fill:#a6a6a6" d="M363.77 72.09h19.48v4.59h-19.48z"/><path transform="rotate(-180 397.49 106.71)" style="fill:#c7c7c7" d="M378.98 102.89H416v7.64h-37.02z"/><path transform="rotate(-180 394.79 106.685)" style="fill:#dbdbdb" d="M387.67 104.39h14.24v4.59h-14.24z"/><path transform="rotate(90 352.995 89.065)" style="fill:#a6a6a6" d="M331.52 81.82h42.95v14.49h-42.95z"/><path transform="rotate(90 352.995 103.985)" style="fill:#c7c7c7" d="M350.99 96.74h4v14.49h-4z"/><path transform="rotate(90 352.995 98.575)" style="fill:#c7c7c7" d="M352.22 91.33h1.55v14.49h-1.55z"/><path transform="rotate(66.77 388.457 84.522)" style="fill:#a6a6a6" d="M370.4 80.06h36.15v8.96H370.4z"/><path transform="rotate(66.77 393.428 96.078)" style="fill:#c7c7c7" d="M391.75 91.6h3.37v8.96h-3.37z"/><path transform="rotate(66.77 384.937 76.307)" style="fill:#c7c7c7" d="M383.27 71.84h3.37v8.96h-3.37z"/><path transform="rotate(66.77 386.774 80.581)" style="fill:#c7c7c7" d="M386.13 76.11h1.31v8.96h-1.31z"/><path transform="rotate(111.29 335.98 93.758)" style="fill:#c7c7c7" d="M319.53 89.67h32.9v8.16h-32.9z"/><path transform="rotate(111.3 331.824 104.38)" style="fill:#a6a6a6" d="M330.29 100.32h3.07v8.16h-3.07z"/><path transform="rotate(111.29 338.935 86.183)" style="fill:#a6a6a6" d="M337.4 82.09h3.07v8.16h-3.07z"/><path transform="rotate(111.29 337.406 90.126)" style="fill:#a6a6a6" d="M336.8 86.03h1.19v8.16h-1.19z"/><circle cx="91.12" cy="184.61" r="24.71" transform="rotate(-34.14 91.113 184.62)" style="fill:#ebebeb"/><path d="M104.1 184.26c-1.61 8.25-9 14.9-9 14.9s-9.75-2-15.33-8.24c-4.66-5.24-4.55-12.31-.2-15 6.22-3.91 11.19 7.43 11.19 7.43s-1.49-12.29 5.87-12.1c5.12.11 8.81 6.14 7.47 13.01Z" style="fill:#fff"/><circle cx="419.04" cy="159.73" r="14.55" transform="rotate(-75.82 419.052 159.724)" style="fill:#ebebeb"/><path d="M425.14 164.34c-3.77 3.2-9.62 3.54-9.62 3.54s-3.76-4.49-4-9.43c-.22-4.12 2.43-7.33 5.43-7 4.3.49 2.42 7.53 2.42 7.53s3.83-6.2 7.14-3.4c2.3 1.96 1.78 6.09-1.37 8.76Z" style="fill:#fff"/><path d="M163.11 105.94A15.47 15.47 0 1 1 162 87.79a15.42 15.42 0 0 1 1.11 18.15Z" style="fill:#ebebeb"/><path d="M153.53 94a4.71 4.71 0 1 1-6.29-2.19 4.71 4.71 0 0 1 6.29 2.19Z" style="fill:#fff"/><path d="m162.26 104.19.85 1.75a15.45 15.45 0 0 1-14.65 7.06l-.84-1.74a8.13 8.13 0 1 1 14.64-7.08Z" style="fill:#fff"/><path style="fill:#dbdbdb" d="M393.48 303.37h33.56l19.21-95.75-30.73-14.12-22.04 109.87z"/><path style="fill:#ebebeb" d="M297.43 303.37h96.05l22.04-109.87h-96.05l-22.04 109.87z"/><path transform="rotate(180 436.425 304.765)" style="fill:#dbdbdb" d="M410.71 252h51.43v105.53h-51.43z"/><path style="fill:#dbdbdb" d="M272.74 357.53h14.05L307.73 252h-34.99v105.53z"/><path transform="rotate(180 396.58 304.765)" style="fill:#ebebeb" d="M382.45 252h28.26v105.53h-28.26z"/><path transform="rotate(180 258.615 304.765)" style="fill:#ebebeb" d="M244.48 252h28.26v105.53h-28.26z"/><path transform="rotate(180 327.595 330.45)" style="fill:#ebebeb" d="M272.74 303.37h109.71v54.15H272.74z"/><path transform="rotate(180 327.595 291.78)" style="fill:#ebebeb" d="M272.74 279.96h109.71v23.63H272.74z"/><path d="m403.78 252-10.66-.19-10.67-.14h-.32v.33l-.13 12.35v12.35c0 8.23-.06 16.46 0 24.7s0 16.46.14 24.7.18 16.46.36 24.7q.26-12.36.36-24.7c.1-8.24.11-16.47.14-24.7s0-16.47 0-24.7l-.05-12.35-.18-12.35-.32.32 10.67-.13ZM272.74 252c-.22 8.26-.32 16.53-.41 24.79l-.12 24.79.12 24.79.15 12.4.26 12.39.26-12.39.15-12.4.12-24.79-.12-24.79c-.08-8.26-.15-16.53-.41-24.79Z" style="fill:#dbdbdb"/><path d="M272.74 303.37c9.14.22 18.29.33 27.43.41l27.43.13 27.42-.13 13.72-.15 13.71-.26-13.71-.26L355 303l-27.42-.12-27.43.13c-9.15.04-18.27.14-27.41.36ZM272.74 280c9.14.22 18.29.33 27.43.41l27.43.12 27.42-.12 13.72-.15 13.71-.26-13.71-.26-13.74-.19-27.42-.12-27.43.12c-9.15.09-18.27.19-27.41.45Z" style="fill:#dbdbdb"/><path style="fill:#c7c7c7" d="m442.6 357.53.69 8.55 1.63 19.75h7.44l1.63-19.75.69-8.55H442.6z"/><path style="fill:#a6a6a6" d="M454.68 357.53H442.6l.69 8.55h10.7l.69-8.55z"/><path style="fill:#c7c7c7" d="m390.54 357.53.69 8.55 1.63 19.75h7.44l1.63-19.75.69-8.55h-12.08z"/><path style="fill:#a6a6a6" d="M402.62 357.53h-12.08l.69 8.55h10.7l.69-8.55z"/><path style="fill:#c7c7c7" d="m304.19 357.53.69 8.55 1.63 19.75h7.44l1.63-19.75.69-8.55h-12.08z"/><path style="fill:#a6a6a6" d="M316.27 357.53h-12.08l.69 8.55h10.7l.69-8.55z"/><path style="fill:#c7c7c7" d="m252.12 357.53.69 8.55 1.63 19.75h7.44l1.63-19.75.69-8.55h-12.08z"/><path style="fill:#a6a6a6" d="m252.12 357.53.69 8.55h10.7l.69-8.55h-12.08z"/></g><ellipse cx="250" cy="453.62" rx="96.68" ry="10.14" style="fill:#ebebeb" id="freepik--Shadow--inject-15"/><g id="freepik--Plant--inject-15"><path d="M77.83 328.37s8.53-30.61 15.34-41 19.51-21.81 19.51-21.81-.3 47.18-34.85 62.81Z" style="fill:#ff6565"/><path d="M78.44 327.84A145.16 145.16 0 0 0 86.22 313a103.51 103.51 0 0 1 4.23-16.09.08.08 0 1 1 .15.05c-1.13 4.84-2.44 9.63-3.64 14.45 3.44-7.45 6.71-15 10.81-22a47 47 0 0 1 4-9.79c0-.09.19 0 .15.05a62.13 62.13 0 0 0-2.7 7.33 72.93 72.93 0 0 1 6.48-9c.15-.18.44 0 .3.21-5.48 7-9.27 14.95-12.87 23a123.84 123.84 0 0 0 10.7-13.37c0-.05.1 0 .07.05a110 110 0 0 1-11.46 14.85c-2.62 5.91-5.2 11.84-8.33 17.45 6.25-5.28 11.06-12.12 15.82-18.72a.14.14 0 0 1 .24.16c-4.76 7.24-9.69 14.06-16.55 19.42a76.73 76.73 0 0 1-4.57 7.16.37.37 0 0 1-.61-.37Z" style="fill:#263238"/><path d="M75.19 331.12s15.33-28.22 10.87-55.59-9.22-37.1-9.22-37.1-24.09 42.57-1.65 92.69Z" style="fill:#ff6565"/><path d="M68.9 286.75a134.09 134.09 0 0 0 5.91 22.79c0-10 .24-20.08.51-30.12a77.94 77.94 0 0 1-2.9-18.71c0-.18.27-.17.29 0a106.35 106.35 0 0 0 2.68 16.09q.36-12.42.81-24.85a.11.11 0 0 1 .22 0c0 12.94 0 25.88-.09 38.82a103.25 103.25 0 0 0 4.42-15.37h.09a60.45 60.45 0 0 1-4.52 17.5c-.06 8.27-.15 16.54-.34 24.81 2.6-8.79 5.37-17.31 6.12-26.6a.1.1 0 1 1 .19 0c-.2 10.25-2.84 20.65-6.22 30.29a.56.56 0 0 1-.18.24c-.07 3-.16 6.05-.26 9.07a.34.34 0 0 1-.67 0q-.18-9.28-.15-18.56a83 83 0 0 1-6-25.4c-.05-.06.08-.08.09 0Z" style="fill:#263238"/><path d="M70 282.39a53.47 53.47 0 0 1 1 7.45.08.08 0 0 1-.15 0 53.13 53.13 0 0 1-1.26-7.43c0-.18.32-.21.41-.02ZM78.91 261.76c0-.09.14-.06.15 0a19.5 19.5 0 0 1-.77 5.14c0 .14-.24.07-.21-.06.33-1.68.54-3.38.83-5.08Z" style="fill:#263238"/><path d="M69.6 333.28s.62-29.46-7.83-44.1-22.47-22.11-22.47-22.11S45 319 69.6 333.28Z" style="fill:#ff6565"/><path d="M54.2 308.09a109.69 109.69 0 0 0 11.43 14.49q-2.52-9-5.85-17.76c-4.73-4.16-9.43-8.46-12.34-14.15a.08.08 0 0 1 .14-.08c3.12 5 7.3 9.06 11.7 12.94a227.43 227.43 0 0 0-11.76-25.62.19.19 0 0 1 .32-.19 140.34 140.34 0 0 1 7.38 13.45c-.8-3.15-1.43-6.37-2.24-9.5a.07.07 0 0 1 .13 0 53.37 53.37 0 0 1 3.47 12.5A149 149 0 0 1 64 314.29c-.21-4.42-.49-8.81-.95-13.22 0-.08.14-.1.15 0a71.1 71.1 0 0 1 1.28 14.84c1.22 4.39 2.24 8.84 3.07 13.31 0 .12-.16.18-.19.05q-.69-2.81-1.46-5.59a.18.18 0 0 1-.1 0c-4.53-4.54-8.84-9.72-11.67-15.51l.07-.08Z" style="fill:#263238"/><path d="M44.4 284.11c1 1 1.81 2.09 2.72 3.14a24.15 24.15 0 0 1 2.43 2.84l-.06.07a14.23 14.23 0 0 1-2.81-2.78 22.94 22.94 0 0 1-2.41-3.16c-.05-.08.07-.22.13-.11Z" style="fill:#263238"/><path d="m94.71 329.69-1.07 13.95-3.21 42.19h-28l-3.22-42.19-1.06-13.95h36.56Z" style="fill:#455a64"/><path d="m94.71 329.69-1.07 13.95H59.22l-1.06-13.95h36.55Z" style="fill:#37474f"/><path transform="rotate(180 76.435 328.19)" style="fill:#455a64" d="M55.67 322.84h41.52v10.7H55.67z"/></g><path style="fill:#263238" d="m38.84 385.83 52.79-.25 52.79-.08 105.58-.17 105.58.17 52.79.08 52.79.25-52.79.24-52.79.09-105.58.17-105.58-.17-52.79-.09-52.79-.24z" id="freepik--Floor--inject-15"/><g id="freepik--social-media--inject-15"><path d="M316.72 103.15a24.89 24.89 0 0 1-5 12.52 28.83 28.83 0 0 1-2.24 2.57 27.46 27.46 0 0 1-2.61 2.21 24.93 24.93 0 0 1-12.6 4.9 24.7 24.7 0 0 1-3.44.07 21.8 21.8 0 0 1-3.41-.36 24.93 24.93 0 0 1-12.22-6l.29.09-12.32 1.85-.9.13.46-.79 6.14-10.7v.42a25 25 0 0 1 1.52-22 25.28 25.28 0 0 1 7.74-8.23 25 25 0 0 1 10.54-4 24.64 24.64 0 0 1 20.69 6.87 24.87 24.87 0 0 1 7.36 20.45Z" style="fill:#455a64"/><path d="M291.45 93.46c-.05 1.59 0 3.21 0 4.94h6.23c-.26 2-.49 3.95-.79 5.83 0 .19-.5.42-.76.43h-4.64v20.78a24.48 24.48 0 0 1-6.61-1v-19.72h-5.45v-6.27h5.34c0-.47.06-.85.06-1.21 0-1.65 0-3.31.13-4.94a6.88 6.88 0 0 1 6.1-6.61 51.42 51.42 0 0 1 6.81-.06v5.7h-2.46a10.62 10.62 0 0 0-2.19.15 2.06 2.06 0 0 0-1.77 1.98Z" style="fill:#fff"/><path d="M304.11 168.75a19.8 19.8 0 0 1-10.7.91 21.6 21.6 0 0 1-2.63-.68 23.07 23.07 0 0 1-2.51-1.07 19.26 19.26 0 0 1-4.48-3.07 19.77 19.77 0 0 1-3.51-4.17 18 18 0 0 1-1.26-2.43 16.44 16.44 0 0 1-1-2.56 19.75 19.75 0 0 1-.05-10.86v.24l-5.76-8.12-.41-.59h.72l9.82.56-.31.13a19.91 19.91 0 0 1 16.24-6.76 20.18 20.18 0 0 1 8.73 2.62 20 20 0 0 1 9.82 14.43 20.22 20.22 0 0 1-.77 8.88 19.81 19.81 0 0 1-11.94 12.54Z" style="fill:#ff6565"/><path d="M285.79 159.24a10.53 10.53 0 0 0 6.82-2.1c-2.82-.86-3.94-1.72-4.35-3.32l1.89-.09a5.2 5.2 0 0 1-3.71-4.8l1.95.52c-2-2.57-2.46-4.56-1.24-6.42a14.1 14.1 0 0 0 10 5c0-.32 0-.56-.05-.8a4.6 4.6 0 0 1 2.68-4.63 4.66 4.66 0 0 1 5.31.65 1 1 0 0 0 1.08.22l2.36-.87a4.87 4.87 0 0 1-1.86 2.38.78.78 0 0 1 .05.14l2.34-.6.1.09c-.61.61-1.19 1.24-1.83 1.81a1.28 1.28 0 0 0-.51 1.05 13.68 13.68 0 0 1-12.45 13.71 13.85 13.85 0 0 1-8.12-1.66c-.15-.08-.25-.18-.46-.28Z" style="fill:#fff"/><circle cx="230.85" cy="139.99" r="12.01" style="fill:#37474f"/><path d="M237.55 141.52c-2 4-6.7 6.37-6.7 6.37s-4.72-2.37-6.7-6.37c-1.65-3.34-.6-6.94 2-7.73 3.73-1.13 4.69 5.38 4.69 5.38s1-6.51 4.7-5.38c2.61.79 3.66 4.39 2.01 7.73Z" style="fill:#fff"/><circle cx="322.42" cy="71.25" r="11.88" transform="rotate(-80.57 322.417 71.254)" style="fill:#455a64"/><g id="freepik--xsrjP0--inject-15"><path d="M320.61 76.53c-.35-.23-.66-.55-1.13-.5-.19 0-.15-.13-.15-.23v-5.35c0-.13 0-.24.15-.31 1.36-.69 1.94-2 2.77-3.2a5.34 5.34 0 0 0 1-4c-.06-.4.13-.58.49-.66a.91.91 0 0 1 1 .31 7.18 7.18 0 0 1 .78 2.34 8.54 8.54 0 0 1-.24 2c-.06.49-.17 1-.26 1.47.12.09.25 0 .38 0h4.52c.64 0 1 .18 1 .6a1.21 1.21 0 0 1-.65 1.31c-.12.06-.32 0-.33.18s.19.16.3.23c.54.38.44 1.15-.18 1.6-.16.1-.45.06-.46.28s.28.17.4.3a1 1 0 0 1-.43 1.57c-.08 0-.19 0-.26.11s-.15.1 0 .21a.88.88 0 0 1 0 1.58l-.2.15a1.28 1.28 0 0 1-.79.17h-7.08a.88.88 0 0 1-.63-.16ZM313.89 73.4v-3.39c0-.23 0-.35.31-.35h4.14c.27 0 .31.09.31.33v6.84c0 .29-.08.37-.37.37h-4c-.33 0-.38-.11-.38-.4.01-1.13-.01-2.26-.01-3.4Z" style="fill:#fff;fill-rule:evenodd"/></g><path d="M237.16 164a6 6 0 1 1-5.95-6 6 6 0 0 1 5.95 6Z" style="fill:#ff6565"/><path d="M231.11 159.89a2.45 2.45 0 0 1 1.53.43 2.19 2.19 0 0 1 .79 1.1 2.64 2.64 0 0 1 .08.49v1.33c0 .2 0 .09.08.13a.53.53 0 0 0 .35 0l.18-.07a.4.4 0 0 1 .45.09.2.2 0 0 1 0 .28 1 1 0 0 1-.35.21c-.1 0-.2.06-.3.11a.77.77 0 0 0-.18.1.38.38 0 0 0-.14.45 2 2 0 0 0 .29.57 2.73 2.73 0 0 0 .84.85 2 2 0 0 0 .72.28c.08 0 .11.07.08.15a.33.33 0 0 1-.17.16 1.77 1.77 0 0 1-.56.19l-.32.07a.14.14 0 0 0-.12.09c0 .12 0 .24-.09.35s-.06.15-.19.13-.3 0-.46-.06a1.41 1.41 0 0 0-1.05.29 5.25 5.25 0 0 1-.49.33 1.71 1.71 0 0 1-1.85-.11c-.17-.12-.32-.24-.49-.34a1.31 1.31 0 0 0-.55-.17 2.62 2.62 0 0 0-.74.07c-.17 0-.19 0-.23-.15s0-.2-.07-.3a.17.17 0 0 0-.15-.14 2.78 2.78 0 0 1-.81-.22.42.42 0 0 1-.14-.09.27.27 0 0 1-.09-.12.09.09 0 0 1 .08-.13 2.22 2.22 0 0 0 1.41-.91 3 3 0 0 0 .42-.69.61.61 0 0 0 .05-.18.38.38 0 0 0-.19-.39 1 1 0 0 0-.32-.15 1.47 1.47 0 0 1-.4-.19.6.6 0 0 1-.08-.08.19.19 0 0 1 0-.29.36.36 0 0 1 .41-.05.79.79 0 0 0 .38.09.42.42 0 0 0 .21-.06.06.06 0 0 0 0-.06v-.83a4.28 4.28 0 0 1 0-.62 1.51 1.51 0 0 1 .09-.47 2.17 2.17 0 0 1 1.33-1.33 2.53 2.53 0 0 1 .76-.14Z" style="fill:#fff" id="freepik--K0pxJE--inject-15"/><circle cx="316.98" cy="127.3" r="5.95" style="fill:#263238"/><path d="M319 125.05a2 2 0 1 1-2-2 2 2 0 0 1 2 2Z" style="fill:#fff"/><path d="M320.41 130.51v.73h-6.86v-.73a3.43 3.43 0 0 1 6.86 0Z" style="fill:#fff"/><path d="M208.88 107.43a18.39 18.39 0 0 0 30.73 11.63l9.2 1.35-4.6-8a18.4 18.4 0 1 0-35.33-5Z" style="fill:#455a64"/><path d="M214.39 92.24a18.58 18.58 0 0 1 30.15 20.35v-.31l4.57 8 .34.59-.67-.11-9.19-1.41.22-.07a18.6 18.6 0 0 1-9.1 4.5 21.11 21.11 0 0 1-5.1.21 18.25 18.25 0 0 1-5-1.18 18.06 18.06 0 0 1-4.44-2.47 20 20 0 0 1-1.94-1.64 21.87 21.87 0 0 1-1.67-1.92 18.49 18.49 0 0 1 1.8-24.51Z" style="fill:#ff6565"/><path d="M237.7 99.69a4.42 4.42 0 0 0-4.64-4.75h-11.78a4.42 4.42 0 0 0-4.62 4.65v11.64a4.48 4.48 0 0 0 4.71 4.82h11.65a4.45 4.45 0 0 0 4.68-4.73c.02-3.87.02-7.76 0-11.63Zm-1.88 11.67a2.55 2.55 0 0 1-2.8 2.82h-11.66a2.55 2.55 0 0 1-2.81-2.81V99.61a2.57 2.57 0 0 1 2.8-2.84h11.66a2.57 2.57 0 0 1 2.81 2.83v5.88c0 1.96.03 3.92 0 5.88Z" style="fill:#fff"/><path d="M227.19 100a5.5 5.5 0 1 0 5.47 5.58 5.48 5.48 0 0 0-5.47-5.58Zm-.06 9.16a3.72 3.72 0 0 1-3.61-3.62 3.67 3.67 0 0 1 7.33 0 3.72 3.72 0 0 1-3.72 3.6ZM234.33 99.85A1.13 1.13 0 0 1 233 101a1.15 1.15 0 0 1-1.2-1.37c.06-.77.56-1.12 1.33-1.17a1.24 1.24 0 0 1 1.2 1.39Z" style="fill:#fff"/><circle cx="257.01" cy="68.63" r="11.88" transform="rotate(-45 257.017 68.63)" style="fill:#ff6565"/><g style="opacity:.5"><path d="M262.51 65.35a2.41 2.41 0 1 1-2.41-2.41 2.41 2.41 0 0 1 2.41 2.41Z"/><path d="M264.26 72v.88h-8.33V72a4.17 4.17 0 0 1 8.33 0Z"/></g><path d="M256.34 66.8a2.41 2.41 0 1 1-2.41-2.41 2.41 2.41 0 0 1 2.41 2.41Z" style="fill:#fff"/><path d="M258.09 73.44v.89h-8.33v-.89a4.17 4.17 0 0 1 8.33 0Z" style="fill:#fff"/><path d="M215.93 134.33a6 6 0 1 1-6-6 6 6 0 0 1 6 6Z" style="fill:#455a64"/><path d="M207.68 136.32h-.49a.55.55 0 0 1-.55-.55.55.55 0 0 1 .55-.55h.68l.31-1.83h-.61a.55.55 0 0 1-.54-.55.56.56 0 0 1 .54-.55h.8l.21-1.25a.54.54 0 0 1 .55-.45.56.56 0 0 1 .55.64l-.19 1.06h1.65l.21-1.25a.54.54 0 0 1 .56-.45.55.55 0 0 1 .54.64l-.18 1.06h.49a.55.55 0 0 1 .54.55.55.55 0 0 1-.54.55h-.68l-.31 1.83h.6a.54.54 0 0 1 .54.55.55.55 0 0 1-.54.55h-.79l-.23 1.29a.54.54 0 0 1-.54.46.56.56 0 0 1-.55-.65l.2-1.1h-1.66l-.22 1.29a.55.55 0 1 1-1.09-.19Zm3-1.1.32-1.83h-1.65l-.32 1.83Z" style="fill:#fff"/><circle cx="257.69" cy="97.64" r="5.95" transform="rotate(-63.23 257.71 97.64)" style="fill:#37474f"/><path d="M257.23 93.73a3.93 3.93 0 1 0 .93 7.81 3.25 3.25 0 0 0 .93-.23.32.32 0 0 0 .21-.44.28.28 0 0 0-.14-.18.35.35 0 0 0-.3 0 3 3 0 0 1-.78.17 3.23 3.23 0 1 1-.76-6.42 3.22 3.22 0 0 1 3.58 2.82 2.92 2.92 0 0 1-.18 1.51 1.06 1.06 0 0 1-.51.59h-.07a.24.24 0 0 1-.14 0 .78.78 0 0 1-.09-.21c-.09-.38-.19-1.58-.19-1.59v-.16a2 2 0 1 0-4 .47 2.12 2.12 0 0 0 2.28 1.91 1.94 1.94 0 0 0 1.27-.7v.18a1 1 0 0 0 .25.54.83.83 0 0 0 .73.25 1.06 1.06 0 0 0 .23 0 1.86 1.86 0 0 0 .92-1 3.86 3.86 0 0 0 .2-1.83 3.93 3.93 0 0 0-4.37-3.49Zm.63 5.32a1.43 1.43 0 0 1-.33-2.84 1.4 1.4 0 0 1 1.47 1.27 1.38 1.38 0 0 1-1.14 1.57Z" style="fill:#fff"/></g><g id="freepik--Character--inject-15"><path style="fill:#ff6565" d="M109.15 254.08h281.7v151.28h-281.7zM211.42 405.36h77.16L250 447.05l-38.58-41.69z"/><path d="M290.52 343C272.06 367.46 250 378.19 250 378.19s-22-10.73-40.5-35.19c-14.26-18.87-13.55-48.42 6.85-54.81 22.56-7.07 33.65 26.89 33.65 26.89s11.25-34.18 33.67-26.89c20.33 6.64 21.11 35.97 6.85 54.81Z" style="fill:#fff"/><path d="M400.57 257.88c-2.18.84-65.49 2-68 .58-.27-.16-.2-3-1.13-10.19 0-.34-1.49-1.68-3.74-3.57-8.47-7.1-28.37-22.06-28.37-22.06L331 195.19l30.62 30.09 8 7.83s25.87 14 28.43 15.81 4.7 8.08 2.52 8.96Z" style="fill:#eb9481"/><path d="M400.57 257.88c-2.18.84-65.5 2-68 .58-.27-.16-.19-2.95-1.13-10.19 0-.34-1.49-1.68-3.75-3.58-2.94-2.46-4.34-3.59-8.72-7l40.17-14.77 2.41 2.37 8 7.82s25.87 14 28.43 15.81 4.77 8.08 2.59 8.96Z" style="fill:#ebebeb"/><path d="M404.94 258.76c-2.2.76-69.66 1.5-72.09 0-.57-.35-1.1-4.26-1.52-9.63-.05-.68-6.88-6.14-7.82-7.15l41.34-13.92 5.22 4.91s30.42 14.16 32.91 16.08 4.15 8.95 1.96 9.71Z" style="fill:#263238"/><path d="M404 256.24c-10.6-.14-57.61.31-68.1 1-.08 0-.08.07 0 .07 10.5.36 57.51-.43 68.1-.88.22-.03.22-.19 0-.19ZM373.44 233.42c-4.17-.73-9.27 0-12.42 3-.12.12.05.29.18.25a58.74 58.74 0 0 1 12.23-2.7.26.26 0 0 0 .01-.55ZM376.47 235.19c-4.17-.73-9.27 0-12.42 3-.12.12.05.29.18.25a58.11 58.11 0 0 1 12.23-2.7.27.27 0 0 0 .01-.55ZM379.51 237c-4.18-.73-9.27 0-12.43 3-.12.12.05.29.18.25a58.06 58.06 0 0 1 12.24-2.7.27.27 0 0 0 .01-.55ZM382.54 238.75c-4.18-.73-9.27 0-12.43 3-.12.12.05.29.18.24a58.67 58.67 0 0 1 12.24-2.69.27.27 0 0 0 .01-.55Z" style="fill:#ff6565"/><path d="M381 223.68c-1.66-2.23-4.7-1.18-6.42.3a22.11 22.11 0 0 0-6.31 9.63c0 .08 0 .13.1.15a.52.52 0 0 0 .66.51c3.42-1.32 7.25-2.3 10.17-4.63 1.74-1.36 3.41-3.84 1.8-5.96Zm-7.19 7.53c-1.67.69-3.36 1.29-5 2a64.78 64.78 0 0 1 3.81-5.54 21.66 21.66 0 0 1 2.18-2.41c1.22-1.15 6.11-3.61 5.43 1-.35 2.54-4.39 4.13-6.39 4.95Z" style="fill:#ff6565"/><path d="M357.69 232.64c3.45 1.43 7.4 1.31 11.06 1.62a.52.52 0 0 0 .49-.68.11.11 0 0 0 .05-.17 22.24 22.24 0 0 0-8.73-7.5c-2.07-.94-5.28-1.11-6.26 1.51s1.37 4.39 3.39 5.22Zm-1.92-2.95c-1.93-4.21 3.44-3.21 4.94-2.45a25.46 25.46 0 0 1 2.77 1.71c1.85 1.29 3.49 2.81 5.2 4.27-1.79-.27-3.59-.37-5.38-.57-2.14-.23-6.47-.65-7.53-2.96Z" style="fill:#ff6565"/><path d="m362 223.6-39 20.24s-40.69-36.83-44.42-37.1-58.47 36.87-86 37c-28.55.12-30-29.78-30-29.78l41.64-9.56c30-14.8 61.27-41.36 81.72-38.88C308.1 168.19 362 223.6 362 223.6Z" style="fill:#37474f"/><path d="M352.47 218.45c-6.59 3.26-4.74 2.24-11.3 5.56-3.21 1.63-19.36 9.78-22.1 11.8-.06 0 0 .15.07.13 3.22-1.08 19.19-9.58 22.37-11.27 6.5-3.44 4.6-2.52 11.06-6a.1.1 0 1 0-.1-.22ZM316 234.51c-7.63-6.73-32.65-28.65-33.67-29.46a14.07 14.07 0 0 0-2.6-2 2.74 2.74 0 0 0-2.41.2c-1.16.54-2.29 1.13-3.44 1.69l-6.77 3.3c-8.75 4.28-17.45 8.66-26.27 12.79-8.48 4-14.53 7.71-23.39 10.76a132.81 132.81 0 0 1-27.16 6.48c-1.15.14-2.29.26-3.43.37a.07.07 0 1 0 0 .13 109.75 109.75 0 0 0 26.74-5c8.77-2.69 14.72-6.2 23.06-10 8.63-4 17.14-8.23 25.66-12.46 4.49-2.23 9-4.48 13.48-6.69 1-.5 2.48-1.59 3.65-1.05a6.45 6.45 0 0 1 1.34 1l1.5 1.25c1.94 1.61 32.6 28 33.61 28.78.1.08.22-.02.1-.09Z" style="fill:#263238"/><path d="M162.45 213.94s-4.67 27 8.83 37.61 112.42 9.33 127.43 4.45 15.48-29.07-.93-34.68c-15.6-5.34-82-7.94-83.63-8.59-.41-.16 5.88-3.94 5.86-4.17L204.9 204Z" style="fill:#37474f"/><path d="M182.94 213.26c0-.12-.19-.08-.19 0a13.35 13.35 0 0 1-3.13 8.58c-2.29 2.65-5.68 4.14-8.75 5.69-.3.15-.08.61.23.52a26.81 26.81 0 0 0 5.42-2.34 13 13 0 0 0 4.08-3.39 11.61 11.61 0 0 0 2.34-9.06ZM213.06 209.91c-.69-.87-1.43-1.71-2.15-2.56-1.69-2-3.39-4-5.16-6-.17-.18-.5.08-.34.28 1.19 1.56 2.45 3.07 3.7 4.59.63.78 1.27 1.56 1.92 2.33a15 15 0 0 1 1.79 2.27 1.14 1.14 0 0 1-1 1.7 3.08 3.08 0 0 1-2.16-.79 28.33 28.33 0 0 1-3.66-3.92c-.72-.8-1.43-1.6-2.15-2.39s-1.59-1.64-2.36-2.48c0-.05-.14 0-.1.08.67.92 1.29 1.88 2 2.8s1.35 1.83 2.05 2.74 1.33 1.69 2 2.51a8.44 8.44 0 0 0 2.06 1.85c1.28.75 3.51.92 4.2-.74a2.38 2.38 0 0 0-.64-2.27Z" style="fill:#263238"/><path d="M296.66 256.12c-5.17.1-10.33.4-15.5.51s-10.26.13-15.38.09q-15.45-.15-30.87-1.2c-10.38-.72-21.58-1.76-31.89-3.18-4.93-.69-9.94-1.26-14.81-2.31a23.39 23.39 0 0 1-11.69-6c-6.68-6.48-9.27-16-10.34-25.11-.14-1.22-.26-2.44-.36-3.67a.06.06 0 1 0-.12 0c.6 9.33 2.05 19.06 7.92 26.56a23.37 23.37 0 0 0 9.56 7.42c4.62 1.85 9.74 2.28 14.62 2.95 10.35 1.4 21.59 2.48 32 3.29s21 1.32 31.49 1.48 21 0 31.52-.51c1.28-.07 2.56-.14 3.84-.25.08.04.08-.07.01-.07ZM264.08 216.43c-3.26-.48-6.5-1-9.77-1.29s-6.61-.64-9.92-.92c-6.55-.55-13.11-1.05-19.67-1.36-3.73-.17-7.45-.19-11.18-.14-.12 0-.11.17 0 .18 6.56.59 13.13 1 19.7 1.44s13.1 1 19.65 1.64c3.71.35 7.42.63 11.13.93.28.02.33-.44.06-.48Z" style="fill:#263238"/><path d="M220.78 208.26a50.87 50.87 0 0 0-7.53 4 60.44 60.44 0 0 0-7 4.88c-.06.05 0 .13.08.1 2.55-1.18 5-2.66 7.44-4.08a69.25 69.25 0 0 0 7.14-4.58c.18-.09.09-.41-.13-.32Z" style="fill:#263238"/><path d="m249.14 123.4-9.45 26.6a1 1 0 0 0 .76 1.54l14.07 1.33a2.3 2.3 0 0 0 2.09-1.27l9.45-26.6c.37-.78 0-1.47-.76-1.54l-14.07-1.33a2.28 2.28 0 0 0-2.09 1.27Z" style="fill:#37474f"/><path d="m250.81 123.55-9.45 26.62a1 1 0 0 0 .76 1.53l14.07 1.3a2.29 2.29 0 0 0 2.09-1.26l9.45-26.62c.37-.78 0-1.46-.76-1.54l-14.07-1.33a2.29 2.29 0 0 0-2.09 1.3Z" style="fill:#455a64"/><path d="M254.55 125.16a1.19 1.19 0 0 1-1.33 1 1.2 1.2 0 1 1 .28-2.38 1.19 1.19 0 0 1 1.05 1.38Z" style="fill:#263238"/><path d="M198.72 165.68c8.28 16.9 26.6 38.72 34 38.7 3.54 0 9.86.72 14.43-3.42 10-9 18.82-25.44 21-34.54.81-3.41-17.61-12-20-9.12-5.74 6.7-12.27 19.7-13.3 19.7-3.85-.28-18.85-12.41-29.41-21-12.78-10.34-10.03 3-6.72 9.68ZM269.89 150.28c-1.05-7.15-2.42-8.83-.09-15.33 1.52-4.27-.55-7.08-4-3.88-5.67 5.22-6.26 14.73-5.52 18.09Z" style="fill:#eb9481"/><path d="M266.51 170.89s4.12-9.39 3.76-17.13c-.25-5.34-2.09-16.92-16.22-24.39-3.35-1.77-9.38-1.92-5 3 3.14 3.47 6.18 4.72 7.64 7.07 0 0-7.69.72-9.34 4.15a71 71 0 0 0-3.66 9.25 14.46 14.46 0 0 0 1.68.84s-1.44 3.26.56 8.3Z" style="fill:#eb9481"/><path d="M269.21 148.7c-1.94-2-6.12-6.25-10.75-8.52-5.14-2.51-15.72-6-17.54-2.16-1.33 2.8 2.59 4.47 2.59 4.47s-4.67-.51-5.32 2.28c-.6 2.54 2.51 3.66 2.51 3.66s-2.88.18-3 2.74c-.12 3.07 5.95 2.19 8.52 5.42.6.72 22.99-7.89 22.99-7.89Z" style="fill:#eb9481"/><path d="M256.71 146.06a22.8 22.8 0 0 0-13.1-3.64c-.12 0-.17.1-.07.12a56.14 56.14 0 0 1 13.14 3.57s.05-.04.03-.05ZM254 151.17a25.65 25.65 0 0 0-13.29-2.84c-.12 0-.17.11-.06.12a60 60 0 0 1 13.35 2.77s0-.03 0-.05Z" style="fill:#263238"/><path d="m204.08 178.55 21-8.37s-18.89-16.24-25.79-19.45c-7.77-3.61-7.92 1.15-5.19 8.83s9.98 18.99 9.98 18.99Z" style="fill:#ff6565"/><path d="m204.08 178.55 21-8.37s-18.89-16.24-25.79-19.45c-7.77-3.61-7.92 1.15-5.19 8.83s9.98 18.99 9.98 18.99Z" style="fill:#ff6565"/><path d="M220.69 167.62c-.78.18-7.38 2.68-8.8 3.26s-7.27 2.87-8.69 3.58a.06.06 0 0 0 0 .11c1.52-.44 7.42-2.73 8.88-3.29s7.94-3.18 8.61-3.56a.05.05 0 0 0 0-.1Z" style="fill:#263238"/><path d="m212.2 175.32-8.12 3.22s-7.2-11.31-9.93-19c-2-5.61-2.45-9.67.48-10Z" style="fill:#263238"/><path d="M218.61 207.78 161.22 219c-.09-1.19 3.84-36.79 8.63-50.31 6.14-17.32 10.12-19.11 12.48-20.27 3-1.49 8.7-1.57 10.11-1.09 1.59.54 7.35 8.39 9.77 14.36 4.86 11.98 17.09 45.25 16.4 46.09Z" style="fill:#ff6565"/><path d="M194.11 148.77 178 151.9a17.63 17.63 0 0 1 1.22-1.36l14-2.7a11.64 11.64 0 0 1 .89.93Zm1.58 1.89-19.48 3.77c-.24.38-.49.8-.74 1.25l20.94-4.05c-.25-.34-.48-.63-.72-.97Zm2.07 2.89-23.58 4.56-.58 1.23 24.79-4.8c-.2-.34-.39-.66-.63-.99Zm1.83 2.95-27.05 5.24c-.17.39-.34.8-.5 1.22l28.12-5.45c-.16-.33-.37-.68-.57-1.01Zm1.63 3-30.13 5.83c-.15.39-.29.78-.45 1.19l31.06-6c-.15-.34-.31-.69-.48-1.02Zm1.34 3-32.77 6.35c-.14.38-.27.77-.4 1.19l33.61-6.48c-.18-.35-.32-.7-.44-1.03Zm1.21 3.07-35.07 6.79c-.1.39-.22.78-.32 1.18l35.79-6.93c-.17-.32-.27-.67-.4-1.01Zm1.19 3.07-37.14 7.2c-.1.37-.19.76-.28 1.16l37.81-7.33c-.14-.31-.26-.67-.35-1Zm1.17 3.08-39.13 7.6-.24 1.16 39.74-7.69c-.11-.36-.23-.7-.37-1.04Zm1.17 3.08-41 7.93-.22 1.16 41.58-8c-.1-.36-.24-.72-.36-1.06Zm1.15 3.08-42.76 8.28c-.07.37-.13.76-.19 1.15l43.34-8.4c-.14-.31-.26-.66-.39-1Zm1.14 3.07-44.49 8.63c-.07.38-.13.76-.2 1.14L210 182c-.15-.32-.28-.66-.41-1Zm1.14 3.09-46.19 9c-.06.39-.13.77-.19 1.15l46.76-9.06c-.11-.38-.26-.72-.38-1.06Zm1.13 3.08-47.86 9.3c-.06.37-.12.76-.17 1.14l48.38-9.37c-.1-.34-.21-.7-.35-1.04Zm1.1 3.09-49.45 9.58c0 .39-.11.76-.16 1.14l50-9.68c-.14-.31-.26-.66-.35-1.01Zm1.11 3.09-51 9.89c0 .38-.11.76-.16 1.13l51.55-10c-.14-.32-.27-.64-.39-.99Zm1.08 3.09-52.56 10.21q-.08.59-.15 1.14l53.07-10.28c-.11-.35-.24-.69-.36-1.04Zm1.07 3.1L162.16 210c0 .38-.09.77-.13 1.13l54.55-10.56c-.12-.34-.23-.7-.36-1.05Zm1 3.1-55.48 10.75c0 .4-.1.77-.13 1.13l56-10.84Zm1 3.12-56.81 11c0 .44-.07.83-.1 1.14l57.19-11.08c-.08-.27-.17-.63-.29-1.03Z" style="fill:#030402;opacity:.1"/><path d="M177.62 152.39C158 172.82 129.39 224.55 125.85 232c-2.4 5 23.92 18.3 25 14.64 1.43-4.69 24.36-62.58 30.46-84.42 3.39-12.08.37-14.05-3.69-9.83Z" style="fill:#eb9481"/><path d="M152.13 243.15c-.92 2.51-4 13.16-6.23 14.49s-13.66 1-19.44 1-6.92-1.61-6.82-3.6 12.22-2.37 12.22-2.37-16.2 4.64-20.28 5.4-13.46 3.13-14.82-.25c-.61-1.52 2-3.07 2-3.07s-3.94 1.16-4.57-.8c-.71-2.23 2.42-3.46 2.42-3.46s-2.46.49-2.52-1.32c-.13-4.06 15.28-6.06 15.28-6.06s-11.8 5.75-12.18 2.43C96.63 241 120.81 236 123.33 234a17.18 17.18 0 0 0 4-5Z" style="fill:#eb9481"/><path d="M119.72 256.09a1.77 1.77 0 0 1 .55-1.55 5 5 0 0 1 1.41-.91 18.57 18.57 0 0 1 3.31-1.08c2.28-.58 4.62-1 6.94-1.59a28.25 28.25 0 0 0-7.14.81 12.69 12.69 0 0 0-3.4 1.3 4.65 4.65 0 0 0-1.43 1.22 1.89 1.89 0 0 0-.24 1.8ZM98.72 254.79c1.66-.4 3.31-.87 5-1.35s3.27-1 4.9-1.47l4.88-1.53q2.44-.76 4.9-1.5a37.76 37.76 0 0 0-5.06.9c-1.67.38-3.32.86-5 1.36s-3.26 1-4.86 1.65-3.21 1.22-4.76 1.94ZM114.44 244.89a32.13 32.13 0 0 0-4.68.65 45 45 0 0 0-4.57 1.17 41.42 41.42 0 0 0-4.43 1.66 33.17 33.17 0 0 0-4.19 2.16c1.49-.52 2.94-1.09 4.42-1.58s3-1 4.44-1.46 3-.91 4.48-1.35 3.01-.84 4.53-1.25ZM112.05 241a29.2 29.2 0 0 0-7.44 1.57 28.85 28.85 0 0 0-6.84 3.32c2.39-.85 4.72-1.76 7.1-2.55s4.77-1.54 7.18-2.34Z" style="fill:#263238"/><path d="m157.93 173.56 22.08.78a167.31 167.31 0 0 0 3.88-16.84c1.11-8.13-1.65-10.45-9.24-3.85-5.09 4.42-16.72 19.91-16.72 19.91Z" style="fill:#ff6565"/><path d="M177.32 174.25a26.23 26.23 0 0 1 2.67 0c.32-1.27.63-2.54 1-3.8q.25-.94.54-1.89c.21-.68.41-1.48.6-2.09 0-.09.15-.07.13 0-.16.82-.31 1.42-.45 2.13s-.27 1.26-.43 1.88c-.33 1.32-.63 2.74-1 4a22.72 22.72 0 0 1-3-.24s-.1.01-.06.01Z" style="fill:#263238"/><path d="M160.24 171.54c3.22-.11 6.44-.17 9.66-.09 1.61 0 3.22.11 4.82.2s3.2.34 4.81.4a.07.07 0 0 1 0 .14c-1.59-.15-3.22-.08-4.82-.14s-3.22-.12-4.82-.17c-3.21-.09-6.43-.18-9.64-.2-.11 0-.09-.13-.01-.14Z" style="fill:#263238"/><path d="M193.35 159.16c-3.35.84-9.11-4.16-11.43-8.16a69 69 0 0 1 .51-6.91c.16-2.21.3-4.68.26-6.94 0-.47 14.24 3.19 14.24 3.19a35.8 35.8 0 0 0-1.21 8.7 5.38 5.38 0 0 0 .11.93.61.61 0 0 1 0 .15c.34 1.71.72 8.22-2.48 9.04Z" style="fill:#eb9481"/><path d="M183.56 137.14c.72 3.81 3.27 13 10.84 13a9.26 9.26 0 0 0 1.45-.1.7.7 0 0 0 0-.16 6.4 6.4 0 0 1-.12-.92 36.27 36.27 0 0 1 1.22-8.72s-10.3-2.59-13.39-3.1ZM180.85 132.12s-5.85-6.34-3.85-12.88c1.14-3.83 6.77-5.12 6.61-5.45 0 0 9.22-8.21 14.19-4 4.7 4 5.4 16.32 5.4 16.32Z" style="fill:#263238"/><path d="M185 112.68s7.55-6.33 11.2-6.09-1.59 3.48-1.59 3.48Z" style="fill:#263238"/><path d="M190.18 111.55s6.69-4.21 9.56-2.55-6.36 2.56-9.56 2.55ZM183.15 114.42s3.14-5.32 5.49-6.49 1.36 2.85-5.49 6.49Z" style="fill:#263238"/><path d="M183.62 114c-3.67 1.31-7.71 3.52-8 7.86-.29 3.93 2.32 7.4 5.33 9.63a.11.11 0 0 0 .14-.16c-2.67-2.45-5.27-5.25-5.14-9.14.14-4.55 4.2-6.34 7.76-8 .07-.06.02-.19-.09-.19ZM197.06 106c-3.4-.32-6.61 1.72-8.66 4.3a.09.09 0 0 0 .13.11c2.48-2.5 4.91-4.09 8.52-4.32l.01-.09ZM195.23 109.41a7.11 7.11 0 0 1 4.9-.87 6.07 6.07 0 0 0-4.9.87Z" style="fill:#263238"/><path d="M180 121.14c-1.33 5.09 1.9 19.5 5.6 22.59 5.37 4.49 13.87 4.6 17.61-1.79 3.63-6.19-.92-24.9-5-27.68-6.05-4.1-16.21-.63-18.21 6.88Z" style="fill:#eb9481"/><path d="M194.94 138.83c.29.17.59.44.94.39a2.7 2.7 0 0 0 1-.47s.06 0 .05 0a1.34 1.34 0 0 1-1.12.8 1.07 1.07 0 0 1-.95-.7s.04-.05.08-.02ZM195.33 135.69a3.39 3.39 0 0 0 2.53 1 4.51 4.51 0 0 0 1.2-.21 1.14 1.14 0 0 0 .22-.07l.21-.08a.25.25 0 0 0 .15-.26v-.18c-.14-.75-.46-1.88-.46-1.88.3.08 1.83.41 1.73 0a50.92 50.92 0 0 0-3.47-9.74.09.09 0 0 0-.17.07c.74 3.1 2 6 2.82 9.16a5.77 5.77 0 0 0-1.67-.13c-.1 0 .66 2.15.7 2.5a4.67 4.67 0 0 1-3.66-.31c-.14-.01-.2.07-.13.13Z" style="fill:#263238"/><path d="M198.54 136.2a4 4 0 0 1-1.31 1.56 1.83 1.83 0 0 1-1.06.3c-.82 0-1-.74-1-1.38a4.07 4.07 0 0 1 .14-1 5.26 5.26 0 0 0 3.23.52Z" style="fill:#263238"/><path d="M197.23 137.76a1.83 1.83 0 0 1-1.06.3c-.82 0-1-.74-1-1.38a1.86 1.86 0 0 1 2.06 1.08Z" style="fill:#ff98b9"/><path d="M194.14 129.28s-.07.06-.06.1c.23 1 .33 2.11-.49 2.61 0 0 0 .07 0 0 1.06-.31.92-1.83.55-2.71Z" style="fill:#263238"/><path d="M193.06 128.43c-1.59.2-1.08 3.37.4 3.18s.94-3.34-.4-3.18ZM199.91 128.14s.08 0 .09.07c.13 1 .44 2.09 1.38 2.28-1.11.07-1.51-1.4-1.47-2.35Z" style="fill:#263238"/><path d="M200.62 127c1.56-.37 2.19 2.77.75 3.12s-2.06-2.84-.75-3.12ZM191.37 127.53a13 13 0 0 0 1.21-.53 2.13 2.13 0 0 0 1.12-.78.68.68 0 0 0-.17-.81 1.67 1.67 0 0 0-1.7 0 2.48 2.48 0 0 0-1.34 1.17.72.72 0 0 0 .88.95ZM201.27 125.46a11.6 11.6 0 0 1-1.18-.19 2 2 0 0 1-1.17-.42.61.61 0 0 1 0-.75 1.51 1.51 0 0 1 1.48-.43 2.18 2.18 0 0 1 1.44.72.65.65 0 0 1-.57 1.07Z" style="fill:#263238"/><path d="M182.56 132.68c.62 0 1.92-4.29 2.25-6.13s-1-4.14.8-7c1.36-2.15 8.37-1.15 10-1.27 2.58-.19 4.48-1.74 6.57 2.64 0 0-2.27-13.58-16.83-7.39-11.11 4.73-6.22 19.27-2.79 19.15Z" style="fill:#263238"/><path d="M183.6 132.85s-3.56-4.5-5.61-3.2.81 7.95 3.37 8.73a2.54 2.54 0 0 0 3.32-1.57Z" style="fill:#eb9481"/><path d="M178.86 131.54s-.05.05 0 .06a6.49 6.49 0 0 1 3.56 3.82 1.4 1.4 0 0 0-2.12-.25s0 .1.05.09a1.55 1.55 0 0 1 1.75.44 7.53 7.53 0 0 1 .9 1.3c.09.15.37.05.3-.12-.11-2.24-2.03-5.26-4.44-5.34Z" style="fill:#263238"/></g></svg>