<svg xmlns="http://www.w3.org/2000/svg" viewBox="0 0 500 500"><g id="freepik--background-complete--inject-16"><path style="fill:#ebebeb" d="M0 382.4h500v.25H0zM416.78 398.49h33.12v.25h-33.12zM322.53 401.21h8.69v.25h-8.69zM396.59 389.21h19.19v.25h-19.19zM52.46 390.89h43.19v.25H52.46zM104.56 390.89h6.33v.25h-6.33zM131.47 395.11h93.68v.25h-93.68zM237 337.8H43.91a5.71 5.71 0 0 1-5.7-5.71V60.66a5.71 5.71 0 0 1 5.7-5.66H237a5.71 5.71 0 0 1 5.71 5.71v271.38a5.71 5.71 0 0 1-5.71 5.71ZM43.91 55.2a5.46 5.46 0 0 0-5.45 5.46v271.43a5.46 5.46 0 0 0 5.45 5.46H237a5.47 5.47 0 0 0 5.46-5.46V60.66A5.47 5.47 0 0 0 237 55.2ZM453.31 337.8h-193.1a5.72 5.72 0 0 1-5.71-5.71V60.66a5.72 5.72 0 0 1 5.71-5.66h193.1a5.71 5.71 0 0 1 5.69 5.66v271.43a5.71 5.71 0 0 1-5.69 5.71ZM260.21 55.2a5.47 5.47 0 0 0-5.46 5.46v271.43a5.47 5.47 0 0 0 5.46 5.46h193.1a5.47 5.47 0 0 0 5.46-5.46V60.66a5.47 5.47 0 0 0-5.46-5.46Z"/><path style="fill:#ebebeb" d="M84.84 97.88h169.52V287.8H84.84z"/><path style="fill:#fafafa" d="M88.17 100.94h166.19v183.49H88.17z"/><path style="fill:#f0f0f0" d="M94.31 198.33v-12.89h3.68v-8.59h4.91v-12.9h1.23v12.9h4.91v8.59h3.69v12.89h6.75v3.69h3.07v14.12h.61v-20.26H125v12.89h1.84v-30.7h1.23v12.9h4.92v-4.3h1.84v-17.8h3.68v-17.81h1.23v2.46h25.17v-7.37h4.3v-28.24h1.84v28.24h6.14v7.37h2.45v36.83h12.89V179.3h-4.29v-1.84h4.29v-3.07h12.28v-28.24h3.07v-4.3h14.74v4.3h1.84v39.29h6.75v17.81h3.68v-14.12h3.07v-3.69h6.76v-12.89h3.68v-8.6h4.3v-12.89h1.66v133.37H88.17v-86.1h6.14z"/><path style="fill:#fafafa" d="M153.77 155.44h1.74v1.74h-1.74zM153.77 158.36h1.74v1.74h-1.74zM153.77 170.02h1.74v1.74h-1.74zM153.77 172.94h1.74v1.74h-1.74zM153.77 175.86h1.74v1.74h-1.74zM153.77 184.6h1.74v1.74h-1.74zM153.77 187.52h1.74v1.74h-1.74zM156.53 167.11h1.74v1.74h-1.74zM156.53 170.02h1.74v1.74h-1.74zM156.53 172.94h1.74v1.74h-1.74zM156.53 175.86h1.74v1.74h-1.74zM156.53 178.77h1.74v1.74h-1.74zM156.53 184.6h1.74v1.74h-1.74zM156.53 187.52h1.74v1.74h-1.74zM159.29 155.44h1.74v1.74h-1.74zM159.29 158.36h1.74v1.74h-1.74zM159.29 161.28h1.74v1.74h-1.74zM159.29 164.19h1.74v1.74h-1.74zM159.29 167.11h1.74v1.74h-1.74zM159.29 170.02h1.74v1.74h-1.74zM159.29 172.94h1.74v1.74h-1.74zM159.29 175.86h1.74v1.74h-1.74zM159.29 178.77h1.74v1.74h-1.74zM159.29 181.69h1.74v1.74h-1.74zM159.29 187.52h1.74v1.74h-1.74zM162.06 155.44h1.74v1.74h-1.74zM162.06 158.36h1.74v1.74h-1.74zM162.06 161.28h1.74v1.74h-1.74zM162.06 164.19h1.74v1.74h-1.74zM162.06 167.11h1.74v1.74h-1.74zM162.06 170.02h1.74v1.74h-1.74zM162.06 172.94h1.74v1.74h-1.74zM162.06 199.18h1.74v1.74h-1.74zM164.82 155.44h1.74v1.74h-1.74zM164.82 158.36h1.74v1.74h-1.74zM164.82 161.28h1.74v1.74h-1.74zM164.82 164.19h1.74v1.74h-1.74zM164.82 167.11h1.74v1.74h-1.74zM164.82 170.02h1.74v1.74h-1.74zM164.82 172.94h1.74v1.74h-1.74zM164.82 175.86h1.74v1.74h-1.74zM164.82 193.35h1.74v1.74h-1.74zM164.82 196.27h1.74v1.74h-1.74zM164.82 199.18h1.74v1.74h-1.74zM164.82 202.1h1.74v1.74h-1.74zM164.82 213.76h1.74v1.74h-1.74zM167.58 155.44h1.74v1.74h-1.74zM167.58 158.36h1.74v1.74h-1.74zM167.58 161.28h1.74v1.74h-1.74zM167.58 164.19h1.74v1.74h-1.74zM167.58 167.11h1.74v1.74h-1.74zM167.58 170.02h1.74v1.74h-1.74zM167.58 172.94h1.74v1.74h-1.74zM167.58 175.86h1.74v1.74h-1.74zM167.58 178.77h1.74v1.74h-1.74zM167.58 181.69h1.74v1.74h-1.74zM167.58 190.44h1.74v1.74h-1.74zM167.58 193.35h1.74v1.74h-1.74zM167.58 196.27h1.74v1.74h-1.74zM167.58 199.18h1.74v1.74h-1.74zM167.58 202.1h1.74v1.74h-1.74zM167.58 213.76h1.74v1.74h-1.74zM170.34 155.44h1.74v1.74h-1.74zM170.34 158.36h1.74v1.74h-1.74zM170.34 161.28h1.74v1.74h-1.74zM170.34 164.19h1.74v1.74h-1.74zM170.34 167.11h1.74v1.74h-1.74zM170.34 170.02h1.74v1.74h-1.74zM170.34 172.94h1.74v1.74h-1.74zM170.34 175.86h1.74v1.74h-1.74zM170.34 178.77h1.74v1.74h-1.74zM170.34 181.69h1.74v1.74h-1.74zM170.34 184.6h1.74v1.74h-1.74zM170.34 187.52h1.74v1.74h-1.74zM170.34 190.44h1.74v1.74h-1.74zM170.34 193.35h1.74v1.74h-1.74zM170.34 196.27h1.74v1.74h-1.74zM170.34 199.18h1.74v1.74h-1.74zM170.34 202.1h1.74v1.74h-1.74zM170.34 205.02h1.74v1.74h-1.74zM173.11 155.44h1.74v1.74h-1.74zM173.11 158.36h1.74v1.74h-1.74zM173.11 161.28h1.74v1.74h-1.74zM173.11 164.19h1.74v1.74h-1.74zM173.11 167.11h1.74v1.74h-1.74zM173.11 170.02h1.74v1.74h-1.74zM173.11 172.94h1.74v1.74h-1.74zM173.11 175.86h1.74v1.74h-1.74zM173.11 178.77h1.74v1.74h-1.74zM173.11 181.69h1.74v1.74h-1.74zM173.11 190.44h1.74v1.74h-1.74zM173.11 193.35h1.74v1.74h-1.74zM173.11 196.27h1.74v1.74h-1.74zM173.11 199.18h1.74v1.74h-1.74zM175.87 155.44h1.74v1.74h-1.74zM175.87 158.36h1.74v1.74h-1.74zM175.87 161.28h1.74v1.74h-1.74zM175.87 164.19h1.74v1.74h-1.74zM175.87 167.11h1.74v1.74h-1.74zM175.87 170.02h1.74v1.74h-1.74zM175.87 172.94h1.74v1.74h-1.74zM175.87 175.86h1.74v1.74h-1.74zM175.87 178.77h1.74v1.74h-1.74zM175.87 181.69h1.74v1.74h-1.74zM175.87 190.44h1.74v1.74h-1.74zM175.87 193.35h1.74v1.74h-1.74zM175.87 196.27h1.74v1.74h-1.74zM206.97 147.87h1.74v1.74h-1.74zM206.97 150.79h1.74v1.74h-1.74zM206.97 153.7h1.74v1.74h-1.74zM206.97 156.62h1.74v1.74h-1.74zM206.97 159.54h1.74v1.74h-1.74zM206.97 162.45h1.74v1.74h-1.74zM206.97 165.37h1.74v1.74h-1.74zM206.97 168.28h1.74v1.74h-1.74zM206.97 177.03h1.74v1.74h-1.74zM206.97 179.95h1.74v1.74h-1.74zM209.74 147.87h1.74v1.74h-1.74zM209.74 150.79h1.74v1.74h-1.74zM209.74 153.7h1.74v1.74h-1.74zM209.74 156.62h1.74v1.74h-1.74zM209.74 159.54h1.74v1.74h-1.74zM209.74 162.45h1.74v1.74h-1.74zM209.74 165.37h1.74v1.74h-1.74zM209.74 168.28h1.74v1.74h-1.74zM209.74 179.95h1.74v1.74h-1.74zM212.5 147.87h1.74v1.74h-1.74zM212.5 150.79h1.74v1.74h-1.74zM212.5 153.7h1.74v1.74h-1.74zM212.5 156.62h1.74v1.74h-1.74zM212.5 159.54h1.74v1.74h-1.74zM212.5 162.45h1.74v1.74h-1.74zM212.5 165.37h1.74v1.74h-1.74zM212.5 168.28h1.74v1.74h-1.74zM215.26 147.87H217v1.74h-1.74zM215.26 150.79H217v1.74h-1.74zM215.26 153.7H217v1.74h-1.74zM215.26 156.62H217v1.74h-1.74zM215.26 159.54H217v1.74h-1.74zM215.26 162.45H217v1.74h-1.74zM215.26 168.28H217v1.74h-1.74zM215.26 171.2H217v1.74h-1.74zM215.26 179.95H217v1.74h-1.74zM215.26 182.86H217v1.74h-1.74zM215.26 185.78H217v1.74h-1.74zM215.26 188.7H217v1.74h-1.74zM215.26 191.61H217v1.74h-1.74zM215.26 194.53H217v1.74h-1.74zM215.26 197.44H217v1.74h-1.74zM218.02 147.87h1.74v1.74h-1.74zM218.02 150.79h1.74v1.74h-1.74zM218.02 153.7h1.74v1.74h-1.74zM218.02 156.62h1.74v1.74h-1.74zM218.02 159.54h1.74v1.74h-1.74zM218.02 162.45h1.74v1.74h-1.74zM218.02 171.2h1.74v1.74h-1.74zM218.02 174.12h1.74v1.74h-1.74zM218.02 177.03h1.74v1.74h-1.74zM218.02 179.95h1.74v1.74h-1.74zM218.02 182.86h1.74v1.74h-1.74zM218.02 185.78h1.74v1.74h-1.74zM218.02 188.7h1.74v1.74h-1.74zM218.02 191.61h1.74v1.74h-1.74zM218.02 194.53h1.74v1.74h-1.74zM218.02 197.44h1.74v1.74h-1.74zM218.02 200.36h1.74v1.74h-1.74zM218.02 206.19h1.74v1.74h-1.74zM220.79 147.87h1.74v1.74h-1.74zM220.79 150.79h1.74v1.74h-1.74zM220.79 153.7h1.74v1.74h-1.74zM220.79 156.62h1.74v1.74h-1.74zM220.79 159.54h1.74v1.74h-1.74zM220.79 162.45h1.74v1.74h-1.74zM220.79 171.2h1.74v1.74h-1.74zM220.79 174.12h1.74v1.74h-1.74zM220.79 177.03h1.74v1.74h-1.74zM220.79 179.95h1.74v1.74h-1.74zM220.79 188.7h1.74v1.74h-1.74zM220.79 191.61h1.74v1.74h-1.74zM220.79 194.53h1.74v1.74h-1.74zM220.79 197.44h1.74v1.74h-1.74zM220.79 200.36h1.74v1.74h-1.74zM220.79 206.19h1.74v1.74h-1.74zM220.79 209.11h1.74v1.74h-1.74zM245.85 174.99h1.74v1.74h-1.74zM245.85 177.9h1.74v1.74h-1.74zM245.85 180.82h1.74v1.74h-1.74zM245.85 183.73h1.74v1.74h-1.74zM245.85 186.65h1.74v1.74h-1.74zM245.85 189.57h1.74v1.74h-1.74zM245.85 192.48h1.74v1.74h-1.74zM245.85 201.23h1.74v1.74h-1.74zM245.85 204.15h1.74v1.74h-1.74zM245.85 207.06h1.74v1.74h-1.74zM248.62 174.99h1.74v1.74h-1.74zM248.62 177.9h1.74v1.74h-1.74zM248.62 180.82h1.74v1.74h-1.74zM248.62 183.73h1.74v1.74h-1.74zM248.62 186.65h1.74v1.74h-1.74zM248.62 189.57h1.74v1.74h-1.74zM248.62 192.48h1.74v1.74h-1.74zM251.38 174.99h2.5v1.74h-2.5zM251.38 177.9h2.5v1.74h-2.5zM251.38 180.82h2.5v1.74h-2.5zM251.38 183.73h2.5v1.74h-2.5zM251.38 186.65h2.5v1.74h-2.5zM251.38 189.57h2.5v1.74h-2.5zM251.38 192.48h2.5v1.74h-2.5zM99.44 178.77h1.74v1.74h-1.74zM99.44 181.69h1.74v1.74h-1.74zM99.44 184.6h1.74v1.74h-1.74zM99.44 187.52h1.74v1.74h-1.74zM99.44 190.44h1.74v1.74h-1.74zM99.44 193.35h1.74v1.74h-1.74zM99.44 196.27h1.74v1.74h-1.74zM99.44 199.18h1.74v1.74h-1.74zM99.44 202.1h1.74v1.74h-1.74zM99.44 205.02h1.74v1.74h-1.74zM99.44 207.93h1.74v1.74h-1.74zM99.44 210.85h1.74v1.74h-1.74zM99.44 213.76h1.74v1.74h-1.74zM99.44 216.68h1.74v1.74h-1.74zM99.44 219.6h1.74v1.74h-1.74zM99.44 222.51h1.74v1.74h-1.74zM99.44 225.43h1.74v1.74h-1.74zM99.44 228.34h1.74v1.74h-1.74zM99.44 231.26h1.74V233h-1.74zM99.44 234.18h1.74v1.74h-1.74zM102.2 178.77h1.74v1.74h-1.74zM102.2 181.69h1.74v1.74h-1.74zM102.2 184.6h1.74v1.74h-1.74zM102.2 187.52h1.74v1.74h-1.74zM102.2 190.44h1.74v1.74h-1.74zM102.2 193.35h1.74v1.74h-1.74zM102.2 196.27h1.74v1.74h-1.74zM102.2 199.18h1.74v1.74h-1.74zM102.2 202.1h1.74v1.74h-1.74zM102.2 205.02h1.74v1.74h-1.74zM102.2 207.93h1.74v1.74h-1.74zM102.2 210.85h1.74v1.74h-1.74zM102.2 213.76h1.74v1.74h-1.74zM102.2 216.68h1.74v1.74h-1.74zM102.2 219.6h1.74v1.74h-1.74zM102.2 222.51h1.74v1.74h-1.74zM102.2 225.43h1.74v1.74h-1.74zM102.2 228.34h1.74v1.74h-1.74zM104.96 178.77h1.74v1.74h-1.74zM104.96 181.69h1.74v1.74h-1.74zM104.96 184.6h1.74v1.74h-1.74zM104.96 187.52h1.74v1.74h-1.74zM104.96 190.44h1.74v1.74h-1.74zM104.96 193.35h1.74v1.74h-1.74zM104.96 196.27h1.74v1.74h-1.74zM104.96 199.18h1.74v1.74h-1.74zM104.96 202.1h1.74v1.74h-1.74zM104.96 205.02h1.74v1.74h-1.74zM104.96 207.93h1.74v1.74h-1.74zM104.96 210.85h1.74v1.74h-1.74zM104.96 213.76h1.74v1.74h-1.74zM104.96 216.68h1.74v1.74h-1.74zM104.96 219.6h1.74v1.74h-1.74zM104.96 222.51h1.74v1.74h-1.74zM104.96 225.43h1.74v1.74h-1.74zM104.96 228.34h1.74v1.74h-1.74zM89.1 200.05h1.74v1.74H89.1zM89.1 202.97h1.74v1.74H89.1zM89.1 205.89h1.74v1.74H89.1zM89.1 208.8h1.74v1.74H89.1zM89.1 211.72h1.74v1.74H89.1zM89.1 214.63h1.74v1.74H89.1zM89.1 217.55h1.74v1.74H89.1zM89.1 220.47h1.74v1.74H89.1zM89.1 223.38h1.74v1.74H89.1zM89.1 226.3h1.74v1.74H89.1zM89.1 229.21h1.74v1.74H89.1zM89.1 232.13h1.74v1.74H89.1zM89.1 235.05h1.74v1.74H89.1zM91.87 200.05h1.74v1.74h-1.74zM91.87 202.97h1.74v1.74h-1.74zM91.87 205.89h1.74v1.74h-1.74zM91.87 208.8h1.74v1.74h-1.74zM91.87 211.72h1.74v1.74h-1.74zM91.87 214.63h1.74v1.74h-1.74zM91.87 217.55h1.74v1.74h-1.74zM91.87 220.47h1.74v1.74h-1.74zM91.87 223.38h1.74v1.74h-1.74zM91.87 226.3h1.74v1.74h-1.74zM91.87 229.21h1.74v1.74h-1.74zM91.87 232.13h1.74v1.74h-1.74zM91.87 235.05h1.74v1.74h-1.74zM94.63 200.05h1.74v1.74h-1.74zM94.63 202.97h1.74v1.74h-1.74zM94.63 205.89h1.74v1.74h-1.74zM94.63 208.8h1.74v1.74h-1.74zM94.63 211.72h1.74v1.74h-1.74zM94.63 214.63h1.74v1.74h-1.74zM94.63 217.55h1.74v1.74h-1.74zM94.63 220.47h1.74v1.74h-1.74zM94.63 223.38h1.74v1.74h-1.74zM94.63 226.3h1.74v1.74h-1.74zM94.63 229.21h1.74v1.74h-1.74zM94.63 232.13h1.74v1.74h-1.74zM94.63 235.05h1.74v1.74h-1.74zM94.63 237.96h1.74v1.74h-1.74zM109.98 200.92h1.74v1.74h-1.74zM109.98 203.84h1.74v1.74h-1.74zM109.98 206.76h1.74v1.74h-1.74zM109.98 209.67h1.74v1.74h-1.74zM109.98 212.59h1.74v1.74h-1.74zM109.98 215.5h1.74v1.74h-1.74zM109.98 218.42h1.74v1.74h-1.74zM109.98 221.34h1.74v1.74h-1.74zM109.98 224.25h1.74v1.74h-1.74zM109.98 227.17h1.74v1.74h-1.74zM109.98 235.92h1.74v1.74h-1.74zM112.74 200.92h1.74v1.74h-1.74zM112.74 203.84h1.74v1.74h-1.74zM112.74 206.76h1.74v1.74h-1.74zM112.74 209.67h1.74v1.74h-1.74zM112.74 212.59h1.74v1.74h-1.74zM112.74 215.5h1.74v1.74h-1.74zM112.74 218.42h1.74v1.74h-1.74zM112.74 221.34h1.74v1.74h-1.74zM112.74 224.25h1.74v1.74h-1.74zM112.74 233h1.74v1.74h-1.74zM112.74 235.92h1.74v1.74h-1.74zM115.5 200.92h1.74v1.74h-1.74zM115.5 203.84h1.74v1.74h-1.74zM115.5 206.76h1.74v1.74h-1.74zM115.5 209.67h1.74v1.74h-1.74zM115.5 212.59h1.74v1.74h-1.74zM115.5 215.5h1.74v1.74h-1.74zM115.5 218.42h1.74v1.74h-1.74zM115.5 221.34h1.74v1.74h-1.74zM115.5 230.08h1.74v1.74h-1.74zM115.5 233h1.74v1.74h-1.74zM115.5 235.92h1.74v1.74h-1.74zM141.18 156.62h1.74v1.74h-1.74zM141.18 159.54h1.74v1.74h-1.74zM141.18 162.45h1.74v1.74h-1.74zM141.18 165.37h1.74v1.74h-1.74zM141.18 168.28h1.74v1.74h-1.74zM141.18 171.2h1.74v1.74h-1.74zM141.18 174.12h1.74v1.74h-1.74zM141.18 177.03h1.74v1.74h-1.74zM141.18 179.95h1.74v1.74h-1.74zM141.18 182.86h1.74v1.74h-1.74zM141.18 185.78h1.74v1.74h-1.74zM141.18 188.7h1.74v1.74h-1.74zM141.18 191.61h1.74v1.74h-1.74zM141.18 194.53h1.74v1.74h-1.74zM141.18 197.44h1.74v1.74h-1.74zM141.18 200.36h1.74v1.74h-1.74zM141.18 203.28h1.74v1.74h-1.74zM141.18 209.11h1.74v1.74h-1.74zM141.18 212.02h1.74v1.74h-1.74zM141.18 214.94h1.74v1.74h-1.74zM141.18 217.86h1.74v1.74h-1.74zM141.18 220.77h1.74v1.74h-1.74zM143.95 156.62h1.74v1.74h-1.74zM143.95 159.54h1.74v1.74h-1.74zM143.95 162.45h1.74v1.74h-1.74zM143.95 165.37h1.74v1.74h-1.74zM143.95 168.28h1.74v1.74h-1.74zM143.95 171.2h1.74v1.74h-1.74zM143.95 174.12h1.74v1.74h-1.74zM143.95 177.03h1.74v1.74h-1.74zM143.95 179.95h1.74v1.74h-1.74zM143.95 182.86h1.74v1.74h-1.74zM143.95 185.78h1.74v1.74h-1.74zM143.95 188.7h1.74v1.74h-1.74zM143.95 191.61h1.74v1.74h-1.74zM143.95 194.53h1.74v1.74h-1.74zM143.95 197.44h1.74v1.74h-1.74zM143.95 200.36h1.74v1.74h-1.74zM143.95 217.86h1.74v1.74h-1.74zM143.95 220.77h1.74v1.74h-1.74zM146.71 156.62h1.74v1.74h-1.74zM146.71 159.54h1.74v1.74h-1.74zM146.71 162.45h1.74v1.74h-1.74zM146.71 165.37h1.74v1.74h-1.74zM146.71 168.28h1.74v1.74h-1.74zM146.71 171.2h1.74v1.74h-1.74zM146.71 174.12h1.74v1.74h-1.74zM146.71 177.03h1.74v1.74h-1.74zM146.71 179.95h1.74v1.74h-1.74zM146.71 182.86h1.74v1.74h-1.74zM146.71 185.78h1.74v1.74h-1.74zM146.71 188.7h1.74v1.74h-1.74zM146.71 191.61h1.74v1.74h-1.74zM146.71 194.53h1.74v1.74h-1.74zM146.71 197.44h1.74v1.74h-1.74zM146.71 200.36h1.74v1.74h-1.74zM146.71 206.19h1.74v1.74h-1.74zM146.71 209.11h1.74v1.74h-1.74zM146.71 212.02h1.74v1.74h-1.74zM146.71 214.94h1.74v1.74h-1.74zM146.71 220.77h1.74v1.74h-1.74zM131.16 193.35h1.74v1.74h-1.74zM131.16 196.27h1.74v1.74h-1.74zM131.16 199.18h1.74v1.74h-1.74zM131.16 202.1h1.74v1.74h-1.74zM131.16 205.02h1.74v1.74h-1.74zM131.16 207.93h1.74v1.74h-1.74zM131.16 210.85h1.74v1.74h-1.74zM131.16 216.68h1.74v1.74h-1.74zM131.16 219.6h1.74v1.74h-1.74zM131.16 222.51h1.74v1.74h-1.74zM131.16 225.43h1.74v1.74h-1.74zM131.16 228.34h1.74v1.74h-1.74zM131.16 231.26h1.74V233h-1.74zM131.16 234.18h1.74v1.74h-1.74zM131.16 237.09h1.74v1.74h-1.74zM133.92 193.35h1.74v1.74h-1.74zM133.92 196.27h1.74v1.74h-1.74zM133.92 199.18h1.74v1.74h-1.74zM133.92 202.1h1.74v1.74h-1.74zM133.92 205.02h1.74v1.74h-1.74zM133.92 207.93h1.74v1.74h-1.74zM133.92 216.68h1.74v1.74h-1.74zM133.92 219.6h1.74v1.74h-1.74zM133.92 222.51h1.74v1.74h-1.74zM133.92 225.43h1.74v1.74h-1.74zM133.92 228.34h1.74v1.74h-1.74zM133.92 231.26h1.74V233h-1.74zM133.92 234.18h1.74v1.74h-1.74zM133.92 237.09h1.74v1.74h-1.74zM136.68 193.35h1.74v1.74h-1.74zM136.68 196.27h1.74v1.74h-1.74zM136.68 199.18h1.74v1.74h-1.74zM136.68 202.1h1.74v1.74h-1.74zM136.68 205.02h1.74v1.74h-1.74zM136.68 207.93h1.74v1.74h-1.74zM136.68 213.76h1.74v1.74h-1.74zM136.68 216.68h1.74v1.74h-1.74zM136.68 219.6h1.74v1.74h-1.74zM136.68 222.51h1.74v1.74h-1.74zM136.68 225.43h1.74v1.74h-1.74zM136.68 228.34h1.74v1.74h-1.74zM136.68 231.26h1.74V233h-1.74zM136.68 234.18h1.74v1.74h-1.74zM136.68 237.09h1.74v1.74h-1.74zM194.9 177.03h1.74v1.74h-1.74zM194.9 179.95h1.74v1.74h-1.74zM194.9 182.86h1.74v1.74h-1.74zM194.9 185.78h1.74v1.74h-1.74zM194.9 188.7h1.74v1.74h-1.74zM194.9 191.61h1.74v1.74h-1.74zM194.9 194.53h1.74v1.74h-1.74zM194.9 197.44h1.74v1.74h-1.74zM194.9 200.36h1.74v1.74h-1.74zM194.9 203.28h1.74v1.74h-1.74zM194.9 206.19h1.74v1.74h-1.74zM194.9 209.11h1.74v1.74h-1.74zM194.9 212.02h1.74v1.74h-1.74zM194.9 217.86h1.74v1.74h-1.74zM194.9 220.77h1.74v1.74h-1.74zM194.9 223.69h1.74v1.74h-1.74zM194.9 226.6h1.74v1.74h-1.74zM194.9 232.44h1.74v1.74h-1.74zM194.9 235.35h1.74v1.74h-1.74zM194.9 238.27h1.74v1.74h-1.74zM197.66 177.03h1.74v1.74h-1.74zM197.66 179.95h1.74v1.74h-1.74zM197.66 182.86h1.74v1.74h-1.74zM197.66 185.78h1.74v1.74h-1.74zM197.66 188.7h1.74v1.74h-1.74zM197.66 191.61h1.74v1.74h-1.74zM197.66 194.53h1.74v1.74h-1.74zM197.66 197.44h1.74v1.74h-1.74zM197.66 200.36h1.74v1.74h-1.74zM197.66 203.28h1.74v1.74h-1.74zM197.66 206.19h1.74v1.74h-1.74zM197.66 209.11h1.74v1.74h-1.74zM197.66 212.02h1.74v1.74h-1.74zM197.66 220.77h1.74v1.74h-1.74zM197.66 223.69h1.74v1.74h-1.74zM197.66 229.52h1.74v1.74h-1.74zM197.66 232.44h1.74v1.74h-1.74zM197.66 235.35h1.74v1.74h-1.74zM197.66 238.27h1.74v1.74h-1.74zM200.43 177.03h1.74v1.74h-1.74zM200.43 179.95h1.74v1.74h-1.74zM200.43 182.86h1.74v1.74h-1.74zM200.43 185.78h1.74v1.74h-1.74zM200.43 188.7h1.74v1.74h-1.74zM200.43 191.61h1.74v1.74h-1.74zM200.43 194.53h1.74v1.74h-1.74zM200.43 197.44h1.74v1.74h-1.74zM200.43 200.36h1.74v1.74h-1.74zM200.43 203.28h1.74v1.74h-1.74zM200.43 206.19h1.74v1.74h-1.74zM200.43 209.11h1.74v1.74h-1.74zM200.43 212.02h1.74v1.74h-1.74zM200.43 214.94h1.74v1.74h-1.74zM200.43 220.77h1.74v1.74h-1.74zM200.43 226.6h1.74v1.74h-1.74zM200.43 229.52h1.74v1.74h-1.74zM200.43 232.44h1.74v1.74h-1.74zM200.43 235.35h1.74v1.74h-1.74zM200.43 238.27h1.74v1.74h-1.74zM183.65 193.66h1.74v1.74h-1.74zM183.65 196.57h1.74v1.74h-1.74zM183.65 199.49h1.74v1.74h-1.74zM183.65 202.41h1.74v1.74h-1.74zM183.65 205.32h1.74v1.74h-1.74zM183.65 208.24h1.74v1.74h-1.74zM183.65 216.99h1.74v1.74h-1.74zM183.65 219.9h1.74v1.74h-1.74zM183.65 222.82h1.74v1.74h-1.74zM183.65 225.74h1.74v1.74h-1.74zM183.65 228.65h1.74v1.74h-1.74zM183.65 231.57h1.74v1.74h-1.74zM183.65 234.48h1.74v1.74h-1.74zM186.41 193.66h1.74v1.74h-1.74zM186.41 196.57h1.74v1.74h-1.74zM186.41 199.49h1.74v1.74h-1.74zM186.41 202.41h1.74v1.74h-1.74zM186.41 205.32h1.74v1.74h-1.74zM186.41 208.24h1.74v1.74h-1.74zM186.41 216.99h1.74v1.74h-1.74zM186.41 219.9h1.74v1.74h-1.74zM186.41 222.82h1.74v1.74h-1.74zM186.41 225.74h1.74v1.74h-1.74zM186.41 228.65h1.74v1.74h-1.74zM186.41 231.57h1.74v1.74h-1.74zM186.41 237.4h1.74v1.74h-1.74z"/><path style="fill:#ebebeb" d="M250.9 98.31h3.45V287.8h-3.45zM195.98 98.31h2.92V287.8h-2.92zM141.06 98.31h2.92V287.8h-2.92z"/><path d="M429.93 357.88s4.46-9.73-.64-19.33-6.57-11.85-3.32-13.82 4.74 7.68 4.74 7.68a21.69 21.69 0 0 0 .48-13.58c-2.27-6.94-3.68-18.25-.59-19.46s.58 14.1 3.26 19.33a44.86 44.86 0 0 0 2.63-11.39c.37-5.58-.21-14.48 2.23-16.77s4-.7 1.6 11.6a128.48 128.48 0 0 0-2.38 22.31s5.3-16.14 8.85-16.61 3.55 4.76.51 9.29-8.91 12.66-9.87 16.84c0 0 5.81-12.15 11-8.43s-4.55 11.06-8.91 13.71-7.38 19.28-7.38 19.28Z" style="fill:#e0e0e0"/><path d="M433.45 361.88s-4.34-9.8.87-19.32 6.72-11.76 3.49-13.78-4.83 7.61-4.83 7.61a21.68 21.68 0 0 1-.32-13.58c2.35-6.91 3.9-18.2.83-19.46s-.76 14.1-3.5 19.28a45.18 45.18 0 0 1-2.49-11.43c-.3-5.58.39-14.47-2-16.79s-4-.76-1.74 11.58a128.62 128.62 0 0 1 2.11 22.34s-5.1-16.22-8.65-16.75-3.6 4.71-.61 9.29 8.75 12.79 9.66 17c0 0-5.66-12.23-10.94-8.59s4.42 11.13 8.75 13.85 7.15 19.38 7.15 19.38Z" style="fill:#ebebeb"/><path style="fill:#ebebeb" d="M413.41 354.89h35.89l-2.9 25.68h-30.08l-2.91-25.68zM86.89 353.06c-.13-.87-3.11-21.4 2.85-28.49a6.47 6.47 0 0 1 5-2.44c12-.28 13.68 9.39 13.7 9.48l-1.42.22c-.06-.34-1.48-8.52-12.24-8.26a5 5 0 0 0-3.89 1.92c-5.55 6.6-2.56 27.15-2.53 27.36Z"/><path d="m86.16 352.13-1.44-.05c0-.19.48-18.92-8.75-22.79-9-3.79-13.11 4-13.28 4.34l-1.28-.63c0-.09 4.82-9.33 15.12-5 10.14 4.22 9.65 23.32 9.63 24.13Z" style="fill:#ebebeb"/><path d="M86.2 353.6c0-.3-.09-29.92-5.86-38.59-5.55-8.32-14.49-4.4-14.87-4.23l-.59-1.31c.1 0 10.42-4.6 16.65 4.74 6 9 6.11 38.15 6.11 39.39Z" style="fill:#ebebeb"/><path d="M96.42 322.84s-5.26 1.94-3.7 6.51 18.18 12.1 18.18 12.1 7-6.38.57-16.75-14.91-5.13-15.05-1.86ZM80.08 313.45s3.73-.4 3.43-2.67-14.5-8.12-22.88 1.33c0 0 5.36 9.22 13.12 9.34s6.33-8 6.33-8ZM76.25 328.63s2.57-2.08-.2-3.09-16.42-.73-16.56 12.77c0 0 15.88 2.64 17.85-2.5s-1.09-7.18-1.09-7.18Z" style="fill:#e0e0e0"/><path style="fill:#ebebeb" d="M99.24 380.57H74.6l-2.66-26.97h29.96l-2.66 26.97z"/><path style="fill:#e0e0e0" d="M70.63 350.62h32.59v5.95H70.63z"/><circle cx="350.4" cy="91.64" r="14.17" style="fill:#e0e0e0"/><circle cx="350.4" cy="91.64" r="12.05" style="fill:#f0f0f0"/><path style="fill:#f0f0f0" d="M349.83 83.38v8.42l-5.58-3.16"/><path d="M349.83 92.8a1.05 1.05 0 0 1-.49-.13l-5.58-3.16a1 1 0 1 1 1-1.74l4.09 2.31v-6.7a1 1 0 0 1 2 0v8.42a1 1 0 0 1-1 1Z" style="fill:#e0e0e0"/><path style="fill:#f5f5f5" d="M358.48 124.51h62.64v82.68h-62.64z"/><path style="fill:#ebebeb" d="M379.79 133.31v36.35l14.48-.81 1.66-35.54h-16.14z"/><path style="fill:#e0e0e0" d="M391.51 140.34h22.28l-.19 31.82-11.54.18-10.55-32z"/><path style="fill:#e6e6e6" d="M369.82 135.66h5.86l-2.05 28.38-7.33 1.82 3.52-30.2z"/><path transform="rotate(180 318.08 191.295)" style="fill:#e6e6e6" d="M286.86 153.31h62.44v75.98h-62.44z"/><path style="fill:#e0e0e0" d="m301.15 210.47 32.81-32.25-35.5-5.86 2.69 38.11z"/><path style="fill:#f0f0f0" d="m333.17 202.82 1.62-24.73-24.7 6.07-1.8 18.92 24.88-.26z"/><circle cx="300.85" cy="168.02" r="9.97" transform="rotate(-45 300.845 168.016)" style="fill:#fafafa"/><path d="M329.94 211.64a4.84 4.84 0 1 1 4.84 4.84 4.84 4.84 0 0 1-4.84-4.84Z" style="fill:#e0e0e0"/><path style="fill:#f5f5f5" d="m333.63 220.14-13.97-8.5 11.74-9.67 2.23 18.17z"/><path style="fill:#e0e0e0" d="M314.39 162.97h2.75v60.67h-2.75z"/><path style="fill:#ebebeb" d="M339.89 162.97h3.55v57.99h-3.55zM293.13 203.08h18.15v18.15h-18.15z"/></g><g id="freepik--Shadow--inject-16"><ellipse id="freepik--path--inject-16" cx="250" cy="416.24" rx="193.89" ry="11.32" style="fill:#f5f5f5"/></g><g id="freepik--Weights--inject-16"><path d="M273.15 299.55h-2.78c-8.79 0-15.92 9-15.92 20.13s7.13 20.12 15.92 20.12h2.78c8.8 0 15.93-9 15.93-20.12s-7.08-20.13-15.93-20.13Z" style="fill:#263238"/><path d="M289.08 319.68c0 11.11-7.13 20.12-15.93 20.12s-15.92-9-15.92-20.12 7.13-20.13 15.92-20.13 15.93 9.01 15.93 20.13Z" style="fill:#fff;isolation:isolate;opacity:.2"/><path d="M275.8 304.77h-2.06c-6.52 0-11.8 6.67-11.8 14.91s5.28 14.91 11.8 14.91h2.06c6.51 0 11.8-6.68 11.8-14.91s-5.29-14.91-11.8-14.91Z" style="fill:#263238"/><path d="M287.6 319.68c0 8.23-5.29 14.91-11.8 14.91s-11.8-6.68-11.8-14.91 5.28-14.91 11.8-14.91 11.8 6.67 11.8 14.91Z" style="fill:#fff;isolation:isolate;opacity:.1"/><path d="M278.44 315.11h-.63c-2 0-3.62 2-3.62 4.57s1.62 4.57 3.62 4.57h.63c2 0 3.62-2.05 3.62-4.57s-1.62-4.57-3.62-4.57Z" style="fill:#263238"/><path d="M282.06 319.68c0 2.52-1.62 4.57-3.62 4.57s-3.61-2.05-3.61-4.57 1.62-4.57 3.61-4.57 3.62 2.04 3.62 4.57Z" style="fill:#fff;isolation:isolate;opacity:.2"/><path d="M274.81 262.58h-2.09c-6.6 0-11.94 6.76-11.94 15.1s5.34 15.09 11.94 15.09h2.09c6.59 0 11.94-6.76 11.94-15.09s-5.35-15.1-11.94-15.1Z" style="fill:#263238"/><ellipse cx="274.81" cy="277.68" rx="11.94" ry="15.09" style="fill:#fff;isolation:isolate;opacity:.2"/><path d="M276.79 266.49h-1.54c-4.89 0-8.85 5-8.85 11.19s4 11.18 8.85 11.18h1.54c4.89 0 8.85-5 8.85-11.18s-3.96-11.19-8.85-11.19Z" style="fill:#263238"/><ellipse cx="276.79" cy="277.68" rx="8.85" ry="11.18" style="fill:#fff;isolation:isolate;opacity:.1"/><path d="M278.77 274.25h-.47c-1.5 0-2.71 1.53-2.71 3.43s1.21 3.42 2.71 3.42h.47c1.5 0 2.72-1.53 2.72-3.42s-1.22-3.43-2.72-3.43Z" style="fill:#263238"/><ellipse cx="278.77" cy="277.68" rx="2.71" ry="3.43" style="fill:#fff;isolation:isolate;opacity:.2"/><path d="M272.43 345.53h-3.34c-10.55 0-19.1 10.81-19.1 24.15s8.55 24.15 19.1 24.15h3.34c10.56 0 19.11-10.81 19.11-24.15s-8.54-24.15-19.11-24.15Z" style="fill:#263238"/><ellipse cx="272.43" cy="369.68" rx="19.11" ry="24.15" style="fill:#fff;isolation:isolate;opacity:.2"/><path d="M275.61 351.79h-2.48c-7.81 0-14.15 8-14.15 17.89s6.34 17.89 14.15 17.89h2.48c7.81 0 14.15-8 14.15-17.89s-6.34-17.89-14.15-17.89Z" style="fill:#263238"/><path d="M289.76 369.68c0 9.88-6.34 17.89-14.15 17.89s-14.16-8-14.16-17.89 6.34-17.89 14.16-17.89 14.15 8.01 14.15 17.89Z" style="fill:#fff;isolation:isolate;opacity:.1"/><path d="M278.78 364.2H278c-2.4 0-4.34 2.45-4.34 5.48s1.94 5.49 4.34 5.49h.76c2.4 0 4.34-2.46 4.34-5.49s-1.92-5.48-4.32-5.48Z" style="fill:#263238"/><ellipse cx="278.78" cy="369.68" rx="4.34" ry="5.48" style="fill:#fff;isolation:isolate;opacity:.2"/><path style="fill:#263238" d="m407.39 396.89-2.15.3-1.85-.3-14.24 2v2.07h30.38v-2.07l-12.14-2z"/><path style="fill:#fff;isolation:isolate;opacity:.2" d="m407.39 396.89-2.15.3-1.85-.3-14.24 2v2.07h30.38v-2.07l-12.14-2z"/><path style="fill:#fff;isolation:isolate;opacity:.2" d="m405.24 397.19-12.09 1.7v2.07h-4v-2.07l14.25-2 1.84.3z"/><path style="fill:#263238" d="M403.2 276.02h4.99v121.1h-4.99z"/><path style="fill:#fff;isolation:isolate;opacity:.2" d="M403.2 276.02h4.99v121.1h-4.99z"/><path style="fill:#fff;isolation:isolate;opacity:.2" d="M403.2 276.02h2.5v121.1h-2.5z"/><path style="fill:#263238" d="m287.39 396.89-2.16.3-1.84-.3-14.25 2v2.07H299.52v-2.07l-12.13-2z"/><path style="fill:#fff;isolation:isolate;opacity:.2" d="m287.39 396.89-2.16.3-1.84-.3-14.25 2v2.07H299.52v-2.07l-12.13-2z"/><path style="fill:#fff;isolation:isolate;opacity:.2" d="m285.23 397.19-12.09 1.7v2.07h-4v-2.07l14.25-2 1.84.3z"/><path style="fill:#263238" d="M283.2 276.02h4.99v121.1h-4.99z"/><path style="fill:#fff;isolation:isolate;opacity:.2" d="M283.2 276.02h4.99v121.1h-4.99z"/><path style="fill:#fff;isolation:isolate;opacity:.2" d="M283.2 276.02h2.5v121.1h-2.5z"/><path d="M404.24 369.68a2.68 2.68 0 0 1-.48 1.59 1.46 1.46 0 0 1-.94.64H279.4c-.89 0-1.61-1-1.61-2.25a2.77 2.77 0 0 1 .47-1.59 1.42 1.42 0 0 1 1.14-.66h123.42a2.13 2.13 0 0 1 1.42 2.27Z" style="fill:#263238"/><path d="M404.24 369.68a2.68 2.68 0 0 1-.48 1.59 1.46 1.46 0 0 1-.94.64H279.4c-.89 0-1.61-1-1.61-2.25a2.77 2.77 0 0 1 .47-1.59 1.42 1.42 0 0 1 1.14-.66h123.42a2.13 2.13 0 0 1 1.42 2.27Z" style="fill:#fff;opacity:.5"/><path d="M411.44 345.53h-3.34c-10.55 0-19.11 10.81-19.11 24.15s8.56 24.15 19.11 24.15h3.34c10.55 0 19.11-10.81 19.11-24.15s-8.55-24.15-19.11-24.15Z" style="fill:#263238"/><path d="M430.55 369.68c0 13.34-8.56 24.15-19.11 24.15s-19.11-10.83-19.11-24.15 8.56-24.15 19.11-24.15 19.11 10.81 19.11 24.15Z" style="fill:#fff;isolation:isolate;opacity:.2"/><path d="M414.61 351.79h-2.47c-7.81 0-14.15 8-14.15 17.89s6.34 17.89 14.15 17.89h2.47c7.82 0 14.16-8 14.16-17.89s-6.34-17.89-14.16-17.89Z" style="fill:#263238"/><path d="M428.77 369.68c0 9.88-6.34 17.89-14.16 17.89s-14.15-8-14.15-17.89 6.34-17.89 14.15-17.89 14.16 8.01 14.16 17.89Z" style="fill:#fff;isolation:isolate;opacity:.1"/><path d="M417.79 364.2H417c-2.4 0-4.34 2.45-4.34 5.48s1.94 5.49 4.34 5.49h.76c2.39 0 4.34-2.46 4.34-5.49s-1.92-5.48-4.31-5.48Z" style="fill:#263238"/><path d="M422.13 369.68c0 3-1.95 5.49-4.34 5.49s-4.34-2.46-4.34-5.49 1.94-5.48 4.34-5.48 4.34 2.45 4.34 5.48Z" style="fill:#fff;isolation:isolate;opacity:.2"/><path d="M423.24 369.68a2.68 2.68 0 0 1-.48 1.59 1.46 1.46 0 0 1-.94.64h-3.41c-.89 0-1.61-1-1.61-2.25a2.77 2.77 0 0 1 .47-1.59 1.42 1.42 0 0 1 1.14-.66h3.41a2.13 2.13 0 0 1 1.42 2.27Z" style="fill:#263238"/><path d="M423.24 369.68a2.68 2.68 0 0 1-.48 1.59 1.46 1.46 0 0 1-.94.64 2.1 2.1 0 0 1-1.42-2.23 2.7 2.7 0 0 1 .48-1.59 1.43 1.43 0 0 1 .94-.64 2.13 2.13 0 0 1 1.42 2.23Z" style="fill:#fff;isolation:isolate;opacity:.2"/><path d="M404.24 319.68a2.68 2.68 0 0 1-.48 1.59 1.46 1.46 0 0 1-.94.64H279.4c-.89 0-1.61-1-1.61-2.25a2.77 2.77 0 0 1 .47-1.59 1.42 1.42 0 0 1 1.14-.66h123.42a2.13 2.13 0 0 1 1.42 2.27Z" style="fill:#263238"/><path d="M404.24 319.68a2.68 2.68 0 0 1-.48 1.59 1.46 1.46 0 0 1-.94.64H279.4c-.89 0-1.61-1-1.61-2.25a2.77 2.77 0 0 1 .47-1.59 1.42 1.42 0 0 1 1.14-.66h123.42a2.13 2.13 0 0 1 1.42 2.27Z" style="fill:#fff;opacity:.5"/><path d="M412.16 299.55h-2.78c-8.79 0-15.92 9-15.92 20.13s7.13 20.12 15.92 20.12h2.78c8.8 0 15.93-9 15.93-20.12s-7.09-20.13-15.93-20.13Z" style="fill:#263238"/><ellipse cx="412.16" cy="319.68" rx="15.92" ry="20.13" style="fill:#fff;isolation:isolate;opacity:.2"/><path d="M414.81 304.77h-2.06c-6.52 0-11.8 6.67-11.8 14.91s5.28 14.91 11.8 14.91h2.06c6.51 0 11.79-6.68 11.79-14.91s-5.28-14.91-11.79-14.91Z" style="fill:#263238"/><ellipse cx="414.81" cy="319.68" rx="11.8" ry="14.91" style="fill:#fff;isolation:isolate;opacity:.1"/><path d="M417.45 315.11h-.63c-2 0-3.62 2-3.62 4.57s1.62 4.57 3.62 4.57h.63c2 0 3.62-2.05 3.62-4.57s-1.62-4.57-3.62-4.57Z" style="fill:#263238"/><path d="M421.07 319.68c0 2.52-1.62 4.57-3.62 4.57s-3.61-2.05-3.61-4.57 1.61-4.57 3.61-4.57 3.62 2.04 3.62 4.57Z" style="fill:#fff;isolation:isolate;opacity:.2"/><path d="M423.24 319.68a2.68 2.68 0 0 1-.48 1.59 1.46 1.46 0 0 1-.94.64h-3.41c-.89 0-1.61-1-1.61-2.25a2.77 2.77 0 0 1 .47-1.59 1.42 1.42 0 0 1 1.14-.66h3.41a2.13 2.13 0 0 1 1.42 2.27Z" style="fill:#263238"/><path d="M423.24 319.68a2.68 2.68 0 0 1-.48 1.59 1.46 1.46 0 0 1-.94.64 2.1 2.1 0 0 1-1.42-2.23 2.7 2.7 0 0 1 .48-1.59 1.43 1.43 0 0 1 .94-.64 2.13 2.13 0 0 1 1.42 2.23Z" style="fill:#fff;isolation:isolate;opacity:.2"/><path d="M404.24 277.68a2.68 2.68 0 0 1-.48 1.59 1.46 1.46 0 0 1-.94.64H279.4c-.89 0-1.61-1-1.61-2.25a2.77 2.77 0 0 1 .47-1.59 1.42 1.42 0 0 1 1.14-.66h123.42a2.13 2.13 0 0 1 1.42 2.27Z" style="fill:#263238"/><path d="M404.24 277.68a2.68 2.68 0 0 1-.48 1.59 1.46 1.46 0 0 1-.94.64H279.4c-.89 0-1.61-1-1.61-2.25a2.77 2.77 0 0 1 .47-1.59 1.42 1.42 0 0 1 1.14-.66h123.42a2.13 2.13 0 0 1 1.42 2.27Z" style="fill:#fff;opacity:.5"/><path d="M413.81 262.58h-2.08c-6.6 0-11.94 6.76-11.94 15.1s5.34 15.09 11.94 15.09h2.08c6.6 0 11.95-6.76 11.95-15.09s-5.35-15.1-11.95-15.1Z" style="fill:#263238"/><path d="M425.76 277.68c0 8.33-5.35 15.09-11.95 15.09s-11.94-6.76-11.94-15.09 5.35-15.1 11.94-15.1 11.95 6.76 11.95 15.1Z" style="fill:#fff;isolation:isolate;opacity:.2"/><path d="M415.8 266.49h-1.55c-4.88 0-8.84 5-8.84 11.19s4 11.18 8.84 11.18h1.55c4.89 0 8.85-5 8.85-11.18s-3.96-11.19-8.85-11.19Z" style="fill:#263238"/><path d="M424.65 277.68c0 6.17-4 11.18-8.85 11.18s-8.85-5-8.85-11.18 4-11.19 8.85-11.19 8.85 5.01 8.85 11.19Z" style="fill:#fff;isolation:isolate;opacity:.1"/><path d="M417.78 274.25h-.47c-1.5 0-2.71 1.53-2.71 3.43s1.21 3.42 2.71 3.42h.47c1.5 0 2.71-1.53 2.71-3.42s-1.21-3.43-2.71-3.43Z" style="fill:#263238"/><path d="M420.49 277.68c0 1.89-1.21 3.42-2.71 3.42s-2.71-1.53-2.71-3.42 1.21-3.43 2.71-3.43 2.71 1.53 2.71 3.43Z" style="fill:#fff;isolation:isolate;opacity:.2"/><path d="M423.24 277.68a2.68 2.68 0 0 1-.48 1.59 1.46 1.46 0 0 1-.94.64h-3.41c-.89 0-1.61-1-1.61-2.25a2.77 2.77 0 0 1 .47-1.59 1.42 1.42 0 0 1 1.14-.66h3.41a2.13 2.13 0 0 1 1.42 2.27Z" style="fill:#263238"/><path d="M423.24 277.68a2.68 2.68 0 0 1-.48 1.59 1.46 1.46 0 0 1-.94.64 2.1 2.1 0 0 1-1.42-2.23 2.7 2.7 0 0 1 .48-1.59 1.43 1.43 0 0 1 .94-.64 2.13 2.13 0 0 1 1.42 2.23Z" style="fill:#fff;isolation:isolate;opacity:.2"/><path d="M284.44 279.91v4.43h-.77l-2.62-4.91.44-1.75h.75c0 2 2.2 2.23 2.2 2.23Z" style="fill:#263238"/><path d="M284.44 279.91v4.43h-.77l-2.62-4.91.44-1.75h.75c0 2 2.2 2.23 2.2 2.23Z" style="fill:#fff;isolation:isolate;opacity:.2"/><path d="M284.44 279.91v4.43h-.13l-2.62-4.91.44-1.75h.11c0 2 2.2 2.23 2.2 2.23ZM284.44 321.91v4.43h-.77l-2.62-4.91.44-1.75h.75c0 2 2.2 2.23 2.2 2.23Z" style="fill:#263238"/><path d="M284.44 321.91v4.43h-.77l-2.62-4.91.44-1.75h.75c0 2 2.2 2.23 2.2 2.23Z" style="fill:#fff;isolation:isolate;opacity:.2"/><path d="M284.44 321.91v4.43h-.13l-2.62-4.91.44-1.75h.11c0 2 2.2 2.23 2.2 2.23ZM284.44 371.92v4.43h-.77l-2.62-4.91.44-1.75h.75c0 2 2.2 2.23 2.2 2.23Z" style="fill:#263238"/><path d="M284.44 371.92v4.43h-.77l-2.62-4.91.44-1.75h.75c0 2 2.2 2.23 2.2 2.23Z" style="fill:#fff;isolation:isolate;opacity:.2"/><path d="M284.44 371.92v4.43h-.13l-2.62-4.91.44-1.75h.11c0 2 2.2 2.23 2.2 2.23Z" style="fill:#263238"/></g><g id="freepik--character-2--inject-16"><g id="freepik--group--inject-16"><path d="M361.81 264.4s4.19 43.42 1.74 63.6c-2.59 21-7.9 74.21-7.9 74.21l-5.37.53s-7.7-51.53-4.35-72c2.2-13.39-10.39-74.92-10.39-74.92Z" style="fill:#ebb376"/><path d="M342.7 266.68s-2.61 41.87-6.21 61.85c-3.74 20.79-12 73.67-12 73.67l-5.38.22s-4.84-51.87-.36-72.12c2.94-13.25 2.28-69.61 2.28-69.61ZM342.65 180.49a4.85 4.85 0 0 0 .37 3.11 6.31 6.31 0 0 0 2.45 1.81c-.76 1.47-3 2.17-3 2.17h-5.4s-2.44.54-3.36 0c-.77-.43-1.58-.84-2.3-1.33-.37-.25-1.09.38-1.44.07a8 8 0 0 0 2.91-3.67c.95-3-.07-13.48-.07-13.48l11.4 4.69s-.09.25-.22.68a34.73 34.73 0 0 0-1.34 5.95Z" style="fill:#ebb376"/><path d="M334.58 175.58s2.45 5.08 8.07 4.91a34.73 34.73 0 0 1 1.32-5.93l-.7-.25Z" style="isolation:isolate;opacity:.2"/><path d="M315.05 188.77s.61 2.92 1.48 7.62c.8 4.3 1.83 10.07 2.81 16.46.17 1.14.37 2.3.56 3.48 1.46 8.68 3.33 18.14 3.72 26.35l37.38-1.91c.27-8.13 1.35-20.48.15-34.15a121.14 121.14 0 0 0-3.46-21.15s-1.36-.07-3.69-.1h-6.05c-5.28.06-12.15.33-19.18 1.1-2 .22-3.94.47-5.89.78-2.65.4-5.3.91-7.83 1.52Z" style="fill:#ebb376"/><path d="M361.72 222.82c0 1.84-.07 3.61-.13 5.32-.08 2.33-.18 4.53-.28 6.57-.11 2.21-.21 4.23-.27 6.05l-37.42 1.92a123.08 123.08 0 0 0-1.53-13.41c-.24-1.59-.51-3.19-.78-4.77s-.6-3.44-.89-5.13c-.38-2.22-.75-4.41-1.08-6.53.21-.26.41-.52.61-.79a18.94 18.94 0 0 0 2.73-5.9 28.89 28.89 0 0 0 .9-4.79 47.37 47.37 0 0 0-.09-10.26 64.01 64.01 0 0 0-.4-2.94c-.07-.37-.12-.68-.17-.93 1.95-.31 3.93-.56 5.89-.78l.22.43a25.68 25.68 0 0 0 2.49 3.91 18.35 18.35 0 0 0 1.78 2 13 13 0 0 0 2.25 1.73 8.54 8.54 0 0 0 3.88 1.28 8.1 8.1 0 0 0 2.17-.15 8 8 0 0 0 2.85-1.13 7.36 7.36 0 0 0 3-4 12.41 12.41 0 0 0 .56-3.3 17.74 17.74 0 0 0 0-1.83h6.05c.51 2.12 1.36 5.68 2.12 8.86.46 1.9.89 3.66 1.18 4.88q0 .19.09.36a15.23 15.23 0 0 0 1.48 3.44c.67 1.22 1.49 2.51 2.28 3.71.09 1 .16 2 .22 3 .12 1.75.2 3.47.25 5.16.07 2.74.08 5.44.04 8.02Z" style="fill:#263238"/><path d="M316.53 196.39c.8 4.3 1.83 10.07 2.81 16.46.17 1.14.37 2.3.56 3.48 3.91-6.37 2.66-15.1-.56-18.26a5.75 5.75 0 0 0-2.81-1.68Z" style="isolation:isolate;opacity:.2"/><path d="M316.85 295.59c.68-26.28 5.82-55.82 5.86-59.62h39c1.69 9.49 4.5 44.26 3.51 60.33Z" style="fill:#d96a6a"/><path d="m347.48 413.67 1-4.75.18-8.56h7.16a1.75 1.75 0 0 1 2.86-1.17l1 7.91c1.81 1.62 6.07 3.33 11.73 4.57 1.26.28.86 3.32-2.22 3.32s-9.82-.23-12.05-.23c-3.63 0-5.73.18-8.62.22a1 1 0 0 1-.24 0 1.08 1.08 0 0 1-.8-1.31ZM314.88 413.67l1.05-4.75 1.58-8.56h7.17a1.75 1.75 0 0 1 2.85-1.17l-.42 7.91c1.81 1.62 6.07 3.33 11.73 4.57 1.26.28.86 3.32-2.22 3.32s-9.82-.23-12.06-.23c-3.62 0-5.72.18-8.61.22a1 1 0 0 1-.24 0 1.08 1.08 0 0 1-.83-1.31ZM295.57 250h-2.89c-3.25 0-5.9 3.34-5.9 7.46s2.65 7.46 5.9 7.46h2.89c3.26 0 5.9-3.34 5.9-7.46s-2.64-7.46-5.9-7.46Z" style="fill:#263238"/><path d="M295.57 250h-2.89c-3.25 0-5.9 3.34-5.9 7.46s2.65 7.46 5.9 7.46h2.89c3.26 0 5.9-3.34 5.9-7.46s-2.64-7.46-5.9-7.46Z" style="fill:#fff;isolation:isolate;opacity:.1"/><path d="M301.47 257.5c0 4.12-2.64 7.46-5.9 7.46s-5.9-3.34-5.9-7.46 2.64-7.46 5.9-7.46 5.9 3.34 5.9 7.46Z" style="fill:#fff;isolation:isolate;opacity:.2"/><path d="M307.35 254.6h-10.73c-1.27 0-2.29 1.3-2.29 2.9s1 2.9 2.29 2.9h10.73a3 3 0 0 0 0-5.8Z" style="fill:#263238"/><path d="M320.45 187.83s-6.47-2.89-10.46 0-5.82 12.45-5.82 12.45-4.69 16-6 18.64.05 29.36.05 29.36l4.94.25s5.4-16.88 2.68-25.89c-.54-1.8 7.4-3.18 12.25-17.65 0 0 3.17-5.72 3.53-9.71a16.78 16.78 0 0 0-1.17-7.45Z" style="fill:#ebb376"/><path d="M298.2 248.28s-3.94 8.43-3.87 10.33 9 3.38 9 3.38 2.34-8.22 1.69-9.27-1.77-6.85-1.77-6.85Z" style="fill:#ebb376"/><path d="M311 250h-2.89c-3.26 0-5.9 3.34-5.9 7.46s2.64 7.46 5.9 7.46H311c3.26 0 5.9-3.34 5.9-7.46S314.21 250 311 250Z" style="fill:#263238"/><path d="M311 250h-2.89c-3.26 0-5.9 3.34-5.9 7.46s2.64 7.46 5.9 7.46H311c3.26 0 5.9-3.34 5.9-7.46S314.21 250 311 250Z" style="fill:#fff;isolation:isolate;opacity:.1"/><ellipse cx="310.95" cy="257.5" rx="5.9" ry="7.46" style="fill:#fff;isolation:isolate;opacity:.2"/><path d="m397.92 183.09 2.88-.05c3.26-.07 5.84-3.46 5.76-7.57s-2.79-7.41-6.05-7.35l-2.88.06c-3.26.06-5.84 3.45-5.76 7.57s2.79 7.41 6.05 7.34Z" style="fill:#263238"/><path d="m397.92 183.09 2.88-.05c3.26-.07 5.84-3.46 5.76-7.57s-2.79-7.41-6.05-7.35l-2.88.06c-3.26.06-5.84 3.45-5.76 7.57s2.79 7.41 6.05 7.34Z" style="fill:#fff;isolation:isolate;opacity:.1"/><path d="M391.87 175.75c-.08-4.12 2.5-7.51 5.76-7.57s6 3.22 6 7.34-2.49 7.51-5.75 7.57-5.88-3.22-6.01-7.34Z" style="fill:#fff;isolation:isolate;opacity:.2"/><path d="m386.05 178.76 10.73-.21c1.26 0 2.27-1.34 2.23-2.94s-1.08-2.88-2.35-2.85l-10.73.21c-1.26 0-2.26 1.34-2.23 2.94s1.08 2.88 2.35 2.85Z" style="fill:#263238"/><path d="M395.32 184.91s3.78-8.51 3.67-10.41-9.09-3.19-9.09-3.19-2.18 8.26-1.51 9.3 1.9 6.81 1.9 6.81Z" style="fill:#ebb376"/><path d="M382.54 183.39h2.89c3.25-.07 5.83-3.46 5.75-7.57s-2.79-7.41-6.05-7.35l-2.88.06c-3.26.06-5.83 3.45-5.75 7.57s2.78 7.36 6.04 7.29Z" style="fill:#263238"/><path d="M382.54 183.39h2.89c3.25-.07 5.83-3.46 5.75-7.57s-2.79-7.41-6.05-7.35l-2.88.06c-3.26.06-5.83 3.45-5.75 7.57s2.78 7.36 6.04 7.29Z" style="fill:#fff;isolation:isolate;opacity:.1"/><path d="M376.5 176.05c-.08-4.12 2.49-7.51 5.75-7.57s6 3.22 6.05 7.34-2.5 7.51-5.76 7.57-5.96-3.22-6.04-7.34Z" style="fill:#fff;isolation:isolate;opacity:.2"/><path d="M357.73 185.47s5.9-4.58 9.73-2.68 5 7.23 5 7.23a23.09 23.09 0 0 0 5.52 3.42c2.85 1.14 3.8 4.56 3.8 4.56l1.9 3.42c.2-4.23 6.84-18.44 6.84-18.44l5.14 1s-4.95 24.73-8.75 27.57-17.87-5.8-25.12-12.22l-2.26.81Z" style="fill:#ebb376"/><path d="m341.13 295.94 2.51-20.46 7.71-10.48-5.11 12.3s2.94 11.84 2.94 18.68Z" style="isolation:isolate;opacity:.2"/><path d="M350.62 154s3.39 9.91-1.81 13.3-4.34-14.23-4.34-14.23Z" style="fill:#263238"/><path d="M333.84 174.1a8.63 8.63 0 0 0 9.71 3.82 9.59 9.59 0 0 0 5.68-4.18c.18-.28.34-.58.5-.89 2.76-5.67 4-15.75-1.88-19.85a9.32 9.32 0 0 0-13 2.29 9.2 9.2 0 0 0-1.6 4c-1.07 6.76-2.02 10.71.59 14.81Z" style="fill:#ebb376"/><path d="M343 163.42a.85.85 0 0 0 .43 1.12c.36.08.73-.3.86-.84s-.08-1-.43-1.12-.78.3-.86.84ZM349.08 164.78c-.16.53.07 1.05.42 1.12s.74-.3.86-.84-.07-1-.42-1.12-.75.33-.86.84Z" style="fill:#263238"/><path d="M347.07 164.62a19.81 19.81 0 0 0 1.56 5.21 3.21 3.21 0 0 1-2.71-.1Z" style="fill:#d58745"/><path d="M342.26 161a.34.34 0 0 0 .34 0 2.61 2.61 0 0 1 2.33-.34.31.31 0 0 0 .42-.16.33.33 0 0 0-.16-.43 3.21 3.21 0 0 0-2.94.38.32.32 0 0 0-.1.45.32.32 0 0 0 .11.1ZM351.93 162.5a.24.24 0 0 0 .18-.05.33.33 0 0 0 0-.46 3.19 3.19 0 0 0-2.82-.94.32.32 0 0 0-.25.38.33.33 0 0 0 .39.25 2.59 2.59 0 0 1 2.22.78.34.34 0 0 0 .28.04ZM351.29 168.72c0 .07-.07.15-.11.22a10.34 10.34 0 0 1-2.69 3.27c-1.24-2.42-4.39-1.91-4.39-1.91a4.27 4.27 0 0 0-2.12-2.09c-1.37-.45-5.34-1.09-5.34-1.09-.64-.62-.65-2.1-.54-3.23a12.09 12.09 0 0 1 .19-1.44l-.91.47s-.07.21-.18.57c-.1.37-.26.89-.43 1.55-.26.94-.54 2.11-.78 3.36a29.74 29.74 0 0 0-.49 3.37c0 .53-.07 1.07-.07 1.56a10.93 10.93 0 0 0 .16 1.79 3.86 3.86 0 0 0 .81 1.84 10.68 10.68 0 0 0 3.59 2.46c.24.11.48.2.72.29 2.71.95 5.85.93 8.22-1.1 3.9-3.27 4.36-9.89 4.36-9.89Zm-11.12.26a5.2 5.2 0 0 1 3.63 1.71s3.85.47 3.34 3.59-3.71 3.25-4.69 2.13c-.83-.95.07-1.87.37-2.13l.08-.07-1.21-.74a.64.64 0 0 1-.1.13 2.42 2.42 0 0 1-4.13-.09l-.08-.12a3 3 0 0 1-.25-.62 3.12 3.12 0 0 1 3.04-3.77Z" style="fill:#263238"/><path d="M346 172a21.72 21.72 0 0 0-1.42 2.79l-.53-.13c-2.42-.61-3.34-1.69-3.63-2.7a3.19 3.19 0 0 1 0-1.53 3.22 3.22 0 0 1 .28-.82 11.73 11.73 0 0 0 4.51 2.17c.46.16.79.22.79.22Z" style="fill:#263238"/><path d="m345.17 171.79-.44.81c-2.28-.57-3.81-1.29-4.35-2.16a3.22 3.22 0 0 1 .28-.82 11.73 11.73 0 0 0 4.51 2.17Z" style="fill:#fff"/><path d="M344 174.67c-2.42-.61-3.34-1.69-3.63-2.7a7.78 7.78 0 0 1 2.55 1.2 3 3 0 0 1 1.08 1.5Z" style="fill:#de5753"/><path d="M341.16 148.79c-7.12-.3-12.1 4.29-10.59 15.12.86 6.12 2.77 9 2.77 9-1.31-3-.6-8.64.36-8.74s.82 1 .82 1c2.18-1.21 4.6-4.92 3.73-7.48-2-6 5.34-6.5 7.13-4.26 0 0 3.72 2.37 5.24.53s-2.87-8.44-9.46-5.17Z" style="fill:#263238"/><path d="M329.15 164.13a6.47 6.47 0 0 0 2.92 4c1.94 1.17 3.52-.43 3.49-2.58 0-1.92-1.08-4.9-3.29-5.17a2.89 2.89 0 0 0-3.12 3.75Z" style="fill:#ebb376"/><path d="M344.23 246.08a.28.28 0 0 1-.2-.1.25.25 0 0 1 .05-.35c1.28-1 1.8-4.12 2-5.71-.79 1.07-2.32 2.86-3.76 3.15a1.73 1.73 0 0 1-1.39-.26c-.9-.62-1-1.22-.85-1.62.33-1.23 2.75-2.17 6.31-2.44h.22c1 0 5 .1 6.06 1.68a1.69 1.69 0 0 1 .11 1.71 1.51 1.51 0 0 1-1.2 1.05c-1.39.19-3.29-1.65-4.43-2.92.64 1.66 1.78 4.39 2.71 5.39a.25.25 0 0 1 0 .35.25.25 0 0 1-.36 0c-1.06-1.14-2.31-4.24-2.93-5.87-.21 1.69-.77 4.84-2.17 5.9a.27.27 0 0 1-.17.04Zm2.7-6.83c1.07 1.3 3.28 3.63 4.57 3.45a1.06 1.06 0 0 0 .81-.75 1.23 1.23 0 0 0-.06-1.24c-.78-1.14-3.74-1.43-5.32-1.46Zm-1 0c-3.4.34-5.13 1.24-5.35 2-.11.44.29.83.66 1.08a1.23 1.23 0 0 0 1 .18c1.4-.21 3.01-2.3 3.66-3.22Z" style="fill:#fff"/><g style="opacity:.1"><path d="M329.78 230.19c-1.57.19-2.91-.67-5.33-1a8.23 8.23 0 0 0-2.36.08c-.24-1.59-.51-3.19-.78-4.77 2.05-.73 5.09-1.7 6.11-1.44 1.58.39 2.76 3.36 4.74 3.36s5.55-.79 6.24 1-7.06 2.58-8.62 2.77ZM361.59 228.15c-.08 2.33-.18 4.53-.28 6.57-1.13.11-2.38.2-3.58.21-3.56 0-3.21-1.18-6-2s-6.09.79-12.44 0 3.77-1.78 8.79-2.74 4.87-1.22 8.7-1.81a28.32 28.32 0 0 1 4.81-.23ZM361.72 222.82c-3.52.13-8.55.55-10.43.19-2.91-.55-3.52-1.69-6.87-2s-11.36.47-7.36-2.49c3.76-2.79 10.65-1.17 12-1s-.72 3.59 1.59 3.47 8.05.52 9 0 2.37-1.48 0-3.47-.43-2.76 2-2.78c.1 2.8.11 5.5.07 8.08ZM333.42 215.35c-4.42 0-4.22 3-6.6 2.19-1.1-.37-3.84.73-6.4 1.84-.38-2.22-.75-4.41-1.08-6.53.21-.26.41-.52.61-.79 2.14-.55 4.81-.91 6.48 0 3.16 1.71 3.55.52 5.73 1.12s5.68 2.17 1.26 2.17ZM361.41 209.6c-.68.4-1.39.83-2 1.24-2 1.3-2-.24-3.7-.1a11.66 11.66 0 0 1-3 0c-1.68-.14-.55-1.06 0-1.45s2.49-1.06 1.56-1.45a11.22 11.22 0 0 0-6.19-.93c-3.16.4-7.79.4-6.93-.55s2.44-.9 4.34-1.43a37.11 37.11 0 0 1 5.86-.92c1.69-.21 5.27-.82 7.58-1.1.67 1.22 1.49 2.51 2.28 3.71.07 1 .14 1.99.2 2.98ZM335.54 201.64c.25 1.05-5.29 1.58-7.79 2.9s-2.38 2.33-4.35 1.82l-.72-.2a28.89 28.89 0 0 0 .9-4.79c2.52-.4 3.36.39 6.37.27 3.47-.13 5.34-1.05 5.59 0ZM338.46 209.1a1 1 0 0 1-.26-.35l-.15-.22v-.06a4 4 0 0 1-1-.16.63.63 0 0 1-.43-.75 8.15 8.15 0 0 1-1.15-.22c-1.21-.4-1.23-.29-3.8 0a2.5 2.5 0 0 0-2.11 2.21c0 .76 4.09.16 6.42.14a7.41 7.41 0 0 0 2.58-.57ZM357.34 199.11a22.78 22.78 0 0 1-3.88.94c-4 .59-7.51.8-6.19 0s.78-1.18 0-1.45-2.91.27-4.12 0a8.82 8.82 0 0 1-3.71-2.79 8.1 8.1 0 0 0 2.17-.15 8 8 0 0 0 2.85-1.13 26.44 26.44 0 0 0 8.21.12c1.37-.19 2.54-.33 3.48-.42.47 1.9.9 3.66 1.19 4.88ZM331.52 190.8a6.34 6.34 0 0 1-2.46.29c-3.55-.27-4.42.17-5.57 0a64.01 64.01 0 0 0-.4-2.94c1.54-.43 4-.94 5.94-1.28a25.68 25.68 0 0 0 2.49 3.93ZM351.29 187.42a4.57 4.57 0 0 1-3.82 3.07 12.41 12.41 0 0 0 .56-3.3c1.97-.59 3.66-1.38 3.26.23ZM334 196.38c.15.8-.67.64-1.8.76s-3.09-.65-4.71-.76-1-1.73 0-2 3-1 5.85-1.58a13 13 0 0 0 2.25 1.73c-1.18.68-1.78 1.04-1.59 1.85Z" style="fill:#fff"/></g><path d="m347.48 413.67 1-4.75.18-8.56h7.16a1.75 1.75 0 0 1 2.86-1.17l1 7.91c1.81 1.62 6.07 3.33 11.73 4.57 1.26.28.86 3.32-2.22 3.32s-9.82-.23-12.05-.23c-3.63 0-5.73.18-8.62.22a1 1 0 0 1-.24 0 1.08 1.08 0 0 1-.8-1.31ZM314.88 413.67l1.05-4.75 1.58-8.56h7.17a1.75 1.75 0 0 1 2.85-1.17l-.42 7.91c1.81 1.62 6.07 3.33 11.73 4.57 1.26.28.86 3.32-2.22 3.32s-9.82-.23-12.06-.23c-3.62 0-5.72.18-8.61.22a1 1 0 0 1-.24 0 1.08 1.08 0 0 1-.83-1.31Z" style="fill:#fff;opacity:.6"/></g></g><g id="freepik--Treadmill--inject-16"><path style="fill:#263238" d="m90.8 318.34 10.62-65.23-4.03-5.56h-2.78l-12.44 71.66 8.78 87.17H105.08L90.8 318.34z"/><path style="fill:#fff;opacity:.3" d="m94.61 247.55 4.03 5.56-10.61 65.23 14.27 88.04H90.95l-8.78-87.17 12.44-71.66z"/><path style="fill:#263238" d="m150.02 318.34 10.61-65.23-4.03-5.56h-2.77l-12.45 71.66 8.79 87.17h14.12l-14.27-88.04z"/><path style="fill:#fff;opacity:.3" d="m153.83 247.55 4.02 5.56-10.61 65.23 14.27 88.04h-11.34l-8.79-87.17 12.45-71.66z"/><path d="M169.28 409.59v-16.87a5.18 5.18 0 0 1 6.14-5.08L264 404.51a5.17 5.17 0 0 1 4.21 5.08 5.18 5.18 0 0 1-5.18 5.17h-88.57a5.18 5.18 0 0 1-5.18-5.17Z" style="fill:#263238"/><path d="M268.15 409.58a5.16 5.16 0 0 1-5.17 5.17h-88.53a5.17 5.17 0 0 1-5.17-5.17v-16.86a5.12 5.12 0 0 1 2.44-4.38 5.18 5.18 0 0 1 3.71-.7L264 404.5a5.17 5.17 0 0 1 4.15 5.08Z" style="fill:#fff;opacity:.3"/><path d="M260.75 409.58a5.16 5.16 0 0 1-5.17 5.17h-81.13a5.17 5.17 0 0 1-5.17-5.17v-16.86a5.12 5.12 0 0 1 2.44-4.38l84.83 16.16a5.17 5.17 0 0 1 4.2 5.08Z" style="fill:#fff;opacity:.3"/><path d="M82.17 389.93v21.93H257v-3.21a2.93 2.93 0 0 0-2.37-2.87l-82.93-15.85Z" style="fill:#263238"/><path d="M256.2 412.7h-85.46v-3.48h85.46a1.74 1.74 0 0 1 1.74 1.74 1.74 1.74 0 0 1-1.74 1.74Z" style="fill:#263238"/><path d="M256.2 412.7h-85.46v-3.48h85.46a1.74 1.74 0 0 1 1.74 1.74 1.74 1.74 0 0 1-1.74 1.74Z" style="fill:#fff;opacity:.2"/><path d="M75.84 409.59v-16.87a5.17 5.17 0 0 1 6.16-5.08l88.53 16.87a5.17 5.17 0 0 1 4.2 5.08 5.18 5.18 0 0 1-5.17 5.17H81a5.17 5.17 0 0 1-5.16-5.17Z" style="fill:#263238"/><path d="M174.71 409.58a5.17 5.17 0 0 1-5.17 5.17H81a5.16 5.16 0 0 1-5.17-5.17v-16.86a5.18 5.18 0 0 1 6.17-5.08l88.53 16.86a5.18 5.18 0 0 1 4.18 5.08Z" style="fill:#fff;opacity:.3"/><path d="M167.31 409.58a5.17 5.17 0 0 1-5.17 5.17H81a5.16 5.16 0 0 1-5.17-5.17v-16.86a5.13 5.13 0 0 1 2.43-4.38l84.84 16.16a5.18 5.18 0 0 1 4.21 5.08Z" style="fill:#fff;opacity:.3"/><path d="M86.25 261.58a2.39 2.39 0 0 1-1-.24l-17-8.5a2.31 2.31 0 0 1 1-4.38h108.47a2 2 0 0 1 .42 0l33.73 6.22a2.31 2.31 0 0 1-.84 4.55l-33.53-6.19H79l8.25 4.12a2.31 2.31 0 0 1-1 4.38Z" style="fill:#263238"/><path d="m94.61 247.55 2.15-1.84a3.62 3.62 0 0 1 2.37-.88H148a13.87 13.87 0 0 1 6.43 1.59l.7.37a13.11 13.11 0 0 1 3.75 2.9 5.68 5.68 0 0 1 1.71 3.42H98.46s.67-4.8-3.85-5.56Z" style="fill:#263238"/><path d="M105 234.77h34.34a4.85 4.85 0 0 1 4.81 4.3l1.49 13a4.85 4.85 0 0 1-4.82 5.4h-22.51a4.85 4.85 0 0 1-3.38-1.38l-13.28-13a4.85 4.85 0 0 1-.81-5.89 4.86 4.86 0 0 1 4.16-2.43Z" style="fill:#263238"/><path d="M105 234.77h34.34a4.85 4.85 0 0 1 4.81 4.3l1.49 13a4.85 4.85 0 0 1-4.82 5.4h-22.51a4.85 4.85 0 0 1-3.38-1.38l-13.28-13a4.85 4.85 0 0 1-.81-5.89 4.86 4.86 0 0 1 4.16-2.43Z" style="fill:#fff;opacity:.3"/><path style="fill:#263238" d="M110.43 238.06h27.07l3.67 10.86h-23.79l-6.95-10.86z"/><path style="fill:#d96a6a" d="m114.74 238.06 5.98 10.86h17.81l-3.78-10.86h-20.01z"/></g><g id="freepik--character-1--inject-16"><path d="M195 279.66c-.11.65-.24 1.31-.37 2a186.34 186.34 0 0 1-6.05 22.34c-4.27 12.86-9.08 24.22-10.88 28.09-2.93 6.29-21.86 60.91-21.86 60.91l-4.49-.92s10.31-50.63 13.66-66.95c.19-.92.35-1.73.49-2.42.92-4.44 6.87-28.69 10-41.48.26-1 .49-2 .71-2.87.76-3.12 1.24-5.06 1.24-5.06s-14.81-10.69-16-29.21a37.43 37.43 0 0 1 0-4.62l27-1.41s10.18 21.41 6.55 41.6Z" style="fill:#b55b52"/><path d="M188.58 304c-4.27 12.86-9.08 24.22-10.88 28.09-2.93 6.29-21.86 60.91-21.86 60.91l-4.49-.92s10.31-50.63 13.66-66.95c.19-.92.35-1.73.49-2.42.92-4.44 6.87-28.69 10-41.48.26-1 .49-2 .71-2.87 2.37-4.18 4.33-6.08 5.6-4.74 5.01 5.29 6.42 19.99 6.77 30.38Z" style="isolation:isolate;opacity:.2"/><path d="m179.25 314.44-11.84 12.35c6.2 1.93 11.72 3.19 16.87 5 12.07 4.23 60.79 18.8 60.79 18.8L246 346s-38.39-23.15-64.12-29.55Z" style="fill:#b55b52"/><path d="M242.39 342.43c-.6 0-.36 7.46-.36 7.46s4.52 4.72 5.43 9.21 3.66 2.08 3.81-2.9.27-8.77.38-12.31-2.97-1.42-9.26-1.46Z" style="fill:#d96a6a"/><path d="M243.82 353.86a1.08 1.08 0 0 1-.2.66.71.71 0 0 1-.8.15.79.79 0 0 1-.49-.41 3 3 0 0 1-.14-1.68c-.34.6-.75 1.12-1.14 1.13s-.46-.17-.61-.51a1.17 1.17 0 0 1 0-1c.45-1 2.2-1.56 2.29-1.59h.14a.18.18 0 0 1 .05.07 9.41 9.41 0 0 1 .9 3.18Zm-1.28-.67a1.88 1.88 0 0 0 .13.88.43.43 0 0 0 .26.22c.29.09.36 0 .39 0 .3-.35-.07-1.72-.5-2.83a8.3 8.3 0 0 0-.28 1.73Zm-1.81-.5a.87.87 0 0 0 .07.35c0 .1.14.28.24.27.34 0 1-1.05 1.4-2.14a3.18 3.18 0 0 0-1.64 1.23.77.77 0 0 0-.07.29Z" style="fill:#d96a6a"/><path d="M191.9 238.51s-5.39 3.19-6.08 3.24-3.77 0-3.83-.23-.16-4.7-.16-4.7l4.89-2.31s3-.49 4.57.25Z" style="fill:#b55b52"/><path d="M191.93 202.43a61.83 61.83 0 0 1 9.35 8.18 41.47 41.47 0 0 1 7.37 10.44 24.66 24.66 0 0 1 1.23 3.18 9.72 9.72 0 0 1 .31 1.12 5.91 5.91 0 0 1 .09 1.73 6.49 6.49 0 0 1-1 2.87 10.52 10.52 0 0 1-3 3 18.69 18.69 0 0 1-2.95 1.71 45.2 45.2 0 0 1-11.8 3.53 2 2 0 0 1-1.18-3.8h.09a72.25 72.25 0 0 0 9.78-5.18 17.55 17.55 0 0 0 1.92-1.49 3.52 3.52 0 0 0 1-1.23c0-.11-.05-.06-.08.12s.08.63-.14 0a18.17 18.17 0 0 0-1-2.19 39.48 39.48 0 0 0-6.43-8.26c-1.27-1.29-2.64-2.51-4-3.73s-2.87-2.39-4.2-3.4l-.1-.07a4 4 0 0 1 4.74-6.53ZM178.26 187.53c-.75 4 0 10.67 2.77 13.2 0 0-2.69 4-10.09 4.26-8.14.3-3.93-3.85-3.93-3.85 4.43-1.22 4.29-4.47 3.49-7.51Z" style="fill:#b55b52"/><path d="M162.05 181.78c.06.53-.18 1-.53 1.05s-.68-.35-.74-.88.18-1 .54-1 .68.3.73.83Z" style="fill:#263238"/><path d="m161.47 180.91-1.32-.2s.76.91 1.32.2Z" style="fill:#263238"/><path d="M161.66 182.36a14.68 14.68 0 0 1-1.56 3.64 2.31 2.31 0 0 0 2 .11Z" style="fill:#a02724"/><path d="M161 178.32a.27.27 0 0 0 .15 0 2.61 2.61 0 0 1 2.33 0 .32.32 0 0 0 .43-.12.31.31 0 0 0-.11-.43 3.27 3.27 0 0 0-2.92 0 .31.31 0 0 0-.15.42.31.31 0 0 0 .27.13Z" style="fill:#263238"/><path d="M179.86 177.91c.29 6.6.55 9.39-2.42 13.19-4.48 5.72-12.69 4.87-15-1.45-2-5.69-2.16-15.53 4-19a8.84 8.84 0 0 1 13.42 7.26Z" style="fill:#b55b52"/><path d="M157.59 392.11c.13-.59-7.22-1.9-7.22-1.9s-5.56 3.44-10.14 3.4-2.79 3.14 2.05 4.33l12 2.92c3.39.84 1.96-2.61 3.31-8.75Z" style="fill:#d96a6a"/><path d="M146.11 391.13a1.05 1.05 0 0 1-.6-.33.72.72 0 0 1 0-.82.8.8 0 0 1 .5-.39 3 3 0 0 1 1.67.22c-.51-.46-.93-1-.86-1.35s.25-.42.62-.5a1.16 1.16 0 0 1 .94.21c.88.64 1.08 2.47 1.09 2.56a.19.19 0 0 1 0 .08v.06h-.07a9.47 9.47 0 0 1-3.29.26ZM147 390a1.74 1.74 0 0 0-.89 0 .4.4 0 0 0-.27.2c-.14.26-.07.36 0 .39.27.37 1.69.29 2.87.1A8.51 8.51 0 0 0 147 390Zm.86-1.67a.69.69 0 0 0-.35 0c-.11 0-.3.08-.32.18-.06.33.84 1.14 1.81 1.81a3.24 3.24 0 0 0-.86-1.86.79.79 0 0 0-.25-.11Z" style="fill:#d96a6a"/><path d="M163.67 208.66c-1.75 3.4-3.57 6.71-5.5 10a116.4 116.4 0 0 1-6.28 9.85c-.32.42-.64.84-1 1.32l-.33.37c-.14.14-.2.23-.41.42l-.28.26a4.3 4.3 0 0 1-.36.29 5 5 0 0 1-1.15.64 4.68 4.68 0 0 1-3 .15 5.41 5.41 0 0 1-1.83-.94 8.19 8.19 0 0 1-1.63-1.8 18.9 18.9 0 0 1-1.62-3c-.41-1-.75-1.93-1.07-2.88a69.47 69.47 0 0 1-2.59-11.4 2 2 0 0 1 3.84-1.08c1.47 3.4 2.9 6.88 4.51 10.07.4.79.81 1.57 1.24 2.28a11.08 11.08 0 0 0 1.25 1.83c.18.2.39.36.31.25a1.56 1.56 0 0 0-.58-.29 2.57 2.57 0 0 0-1.59.07 2.41 2.41 0 0 0-.54.28l-.09.07s0-.07.06-.1l.13-.16c.19-.26.41-.6.64-1 .9-1.43 1.83-3 2.72-4.63l2.69-4.87 5.34-9.85a4 4 0 0 1 7.14 3.77Z" style="fill:#b55b52"/><path d="M136.18 210.52s-1.06-6.18-.85-6.85 1.35-3.52 1.59-3.49 4.44 1.53 4.44 1.53l.4 5.4s-.61 3-1.86 4.17Z" style="fill:#b55b52"/><path d="M163.14 177.86s2.82 13.24 14.3 13.24c1.58 0 4.72-3.62 6-10.2a11.4 11.4 0 0 0-8.32-12.9c-11.7-3.08-15.01 8.69-11.98 9.86Z" style="fill:#263238"/><path d="M166.55 181.87a6 6 0 0 1-.5 3.57c-.73 1.56-2 1.43-2.52.24s-.69-3.19.4-4.39 2.35-.76 2.62.58ZM181 271c-.48 2.75-.93 6.09-1.33 9.69C178 296.15 177 316.6 177 316.6l-9.56 10.19a9.46 9.46 0 0 1-2.4-1.66c-7-6.48-8.28-24.22-7.65-41.46a337 337 0 0 1 4.11-39.59c.55.33 22.02 12.54 19.5 26.92ZM192.94 203.11a91 91 0 0 0-4.16 15.16c-.07.31-.12.61-.17.92a66.4 66.4 0 0 0-.93 8.4 40.34 40.34 0 0 0 .79 10.47l-27 1.41s-1-3-2.15-7.59c-.54-2.22-1.11-4.81-1.6-7.6-.07-.45-.15-.91-.22-1.37-1-6.17-1.5-13.11-.43-19.07a32.57 32.57 0 0 1 6.49-3.25l1.27-.45c.91-.32 1.89-.61 2.93-.88L169 199a38.21 38.21 0 0 1 6.09-.85 29.09 29.09 0 0 1 7.1.48c.37.08.72.15 1.07.24a25.44 25.44 0 0 1 2.89.84c.34.11.67.23 1 .35a24.11 24.11 0 0 1 5.79 3.05Z" style="fill:#b55b52"/><path d="M188.78 218.27c-.07.31-.12.61-.17.92a66.4 66.4 0 0 0-.93 8.4l-.82 2.61-27.54 1.68c-.54-2.22-1.11-4.81-1.6-7.6-.07-.45-.15-.91-.22-1.37 2.89-2 11-8 11.78-11.63s-4.21-9.16-5.72-10.69l1.27-.45c.91-.32 1.89-.61 2.93-.88L169 199c1.32 1.94 4.71 6.3 7.95 6.05 3.43-.25 4.85-4.84 5.24-6.42.37.08.72.15 1.07.24a25.44 25.44 0 0 1 2.89.84c.34.11.67.23 1 .35-.7 2.44-2.35 8.48-2.26 11.27.11 2.3 2.35 5.23 3.89 6.94Z" style="fill:#263238"/><path d="m188.47 238.06-27 1.41s-1-3-2.15-7.59c-.54-2.22-1.11-4.81-1.6-7.6 3.43-1.89 12.81-7.53 12.91-12.51.09-4.55-3.81-9.44-5.8-11.63.91-.32 1.89-.61 2.93-.88 2.41 2.76 6.73 7 10.06 6.48s4.87-4.53 5.46-6.92a25.44 25.44 0 0 1 2.89.84c-1.15 3.44-3.22 10.27-2.52 12.6.57 1.9 3.07 4.87 5 6.93a66.4 66.4 0 0 0-.93 8.4 40.34 40.34 0 0 0 .75 10.47Z" style="fill:#d96a6a"/><path d="M195 279.66c-.11.65-.24 1.31-.37 2l-13.44-1.17-1.53.2-4.18.57-18.16 2.44a337 337 0 0 1 4.11-39.59 37.43 37.43 0 0 1 0-4.62l27-1.41s10.2 21.39 6.57 41.58Z" style="fill:#263238"/><path d="m179.7 280.66 2.13-6.18s7.69-.37 11.11-4.15c0 0-2.18 6.85-7.43 10.5Z" style="isolation:isolate;opacity:.2"/><path d="M177 169.42s.56-4.22 6.69-6.33 7.22 12.26 10.88 15.74 7.41-1 7.41-1-.18 6.92-7.5 6.92-13.82-10.95-13.82-10.95l-3-.76Z" style="fill:#263238"/><path d="M242.39 342.43c-.6 0-.36 7.46-.36 7.46s4.52 4.72 5.43 9.21 3.66 2.08 3.81-2.9.27-8.77.38-12.31-2.97-1.42-9.26-1.46ZM157.59 392.11c.13-.59-7.22-1.9-7.22-1.9s-5.56 3.44-10.14 3.4-2.79 3.14 2.05 4.33l12 2.92c3.39.84 1.96-2.61 3.31-8.75Z" style="fill:#fff;opacity:.6"/></g></svg>